<?xml version="1.0" encoding="UTF-8" standalone="no"?>
<!-- Created with Inkscape (http://www.inkscape.org/) -->

<svg
   xmlns:ns1="http://wanglongqi.github.io/WriteTeX"
   xmlns:dc="http://purl.org/dc/elements/1.1/"
   xmlns:cc="http://creativecommons.org/ns#"
   xmlns:rdf="http://www.w3.org/1999/02/22-rdf-syntax-ns#"
   xmlns:svg="http://www.w3.org/2000/svg"
   xmlns="http://www.w3.org/2000/svg"
   xmlns:sodipodi="http://sodipodi.sourceforge.net/DTD/sodipodi-0.dtd"
   xmlns:inkscape="http://www.inkscape.org/namespaces/inkscape"
   width="74.173088mm"
   height="18.858068mm"
   viewBox="0 0 74.173087 18.858069"
   version="1.1"
   id="svg8"
   inkscape:version="0.92.4 (5da689c313, 2019-01-14)"
   sodipodi:docname="espacoestadosBlocoSimples2.svg">
  <defs
     id="defs2">
    <marker
       inkscape:stockid="Arrow1Mend"
       orient="auto"
       refY="0"
       refX="0"
       id="Arrow1Mend"
       style="overflow:visible"
       inkscape:isstock="true">
      <path
         id="path828"
         d="M 0,0 5,-5 -12.5,0 5,5 Z"
         style="fill:#000000;fill-opacity:1;fill-rule:evenodd;stroke:#000000;stroke-width:1.00000003pt;stroke-opacity:1"
         transform="matrix(-0.4,0,0,-0.4,-4,0)"
         inkscape:connector-curvature="0" />
    </marker>
    <marker
       inkscape:stockid="Arrow1Lend"
       orient="auto"
       refY="0"
       refX="0"
       id="marker1103"
       style="overflow:visible"
       inkscape:isstock="true">
      <path
         id="path1101"
         d="M 0,0 5,-5 -12.5,0 5,5 Z"
         style="fill:#000000;fill-opacity:1;fill-rule:evenodd;stroke:#000000;stroke-width:1.00000003pt;stroke-opacity:1"
         transform="matrix(-0.8,0,0,-0.8,-10,0)"
         inkscape:connector-curvature="0" />
    </marker>
    <marker
       inkscape:stockid="Arrow1Lend"
       orient="auto"
       refY="0"
       refX="0"
       id="Arrow1Lend"
       style="overflow:visible"
       inkscape:isstock="true">
      <path
         id="path822"
         d="M 0,0 5,-5 -12.5,0 5,5 Z"
         style="fill:#000000;fill-opacity:1;fill-rule:evenodd;stroke:#000000;stroke-width:1.00000003pt;stroke-opacity:1"
         transform="matrix(-0.8,0,0,-0.8,-10,0)"
         inkscape:connector-curvature="0" />
    </marker>
    <marker
       inkscape:stockid="Arrow1Mend"
       orient="auto"
       refY="0"
       refX="0"
       id="Arrow1Mend-3"
       style="overflow:visible"
       inkscape:isstock="true">
      <path
         inkscape:connector-curvature="0"
         id="path828-6"
         d="M 0,0 5,-5 -12.5,0 5,5 Z"
         style="fill:#000000;fill-opacity:1;fill-rule:evenodd;stroke:#000000;stroke-width:1.00000003pt;stroke-opacity:1"
         transform="matrix(-0.4,0,0,-0.4,-4,0)" />
    </marker>
    <marker
       inkscape:stockid="Arrow1Mend"
       orient="auto"
       refY="0"
       refX="0"
       id="Arrow1Mend-3-5"
       style="overflow:visible"
       inkscape:isstock="true">
      <path
         inkscape:connector-curvature="0"
         id="path828-6-3"
         d="M 0,0 5,-5 -12.5,0 5,5 Z"
         style="fill:#000000;fill-opacity:1;fill-rule:evenodd;stroke:#000000;stroke-width:1.00000003pt;stroke-opacity:1"
         transform="matrix(-0.4,0,0,-0.4,-4,0)" />
    </marker>
    <marker
       inkscape:stockid="Arrow1Mend"
       orient="auto"
       refY="0"
       refX="0"
       id="Arrow1Mend-3-6"
       style="overflow:visible"
       inkscape:isstock="true">
      <path
         inkscape:connector-curvature="0"
         id="path828-6-2"
         d="M 0,0 5,-5 -12.5,0 5,5 Z"
         style="fill:#000000;fill-opacity:1;fill-rule:evenodd;stroke:#000000;stroke-width:1.00000003pt;stroke-opacity:1"
         transform="matrix(-0.4,0,0,-0.4,-4,0)" />
    </marker>
  </defs>
  <sodipodi:namedview
     id="base"
     pagecolor="#ffffff"
     bordercolor="#666666"
     borderopacity="1.0"
     inkscape:pageopacity="0.0"
     inkscape:pageshadow="2"
     inkscape:zoom="1.4"
     inkscape:cx="65.532925"
     inkscape:cy="-17.982715"
     inkscape:document-units="mm"
     inkscape:current-layer="layer1"
     showgrid="false"
     fit-margin-top="0"
     fit-margin-left="0"
     fit-margin-right="0"
     fit-margin-bottom="0"
     inkscape:window-width="1366"
     inkscape:window-height="705"
     inkscape:window-x="-8"
     inkscape:window-y="-8"
     inkscape:window-maximized="1" />
  <metadata
     id="metadata5">
    <rdf:RDF>
      <cc:Work
         rdf:about="">
        <dc:format>image/svg+xml</dc:format>
        <dc:type
           rdf:resource="http://purl.org/dc/dcmitype/StillImage" />
        <dc:title />
      </cc:Work>
    </rdf:RDF>
  </metadata>
  <g
     inkscape:label="Layer 1"
     inkscape:groupmode="layer"
     id="layer1"
     transform="translate(15.044836,-257.63911)">
    <rect
       style="opacity:1;fill:none;fill-opacity:1;stroke:#000000;stroke-width:0.70272821;stroke-miterlimit:4;stroke-dasharray:none;stroke-dashoffset:0;stroke-opacity:1"
       id="rect815"
       width="41.967842"
       height="18.15534"
       x="1.0577842"
       y="257.99048" />
    <path
       style="fill:none;stroke:#000000;stroke-width:0.36956611;stroke-linecap:butt;stroke-linejoin:miter;stroke-miterlimit:4;stroke-dasharray:none;stroke-opacity:1;marker-end:url(#Arrow1Mend)"
       d="M -15.044836,267.06815 H -0.02187695"
       id="path817"
       inkscape:connector-curvature="0" />
    <path
       style="fill:none;stroke:#000000;stroke-width:0.36956611;stroke-linecap:butt;stroke-linejoin:miter;stroke-miterlimit:4;stroke-dasharray:none;stroke-opacity:1;marker-end:url(#Arrow1Mend-3-5)"
       d="M 43.37699,267.06815 H 58.399954"
       id="path817-7-5"
       inkscape:connector-curvature="0" />
    <g
       id="g226"
       transform="matrix(0.50786199,0,0,0.50786199,-104.04724,206.84553)"
       ns1:text="$U(s)$">
      <g
         id="g224">
        <g
           id="g210"
           style="fill:#000000;fill-opacity:1">
          <path
             id="path208"
             transform="translate(178.584,110.991)"
             d="M 6.328125,-5.765625 C 6.4375,-6.171875 6.609375,-6.46875 7.40625,-6.5 c 0.046875,0 0.171875,-0.015625 0.171875,-0.203125 0,0 0,-0.109375 -0.125,-0.109375 -0.328125,0 -0.6875,0.03125 -1.015625,0.03125 -0.34375,0 -0.71875,-0.03125 -1.046875,-0.03125 -0.0625,0 -0.171875,0 -0.171875,0.203125 C 5.21875,-6.5 5.3125,-6.5 5.390625,-6.5 c 0.578125,0.015625 0.6875,0.21875 0.6875,0.4375 0,0.03125 -0.03125,0.1875 -0.03125,0.203125 l -0.90625,3.5625 C 4.8125,-0.953125 3.65625,-0.09375 2.65625,-0.09375 c -0.671875,0 -1.203125,-0.4375 -1.203125,-1.296875 0,-0.015625 0,-0.328125 0.109375,-0.765625 L 2.515625,-6.046875 C 2.609375,-6.40625 2.625,-6.5 3.359375,-6.5 c 0.265625,0 0.34375,0 0.34375,-0.203125 0,-0.109375 -0.109375,-0.109375 -0.140625,-0.109375 -0.28125,0 -1,0.03125 -1.28125,0.03125 -0.28125,0 -1,-0.03125 -1.28125,-0.03125 -0.078125,0 -0.1875,0 -0.1875,0.203125 C 0.8125,-6.5 0.890625,-6.5 1.09375,-6.5 c 0.015625,0 0.203125,0 0.375,0.015625 0.171875,0.03125 0.265625,0.03125 0.265625,0.171875 0,0.046875 -0.109375,0.46875 -0.171875,0.703125 l -0.21875,0.875 C 1.25,-4.34375 0.78125,-2.46875 0.734375,-2.265625 0.671875,-2 0.671875,-1.84375 0.671875,-1.6875 c 0,1.203125 0.90625,1.90625 1.953125,1.90625 1.25,0 2.484375,-1.125 2.8125,-2.4375 z m 0,0"
             style="stroke:none"
             inkscape:connector-curvature="0" />
        </g>
        <g
           id="g214"
           style="fill:#000000;fill-opacity:1">
          <path
             id="path212"
             transform="translate(186.473,110.991)"
             d="m 3.296875,2.390625 c 0,-0.03125 0,-0.046875 -0.171875,-0.21875 C 1.890625,0.921875 1.5625,-0.96875 1.5625,-2.5 c 0,-1.734375 0.375,-3.46875 1.609375,-4.703125 0.125,-0.125 0.125,-0.140625 0.125,-0.171875 0,-0.078125 -0.03125,-0.109375 -0.09375,-0.109375 -0.109375,0 -1,0.6875 -1.59375,1.953125 -0.5,1.09375 -0.625,2.203125 -0.625,3.03125 0,0.78125 0.109375,1.984375 0.65625,3.125 C 2.25,1.84375 3.09375,2.5 3.203125,2.5 c 0.0625,0 0.09375,-0.03125 0.09375,-0.109375 z m 0,0"
             style="stroke:none"
             inkscape:connector-curvature="0" />
        </g>
        <g
           id="g218"
           style="fill:#000000;fill-opacity:1">
          <path
             id="path216"
             transform="translate(190.347,110.991)"
             d="M 3.890625,-3.734375 C 3.625,-3.71875 3.421875,-3.5 3.421875,-3.28125 c 0,0.140625 0.09375,0.296875 0.3125,0.296875 0.21875,0 0.453125,-0.171875 0.453125,-0.5625 C 4.1875,-4 3.765625,-4.40625 3,-4.40625 c -1.3125,0 -1.6875,1.015625 -1.6875,1.453125 0,0.78125 0.734375,0.921875 1.03125,0.984375 0.515625,0.109375 1.03125,0.21875 1.03125,0.765625 0,0.25 -0.21875,1.09375 -1.421875,1.09375 -0.140625,0 -0.90625,0 -1.140625,-0.53125 0.390625,0.046875 0.640625,-0.25 0.640625,-0.53125 0,-0.21875 -0.171875,-0.34375 -0.375,-0.34375 -0.265625,0 -0.5625,0.203125 -0.5625,0.65625 0,0.5625 0.578125,0.96875 1.421875,0.96875 1.625,0 2.015625,-1.203125 2.015625,-1.65625 0,-0.359375 -0.1875,-0.609375 -0.3125,-0.71875 -0.265625,-0.28125 -0.5625,-0.34375 -1,-0.421875 -0.359375,-0.078125 -0.75,-0.15625 -0.75,-0.609375 C 1.890625,-3.578125 2.125,-4.1875 3,-4.1875 c 0.25,0 0.75,0.078125 0.890625,0.453125 z m 0,0"
             style="stroke:none"
             inkscape:connector-curvature="0" />
        </g>
        <g
           id="g222"
           style="fill:#000000;fill-opacity:1">
          <path
             id="path220"
             transform="translate(195.017,110.991)"
             d="m 2.875,-2.5 c 0,-0.765625 -0.109375,-1.96875 -0.65625,-3.109375 -0.59375,-1.21875 -1.453125,-1.875 -1.546875,-1.875 -0.0625,0 -0.109375,0.046875 -0.109375,0.109375 0,0.03125 0,0.046875 0.1875,0.234375 0.984375,0.984375 1.546875,2.5625 1.546875,4.640625 0,1.71875 -0.359375,3.46875 -1.59375,4.71875 C 0.5625,2.34375 0.5625,2.359375 0.5625,2.390625 0.5625,2.453125 0.609375,2.5 0.671875,2.5 0.765625,2.5 1.671875,1.8125 2.25,0.546875 2.765625,-0.546875 2.875,-1.65625 2.875,-2.5 Z m 0,0"
             style="stroke:none"
             inkscape:connector-curvature="0" />
        </g>
      </g>
    </g>
    <g
       id="g347"
       transform="matrix(0.50786199,0,0,0.50786199,-43.986795,206.84553)"
       ns1:text="$Y(s)$">
      <g
         id="g345">
        <g
           id="g331"
           style="fill:#000000;fill-opacity:1">
          <path
             id="path329"
             transform="translate(178.584,110.991)"
             d="M 5.953125,-5.671875 6.09375,-5.8125 C 6.390625,-6.109375 6.71875,-6.453125 7.390625,-6.5 7.5,-6.515625 7.59375,-6.515625 7.59375,-6.6875 c 0,-0.078125 -0.046875,-0.125 -0.125,-0.125 -0.265625,0 -0.546875,0.03125 -0.8125,0.03125 -0.34375,0 -0.6875,-0.03125 -1,-0.03125 -0.0625,0 -0.1875,0 -0.1875,0.1875 0,0.109375 0.09375,0.125 0.140625,0.125 0.078125,0 0.359375,0.015625 0.359375,0.234375 0,0.171875 -0.234375,0.421875 -0.265625,0.46875 L 3.390625,-3.125 2.296875,-6.09375 C 2.234375,-6.234375 2.234375,-6.25 2.234375,-6.265625 2.234375,-6.5 2.71875,-6.5 2.828125,-6.5 c 0.125,0 0.234375,0 0.234375,-0.203125 0,-0.109375 -0.125,-0.109375 -0.15625,-0.109375 -0.28125,0 -0.96875,0.03125 -1.25,0.03125 -0.25,0 -0.875,-0.03125 -1.125,-0.03125 -0.046875,0 -0.1875,0 -0.1875,0.203125 C 0.34375,-6.5 0.453125,-6.5 0.578125,-6.5 c 0.59375,0 0.640625,0.09375 0.734375,0.34375 L 2.53125,-2.875 c 0.015625,0.03125 0.046875,0.140625 0.046875,0.15625 0,0.03125 -0.40625,1.640625 -0.453125,1.828125 C 2,-0.34375 1.984375,-0.3125 1.1875,-0.3125 c -0.1875,0 -0.265625,0 -0.265625,0.203125 C 0.921875,0 1.03125,0 1.0625,0 c 0.265625,0 0.96875,-0.03125 1.25,-0.03125 0.28125,0 1,0.03125 1.28125,0.03125 0.0625,0 0.1875,0 0.1875,-0.203125 C 3.78125,-0.3125 3.6875,-0.3125 3.5,-0.3125 c -0.015625,0 -0.203125,0 -0.375,-0.015625 C 2.90625,-0.34375 2.84375,-0.375 2.84375,-0.484375 c 0,-0.078125 0.09375,-0.421875 0.140625,-0.625 l 0.359375,-1.40625 c 0.046875,-0.203125 0.0625,-0.21875 0.140625,-0.3125 z m 0,0"
             style="stroke:none"
             inkscape:connector-curvature="0" />
        </g>
        <g
           id="g335"
           style="fill:#000000;fill-opacity:1">
          <path
             id="path333"
             transform="translate(186.582,110.991)"
             d="m 3.296875,2.390625 c 0,-0.03125 0,-0.046875 -0.171875,-0.21875 C 1.890625,0.921875 1.5625,-0.96875 1.5625,-2.5 c 0,-1.734375 0.375,-3.46875 1.609375,-4.703125 0.125,-0.125 0.125,-0.140625 0.125,-0.171875 0,-0.078125 -0.03125,-0.109375 -0.09375,-0.109375 -0.109375,0 -1,0.6875 -1.59375,1.953125 -0.5,1.09375 -0.625,2.203125 -0.625,3.03125 0,0.78125 0.109375,1.984375 0.65625,3.125 C 2.25,1.84375 3.09375,2.5 3.203125,2.5 c 0.0625,0 0.09375,-0.03125 0.09375,-0.109375 z m 0,0"
             style="stroke:none"
             inkscape:connector-curvature="0" />
        </g>
        <g
           id="g339"
           style="fill:#000000;fill-opacity:1">
          <path
             id="path337"
             transform="translate(190.457,110.991)"
             d="M 3.890625,-3.734375 C 3.625,-3.71875 3.421875,-3.5 3.421875,-3.28125 c 0,0.140625 0.09375,0.296875 0.3125,0.296875 0.21875,0 0.453125,-0.171875 0.453125,-0.5625 C 4.1875,-4 3.765625,-4.40625 3,-4.40625 c -1.3125,0 -1.6875,1.015625 -1.6875,1.453125 0,0.78125 0.734375,0.921875 1.03125,0.984375 0.515625,0.109375 1.03125,0.21875 1.03125,0.765625 0,0.25 -0.21875,1.09375 -1.421875,1.09375 -0.140625,0 -0.90625,0 -1.140625,-0.53125 0.390625,0.046875 0.640625,-0.25 0.640625,-0.53125 0,-0.21875 -0.171875,-0.34375 -0.375,-0.34375 -0.265625,0 -0.5625,0.203125 -0.5625,0.65625 0,0.5625 0.578125,0.96875 1.421875,0.96875 1.625,0 2.015625,-1.203125 2.015625,-1.65625 0,-0.359375 -0.1875,-0.609375 -0.3125,-0.71875 -0.265625,-0.28125 -0.5625,-0.34375 -1,-0.421875 -0.359375,-0.078125 -0.75,-0.15625 -0.75,-0.609375 C 1.890625,-3.578125 2.125,-4.1875 3,-4.1875 c 0.25,0 0.75,0.078125 0.890625,0.453125 z m 0,0"
             style="stroke:none"
             inkscape:connector-curvature="0" />
        </g>
        <g
           id="g343"
           style="fill:#000000;fill-opacity:1">
          <path
             id="path341"
             transform="translate(195.127,110.991)"
             d="m 2.875,-2.5 c 0,-0.765625 -0.109375,-1.96875 -0.65625,-3.109375 -0.59375,-1.21875 -1.453125,-1.875 -1.546875,-1.875 -0.0625,0 -0.109375,0.046875 -0.109375,0.109375 0,0.03125 0,0.046875 0.1875,0.234375 0.984375,0.984375 1.546875,2.5625 1.546875,4.640625 0,1.71875 -0.359375,3.46875 -1.59375,4.71875 C 0.5625,2.34375 0.5625,2.359375 0.5625,2.390625 0.5625,2.453125 0.609375,2.5 0.671875,2.5 0.765625,2.5 1.671875,1.8125 2.25,0.546875 2.765625,-0.546875 2.875,-1.65625 2.875,-2.5 Z m 0,0"
             style="stroke:none"
             inkscape:connector-curvature="0" />
        </g>
      </g>
    </g>
    <g
       id="g444"
       transform="translate(-175.25126,158.21959)"
       ns1:text="$\\frac{ds + e}{a s^2 + bs + c}$">
      <g
         id="surface1">
        <g
           id="g403"
           style="fill:rgb(0%,0%,0%);fill-opacity:1;">
          <path
             id="path399"
             transform="translate(188.391,107.068)"
             d="M 3.984375 -4.625 C 3.984375 -4.640625 4 -4.734375 4 -4.734375 C 4 -4.78125 3.984375 -4.84375 3.890625 -4.84375 C 3.75 -4.84375 3.171875 -4.78125 3 -4.765625 C 2.953125 -4.765625 2.84375 -4.75 2.84375 -4.609375 C 2.84375 -4.515625 2.953125 -4.515625 3.03125 -4.515625 C 3.359375 -4.515625 3.359375 -4.453125 3.359375 -4.40625 C 3.359375 -4.359375 3.359375 -4.3125 3.34375 -4.25 L 2.9375 -2.65625 C 2.796875 -2.890625 2.5625 -3.078125 2.21875 -3.078125 C 1.328125 -3.078125 0.421875 -2.09375 0.421875 -1.09375 C 0.421875 -0.40625 0.875 0.0625 1.484375 0.0625 C 1.859375 0.0625 2.1875 -0.140625 2.46875 -0.421875 C 2.59375 0 3 0.0625 3.1875 0.0625 C 3.4375 0.0625 3.609375 -0.078125 3.734375 -0.296875 C 3.890625 -0.578125 3.984375 -0.96875 3.984375 -1 C 3.984375 -1.09375 3.890625 -1.09375 3.875 -1.09375 C 3.765625 -1.09375 3.765625 -1.0625 3.71875 -0.875 C 3.625 -0.53125 3.5 -0.125 3.203125 -0.125 C 3.03125 -0.125 2.96875 -0.28125 2.96875 -0.46875 C 2.96875 -0.59375 2.984375 -0.65625 3.015625 -0.75 Z M 2.5 -0.875 C 2.453125 -0.671875 2.296875 -0.53125 2.140625 -0.40625 C 2.078125 -0.34375 1.796875 -0.125 1.5 -0.125 C 1.234375 -0.125 0.984375 -0.3125 0.984375 -0.796875 C 0.984375 -1.171875 1.1875 -1.9375 1.359375 -2.21875 C 1.671875 -2.78125 2.03125 -2.875 2.21875 -2.875 C 2.703125 -2.875 2.84375 -2.34375 2.84375 -2.265625 C 2.84375 -2.25 2.828125 -2.1875 2.828125 -2.171875 Z M 2.5 -0.875 "
             style="stroke:none;" />
          <path
             id="path401"
             transform="translate(192.538319,107.068)"
             d="M 3 -2.625 C 2.828125 -2.578125 2.703125 -2.4375 2.703125 -2.296875 C 2.703125 -2.125 2.84375 -2.0625 2.9375 -2.0625 C 3.015625 -2.0625 3.28125 -2.109375 3.28125 -2.46875 C 3.28125 -2.921875 2.78125 -3.078125 2.34375 -3.078125 C 1.265625 -3.078125 1.0625 -2.265625 1.0625 -2.0625 C 1.0625 -1.796875 1.21875 -1.625 1.3125 -1.546875 C 1.484375 -1.40625 1.609375 -1.375 2.09375 -1.296875 C 2.25 -1.265625 2.6875 -1.1875 2.6875 -0.84375 C 2.6875 -0.71875 2.609375 -0.453125 2.328125 -0.28125 C 2.046875 -0.125 1.703125 -0.125 1.625 -0.125 C 1.34375 -0.125 0.953125 -0.1875 0.78125 -0.421875 C 1.015625 -0.453125 1.171875 -0.625 1.171875 -0.8125 C 1.171875 -0.984375 1.046875 -1.078125 0.90625 -1.078125 C 0.703125 -1.078125 0.5 -0.90625 0.5 -0.609375 C 0.5 -0.1875 0.9375 0.0625 1.609375 0.0625 C 2.90625 0.0625 3.140625 -0.8125 3.140625 -1.078125 C 3.140625 -1.71875 2.4375 -1.84375 2.171875 -1.890625 C 2.109375 -1.90625 1.9375 -1.9375 1.890625 -1.953125 C 1.640625 -2 1.515625 -2.140625 1.515625 -2.296875 C 1.515625 -2.453125 1.640625 -2.640625 1.796875 -2.75 C 1.984375 -2.859375 2.21875 -2.875 2.34375 -2.875 C 2.484375 -2.875 2.84375 -2.859375 3 -2.625 Z M 3 -2.625 "
             style="stroke:none;" />
        </g>
        <g
           id="g407"
           style="fill:rgb(0%,0%,0%);fill-opacity:1;">
          <path
             id="path405"
             transform="translate(196.299,107.068)"
             d="M 3.21875 -1.578125 L 5.359375 -1.578125 C 5.453125 -1.578125 5.609375 -1.578125 5.609375 -1.734375 C 5.609375 -1.921875 5.453125 -1.921875 5.359375 -1.921875 L 3.21875 -1.921875 L 3.21875 -4.0625 C 3.21875 -4.140625 3.21875 -4.3125 3.0625 -4.3125 C 2.890625 -4.3125 2.890625 -4.15625 2.890625 -4.0625 L 2.890625 -1.921875 L 0.75 -1.921875 C 0.65625 -1.921875 0.484375 -1.921875 0.484375 -1.75 C 0.484375 -1.578125 0.640625 -1.578125 0.75 -1.578125 L 2.890625 -1.578125 L 2.890625 0.5625 C 2.890625 0.65625 2.890625 0.828125 3.046875 0.828125 C 3.21875 0.828125 3.21875 0.65625 3.21875 0.5625 Z M 3.21875 -1.578125 "
             style="stroke:none;" />
        </g>
        <g
           id="g411"
           style="fill:rgb(0%,0%,0%);fill-opacity:1;">
          <path
             id="path409"
             transform="translate(202.415,107.068)"
             d="M 1.5625 -1.59375 C 1.75 -1.59375 2.3125 -1.609375 2.6875 -1.734375 C 3.203125 -1.921875 3.296875 -2.25 3.296875 -2.453125 C 3.296875 -2.84375 2.90625 -3.078125 2.4375 -3.078125 C 1.59375 -3.078125 0.46875 -2.4375 0.46875 -1.234375 C 0.46875 -0.53125 0.90625 0.0625 1.71875 0.0625 C 2.90625 0.0625 3.453125 -0.625 3.453125 -0.71875 C 3.453125 -0.765625 3.390625 -0.84375 3.328125 -0.84375 C 3.296875 -0.84375 3.28125 -0.828125 3.21875 -0.765625 C 2.671875 -0.125 1.859375 -0.125 1.734375 -0.125 C 1.3125 -0.125 1.03125 -0.40625 1.03125 -0.96875 C 1.03125 -1.0625 1.03125 -1.203125 1.125 -1.59375 Z M 1.171875 -1.78125 C 1.46875 -2.796875 2.234375 -2.875 2.4375 -2.875 C 2.734375 -2.875 3 -2.71875 3 -2.453125 C 3 -1.78125 1.8125 -1.78125 1.515625 -1.78125 Z M 1.171875 -1.78125 "
             style="stroke:none;" />
        </g>
        <path
           id="path413"
           transform="matrix(1,0,0,-1,179.78,108.5)"
           d="M 0.00125 0 L 35.024687 0 "
           style="fill:none;stroke-width:0.398;stroke-linecap:butt;stroke-linejoin:miter;stroke:rgb(0%,0%,0%);stroke-opacity:1;stroke-miterlimit:10;" />
        <g
           id="g419"
           style="fill:rgb(0%,0%,0%);fill-opacity:1;">
          <path
             id="path415"
             transform="translate(179.78,114.426)"
             d="M 2.9375 -2.65625 C 2.796875 -2.890625 2.5625 -3.078125 2.21875 -3.078125 C 1.328125 -3.078125 0.421875 -2.09375 0.421875 -1.09375 C 0.421875 -0.40625 0.875 0.0625 1.484375 0.0625 C 1.859375 0.0625 2.1875 -0.140625 2.46875 -0.421875 C 2.59375 0 3 0.0625 3.1875 0.0625 C 3.4375 0.0625 3.609375 -0.078125 3.734375 -0.296875 C 3.890625 -0.578125 3.984375 -0.96875 3.984375 -1 C 3.984375 -1.09375 3.890625 -1.09375 3.875 -1.09375 C 3.765625 -1.09375 3.765625 -1.0625 3.71875 -0.875 C 3.625 -0.53125 3.5 -0.125 3.203125 -0.125 C 3.03125 -0.125 2.96875 -0.28125 2.96875 -0.46875 C 2.96875 -0.578125 3.03125 -0.84375 3.078125 -1.015625 C 3.125 -1.203125 3.203125 -1.484375 3.234375 -1.640625 L 3.375 -2.171875 C 3.421875 -2.359375 3.5 -2.6875 3.5 -2.71875 C 3.5 -2.875 3.375 -2.9375 3.265625 -2.9375 C 3.140625 -2.9375 2.984375 -2.859375 2.9375 -2.65625 Z M 2.5 -0.875 C 2.453125 -0.671875 2.296875 -0.53125 2.140625 -0.40625 C 2.078125 -0.34375 1.796875 -0.125 1.5 -0.125 C 1.234375 -0.125 0.984375 -0.3125 0.984375 -0.796875 C 0.984375 -1.171875 1.1875 -1.9375 1.359375 -2.21875 C 1.671875 -2.78125 2.03125 -2.875 2.21875 -2.875 C 2.703125 -2.875 2.84375 -2.34375 2.84375 -2.265625 C 2.84375 -2.25 2.828125 -2.1875 2.828125 -2.171875 Z M 2.5 -0.875 "
             style="stroke:none;" />
          <path
             id="path417"
             transform="translate(184.101664,114.426)"
             d="M 3 -2.625 C 2.828125 -2.578125 2.703125 -2.4375 2.703125 -2.296875 C 2.703125 -2.125 2.84375 -2.0625 2.9375 -2.0625 C 3.015625 -2.0625 3.28125 -2.109375 3.28125 -2.46875 C 3.28125 -2.921875 2.78125 -3.078125 2.34375 -3.078125 C 1.265625 -3.078125 1.0625 -2.265625 1.0625 -2.0625 C 1.0625 -1.796875 1.21875 -1.625 1.3125 -1.546875 C 1.484375 -1.40625 1.609375 -1.375 2.09375 -1.296875 C 2.25 -1.265625 2.6875 -1.1875 2.6875 -0.84375 C 2.6875 -0.71875 2.609375 -0.453125 2.328125 -0.28125 C 2.046875 -0.125 1.703125 -0.125 1.625 -0.125 C 1.34375 -0.125 0.953125 -0.1875 0.78125 -0.421875 C 1.015625 -0.453125 1.171875 -0.625 1.171875 -0.8125 C 1.171875 -0.984375 1.046875 -1.078125 0.90625 -1.078125 C 0.703125 -1.078125 0.5 -0.90625 0.5 -0.609375 C 0.5 -0.1875 0.9375 0.0625 1.609375 0.0625 C 2.90625 0.0625 3.140625 -0.8125 3.140625 -1.078125 C 3.140625 -1.71875 2.4375 -1.84375 2.171875 -1.890625 C 2.109375 -1.90625 1.9375 -1.9375 1.890625 -1.953125 C 1.640625 -2 1.515625 -2.140625 1.515625 -2.296875 C 1.515625 -2.453125 1.640625 -2.640625 1.796875 -2.75 C 1.984375 -2.859375 2.21875 -2.875 2.34375 -2.875 C 2.484375 -2.875 2.84375 -2.859375 3 -2.625 Z M 3 -2.625 "
             style="stroke:none;" />
        </g>
        <g
           id="g423"
           style="fill:rgb(0%,0%,0%);fill-opacity:1;">
          <path
             id="path421"
             transform="translate(187.862,112.434)"
             d="M 2.9375 -0.96875 L 2.71875 -0.96875 C 2.71875 -0.875 2.65625 -0.5625 2.578125 -0.515625 C 2.546875 -0.484375 2.125 -0.484375 2.046875 -0.484375 L 1.078125 -0.484375 C 1.40625 -0.71875 1.765625 -1 2.0625 -1.203125 C 2.515625 -1.515625 2.9375 -1.796875 2.9375 -2.328125 C 2.9375 -2.96875 2.328125 -3.3125 1.625 -3.3125 C 0.953125 -3.3125 0.453125 -2.9375 0.453125 -2.4375 C 0.453125 -2.1875 0.671875 -2.140625 0.75 -2.140625 C 0.875 -2.140625 1.03125 -2.234375 1.03125 -2.4375 C 1.03125 -2.609375 0.90625 -2.71875 0.75 -2.71875 C 0.890625 -2.953125 1.1875 -3.09375 1.515625 -3.09375 C 2 -3.09375 2.40625 -2.8125 2.40625 -2.328125 C 2.40625 -1.90625 2.109375 -1.578125 1.734375 -1.265625 L 0.515625 -0.234375 C 0.46875 -0.1875 0.453125 -0.1875 0.453125 -0.15625 L 0.453125 0 L 2.765625 0 Z M 2.9375 -0.96875 "
             style="stroke:none;" />
        </g>
        <g
           id="g427"
           style="fill:rgb(0%,0%,0%);fill-opacity:1;">
          <path
             id="path425"
             transform="translate(191.75,114.426)"
             d="M 3.21875 -1.578125 L 5.359375 -1.578125 C 5.453125 -1.578125 5.609375 -1.578125 5.609375 -1.734375 C 5.609375 -1.921875 5.453125 -1.921875 5.359375 -1.921875 L 3.21875 -1.921875 L 3.21875 -4.0625 C 3.21875 -4.140625 3.21875 -4.3125 3.0625 -4.3125 C 2.890625 -4.3125 2.890625 -4.15625 2.890625 -4.0625 L 2.890625 -1.921875 L 0.75 -1.921875 C 0.65625 -1.921875 0.484375 -1.921875 0.484375 -1.75 C 0.484375 -1.578125 0.640625 -1.578125 0.75 -1.578125 L 2.890625 -1.578125 L 2.890625 0.5625 C 2.890625 0.65625 2.890625 0.828125 3.046875 0.828125 C 3.21875 0.828125 3.21875 0.65625 3.21875 0.5625 Z M 3.21875 -1.578125 "
             style="stroke:none;" />
        </g>
        <g
           id="g433"
           style="fill:rgb(0%,0%,0%);fill-opacity:1;">
          <path
             id="path429"
             transform="translate(197.866,114.426)"
             d="M 1.84375 -4.625 C 1.84375 -4.640625 1.875 -4.734375 1.875 -4.734375 C 1.875 -4.78125 1.84375 -4.84375 1.75 -4.84375 C 1.609375 -4.84375 1.03125 -4.78125 0.859375 -4.765625 C 0.8125 -4.765625 0.703125 -4.75 0.703125 -4.609375 C 0.703125 -4.515625 0.8125 -4.515625 0.890625 -4.515625 C 1.21875 -4.515625 1.21875 -4.453125 1.21875 -4.40625 C 1.21875 -4.359375 1.15625 -4.078125 1.109375 -3.921875 L 0.953125 -3.28125 C 0.890625 -3.03125 0.515625 -1.515625 0.5 -1.421875 C 0.453125 -1.25 0.453125 -1.15625 0.453125 -1.078125 C 0.453125 -0.375 0.90625 0.0625 1.484375 0.0625 C 2.359375 0.0625 3.28125 -0.875 3.28125 -1.90625 C 3.28125 -2.71875 2.71875 -3.078125 2.234375 -3.078125 C 1.875 -3.078125 1.5625 -2.875 1.359375 -2.6875 Z M 1.484375 -0.125 C 1.15625 -0.125 0.953125 -0.421875 0.953125 -0.84375 C 0.953125 -1.09375 1.015625 -1.328125 1.21875 -2.125 C 1.25 -2.25 1.25 -2.265625 1.390625 -2.421875 C 1.65625 -2.71875 1.96875 -2.875 2.21875 -2.875 C 2.484375 -2.875 2.71875 -2.671875 2.71875 -2.203125 C 2.71875 -1.921875 2.578125 -1.203125 2.359375 -0.796875 C 2.1875 -0.453125 1.84375 -0.125 1.484375 -0.125 Z M 1.484375 -0.125 "
             style="stroke:none;" />
          <path
             id="path431"
             transform="translate(201.369637,114.426)"
             d="M 3 -2.625 C 2.828125 -2.578125 2.703125 -2.4375 2.703125 -2.296875 C 2.703125 -2.125 2.84375 -2.0625 2.9375 -2.0625 C 3.015625 -2.0625 3.28125 -2.109375 3.28125 -2.46875 C 3.28125 -2.921875 2.78125 -3.078125 2.34375 -3.078125 C 1.265625 -3.078125 1.0625 -2.265625 1.0625 -2.0625 C 1.0625 -1.796875 1.21875 -1.625 1.3125 -1.546875 C 1.484375 -1.40625 1.609375 -1.375 2.09375 -1.296875 C 2.25 -1.265625 2.6875 -1.1875 2.6875 -0.84375 C 2.6875 -0.71875 2.609375 -0.453125 2.328125 -0.28125 C 2.046875 -0.125 1.703125 -0.125 1.625 -0.125 C 1.34375 -0.125 0.953125 -0.1875 0.78125 -0.421875 C 1.015625 -0.453125 1.171875 -0.625 1.171875 -0.8125 C 1.171875 -0.984375 1.046875 -1.078125 0.90625 -1.078125 C 0.703125 -1.078125 0.5 -0.90625 0.5 -0.609375 C 0.5 -0.1875 0.9375 0.0625 1.609375 0.0625 C 2.90625 0.0625 3.140625 -0.8125 3.140625 -1.078125 C 3.140625 -1.71875 2.4375 -1.84375 2.171875 -1.890625 C 2.109375 -1.90625 1.9375 -1.9375 1.890625 -1.953125 C 1.640625 -2 1.515625 -2.140625 1.515625 -2.296875 C 1.515625 -2.453125 1.640625 -2.640625 1.796875 -2.75 C 1.984375 -2.859375 2.21875 -2.875 2.34375 -2.875 C 2.484375 -2.875 2.84375 -2.859375 3 -2.625 Z M 3 -2.625 "
             style="stroke:none;" />
        </g>
        <g
           id="g437"
           style="fill:rgb(0%,0%,0%);fill-opacity:1;">
          <path
             id="path435"
             transform="translate(205.13,114.426)"
             d="M 3.21875 -1.578125 L 5.359375 -1.578125 C 5.453125 -1.578125 5.609375 -1.578125 5.609375 -1.734375 C 5.609375 -1.921875 5.453125 -1.921875 5.359375 -1.921875 L 3.21875 -1.921875 L 3.21875 -4.0625 C 3.21875 -4.140625 3.21875 -4.3125 3.0625 -4.3125 C 2.890625 -4.3125 2.890625 -4.15625 2.890625 -4.0625 L 2.890625 -1.921875 L 0.75 -1.921875 C 0.65625 -1.921875 0.484375 -1.921875 0.484375 -1.75 C 0.484375 -1.578125 0.640625 -1.578125 0.75 -1.578125 L 2.890625 -1.578125 L 2.890625 0.5625 C 2.890625 0.65625 2.890625 0.828125 3.046875 0.828125 C 3.21875 0.828125 3.21875 0.65625 3.21875 0.5625 Z M 3.21875 -1.578125 "
             style="stroke:none;" />
        </g>
        <g
           id="g441"
           style="fill:rgb(0%,0%,0%);fill-opacity:1;">
          <path
             id="path439"
             transform="translate(211.246,114.426)"
             d="M 3.046875 -2.671875 C 2.796875 -2.625 2.703125 -2.4375 2.703125 -2.28125 C 2.703125 -2.09375 2.84375 -2.015625 2.96875 -2.015625 C 3.125 -2.015625 3.359375 -2.125 3.359375 -2.46875 C 3.359375 -2.9375 2.828125 -3.078125 2.453125 -3.078125 C 1.40625 -3.078125 0.4375 -2.109375 0.4375 -1.140625 C 0.4375 -0.546875 0.84375 0.0625 1.71875 0.0625 C 2.90625 0.0625 3.453125 -0.625 3.453125 -0.71875 C 3.453125 -0.765625 3.390625 -0.84375 3.328125 -0.84375 C 3.296875 -0.84375 3.28125 -0.828125 3.21875 -0.765625 C 2.671875 -0.125 1.859375 -0.125 1.734375 -0.125 C 1.234375 -0.125 1.015625 -0.46875 1.015625 -0.90625 C 1.015625 -1.09375 1.109375 -1.859375 1.46875 -2.34375 C 1.734375 -2.6875 2.09375 -2.875 2.453125 -2.875 C 2.546875 -2.875 2.875 -2.859375 3.046875 -2.671875 Z M 3.046875 -2.671875 "
             style="stroke:none;" />
        </g>
      </g>
    </g>
  </g>
</svg>
