<?xml version="1.0" encoding="UTF-8" standalone="no"?>
<!-- Created with Inkscape (http://www.inkscape.org/) -->

<svg
   xmlns:dc="http://purl.org/dc/elements/1.1/"
   xmlns:cc="http://creativecommons.org/ns#"
   xmlns:rdf="http://www.w3.org/1999/02/22-rdf-syntax-ns#"
   xmlns:svg="http://www.w3.org/2000/svg"
   xmlns="http://www.w3.org/2000/svg"
   xmlns:sodipodi="http://sodipodi.sourceforge.net/DTD/sodipodi-0.dtd"
   xmlns:inkscape="http://www.inkscape.org/namespaces/inkscape"
   width="390.12109mm"
   height="188.95816mm"
   viewBox="0 0 390.12109 188.95816"
   version="1.1"
   id="svg3262"
   inkscape:version="0.92.4 (5da689c313, 2019-01-14)"
   sodipodi:docname="controladorlqrOpcoes.svg">
  <defs
     id="defs3256" />
  <sodipodi:namedview
     id="base"
     pagecolor="#ffffff"
     bordercolor="#666666"
     borderopacity="1.0"
     inkscape:pageopacity="0.0"
     inkscape:pageshadow="2"
     inkscape:zoom="0.49497475"
     inkscape:cx="722.25845"
     inkscape:cy="338.03801"
     inkscape:document-units="mm"
     inkscape:current-layer="layer1"
     showgrid="false"
     inkscape:window-width="1366"
     inkscape:window-height="705"
     inkscape:window-x="-8"
     inkscape:window-y="-8"
     inkscape:window-maximized="1"
     fit-margin-top="0"
     fit-margin-left="0"
     fit-margin-right="0"
     fit-margin-bottom="0" />
  <metadata
     id="metadata3259">
    <rdf:RDF>
      <cc:Work
         rdf:about="">
        <dc:format>image/svg+xml</dc:format>
        <dc:type
           rdf:resource="http://purl.org/dc/dcmitype/StillImage" />
        <dc:title></dc:title>
      </cc:Work>
    </rdf:RDF>
  </metadata>
  <g
     inkscape:label="Layer 1"
     inkscape:groupmode="layer"
     id="layer1"
     transform="translate(0.04452482,9.8374061)">
    <path
       inkscape:connector-curvature="0"
       d="m 50.249444,79.11212 c -0.474076,0 -0.935033,0.05634 -1.378108,0.159466 l -3.167927,-8.543898 c 0.04412,-2.374184 -0.573667,-4.237218 -1.837598,-5.539553 -1.736247,-1.789154 -4.043232,-1.809741 -4.140919,-1.809741 -0.422337,0 -0.76406,0.342081 -0.76406,0.763984 0,0.421962 0.341723,0.763984 0.76406,0.763984 0.01707,0 1.753322,0.01535 3.044881,1.346002 0.589865,0.607826 0.994393,1.400902 1.213806,2.367227 -1.793922,-1.290382 -3.981306,-1.063131 -5.134579,-0.635086 -0.394708,0.147382 -0.596166,0.587238 -0.449158,0.982672 0.147668,0.39574 0.588691,0.597195 0.983399,0.449092 0.129859,-0.04866 3.200024,-1.149909 4.859617,1.76585 l 0.997469,2.690398 -1.604335,2.332714 h -8.849057 l -1.020041,-3.081816 h 2.250555 c 0.422263,0 0.76406,-0.342093 0.76406,-0.763984 0,-0.421903 -0.341724,-0.764067 -0.76406,-0.764067 h -6.615064 c -0.422263,0 -0.763987,0.342093 -0.763987,0.764067 0,0.421891 0.341724,0.763984 0.763987,0.763984 h 2.754823 l 1.020115,3.081816 H 28.38315 c -6.756795,0 -7.897683,4.206213 -7.943193,4.38525 -0.102156,0.406288 0.148694,0.791753 0.546993,0.92228 0.409659,0.134178 0.816678,-0.148988 0.932614,-0.540252 0.03716,-0.125319 0.868196,-2.946753 5.699526,-3.218131 v 1.407504 c -2.991165,0.37696 -5.312366,2.933854 -5.312366,6.024021 0,3.350773 2.725583,6.076723 6.076352,6.076723 3.349304,0 6.07408,-2.72595 6.07408,-6.076723 0,-3.090025 -2.320394,-5.646836 -5.310093,-6.02395 v -1.428671 h 4.535994 l 3.011683,9.098514 c 0.09109,0.275253 0.333296,0.45905 0.617785,0.516359 0.284489,0.05729 0.593162,-0.114571 0.737239,-0.323479 l 7.840227,-11.39949 1.549078,4.178149 c -1.939535,1.01572 -3.266711,3.046641 -3.266711,5.382568 0,3.350773 2.726317,6.076723 6.077086,6.076723 3.350843,0 6.076424,-2.72595 6.076424,-6.076723 0,-3.348943 -2.725509,-6.073783 -6.076424,-6.073783 z m -17.320261,6.073712 c 0,2.508077 -2.039131,4.548672 -4.546033,4.548672 -2.507709,0 -4.548305,-2.040666 -4.548305,-4.548672 0,-2.246302 1.639219,-4.115927 3.784318,-4.480296 v 4.119883 c 0,0.421974 0.341723,0.764067 0.76406,0.764067 0.422336,0 0.763986,-0.342093 0.763986,-0.764067 v -4.119812 c 2.144147,0.364511 3.781974,2.234065 3.781974,4.480225 z m 4.732688,-0.294316 -2.369275,-7.158163 h 7.292355 z m 12.587573,4.843059 c -2.508441,0 -4.549038,-2.040666 -4.549038,-4.548672 0,-1.679296 0.916637,-3.1477 2.275472,-3.934693 l 1.557285,4.200272 c 0.258988,0.585549 0.763035,0.529552 0.981934,0.450699 0.396834,-0.142906 0.597633,-0.586046 0.450626,-0.981928 l -1.557582,-4.200874 c 0.272838,-0.05126 0.553809,-0.07926 0.841303,-0.07926 2.507781,0 4.548377,2.039059 4.548377,4.545672 0,2.508078 -2.040596,4.548743 -4.548377,4.548743 z"
       id="path3208"
       style="stroke-width:0.07328411" />
    <path
       inkscape:connector-curvature="0"
       style="stroke:#000000;stroke-width:0;stroke-linecap:round;stroke-linejoin:round"
       d="m 75.926914,149.42319 4.356931,-2.66826 H 55.904599 51.937903 38.08421 33.243253 9.7382775 l 4.3569245,2.66826 H 38.08421 v -0.87495 h 6.051893 v 2.45985 h -1.653492 c -0.770837,0 -1.45103,0.50449 -1.674663,1.24226 l -1.104895,3.64454 -28.371132,0.81738 c -0.391632,-0.51255 -0.869885,-0.9551 -1.4125296,-1.30683 -1.5154223,-2.9962 -3.9908492,-6.373 -4.3919255,-6.91355 -0.0826,-0.11112 -0.2129655,-0.17674 -0.3513865,-0.17674 H 0.39287315 c -0.14961825,0 -0.28890561,0.0766 -0.36923065,0.20281 -0.08014606,0.12652 -0.09047094,0.28506 -0.02645544,0.42051 1.22756114,2.61611 2.45057864,5.69526 1.60152074,9.31424 -0.2042155,0.58028 -0.3165581,1.20359 -0.3165581,1.85299 0,3.08772 2.5119948,5.59971 5.5997108,5.59971 2.1935187,0 4.0951425,-1.26834 5.0134995,-3.10959 l 17.999056,3.28634 c 0.419283,3.67271 2.453904,6.3982 5.904549,7.89647 2.554871,1.1091 4.986899,1.14111 5.255863,1.14111 h 0.0334 v 1.75115 h -5.348254 c -0.338436,0 -0.612474,0.2742 -0.612474,0.61246 0,0.19652 -0.745809,0.5304 -1.536943,0.61597 -0.324084,0.0337 -0.564875,0.31568 -0.547725,0.64099 0.017,0.32531 0.285764,0.58045 0.611595,0.58045 h 24.323761 c 2.658994,0 3.481623,-1.48603 3.5154,-1.5492 0.100966,-0.18986 0.09537,-0.41892 -0.01541,-0.60319 -0.110597,-0.18462 -0.309912,-0.29731 -0.525152,-0.29731 h -7.265631 v -1.75096 h 2.529151 c 5.856076,0 8.848249,-6.16774 8.938541,-6.45683 0.124076,-0.39881 0.08068,-0.8312 -0.120392,-1.19764 -3.535347,-6.43914 -8.559865,-10.24414 -14.686302,-11.28307 l -1.125192,-3.72976 c -0.222939,-0.73899 -0.903656,-1.24454 -1.675365,-1.24454 H 45.88542 v -2.45985 h 6.051892 v 0.87496 H 75.926847 Z M 6.8818937,163.25571 c -1.736787,0 -3.1498399,-1.41305 -3.1498399,-3.14983 0,-1.73679 1.4130529,-3.14985 3.1498399,-3.14985 1.7367869,0 3.1498403,1.41306 3.1498403,3.14985 0,1.73678 -1.4130534,3.14983 -3.1498403,3.14983 z M 52.462877,176.67089 H 42.313395 v -1.75097 h 10.149482 z m -4.11544,-17.50524 c 2.693115,0 10.306448,3.52485 12.391995,8.71595 h -13.48394 c 0,0 -8.860848,1.06045 -9.630983,-8.71595 0,0 8.028239,0 10.722928,0 z"
       id="path3852" />
    <g
       transform="matrix(0.16896996,0,0,0.16896996,4.6094008,81.366869)"
       id="g4504">
      <path
         inkscape:connector-curvature="0"
         d="m 447.939,190.699 c 0.195,-1.673 -0.126,-3.421 -1.049,-4.984 l -30.671,-51.967 c -10.519,-17.551 -20.446,-27.8 -40.312,-29.533 -0.651,-0.171 -1.336,-0.263 -2.042,-0.263 H 24 c -13.233,0 -24,10.766 -24,24 v 134.056 c 0,21.674 18.169,32.064 32.056,35.774 0.932,25.667 22.09,46.264 47.981,46.264 23.749,0 43.514,-17.339 47.336,-40.023 h 193.688 c 3.823,22.684 23.592,40.023 47.346,40.023 23.749,0 43.514,-17.339 47.336,-40.023 H 440 c 4.418,0 8,-3.582 8,-8 V 191.648 c 0,-0.322 -0.024,-0.637 -0.061,-0.949 z m -31.516,25.67 c 0,-4.411 3.589,-8 8,-8 H 432 v 15.75 h -15.577 z m 10.894,-32.337 H 359.17 l -19.897,-39.829 h 64.538 z M 16,200.032 h 8.583 v 24.086 H 16 Z m 0,-16 v -39.966 h 263.375 c 8.83,0 14.119,3.118 17.669,10.389 l 14.266,29.577 z m 64.037,144.015 c -17.659,0 -32.025,-14.367 -32.025,-32.026 0,-17.656 14.366,-32.021 32.025,-32.021 17.653,0 32.016,14.365 32.016,32.021 0,17.659 -14.363,32.026 -32.016,32.026 z m 288.37,0 c -17.659,0 -32.025,-14.367 -32.025,-32.026 0,-17.656 14.366,-32.021 32.025,-32.021 17.653,0 32.016,14.365 32.016,32.021 0,17.659 -14.362,32.026 -32.016,32.026 z m 47.337,-40.023 C 411.925,265.34 392.158,248 368.407,248 c -23.756,0 -43.526,17.34 -47.347,40.024 H 127.374 C 123.554,265.34 103.788,248 80.037,248 58.535,248 40.289,262.203 34.187,281.719 26.708,279.394 16,273.979 16,262.009 v -21.89 h 8.583 c 8.822,0 16,-7.177 16,-16 v -24.086 h 283.282 c 4.418,0 8,-3.582 8,-8 v -0.384 c 0,-1.203 -0.271,-2.392 -0.794,-3.476 L 311.438,147.47 c -6.286,-12.875 -17.073,-19.404 -32.063,-19.404 H 16 v -0.113 c 0,-4.411 3.589,-8 8,-8 h 345.574 c 10.675,0 17.16,2.351 22.975,8.25 h -66.216 c -2.772,0 -5.347,1.435 -6.805,3.793 -1.458,2.357 -1.591,5.302 -0.352,7.782 l 27.111,54.271 c 0.895,3.442 4.022,5.983 7.744,5.983 h 52.832 c -3.992,4.288 -6.441,10.03 -6.441,16.337 v 15.75 c 0,4.418 3.582,8 8,8 H 432 v 47.905 z"
         id="path4496" />
      <path
         inkscape:connector-curvature="0"
         d="M 368.402,224.118 H 73 c -4.418,0 -8,3.582 -8,8 0,4.418 3.582,8 8,8 h 295.402 c 4.418,0 8,-3.582 8,-8 0,-4.418 -3.582,-8 -8,-8 z"
         id="path4498" />
      <path
         inkscape:connector-curvature="0"
         d="m 95.721,288.022 c -4.418,0 -8,3.582 -8,8 0,4.241 -3.448,7.691 -7.687,7.691 -4.241,0 -7.691,-3.45 -7.691,-7.691 0,-4.239 3.45,-7.688 7.691,-7.688 4.418,0 8,-3.582 8,-8 0,-4.418 -3.582,-8 -8,-8 -13.063,0 -23.691,10.626 -23.691,23.688 0,13.063 10.628,23.691 23.691,23.691 13.061,0 23.687,-10.628 23.687,-23.691 0,-4.418 -3.582,-8 -8,-8 z"
         id="path4500" />
      <path
         inkscape:connector-curvature="0"
         d="m 384.091,288.022 c -4.418,0 -8,3.582 -8,8 0,4.241 -3.448,7.691 -7.687,7.691 -4.241,0 -7.691,-3.45 -7.691,-7.691 0,-4.239 3.45,-7.688 7.691,-7.688 4.418,0 8,-3.582 8,-8 0,-4.418 -3.582,-8 -8,-8 -13.063,0 -23.691,10.626 -23.691,23.688 0,13.063 10.628,23.691 23.691,23.691 13.061,0 23.687,-10.628 23.687,-23.691 0,-4.418 -3.582,-8 -8,-8 z"
         id="path4502" />
    </g>
    <g
       transform="matrix(-0.67706116,0,0,0.67705878,72.538963,11.306022)"
       id="g5168">
      <g
         id="g5166">
        <path
           inkscape:connector-curvature="0"
           d="m 17.275,52.156 c -4.124,0 -7.468,3.343 -7.468,7.468 0,0.318 0.026,0.631 0.066,0.938 0.463,3.681 3.596,6.528 7.401,6.528 3.908,0 7.112,-3.004 7.437,-6.83 0.017,-0.209 0.031,-0.422 0.031,-0.637 10e-4,-4.124 -3.342,-7.467 -7.467,-7.467 z m -3.738,4.654 1.522,1.523 c -0.118,0.203 -0.211,0.422 -0.271,0.656 h -2.146 c 0.11,-0.812 0.421,-1.554 0.895,-2.179 z m -0.905,3.472 h 2.163 c 0.061,0.23 0.151,0.448 0.271,0.648 l -1.526,1.525 c -0.473,-0.62 -0.791,-1.362 -0.908,-2.173 z m 3.997,3.981 C 15.82,64.15 15.085,63.833 14.463,63.364 l 1.518,-1.519 c 0.2,0.117 0.419,0.203 0.648,0.263 z m 0,-7.123 c -0.235,0.062 -0.455,0.154 -0.66,0.275 l -1.521,-1.521 c 0.625,-0.475 1.367,-0.789 2.181,-0.902 z m 1.293,-2.15 c 0.814,0.113 1.557,0.429 2.181,0.903 l -1.52,1.521 c -0.204,-0.121 -0.426,-0.213 -0.66,-0.275 z m 0,9.271 v -2.152 c 0.23,-0.061 0.447,-0.146 0.647,-0.264 l 1.519,1.519 c -0.622,0.469 -1.358,0.784 -2.166,0.897 z m 3.092,-1.799 -1.531,-1.533 c 0.12,-0.201 0.217,-0.416 0.278,-0.646 h 2.146 c -0.114,0.808 -0.419,1.556 -0.893,2.179 z m -1.25,-3.473 c -0.061,-0.234 -0.153,-0.453 -0.271,-0.656 l 1.524,-1.523 c 0.471,0.625 0.782,1.367 0.894,2.18 h -2.147 z"
           id="path5160" />
        <path
           inkscape:connector-curvature="0"
           d="m 79.284,52.156 c -4.124,0 -7.468,3.343 -7.468,7.468 0,0.318 0.026,0.631 0.066,0.938 0.463,3.681 3.596,6.528 7.4,6.528 3.908,0 7.112,-3.004 7.438,-6.83 0.017,-0.209 0.031,-0.422 0.031,-0.637 0.002,-4.124 -3.342,-7.467 -7.467,-7.467 z m -3.738,4.654 1.521,1.523 c -0.118,0.203 -0.211,0.422 -0.271,0.656 H 74.65 c 0.111,-0.812 0.422,-1.554 0.896,-2.179 z m -0.904,3.472 h 2.163 c 0.061,0.23 0.151,0.448 0.271,0.648 l -1.525,1.525 c -0.475,-0.62 -0.794,-1.362 -0.909,-2.173 z m 3.996,3.981 c -0.809,-0.113 -1.544,-0.43 -2.166,-0.899 l 1.518,-1.519 c 0.2,0.117 0.419,0.203 0.648,0.263 z m 0,-7.123 c -0.235,0.062 -0.455,0.154 -0.66,0.275 l -1.521,-1.521 c 0.625,-0.475 1.366,-0.789 2.181,-0.902 z m 1.294,-2.15 c 0.814,0.113 1.557,0.429 2.181,0.903 l -1.521,1.521 c -0.204,-0.121 -0.426,-0.215 -0.66,-0.275 z m 0,9.271 v -2.152 c 0.23,-0.061 0.447,-0.146 0.647,-0.264 l 1.519,1.519 c -0.622,0.469 -1.359,0.784 -2.166,0.897 z m 3.091,-1.799 -1.531,-1.531 c 0.12,-0.202 0.218,-0.416 0.278,-0.647 h 2.146 c -0.114,0.807 -0.418,1.555 -0.893,2.178 z m -1.25,-3.473 c -0.061,-0.234 -0.152,-0.453 -0.271,-0.656 l 1.523,-1.523 c 0.472,0.625 0.782,1.367 0.895,2.18 h -2.147 z"
           id="path5162" />
        <path
           inkscape:connector-curvature="0"
           d="m 97.216,48.29 v -5.526 c 0,-0.889 -0.646,-1.642 -1.524,-1.779 -2.107,-0.33 -5.842,-0.953 -7.52,-1.47 -2.406,-0.742 -11.702,-4.678 -14.921,-5.417 -3.22,-0.739 -17.738,-4.685 -31.643,0.135 -2.353,0.815 -12.938,5.875 -19.162,8.506 -1.833,0.04 -19.976,3.822 -20.942,6.414 -0.966,2.593 -1.269,3.851 -1.447,4.509 -0.178,0.658 0,3.807 1.348,6 1.374,0.777 4.019,1.299 7.077,1.649 C 8.447,61.124 8.409,60.94 8.385,60.751 8.332,60.347 8.307,59.978 8.307,59.626 c 0,-4.945 4.022,-8.969 8.968,-8.969 4.946,0 8.968,4.023 8.968,8.969 0,0.254 -0.017,0.506 -0.036,0.754 -0.047,0.555 -0.147,1.094 -0.292,1.613 0.007,0 0.024,0 0.024,0 l 44.516,-0.896 c -0.02,-0.115 -0.046,-0.229 -0.061,-0.346 -0.053,-0.402 -0.078,-0.772 -0.078,-1.125 0,-4.945 4.022,-8.968 8.968,-8.968 4.946,0 8.969,4.022 8.969,8.968 0,0.019 -0.002,0.035 -0.003,0.053 l 0.19,-0.016 7.611,-1.433 c 0,0 2.915,-1.552 2.915,-5.822 0.001,-2.848 -1.75,-4.118 -1.75,-4.118 z M 53.057,43.051 36.432,43.56 c 0.306,-2.491 -1.169,-3.05 -1.169,-3.05 6.609,-5.999 19.929,-6.202 19.929,-6.202 z m 18.658,-0.761 -15.15,0.509 1.373,-8.49 c 7.83,-0.102 12.303,1.626 12.303,1.626 l 2.237,3.61 z m 8.541,-0.052 h -4.221 l -4.22,-5.795 c 3.166,1.26 5.7,2.502 7.209,3.287 0.916,0.476 1.416,1.493 1.232,2.508 z"
           id="path5164" />
      </g>
    </g>
    <text
       xml:space="preserve"
       style="font-style:normal;font-weight:normal;font-size:12.74912834px;line-height:1.25;font-family:sans-serif;letter-spacing:0px;word-spacing:0px;fill:#000000;fill-opacity:1;stroke:none;stroke-width:0.31872821"
       x="119.75638"
       y="-0.1510566"
       id="text5779"><tspan
         sodipodi:role="line"
         id="tspan5777"
         x="119.75638"
         y="-0.1510566"
         style="stroke-width:0.31872821">Tempo de</tspan><tspan
         sodipodi:role="line"
         x="119.75638"
         y="15.785354"
         style="stroke-width:0.31872821"
         id="tspan5785"> viagem [min]</tspan></text>
    <text
       xml:space="preserve"
       style="font-style:normal;font-weight:normal;font-size:12.74912834px;line-height:1.25;font-family:sans-serif;letter-spacing:0px;word-spacing:0px;fill:#000000;fill-opacity:1;stroke:none;stroke-width:0.31872821"
       x="241.48242"
       y="15.978333"
       id="text5783"><tspan
         sodipodi:role="line"
         id="tspan5781"
         x="241.48242"
         y="15.978333"
         style="stroke-width:0.31872821">Valor [R$]</tspan></text>
    <text
       xml:space="preserve"
       style="font-style:normal;font-weight:normal;font-size:22.178442px;line-height:1.25;font-family:sans-serif;letter-spacing:0px;word-spacing:0px;fill:#000000;fill-opacity:1;stroke:none;stroke-width:0.554461"
       x="144.16409"
       y="54.624153"
       id="text5789"
       transform="scale(1.0391142,0.96235812)"><tspan
         sodipodi:role="line"
         id="tspan5787"
         x="144.16409"
         y="54.624153"
         style="stroke-width:0.554461">20</tspan></text>
    <text
       xml:space="preserve"
       style="font-style:normal;font-weight:normal;font-size:22.178442px;line-height:1.25;font-family:sans-serif;letter-spacing:0px;word-spacing:0px;fill:#000000;fill-opacity:1;stroke:none;stroke-width:0.554461"
       x="144.25615"
       y="88.239403"
       id="text5793"
       transform="scale(1.0391142,0.96235813)"><tspan
         sodipodi:role="line"
         id="tspan5791"
         x="144.25615"
         y="88.239403"
         style="stroke-width:0.554461">75</tspan></text>
    <text
       xml:space="preserve"
       style="font-style:normal;font-weight:normal;font-size:22.178442px;line-height:1.25;font-family:sans-serif;letter-spacing:0px;word-spacing:0px;fill:#000000;fill-opacity:1;stroke:none;stroke-width:0.554461"
       x="144.13161"
       y="131.94142"
       id="text5797"
       transform="scale(1.0391142,0.96235813)"><tspan
         sodipodi:role="line"
         id="tspan5795"
         x="144.13161"
         y="131.94142"
         style="stroke-width:0.554461">30</tspan></text>
    <text
       xml:space="preserve"
       style="font-style:normal;font-weight:normal;font-size:22.178442px;line-height:1.25;font-family:sans-serif;letter-spacing:0px;word-spacing:0px;fill:#000000;fill-opacity:1;stroke:none;stroke-width:0.554461"
       x="151.48471"
       y="177.37357"
       id="text5801"
       transform="scale(1.0391142,0.96235813)"><tspan
         sodipodi:role="line"
         id="tspan5799"
         x="151.48471"
         y="177.37357"
         style="stroke-width:0.554461">4</tspan></text>
    <text
       xml:space="preserve"
       style="font-style:normal;font-weight:normal;font-size:22.178442px;line-height:1.25;font-family:sans-serif;letter-spacing:0px;word-spacing:0px;fill:#000000;fill-opacity:1;stroke:none;stroke-width:0.554461"
       x="256.09906"
       y="54.624153"
       id="text5805"
       transform="scale(1.0391142,0.96235812)"><tspan
         sodipodi:role="line"
         id="tspan5803"
         x="256.09906"
         y="54.624153"
         style="stroke-width:0.554461">7</tspan></text>
    <text
       xml:space="preserve"
       style="font-style:normal;font-weight:normal;font-size:22.178442px;line-height:1.25;font-family:sans-serif;letter-spacing:0px;word-spacing:0px;fill:#000000;fill-opacity:1;stroke:none;stroke-width:0.554461"
       x="256.2236"
       y="88.401848"
       id="text5809"
       transform="scale(1.0391142,0.96235813)"><tspan
         sodipodi:role="line"
         id="tspan5807"
         x="256.2236"
         y="88.401848"
         style="stroke-width:0.554461">0</tspan></text>
    <text
       xml:space="preserve"
       style="font-style:normal;font-weight:normal;font-size:22.178442px;line-height:1.25;font-family:sans-serif;letter-spacing:0px;word-spacing:0px;fill:#000000;fill-opacity:1;stroke:none;stroke-width:0.554461"
       x="256.08282"
       y="132.10928"
       id="text5813"
       transform="scale(1.0391142,0.96235813)"><tspan
         sodipodi:role="line"
         id="tspan5811"
         x="256.08282"
         y="132.10928"
         style="stroke-width:0.554461">2</tspan></text>
    <text
       xml:space="preserve"
       style="font-style:normal;font-weight:normal;font-size:22.178442px;line-height:1.25;font-family:sans-serif;letter-spacing:0px;word-spacing:0px;fill:#000000;fill-opacity:1;stroke:none;stroke-width:0.554461"
       x="242.42706"
       y="177.36815"
       id="text5817"
       transform="scale(1.0391142,0.96235813)"><tspan
         sodipodi:role="line"
         id="tspan5815"
         x="242.42706"
         y="177.36815"
         style="stroke-width:0.554461">400</tspan></text>
  </g>
</svg>
