<?xml version="1.0" encoding="UTF-8" standalone="no"?>
<!-- Created with Inkscape (http://www.inkscape.org/) -->

<svg
   xmlns:ns1="http://wanglongqi.github.io/WriteTeX"
   xmlns:dc="http://purl.org/dc/elements/1.1/"
   xmlns:cc="http://creativecommons.org/ns#"
   xmlns:rdf="http://www.w3.org/1999/02/22-rdf-syntax-ns#"
   xmlns:svg="http://www.w3.org/2000/svg"
   xmlns="http://www.w3.org/2000/svg"
   xmlns:sodipodi="http://sodipodi.sourceforge.net/DTD/sodipodi-0.dtd"
   xmlns:inkscape="http://www.inkscape.org/namespaces/inkscape"
   version="1.1"
   id="svg2"
   xml:space="preserve"
   width="344.60049"
   height="90.034111"
   viewBox="0 0 344.60049 90.034111"
   sodipodi:docname="diagrama.svg"
   inkscape:version="0.92.4 (5da689c313, 2019-01-14)"><sodipodi:namedview
     pagecolor="#ffffff"
     bordercolor="#666666"
     borderopacity="1"
     objecttolerance="10"
     gridtolerance="10"
     guidetolerance="10"
     inkscape:pageopacity="0"
     inkscape:pageshadow="2"
     inkscape:window-width="1366"
     inkscape:window-height="705"
     id="namedview4"
     showgrid="false"
     inkscape:zoom="1.3158712"
     inkscape:cx="176.82332"
     inkscape:cy="1.6294676"
     inkscape:window-x="-8"
     inkscape:window-y="-8"
     inkscape:window-maximized="1"
     inkscape:current-layer="g12"
     fit-margin-top="0"
     fit-margin-left="0"
     fit-margin-right="0"
     fit-margin-bottom="0" /><metadata
     id="metadata8"><rdf:RDF><cc:Work
         rdf:about=""><dc:format>image/svg+xml</dc:format><dc:type
           rdf:resource="http://purl.org/dc/dcmitype/StillImage" /><dc:title></dc:title></cc:Work></rdf:RDF></metadata><defs
     id="defs6" /><g
     transform="matrix(1.3333333,0,0,-1.3333333,36.443014,90.032514)"
     inkscape:label="diagrama"
     inkscape:groupmode="layer"
     id="g10"><g
       id="g12"><g
         transform="matrix(1.285754,0,0,-0.910077,-34.381093,67.521965)"
         id="g14"><path
           inkscape:connector-curvature="0"
           id="path16"
           style="fill:none;stroke:#000000;stroke-width:1.82358897;stroke-linecap:butt;stroke-linejoin:miter;stroke-miterlimit:4;stroke-dasharray:none;stroke-opacity:1"
           d="m 30.043,23.84 h 55.73 v 33.191 h -55.73 z" /></g><g
         transform="matrix(0.910077,0,0,0.910077,-24,67.521965)"
         id="g18"><path
           inkscape:connector-curvature="0"
           id="path20"
           style="fill:none;stroke:#000000;stroke-width:0.68952501;stroke-linecap:butt;stroke-linejoin:miter;stroke-miterlimit:4;stroke-dasharray:none;stroke-opacity:1"
           d="M 0,-40.434 H 28.453" /></g><g
         transform="matrix(-0.910077,0,0,-0.910077,-24,67.521965)"
         id="g22"><path
           inkscape:connector-curvature="0"
           id="path24"
           style="fill:#000000;fill-opacity:1;fill-rule:evenodd;stroke:#000000;stroke-width:0.735493;stroke-linecap:butt;stroke-linejoin:miter;stroke-miterlimit:4;stroke-dasharray:none;stroke-opacity:1"
           d="m -21.559,40.434 2.758,-2.758 -9.652,2.758 9.652,2.757 z" /></g><g
         transform="matrix(0.910077,0,0,0.910077,-2.158152,67.521965)"
         id="g26"><path
           inkscape:connector-curvature="0"
           id="path28"
           style="fill:none;stroke:#000000;stroke-width:0.68952501;stroke-linecap:butt;stroke-linejoin:miter;stroke-miterlimit:4;stroke-dasharray:none;stroke-opacity:1"
           d="m 85.969,-40.434 h 28.453" /></g><g
         transform="matrix(-0.910077,0,0,-0.910077,-2.158152,67.521965)"
         id="g30"><path
           inkscape:connector-curvature="0"
           id="path32"
           style="fill:#000000;fill-opacity:1;fill-rule:evenodd;stroke:#000000;stroke-width:0.735493;stroke-linecap:butt;stroke-linejoin:miter;stroke-miterlimit:4;stroke-dasharray:none;stroke-opacity:1"
           d="m -107.527,40.434 2.757,-2.758 -9.652,2.758 9.652,2.757 z" /></g><g
         transform="matrix(0.910077,0,0,0.910077,-2.158152,67.521965)"
         id="g34"><path
           inkscape:connector-curvature="0"
           id="path36"
           style="fill:none;stroke:#000000;stroke-width:0.429506;stroke-linecap:butt;stroke-linejoin:miter;stroke-miterlimit:4;stroke-dasharray:none;stroke-opacity:1"
           d="M 219.293,-74.195 V -0.832" /></g><g
         transform="matrix(0,-0.910077,0.910077,0,-2.158152,67.521965)"
         id="g38"><path
           inkscape:connector-curvature="0"
           id="path40"
           style="fill:#000000;fill-opacity:1;fill-rule:evenodd;stroke:#000000;stroke-width:0.45813999;stroke-linecap:butt;stroke-linejoin:miter;stroke-miterlimit:4;stroke-dasharray:none;stroke-opacity:1"
           d="m 5.129,219.293 1.719,-1.715 -6.016,1.715 6.016,1.719 z" /></g><g
         transform="matrix(0.910077,0,0,0.910077,-2.158152,67.521965)"
         id="g42"><path
           inkscape:connector-curvature="0"
           id="path44"
           style="fill:none;stroke:#000000;stroke-width:0.429506;stroke-linecap:butt;stroke-linejoin:miter;stroke-miterlimit:4;stroke-dasharray:none;stroke-opacity:1"
           d="M 142.188,-40.434 H 255.492" /></g><g
         transform="matrix(-0.910077,0,0,-0.910077,-2.158152,67.521965)"
         id="g46"><path
           inkscape:connector-curvature="0"
           id="path48"
           style="fill:#000000;fill-opacity:1;fill-rule:evenodd;stroke:#000000;stroke-width:0.45813999;stroke-linecap:butt;stroke-linejoin:miter;stroke-miterlimit:4;stroke-dasharray:none;stroke-opacity:1"
           d="m -251.195,40.434 1.718,-1.719 -6.015,1.719 6.015,1.718 z" /></g><g
         id="g892"
         transform="matrix(1.4617661,0,0,-1.5445719,-252.0676,199.54686)"
         ns1:text="\\(\\frac{1}{(s+1)(s+2)}\\)"><g
   id="surface1">
<g
   id="g857"
   style="fill:#000000;fill-opacity:1">
  <path
   id="path855"
   transform="translate(197.869,107.068)"
   d="m 2.328125,-4.4375 c 0,-0.1875 0,-0.1875 -0.203125,-0.1875 -0.453125,0.4375 -1.078125,0.4375 -1.359375,0.4375 v 0.25 c 0.15625,0 0.625,0 1,-0.1875 v 3.546875 c 0,0.234375 0,0.328125 -0.6875,0.328125 H 0.8125 V 0 c 0.125,0 0.984375,-0.03125 1.234375,-0.03125 0.21875,0 1.09375,0.03125 1.25,0.03125 V -0.25 H 3.03125 c -0.703125,0 -0.703125,-0.09375 -0.703125,-0.328125 z m 0,0"
   style="stroke:none"
   inkscape:connector-curvature="0" />
</g>
<path
   id="path859"
   transform="matrix(1,0,0,-1,72,72)"
   d="m 107.78125,-36.5 h 40.14844"
   style="fill:none;stroke:#000000;stroke-width:0.3985;stroke-linecap:butt;stroke-linejoin:miter;stroke-miterlimit:10;stroke-opacity:1"
   inkscape:connector-curvature="0" />
<g
   id="g863"
   style="fill:#000000;fill-opacity:1">
  <path
   id="path861"
   transform="translate(179.78,114.426)"
   d="M 2.46875,-5.21875 C 1.15625,-4.296875 0.796875,-2.8125 0.796875,-1.75 c 0,0.984375 0.296875,2.515625 1.671875,3.484375 0.0625,0 0.140625,0 0.140625,-0.078125 0,-0.046875 -0.015625,-0.0625 -0.0625,-0.109375 C 1.609375,0.703125 1.28125,-0.46875 1.28125,-1.734375 1.28125,-3.625 2,-4.546875 2.5625,-5.0625 2.59375,-5.09375 2.609375,-5.109375 2.609375,-5.140625 2.609375,-5.21875 2.53125,-5.21875 2.46875,-5.21875 Z m 0,0"
   style="stroke:none"
   inkscape:connector-curvature="0" />
</g>
<g
   id="g867"
   style="fill:#000000;fill-opacity:1">
  <path
   id="path865"
   transform="translate(182.893,114.426)"
   d="m 3,-2.625 c -0.171875,0.046875 -0.296875,0.1875 -0.296875,0.328125 0,0.171875 0.140625,0.234375 0.234375,0.234375 0.078125,0 0.34375,-0.046875 0.34375,-0.40625 0,-0.453125 -0.5,-0.609375 -0.9375,-0.609375 -1.078125,0 -1.28125,0.8125 -1.28125,1.015625 0,0.265625 0.15625,0.4375 0.25,0.515625 0.171875,0.140625 0.296875,0.171875 0.78125,0.25 0.15625,0.03125 0.59375,0.109375 0.59375,0.453125 0,0.125 -0.078125,0.390625 -0.359375,0.5625 C 2.046875,-0.125 1.703125,-0.125 1.625,-0.125 1.34375,-0.125 0.953125,-0.1875 0.78125,-0.421875 1.015625,-0.453125 1.171875,-0.625 1.171875,-0.8125 c 0,-0.171875 -0.125,-0.265625 -0.265625,-0.265625 -0.203125,0 -0.40625,0.171875 -0.40625,0.46875 0,0.421875 0.4375,0.671875 1.109375,0.671875 1.296875,0 1.53125,-0.875 1.53125,-1.140625 0,-0.640625 -0.703125,-0.765625 -0.96875,-0.8125 -0.0625,-0.015625 -0.234375,-0.046875 -0.28125,-0.0625 -0.25,-0.046875 -0.375,-0.1875 -0.375,-0.34375 0,-0.15625 0.125,-0.34375 0.28125,-0.453125 0.1875,-0.109375 0.421875,-0.125 0.546875,-0.125 0.140625,0 0.5,0.015625 0.65625,0.25 z m 0,0"
   style="stroke:none"
   inkscape:connector-curvature="0" />
</g>
<g
   id="g877"
   style="fill:#000000;fill-opacity:1">
  <path
   id="path869"
   transform="translate(186.654,114.426)"
   d="m 3.21875,-1.578125 h 2.140625 c 0.09375,0 0.25,0 0.25,-0.15625 0,-0.1875 -0.15625,-0.1875 -0.25,-0.1875 H 3.21875 V -4.0625 c 0,-0.078125 0,-0.25 -0.15625,-0.25 -0.171875,0 -0.171875,0.15625 -0.171875,0.25 v 2.140625 H 0.75 c -0.09375,0 -0.265625,0 -0.265625,0.171875 0,0.171875 0.15625,0.171875 0.265625,0.171875 H 2.890625 V 0.5625 c 0,0.09375 0,0.265625 0.15625,0.265625 0.171875,0 0.171875,-0.171875 0.171875,-0.265625 z m 0,0"
   style="stroke:none"
   inkscape:connector-curvature="0" />
<path
   id="path871"
   transform="translate(192.77002,114.426)"
   d="m 2.328125,-4.4375 c 0,-0.1875 0,-0.1875 -0.203125,-0.1875 -0.453125,0.4375 -1.078125,0.4375 -1.359375,0.4375 v 0.25 c 0.15625,0 0.625,0 1,-0.1875 v 3.546875 c 0,0.234375 0,0.328125 -0.6875,0.328125 H 0.8125 V 0 c 0.125,0 0.984375,-0.03125 1.234375,-0.03125 0.21875,0 1.09375,0.03125 1.25,0.03125 V -0.25 H 3.03125 c -0.703125,0 -0.703125,-0.09375 -0.703125,-0.328125 z m 0,0"
   style="stroke:none"
   inkscape:connector-curvature="0" />
<path
   id="path873"
   transform="translate(196.7409,114.426)"
   d="m 0.625,-5.21875 c -0.046875,0 -0.125,0 -0.125,0.078125 0,0.03125 0.015625,0.046875 0.0625,0.109375 0.59375,0.546875 1.265625,1.484375 1.265625,3.28125 0,1.453125 -0.453125,2.5625 -1.203125,3.234375 -0.125,0.125 -0.125,0.125 -0.125,0.171875 0,0.03125 0.015625,0.078125 0.078125,0.078125 0.09375,0 0.75,-0.453125 1.21875,-1.328125 0.296875,-0.578125 0.5,-1.328125 0.5,-2.140625 C 2.296875,-2.71875 2,-4.25 0.625,-5.21875 Z m 0,0"
   style="stroke:none"
   inkscape:connector-curvature="0" />
<path
   id="path875"
   transform="translate(199.85401,114.426)"
   d="M 2.46875,-5.21875 C 1.15625,-4.296875 0.796875,-2.8125 0.796875,-1.75 c 0,0.984375 0.296875,2.515625 1.671875,3.484375 0.0625,0 0.140625,0 0.140625,-0.078125 0,-0.046875 -0.015625,-0.0625 -0.0625,-0.109375 C 1.609375,0.703125 1.28125,-0.46875 1.28125,-1.734375 1.28125,-3.625 2,-4.546875 2.5625,-5.0625 2.59375,-5.09375 2.609375,-5.109375 2.609375,-5.140625 2.609375,-5.21875 2.53125,-5.21875 2.46875,-5.21875 Z m 0,0"
   style="stroke:none"
   inkscape:connector-curvature="0" />
</g>
<g
   id="g881"
   style="fill:#000000;fill-opacity:1">
  <path
   id="path879"
   transform="translate(202.967,114.426)"
   d="m 3,-2.625 c -0.171875,0.046875 -0.296875,0.1875 -0.296875,0.328125 0,0.171875 0.140625,0.234375 0.234375,0.234375 0.078125,0 0.34375,-0.046875 0.34375,-0.40625 0,-0.453125 -0.5,-0.609375 -0.9375,-0.609375 -1.078125,0 -1.28125,0.8125 -1.28125,1.015625 0,0.265625 0.15625,0.4375 0.25,0.515625 0.171875,0.140625 0.296875,0.171875 0.78125,0.25 0.15625,0.03125 0.59375,0.109375 0.59375,0.453125 0,0.125 -0.078125,0.390625 -0.359375,0.5625 C 2.046875,-0.125 1.703125,-0.125 1.625,-0.125 1.34375,-0.125 0.953125,-0.1875 0.78125,-0.421875 1.015625,-0.453125 1.171875,-0.625 1.171875,-0.8125 c 0,-0.171875 -0.125,-0.265625 -0.265625,-0.265625 -0.203125,0 -0.40625,0.171875 -0.40625,0.46875 0,0.421875 0.4375,0.671875 1.109375,0.671875 1.296875,0 1.53125,-0.875 1.53125,-1.140625 0,-0.640625 -0.703125,-0.765625 -0.96875,-0.8125 -0.0625,-0.015625 -0.234375,-0.046875 -0.28125,-0.0625 -0.25,-0.046875 -0.375,-0.1875 -0.375,-0.34375 0,-0.15625 0.125,-0.34375 0.28125,-0.453125 0.1875,-0.109375 0.421875,-0.125 0.546875,-0.125 0.140625,0 0.5,0.015625 0.65625,0.25 z m 0,0"
   style="stroke:none"
   inkscape:connector-curvature="0" />
</g>
<g
   id="g889"
   style="fill:#000000;fill-opacity:1">
  <path
   id="path883"
   transform="translate(206.728,114.426)"
   d="m 3.21875,-1.578125 h 2.140625 c 0.09375,0 0.25,0 0.25,-0.15625 0,-0.1875 -0.15625,-0.1875 -0.25,-0.1875 H 3.21875 V -4.0625 c 0,-0.078125 0,-0.25 -0.15625,-0.25 -0.171875,0 -0.171875,0.15625 -0.171875,0.25 v 2.140625 H 0.75 c -0.09375,0 -0.265625,0 -0.265625,0.171875 0,0.171875 0.15625,0.171875 0.265625,0.171875 H 2.890625 V 0.5625 c 0,0.09375 0,0.265625 0.15625,0.265625 0.171875,0 0.171875,-0.171875 0.171875,-0.265625 z m 0,0"
   style="stroke:none"
   inkscape:connector-curvature="0" />
<path
   id="path885"
   transform="translate(212.84402,114.426)"
   d="M 3.515625,-1.265625 H 3.28125 c -0.015625,0.15625 -0.09375,0.5625 -0.1875,0.625 C 3.046875,-0.59375 2.515625,-0.59375 2.40625,-0.59375 H 1.125 c 0.734375,-0.640625 0.984375,-0.84375 1.390625,-1.171875 0.515625,-0.40625 1,-0.84375 1,-1.5 0,-0.84375 -0.734375,-1.359375 -1.625,-1.359375 -0.859375,0 -1.453125,0.609375 -1.453125,1.25 0,0.34375 0.296875,0.390625 0.375,0.390625 0.15625,0 0.359375,-0.125 0.359375,-0.375 0,-0.125 -0.046875,-0.375 -0.40625,-0.375 C 0.984375,-4.21875 1.453125,-4.375 1.78125,-4.375 c 0.703125,0 1.0625,0.546875 1.0625,1.109375 0,0.609375 -0.4375,1.078125 -0.65625,1.328125 L 0.515625,-0.265625 C 0.4375,-0.203125 0.4375,-0.1875 0.4375,0 h 2.875 z m 0,0"
   style="stroke:none"
   inkscape:connector-curvature="0" />
<path
   id="path887"
   transform="translate(216.8149,114.426)"
   d="m 0.625,-5.21875 c -0.046875,0 -0.125,0 -0.125,0.078125 0,0.03125 0.015625,0.046875 0.0625,0.109375 0.59375,0.546875 1.265625,1.484375 1.265625,3.28125 0,1.453125 -0.453125,2.5625 -1.203125,3.234375 -0.125,0.125 -0.125,0.125 -0.125,0.171875 0,0.03125 0.015625,0.078125 0.078125,0.078125 0.09375,0 0.75,-0.453125 1.21875,-1.328125 0.296875,-0.578125 0.5,-1.328125 0.5,-2.140625 C 2.296875,-2.71875 2,-4.25 0.625,-5.21875 Z m 0,0"
   style="stroke:none"
   inkscape:connector-curvature="0" />
</g>
</g>
</g><g
         id="g1238"
         transform="matrix(1.3377875,0,0,-1.4135702,-267.13853,195.4905)"
         ns1:text="$U(s)$"><g
   id="g1236">
<g
   id="g1222"
   style="fill:#000000;fill-opacity:1">
  <path
   id="path1220"
   transform="translate(178.584,110.991)"
   d="M 6.328125,-5.765625 C 6.4375,-6.171875 6.609375,-6.46875 7.40625,-6.5 c 0.046875,0 0.171875,-0.015625 0.171875,-0.203125 0,0 0,-0.109375 -0.125,-0.109375 -0.328125,0 -0.6875,0.03125 -1.015625,0.03125 -0.34375,0 -0.71875,-0.03125 -1.046875,-0.03125 -0.0625,0 -0.171875,0 -0.171875,0.203125 C 5.21875,-6.5 5.3125,-6.5 5.390625,-6.5 c 0.578125,0.015625 0.6875,0.21875 0.6875,0.4375 0,0.03125 -0.03125,0.1875 -0.03125,0.203125 l -0.90625,3.5625 C 4.8125,-0.953125 3.65625,-0.09375 2.65625,-0.09375 c -0.671875,0 -1.203125,-0.4375 -1.203125,-1.296875 0,-0.015625 0,-0.328125 0.109375,-0.765625 L 2.515625,-6.046875 C 2.609375,-6.40625 2.625,-6.5 3.359375,-6.5 c 0.265625,0 0.34375,0 0.34375,-0.203125 0,-0.109375 -0.109375,-0.109375 -0.140625,-0.109375 -0.28125,0 -1,0.03125 -1.28125,0.03125 -0.28125,0 -1,-0.03125 -1.28125,-0.03125 -0.078125,0 -0.1875,0 -0.1875,0.203125 C 0.8125,-6.5 0.890625,-6.5 1.09375,-6.5 c 0.015625,0 0.203125,0 0.375,0.015625 0.171875,0.03125 0.265625,0.03125 0.265625,0.171875 0,0.046875 -0.109375,0.46875 -0.171875,0.703125 l -0.21875,0.875 C 1.25,-4.34375 0.78125,-2.46875 0.734375,-2.265625 0.671875,-2 0.671875,-1.84375 0.671875,-1.6875 c 0,1.203125 0.90625,1.90625 1.953125,1.90625 1.25,0 2.484375,-1.125 2.8125,-2.4375 z m 0,0"
   style="stroke:none"
   inkscape:connector-curvature="0" />
</g>
<g
   id="g1226"
   style="fill:#000000;fill-opacity:1">
  <path
   id="path1224"
   transform="translate(186.473,110.991)"
   d="m 3.296875,2.390625 c 0,-0.03125 0,-0.046875 -0.171875,-0.21875 C 1.890625,0.921875 1.5625,-0.96875 1.5625,-2.5 c 0,-1.734375 0.375,-3.46875 1.609375,-4.703125 0.125,-0.125 0.125,-0.140625 0.125,-0.171875 0,-0.078125 -0.03125,-0.109375 -0.09375,-0.109375 -0.109375,0 -1,0.6875 -1.59375,1.953125 -0.5,1.09375 -0.625,2.203125 -0.625,3.03125 0,0.78125 0.109375,1.984375 0.65625,3.125 C 2.25,1.84375 3.09375,2.5 3.203125,2.5 c 0.0625,0 0.09375,-0.03125 0.09375,-0.109375 z m 0,0"
   style="stroke:none"
   inkscape:connector-curvature="0" />
</g>
<g
   id="g1230"
   style="fill:#000000;fill-opacity:1">
  <path
   id="path1228"
   transform="translate(190.347,110.991)"
   d="M 3.890625,-3.734375 C 3.625,-3.71875 3.421875,-3.5 3.421875,-3.28125 c 0,0.140625 0.09375,0.296875 0.3125,0.296875 0.21875,0 0.453125,-0.171875 0.453125,-0.5625 C 4.1875,-4 3.765625,-4.40625 3,-4.40625 c -1.3125,0 -1.6875,1.015625 -1.6875,1.453125 0,0.78125 0.734375,0.921875 1.03125,0.984375 0.515625,0.109375 1.03125,0.21875 1.03125,0.765625 0,0.25 -0.21875,1.09375 -1.421875,1.09375 -0.140625,0 -0.90625,0 -1.140625,-0.53125 0.390625,0.046875 0.640625,-0.25 0.640625,-0.53125 0,-0.21875 -0.171875,-0.34375 -0.375,-0.34375 -0.265625,0 -0.5625,0.203125 -0.5625,0.65625 0,0.5625 0.578125,0.96875 1.421875,0.96875 1.625,0 2.015625,-1.203125 2.015625,-1.65625 0,-0.359375 -0.1875,-0.609375 -0.3125,-0.71875 -0.265625,-0.28125 -0.5625,-0.34375 -1,-0.421875 -0.359375,-0.078125 -0.75,-0.15625 -0.75,-0.609375 C 1.890625,-3.578125 2.125,-4.1875 3,-4.1875 c 0.25,0 0.75,0.078125 0.890625,0.453125 z m 0,0"
   style="stroke:none"
   inkscape:connector-curvature="0" />
</g>
<g
   id="g1234"
   style="fill:#000000;fill-opacity:1">
  <path
   id="path1232"
   transform="translate(195.017,110.991)"
   d="m 2.875,-2.5 c 0,-0.765625 -0.109375,-1.96875 -0.65625,-3.109375 -0.59375,-1.21875 -1.453125,-1.875 -1.546875,-1.875 -0.0625,0 -0.109375,0.046875 -0.109375,0.109375 0,0.03125 0,0.046875 0.1875,0.234375 0.984375,0.984375 1.546875,2.5625 1.546875,4.640625 0,1.71875 -0.359375,3.46875 -1.59375,4.71875 C 0.5625,2.34375 0.5625,2.359375 0.5625,2.390625 0.5625,2.453125 0.609375,2.5 0.671875,2.5 0.765625,2.5 1.671875,1.8125 2.25,0.546875 2.765625,-0.546875 2.875,-1.65625 2.875,-2.5 Z m 0,0"
   style="stroke:none"
   inkscape:connector-curvature="0" />
</g>
</g>
</g><g
         id="g1382"
         transform="matrix(1.3377875,0,0,-1.4135702,-159.22734,195.4905)"
         ns1:text="$Y(s)$"><g
   id="g1380">
<g
   id="g1366"
   style="fill:#000000;fill-opacity:1">
  <path
   id="path1364"
   transform="translate(178.584,110.991)"
   d="M 5.953125,-5.671875 6.09375,-5.8125 C 6.390625,-6.109375 6.71875,-6.453125 7.390625,-6.5 7.5,-6.515625 7.59375,-6.515625 7.59375,-6.6875 c 0,-0.078125 -0.046875,-0.125 -0.125,-0.125 -0.265625,0 -0.546875,0.03125 -0.8125,0.03125 -0.34375,0 -0.6875,-0.03125 -1,-0.03125 -0.0625,0 -0.1875,0 -0.1875,0.1875 0,0.109375 0.09375,0.125 0.140625,0.125 0.078125,0 0.359375,0.015625 0.359375,0.234375 0,0.171875 -0.234375,0.421875 -0.265625,0.46875 L 3.390625,-3.125 2.296875,-6.09375 C 2.234375,-6.234375 2.234375,-6.25 2.234375,-6.265625 2.234375,-6.5 2.71875,-6.5 2.828125,-6.5 c 0.125,0 0.234375,0 0.234375,-0.203125 0,-0.109375 -0.125,-0.109375 -0.15625,-0.109375 -0.28125,0 -0.96875,0.03125 -1.25,0.03125 -0.25,0 -0.875,-0.03125 -1.125,-0.03125 -0.046875,0 -0.1875,0 -0.1875,0.203125 C 0.34375,-6.5 0.453125,-6.5 0.578125,-6.5 c 0.59375,0 0.640625,0.09375 0.734375,0.34375 L 2.53125,-2.875 c 0.015625,0.03125 0.046875,0.140625 0.046875,0.15625 0,0.03125 -0.40625,1.640625 -0.453125,1.828125 C 2,-0.34375 1.984375,-0.3125 1.1875,-0.3125 c -0.1875,0 -0.265625,0 -0.265625,0.203125 C 0.921875,0 1.03125,0 1.0625,0 c 0.265625,0 0.96875,-0.03125 1.25,-0.03125 0.28125,0 1,0.03125 1.28125,0.03125 0.0625,0 0.1875,0 0.1875,-0.203125 C 3.78125,-0.3125 3.6875,-0.3125 3.5,-0.3125 c -0.015625,0 -0.203125,0 -0.375,-0.015625 C 2.90625,-0.34375 2.84375,-0.375 2.84375,-0.484375 c 0,-0.078125 0.09375,-0.421875 0.140625,-0.625 l 0.359375,-1.40625 c 0.046875,-0.203125 0.0625,-0.21875 0.140625,-0.3125 z m 0,0"
   style="stroke:none"
   inkscape:connector-curvature="0" />
</g>
<g
   id="g1370"
   style="fill:#000000;fill-opacity:1">
  <path
   id="path1368"
   transform="translate(186.582,110.991)"
   d="m 3.296875,2.390625 c 0,-0.03125 0,-0.046875 -0.171875,-0.21875 C 1.890625,0.921875 1.5625,-0.96875 1.5625,-2.5 c 0,-1.734375 0.375,-3.46875 1.609375,-4.703125 0.125,-0.125 0.125,-0.140625 0.125,-0.171875 0,-0.078125 -0.03125,-0.109375 -0.09375,-0.109375 -0.109375,0 -1,0.6875 -1.59375,1.953125 -0.5,1.09375 -0.625,2.203125 -0.625,3.03125 0,0.78125 0.109375,1.984375 0.65625,3.125 C 2.25,1.84375 3.09375,2.5 3.203125,2.5 c 0.0625,0 0.09375,-0.03125 0.09375,-0.109375 z m 0,0"
   style="stroke:none"
   inkscape:connector-curvature="0" />
</g>
<g
   id="g1374"
   style="fill:#000000;fill-opacity:1">
  <path
   id="path1372"
   transform="translate(190.457,110.991)"
   d="M 3.890625,-3.734375 C 3.625,-3.71875 3.421875,-3.5 3.421875,-3.28125 c 0,0.140625 0.09375,0.296875 0.3125,0.296875 0.21875,0 0.453125,-0.171875 0.453125,-0.5625 C 4.1875,-4 3.765625,-4.40625 3,-4.40625 c -1.3125,0 -1.6875,1.015625 -1.6875,1.453125 0,0.78125 0.734375,0.921875 1.03125,0.984375 0.515625,0.109375 1.03125,0.21875 1.03125,0.765625 0,0.25 -0.21875,1.09375 -1.421875,1.09375 -0.140625,0 -0.90625,0 -1.140625,-0.53125 0.390625,0.046875 0.640625,-0.25 0.640625,-0.53125 0,-0.21875 -0.171875,-0.34375 -0.375,-0.34375 -0.265625,0 -0.5625,0.203125 -0.5625,0.65625 0,0.5625 0.578125,0.96875 1.421875,0.96875 1.625,0 2.015625,-1.203125 2.015625,-1.65625 0,-0.359375 -0.1875,-0.609375 -0.3125,-0.71875 -0.265625,-0.28125 -0.5625,-0.34375 -1,-0.421875 -0.359375,-0.078125 -0.75,-0.15625 -0.75,-0.609375 C 1.890625,-3.578125 2.125,-4.1875 3,-4.1875 c 0.25,0 0.75,0.078125 0.890625,0.453125 z m 0,0"
   style="stroke:none"
   inkscape:connector-curvature="0" />
</g>
<g
   id="g1378"
   style="fill:#000000;fill-opacity:1">
  <path
   id="path1376"
   transform="translate(195.127,110.991)"
   d="m 2.875,-2.5 c 0,-0.765625 -0.109375,-1.96875 -0.65625,-3.109375 -0.59375,-1.21875 -1.453125,-1.875 -1.546875,-1.875 -0.0625,0 -0.109375,0.046875 -0.109375,0.109375 0,0.03125 0,0.046875 0.1875,0.234375 0.984375,0.984375 1.546875,2.5625 1.546875,4.640625 0,1.71875 -0.359375,3.46875 -1.59375,4.71875 C 0.5625,2.34375 0.5625,2.359375 0.5625,2.390625 0.5625,2.453125 0.609375,2.5 0.671875,2.5 0.765625,2.5 1.671875,1.8125 2.25,0.546875 2.765625,-0.546875 2.875,-1.65625 2.875,-2.5 Z m 0,0"
   style="stroke:none"
   inkscape:connector-curvature="0" />
</g>
</g>
</g><g
         id="g1516"
         transform="matrix(1.3377875,0,0,-1.4135702,-212.04575,208.55526)"
         ns1:text="$G(s)$"><g
   id="g1514">
<g
   id="g1500"
   style="fill:#000000;fill-opacity:1">
  <path
   id="path1498"
   transform="translate(178.584,110.991)"
   d="m 7.578125,-6.921875 c 0,-0.03125 -0.015625,-0.109375 -0.109375,-0.109375 -0.03125,0 -0.046875,0.015625 -0.15625,0.125 L 6.625,-6.140625 C 6.53125,-6.28125 6.078125,-7.03125 4.96875,-7.03125 2.734375,-7.03125 0.5,-4.828125 0.5,-2.515625 c 0,1.59375 1.109375,2.734375 2.71875,2.734375 0.4375,0 0.890625,-0.09375 1.25,-0.234375 0.5,-0.203125 0.6875,-0.40625 0.859375,-0.609375 0.09375,0.25 0.359375,0.609375 0.453125,0.609375 0.046875,0 0.078125,-0.03125 0.078125,-0.03125 C 5.875,-0.0625 5.96875,-0.453125 6.015625,-0.65625 l 0.1875,-0.765625 C 6.25,-1.59375 6.296875,-1.765625 6.34375,-1.9375 c 0.109375,-0.4375 0.109375,-0.46875 0.6875,-0.46875 0.046875,0 0.15625,-0.015625 0.15625,-0.203125 0,-0.078125 -0.046875,-0.109375 -0.125,-0.109375 -0.234375,0 -0.828125,0.03125 -1.046875,0.03125 -0.3125,0 -1.09375,-0.03125 -1.40625,-0.03125 -0.078125,0 -0.203125,0 -0.203125,0.203125 0,0.109375 0.078125,0.109375 0.296875,0.109375 0.015625,0 0.296875,0 0.53125,0.015625 0.265625,0.03125 0.3125,0.0625 0.3125,0.1875 0,0.09375 -0.109375,0.53125 -0.21875,0.90625 -0.28125,1.09375 -1.5625,1.203125 -1.921875,1.203125 -0.953125,0 -2,-0.5625 -2,-2.09375 0,-0.3125 0.09375,-1.953125 1.140625,-3.25 0.546875,-0.671875 1.515625,-1.28125 2.5,-1.28125 1.015625,0 1.609375,0.765625 1.609375,1.921875 0,0.40625 -0.03125,0.40625 -0.03125,0.515625 0,0.09375 0.109375,0.09375 0.140625,0.09375 0.125,0 0.125,-0.015625 0.1875,-0.203125 z m 0,0"
   style="stroke:none"
   inkscape:connector-curvature="0" />
</g>
<g
   id="g1504"
   style="fill:#000000;fill-opacity:1">
  <path
   id="path1502"
   transform="translate(186.418,110.991)"
   d="m 3.296875,2.390625 c 0,-0.03125 0,-0.046875 -0.171875,-0.21875 C 1.890625,0.921875 1.5625,-0.96875 1.5625,-2.5 c 0,-1.734375 0.375,-3.46875 1.609375,-4.703125 0.125,-0.125 0.125,-0.140625 0.125,-0.171875 0,-0.078125 -0.03125,-0.109375 -0.09375,-0.109375 -0.109375,0 -1,0.6875 -1.59375,1.953125 -0.5,1.09375 -0.625,2.203125 -0.625,3.03125 0,0.78125 0.109375,1.984375 0.65625,3.125 C 2.25,1.84375 3.09375,2.5 3.203125,2.5 c 0.0625,0 0.09375,-0.03125 0.09375,-0.109375 z m 0,0"
   style="stroke:none"
   inkscape:connector-curvature="0" />
</g>
<g
   id="g1508"
   style="fill:#000000;fill-opacity:1">
  <path
   id="path1506"
   transform="translate(190.292,110.991)"
   d="M 3.890625,-3.734375 C 3.625,-3.71875 3.421875,-3.5 3.421875,-3.28125 c 0,0.140625 0.09375,0.296875 0.3125,0.296875 0.21875,0 0.453125,-0.171875 0.453125,-0.5625 C 4.1875,-4 3.765625,-4.40625 3,-4.40625 c -1.3125,0 -1.6875,1.015625 -1.6875,1.453125 0,0.78125 0.734375,0.921875 1.03125,0.984375 0.515625,0.109375 1.03125,0.21875 1.03125,0.765625 0,0.25 -0.21875,1.09375 -1.421875,1.09375 -0.140625,0 -0.90625,0 -1.140625,-0.53125 0.390625,0.046875 0.640625,-0.25 0.640625,-0.53125 0,-0.21875 -0.171875,-0.34375 -0.375,-0.34375 -0.265625,0 -0.5625,0.203125 -0.5625,0.65625 0,0.5625 0.578125,0.96875 1.421875,0.96875 1.625,0 2.015625,-1.203125 2.015625,-1.65625 0,-0.359375 -0.1875,-0.609375 -0.3125,-0.71875 -0.265625,-0.28125 -0.5625,-0.34375 -1,-0.421875 -0.359375,-0.078125 -0.75,-0.15625 -0.75,-0.609375 C 1.890625,-3.578125 2.125,-4.1875 3,-4.1875 c 0.25,0 0.75,0.078125 0.890625,0.453125 z m 0,0"
   style="stroke:none"
   inkscape:connector-curvature="0" />
</g>
<g
   id="g1512"
   style="fill:#000000;fill-opacity:1">
  <path
   id="path1510"
   transform="translate(194.962,110.991)"
   d="m 2.875,-2.5 c 0,-0.765625 -0.109375,-1.96875 -0.65625,-3.109375 -0.59375,-1.21875 -1.453125,-1.875 -1.546875,-1.875 -0.0625,0 -0.109375,0.046875 -0.109375,0.109375 0,0.03125 0,0.046875 0.1875,0.234375 0.984375,0.984375 1.546875,2.5625 1.546875,4.640625 0,1.71875 -0.359375,3.46875 -1.59375,4.71875 C 0.5625,2.34375 0.5625,2.359375 0.5625,2.390625 0.5625,2.453125 0.609375,2.5 0.671875,2.5 0.765625,2.5 1.671875,1.8125 2.25,0.546875 2.765625,-0.546875 2.875,-1.65625 2.875,-2.5 Z m 0,0"
   style="stroke:none"
   inkscape:connector-curvature="0" />
</g>
</g>
</g><g
         id="g1632"
         transform="matrix(1.4617661,0,0,-1.5445719,-60.22784,226.95951)"
         ns1:text="$j \\omega$"><g
   id="g1630">
<g
   id="g1624"
   style="fill:#000000;fill-opacity:1">
  <path
   id="path1622"
   transform="translate(178.584,110.991)"
   d="m 3.953125,-6.234375 c 0,-0.1875 -0.140625,-0.359375 -0.375,-0.359375 -0.234375,0 -0.53125,0.234375 -0.53125,0.53125 0,0.203125 0.140625,0.359375 0.375,0.359375 0.265625,0 0.53125,-0.265625 0.53125,-0.53125 z m -2,6.734375 c -0.1875,0.75 -0.671875,1.328125 -1.21875,1.328125 -0.0625,0 -0.21875,0 -0.390625,-0.09375 0.296875,-0.0625 0.4375,-0.328125 0.4375,-0.53125 0,-0.15625 -0.109375,-0.34375 -0.375,-0.34375 -0.25,0 -0.53125,0.203125 -0.53125,0.5625 0,0.40625 0.390625,0.625 0.875,0.625 0.703125,0 1.625,-0.53125 1.875,-1.515625 L 3.53125,-3.125 c 0.0625,-0.1875 0.0625,-0.328125 0.0625,-0.359375 0,-0.578125 -0.421875,-0.921875 -0.921875,-0.921875 -1.015625,0 -1.578125,1.453125 -1.578125,1.53125 0,0.109375 0.09375,0.109375 0.109375,0.109375 0.09375,0 0.109375,-0.015625 0.1875,-0.203125 0.25,-0.609375 0.703125,-1.21875 1.25,-1.21875 0.140625,0 0.3125,0.046875 0.3125,0.453125 0,0.234375 -0.015625,0.34375 -0.0625,0.515625 z m 0,0"
   style="stroke:none"
   inkscape:connector-curvature="0" />
</g>
<g
   id="g1628"
   style="fill:#000000;fill-opacity:1">
  <path
   id="path1626"
   transform="translate(183.25447,110.991)"
   d="m 6.03125,-3.703125 c 0,-0.453125 -0.171875,-0.703125 -0.40625,-0.703125 -0.25,0 -0.515625,0.234375 -0.515625,0.46875 0,0.09375 0.046875,0.203125 0.140625,0.296875 0.171875,0.15625 0.359375,0.421875 0.359375,0.84375 0,0.390625 -0.203125,0.96875 -0.5,1.421875 C 4.8125,-0.953125 4.4375,-0.609375 3.96875,-0.609375 3.40625,-0.609375 3.09375,-0.96875 3,-1.5 c 0.109375,-0.265625 0.34375,-0.90625 0.34375,-1.1875 0,-0.109375 -0.046875,-0.21875 -0.1875,-0.21875 -0.078125,0 -0.1875,0.03125 -0.265625,0.171875 C 2.78125,-2.53125 2.65625,-1.890625 2.65625,-1.53125 2.328125,-1.0625 1.9375,-0.609375 1.3125,-0.609375 c -0.671875,0 -0.875,-0.59375 -0.875,-1.140625 0,-1.25 1.015625,-2.296875 1.015625,-2.421875 0,-0.109375 -0.078125,-0.1875 -0.1875,-0.1875 -0.125,0 -0.203125,0.125 -0.265625,0.21875 -0.5,0.734375 -0.875,1.921875 -0.875,2.828125 0,0.6875 0.21875,1.421875 1.046875,1.421875 0.703125,0 1.171875,-0.5 1.53125,-1.046875 0.09375,0.578125 0.484375,1.046875 1.09375,1.046875 0.78125,0 1.25,-0.609375 1.609375,-1.359375 0.25,-0.484375 0.625,-1.84375 0.625,-2.453125 z m 0,0"
   style="stroke:none"
   inkscape:connector-curvature="0" />
</g>
</g>
</g><g
         id="g1726"
         transform="matrix(1.4617661,0,0,-1.5445719,-41.70399,206.72576)"
         ns1:text="$\\sigma$"><g
   id="g1724">
<g
   id="g1722"
   style="fill:#000000;fill-opacity:1">
  <path
   id="path1720"
   transform="translate(178.584,110.991)"
   d="m 5.15625,-3.71875 c 0.140625,0 0.5,0 0.5,-0.34375 0,-0.234375 -0.21875,-0.234375 -0.390625,-0.234375 h -2.28125 c -1.5,0 -2.609375,1.640625 -2.609375,2.828125 0,0.875 0.59375,1.578125 1.5,1.578125 1.171875,0 2.5,-1.203125 2.5,-2.734375 0,-0.171875 0,-0.65625 -0.3125,-1.09375 z M 1.890625,-0.109375 C 1.390625,-0.109375 1,-0.46875 1,-1.1875 c 0,-0.296875 0.109375,-1.109375 0.46875,-1.703125 0.421875,-0.6875 1.015625,-0.828125 1.359375,-0.828125 0.828125,0 0.90625,0.65625 0.90625,0.96875 0,0.46875 -0.203125,1.28125 -0.53125,1.796875 -0.390625,0.578125 -0.9375,0.84375 -1.3125,0.84375 z m 0,0"
   style="stroke:none"
   inkscape:connector-curvature="0" />
</g>
</g>
</g><path
         style="fill:none;stroke:#000000;stroke-width:0.75px;stroke-linecap:butt;stroke-linejoin:miter;stroke-opacity:1"
         d="m 168.63495,28.056464 5.44085,5.440854"
         id="path1735"
         inkscape:connector-curvature="0" /><path
         style="fill:none;stroke:#000000;stroke-width:0.75px;stroke-linecap:butt;stroke-linejoin:miter;stroke-opacity:1"
         d="m 168.63495,33.497314 5.44085,-5.44085"
         id="path1735-4"
         inkscape:connector-curvature="0" /><path
         style="fill:none;stroke:#000000;stroke-width:0.75px;stroke-linecap:butt;stroke-linejoin:miter;stroke-opacity:1"
         d="m 141.41914,27.913973 5.44085,5.440854"
         id="path1735-1"
         inkscape:connector-curvature="0" /><path
         style="fill:none;stroke:#000000;stroke-width:0.75px;stroke-linecap:butt;stroke-linejoin:miter;stroke-opacity:1"
         d="m 141.41914,33.354823 5.44085,-5.44085"
         id="path1735-4-6"
         inkscape:connector-curvature="0" /><text
         xml:space="preserve"
         style="font-style:normal;font-weight:normal;font-size:30px;line-height:1.25;font-family:sans-serif;letter-spacing:0px;word-spacing:0px;fill:#000000;fill-opacity:1;stroke:none;stroke-width:0.75"
         x="165.79822"
         y="-16.00518"
         id="text1772"
         transform="scale(1,-1)"><tspan
           sodipodi:role="line"
           id="tspan1770"
           x="165.79822"
           y="-16.00518"
           style="font-size:11px;stroke-width:0.75">-1</tspan></text>
<text
         xml:space="preserve"
         style="font-style:normal;font-weight:normal;font-size:30px;line-height:1.25;font-family:sans-serif;letter-spacing:0px;word-spacing:0px;fill:#000000;fill-opacity:1;stroke:none;stroke-width:0.75"
         x="133.7549"
         y="-15.935357"
         id="text1772-5"
         transform="scale(1,-1)"><tspan
           sodipodi:role="line"
           id="tspan1770-5"
           x="133.7549"
           y="-15.935357"
           style="font-size:11px;stroke-width:0.75">-2</tspan></text>
</g></g></svg>