<?xml version="1.0" encoding="UTF-8" standalone="no"?>
<!-- Created with Inkscape (http://www.inkscape.org/) -->

<svg
   xmlns:ns0="http://wanglongqi.github.io/WriteTeX"
   xmlns:dc="http://purl.org/dc/elements/1.1/"
   xmlns:cc="http://creativecommons.org/ns#"
   xmlns:rdf="http://www.w3.org/1999/02/22-rdf-syntax-ns#"
   xmlns:svg="http://www.w3.org/2000/svg"
   xmlns="http://www.w3.org/2000/svg"
   xmlns:sodipodi="http://sodipodi.sourceforge.net/DTD/sodipodi-0.dtd"
   xmlns:inkscape="http://www.inkscape.org/namespaces/inkscape"
   sodipodi:docname="bloco2.svg"
   inkscape:version="0.92.3 (unknown)"
   id="svg5594"
   version="1.1"
   viewBox="0 0 86.621561 26.192669"
   height="26.192669mm"
   width="86.621559mm">
  <sodipodi:namedview
     inkscape:window-maximized="1"
     inkscape:window-y="24"
     inkscape:window-x="0"
     inkscape:window-height="744"
     inkscape:window-width="1366"
     fit-margin-bottom="0"
     fit-margin-right="0"
     fit-margin-left="0"
     fit-margin-top="0"
     showgrid="false"
     inkscape:current-layer="layer1"
     inkscape:document-units="mm"
     inkscape:cy="0.93092489"
     inkscape:cx="102.05073"
     inkscape:zoom="1.8101934"
     inkscape:pageshadow="2"
     inkscape:pageopacity="0.0"
     borderopacity="1.0"
     bordercolor="#666666"
     pagecolor="#ffffff"
     id="base" />
  <defs
     id="defs5588" />
  <metadata
     id="metadata5591">
    <rdf:RDF>
      <cc:Work
         rdf:about="">
        <dc:format>image/svg+xml</dc:format>
        <dc:type
           rdf:resource="http://purl.org/dc/dcmitype/StillImage" />
        <dc:title></dc:title>
      </cc:Work>
    </rdf:RDF>
  </metadata>
  <g
     transform="translate(-62.06677,-164.3488)"
     id="layer1"
     inkscape:groupmode="layer"
     inkscape:label="Layer 1">
    <rect
       y="164.47926"
       x="85.971291"
       height="19.883966"
       width="19.883965"
       id="rect815"
       style="opacity:1;fill:none;fill-opacity:1;stroke:#000000;stroke-width:0.26092288;stroke-miterlimit:4;stroke-dasharray:none;stroke-dashoffset:0;stroke-opacity:1" />
    <circle
       r="1.8279153"
       cy="186.35739"
       cx="91.521118"
       id="path889"
       style="opacity:1;fill:#000000;fill-opacity:1;stroke:#000000;stroke-width:0.35297677;stroke-miterlimit:4;stroke-dasharray:none;stroke-dashoffset:0;stroke-opacity:1" />
    <circle
       r="1.8279155"
       cy="186.35739"
       cx="100.30544"
       id="path889-3"
       style="opacity:1;fill:#000000;fill-opacity:1;stroke:#000000;stroke-width:0.35297677;stroke-miterlimit:4;stroke-dasharray:none;stroke-dashoffset:0;stroke-opacity:1" />
    <path
       inkscape:connector-curvature="0"
       id="path948-5"
       d="m 70.74772,176.23296 2.897054,-2.89706"
       style="fill:none;stroke:#000000;stroke-width:0.17648841;stroke-linecap:butt;stroke-linejoin:miter;stroke-miterlimit:4;stroke-dasharray:none;stroke-opacity:1" />
    <path
       inkscape:connector-curvature="0"
       id="path948-3"
       d="m 73.644774,176.2162 2.897053,-2.89707"
       style="fill:none;stroke:#000000;stroke-width:0.17648841;stroke-linecap:butt;stroke-linejoin:miter;stroke-miterlimit:4;stroke-dasharray:none;stroke-opacity:1" />
    <path
       inkscape:connector-curvature="0"
       id="path948-56"
       d="m 76.541827,176.19942 2.897053,-2.89706"
       style="fill:none;stroke:#000000;stroke-width:0.17648841;stroke-linecap:butt;stroke-linejoin:miter;stroke-miterlimit:4;stroke-dasharray:none;stroke-opacity:1" />
    <path
       inkscape:connector-curvature="0"
       id="path950-2"
       d="m 73.644774,173.3359 v 2.8803"
       style="fill:none;stroke:#000000;stroke-width:0.17648841;stroke-linecap:butt;stroke-linejoin:miter;stroke-miterlimit:4;stroke-dasharray:none;stroke-opacity:1" />
    <path
       inkscape:connector-curvature="0"
       id="path950-7"
       d="m 76.541827,173.31913 v 2.88029"
       style="fill:none;stroke:#000000;stroke-width:0.17648841;stroke-linecap:butt;stroke-linejoin:miter;stroke-miterlimit:4;stroke-dasharray:none;stroke-opacity:1" />
    <path
       inkscape:connector-curvature="0"
       id="path950-0"
       d="m 70.74772,174.79282 v 1.44014"
       style="fill:none;stroke:#000000;stroke-width:0.17648841;stroke-linecap:butt;stroke-linejoin:miter;stroke-miterlimit:4;stroke-dasharray:none;stroke-opacity:1" />
    <path
       inkscape:connector-curvature="0"
       id="path950-0-9"
       d="m 79.43888,173.30236 v 1.44015"
       style="fill:none;stroke:#000000;stroke-width:0.17648841;stroke-linecap:butt;stroke-linejoin:miter;stroke-miterlimit:4;stroke-dasharray:none;stroke-opacity:1" />
    <path
       inkscape:connector-curvature="0"
       id="path916-6"
       d="M 64.142501,174.79282 H 70.74772"
       style="fill:none;stroke:#000000;stroke-width:0.17648841;stroke-linecap:butt;stroke-linejoin:miter;stroke-miterlimit:4;stroke-dasharray:none;stroke-opacity:1" />
    <path
       inkscape:connector-curvature="0"
       id="path1078"
       d="m 64.068626,164.64523 v 23.84602"
       style="fill:none;stroke:#000000;stroke-width:0.35265577;stroke-linecap:butt;stroke-linejoin:miter;stroke-miterlimit:4;stroke-dasharray:none;stroke-opacity:1" />
    <path
       inkscape:connector-curvature="0"
       id="path1080"
       d="m 64.068626,188.49125 c 3.684284,0 84.619704,0 84.619704,0"
       style="fill:none;stroke:#000000;stroke-width:0.35265577;stroke-linecap:butt;stroke-linejoin:miter;stroke-miterlimit:4;stroke-dasharray:none;stroke-opacity:1" />
    <path
       inkscape:connector-curvature="0"
       id="path916-6-0"
       d="m 79.43888,174.74251 h 6.605218"
       style="fill:none;stroke:#000000;stroke-width:0.17648841;stroke-linecap:butt;stroke-linejoin:miter;stroke-miterlimit:4;stroke-dasharray:none;stroke-opacity:1" />
    <path
       inkscape:connector-curvature="0"
       id="path948-5-7"
       d="m 62.219851,168.22593 1.848775,-1.84878"
       style="fill:none;stroke:#000000;stroke-width:0.43297845;stroke-linecap:butt;stroke-linejoin:miter;stroke-miterlimit:4;stroke-dasharray:none;stroke-opacity:1" />
    <path
       inkscape:connector-curvature="0"
       id="path948-5-7-5"
       d="m 62.219851,171.79937 1.848775,-1.84878"
       style="fill:none;stroke:#000000;stroke-width:0.43297851;stroke-linecap:butt;stroke-linejoin:miter;stroke-miterlimit:4;stroke-dasharray:none;stroke-opacity:1" />
    <path
       inkscape:connector-curvature="0"
       id="path948-5-7-9"
       d="m 62.219851,175.3728 1.848775,-1.84877"
       style="fill:none;stroke:#000000;stroke-width:0.43297851;stroke-linecap:butt;stroke-linejoin:miter;stroke-miterlimit:4;stroke-dasharray:none;stroke-opacity:1" />
    <path
       inkscape:connector-curvature="0"
       id="path948-5-7-2"
       d="m 62.219851,178.94625 1.848775,-1.84878"
       style="fill:none;stroke:#000000;stroke-width:0.43297851;stroke-linecap:butt;stroke-linejoin:miter;stroke-miterlimit:4;stroke-dasharray:none;stroke-opacity:1" />
    <path
       inkscape:connector-curvature="0"
       id="path948-5-7-28"
       d="m 62.219851,182.51968 1.848775,-1.84878"
       style="fill:none;stroke:#000000;stroke-width:0.43297851;stroke-linecap:butt;stroke-linejoin:miter;stroke-miterlimit:4;stroke-dasharray:none;stroke-opacity:1" />
    <path
       inkscape:connector-curvature="0"
       id="path948-5-7-97"
       d="m 62.219851,186.09312 1.848775,-1.84877"
       style="fill:none;stroke:#000000;stroke-width:0.43297851;stroke-linecap:butt;stroke-linejoin:miter;stroke-miterlimit:4;stroke-dasharray:none;stroke-opacity:1" />
    <path
       inkscape:connector-curvature="0"
       id="path948-5-7-3"
       d="m 64.967703,190.38839 1.848775,-1.84877"
       style="fill:none;stroke:#000000;stroke-width:0.43297851;stroke-linecap:butt;stroke-linejoin:miter;stroke-miterlimit:4;stroke-dasharray:none;stroke-opacity:1" />
    <path
       inkscape:connector-curvature="0"
       id="path948-5-7-6"
       d="m 69.72361,190.38839 1.848774,-1.84877"
       style="fill:none;stroke:#000000;stroke-width:0.43297851;stroke-linecap:butt;stroke-linejoin:miter;stroke-miterlimit:4;stroke-dasharray:none;stroke-opacity:1" />
    <path
       inkscape:connector-curvature="0"
       id="path948-5-7-1"
       d="m 74.479512,190.38839 1.848774,-1.84877"
       style="fill:none;stroke:#000000;stroke-width:0.43297851;stroke-linecap:butt;stroke-linejoin:miter;stroke-miterlimit:4;stroke-dasharray:none;stroke-opacity:1" />
    <path
       inkscape:connector-curvature="0"
       id="path948-5-7-29"
       d="m 79.23542,190.38839 1.848775,-1.84877"
       style="fill:none;stroke:#000000;stroke-width:0.43297851;stroke-linecap:butt;stroke-linejoin:miter;stroke-miterlimit:4;stroke-dasharray:none;stroke-opacity:1" />
    <path
       inkscape:connector-curvature="0"
       id="path948-5-7-31"
       d="m 83.991321,190.38839 1.848775,-1.84877"
       style="fill:none;stroke:#000000;stroke-width:0.43297851;stroke-linecap:butt;stroke-linejoin:miter;stroke-miterlimit:4;stroke-dasharray:none;stroke-opacity:1" />
    <path
       inkscape:connector-curvature="0"
       id="path948-5-7-94"
       d="m 88.747227,190.38839 1.848774,-1.84877"
       style="fill:none;stroke:#000000;stroke-width:0.43297851;stroke-linecap:butt;stroke-linejoin:miter;stroke-miterlimit:4;stroke-dasharray:none;stroke-opacity:1" />
    <path
       inkscape:connector-curvature="0"
       id="path948-5-7-7"
       d="m 93.50312,190.38839 1.848776,-1.84877"
       style="fill:none;stroke:#000000;stroke-width:0.43297851;stroke-linecap:butt;stroke-linejoin:miter;stroke-miterlimit:4;stroke-dasharray:none;stroke-opacity:1" />
    <path
       inkscape:connector-curvature="0"
       id="path948-5-7-8"
       d="m 98.259031,190.38839 1.848779,-1.84877"
       style="fill:none;stroke:#000000;stroke-width:0.43297851;stroke-linecap:butt;stroke-linejoin:miter;stroke-miterlimit:4;stroke-dasharray:none;stroke-opacity:1" />
    <path
       inkscape:connector-curvature="0"
       id="path948-5-7-4"
       d="m 103.01493,190.38839 1.84878,-1.84877"
       style="fill:none;stroke:#000000;stroke-width:0.43297851;stroke-linecap:butt;stroke-linejoin:miter;stroke-miterlimit:4;stroke-dasharray:none;stroke-opacity:1" />
    <rect
       y="164.4796"
       x="127.7231"
       height="19.883966"
       width="19.883965"
       id="rect815-4"
       style="opacity:1;fill:none;fill-opacity:1;stroke:#000000;stroke-width:0.26092288;stroke-miterlimit:4;stroke-dasharray:none;stroke-dashoffset:0;stroke-opacity:1" />
    <circle
       r="1.8279153"
       cy="186.35774"
       cx="133.27292"
       id="path889-7"
       style="opacity:1;fill:#000000;fill-opacity:1;stroke:#000000;stroke-width:0.35297677;stroke-miterlimit:4;stroke-dasharray:none;stroke-dashoffset:0;stroke-opacity:1" />
    <circle
       r="1.8279155"
       cy="186.35774"
       cx="142.05724"
       id="path889-3-4"
       style="opacity:1;fill:#000000;fill-opacity:1;stroke:#000000;stroke-width:0.35297677;stroke-miterlimit:4;stroke-dasharray:none;stroke-dashoffset:0;stroke-opacity:1" />
    <path
       inkscape:connector-curvature="0"
       id="path906-4"
       d="m 105.77173,177.27535 h 11.80953"
       style="fill:none;stroke:#000000;stroke-width:0.17648843;stroke-linecap:butt;stroke-linejoin:miter;stroke-miterlimit:4;stroke-dasharray:none;stroke-opacity:1" />
    <path
       inkscape:connector-curvature="0"
       id="path908-3"
       d="m 117.57312,175.53585 v 3.479"
       style="fill:none;stroke:#000000;stroke-width:0.17648843;stroke-linecap:butt;stroke-linejoin:miter;stroke-miterlimit:4;stroke-dasharray:none;stroke-opacity:1" />
    <path
       inkscape:connector-curvature="0"
       id="path910-0"
       d="m 116.2163,175.95333 v -1.60036"
       style="fill:none;stroke:#000000;stroke-width:0.17648843;stroke-linecap:butt;stroke-linejoin:miter;stroke-miterlimit:4;stroke-dasharray:none;stroke-opacity:1" />
    <path
       inkscape:connector-curvature="0"
       id="path912-78"
       d="m 116.2163,174.35297 h 2.71364"
       style="fill:none;stroke:#000000;stroke-width:0.17648843;stroke-linecap:butt;stroke-linejoin:miter;stroke-miterlimit:4;stroke-dasharray:none;stroke-opacity:1" />
    <path
       inkscape:connector-curvature="0"
       id="path914-6"
       d="m 118.92994,174.35297 v 5.84475"
       style="fill:none;stroke:#000000;stroke-width:0.17648843;stroke-linecap:butt;stroke-linejoin:miter;stroke-miterlimit:4;stroke-dasharray:none;stroke-opacity:1" />
    <path
       inkscape:connector-curvature="0"
       id="path910-6-8"
       d="m 116.2163,180.19772 v -1.60034"
       style="fill:none;stroke:#000000;stroke-width:0.17648843;stroke-linecap:butt;stroke-linejoin:miter;stroke-miterlimit:4;stroke-dasharray:none;stroke-opacity:1" />
    <path
       inkscape:connector-curvature="0"
       id="path912-7-8"
       d="m 116.2163,180.19772 h 2.71364"
       style="fill:none;stroke:#000000;stroke-width:0.17648843;stroke-linecap:butt;stroke-linejoin:miter;stroke-miterlimit:4;stroke-dasharray:none;stroke-opacity:1" />
    <path
       inkscape:connector-curvature="0"
       id="path948-5-4"
       d="m 112.49919,173.05829 2.89706,-2.89706"
       style="fill:none;stroke:#000000;stroke-width:0.17648843;stroke-linecap:butt;stroke-linejoin:miter;stroke-miterlimit:4;stroke-dasharray:none;stroke-opacity:1" />
    <path
       inkscape:connector-curvature="0"
       id="path948-3-3"
       d="m 115.39625,173.04153 2.89705,-2.89707"
       style="fill:none;stroke:#000000;stroke-width:0.17648843;stroke-linecap:butt;stroke-linejoin:miter;stroke-miterlimit:4;stroke-dasharray:none;stroke-opacity:1" />
    <path
       inkscape:connector-curvature="0"
       id="path948-56-1"
       d="m 118.2933,173.02475 2.89706,-2.89706"
       style="fill:none;stroke:#000000;stroke-width:0.17648843;stroke-linecap:butt;stroke-linejoin:miter;stroke-miterlimit:4;stroke-dasharray:none;stroke-opacity:1" />
    <path
       inkscape:connector-curvature="0"
       id="path950-2-4"
       d="m 115.39625,170.16123 v 2.8803"
       style="fill:none;stroke:#000000;stroke-width:0.17648843;stroke-linecap:butt;stroke-linejoin:miter;stroke-miterlimit:4;stroke-dasharray:none;stroke-opacity:1" />
    <path
       inkscape:connector-curvature="0"
       id="path950-7-9"
       d="m 118.2933,170.14446 v 2.88029"
       style="fill:none;stroke:#000000;stroke-width:0.17648843;stroke-linecap:butt;stroke-linejoin:miter;stroke-miterlimit:4;stroke-dasharray:none;stroke-opacity:1" />
    <path
       inkscape:connector-curvature="0"
       id="path950-0-2"
       d="m 112.49919,171.61815 v 1.44014"
       style="fill:none;stroke:#000000;stroke-width:0.17648843;stroke-linecap:butt;stroke-linejoin:miter;stroke-miterlimit:4;stroke-dasharray:none;stroke-opacity:1" />
    <path
       inkscape:connector-curvature="0"
       id="path950-0-9-0"
       d="m 121.19036,170.12769 v 1.44015"
       style="fill:none;stroke:#000000;stroke-width:0.17648843;stroke-linecap:butt;stroke-linejoin:miter;stroke-miterlimit:4;stroke-dasharray:none;stroke-opacity:1" />
    <path
       inkscape:connector-curvature="0"
       id="path916-6-6"
       d="m 105.89397,171.61815 h 6.60522"
       style="fill:none;stroke:#000000;stroke-width:0.17648843;stroke-linecap:butt;stroke-linejoin:miter;stroke-miterlimit:4;stroke-dasharray:none;stroke-opacity:1" />
    <path
       inkscape:connector-curvature="0"
       id="path916-6-0-8"
       d="m 121.19036,171.56784 h 6.60521"
       style="fill:none;stroke:#000000;stroke-width:0.17648843;stroke-linecap:butt;stroke-linejoin:miter;stroke-miterlimit:4;stroke-dasharray:none;stroke-opacity:1" />
    <path
       inkscape:connector-curvature="0"
       id="path906-6-9"
       d="m 118.87207,177.27535 h 8.8902"
       style="fill:none;stroke:#000000;stroke-width:0.17648843;stroke-linecap:butt;stroke-linejoin:miter;stroke-miterlimit:4;stroke-dasharray:none;stroke-opacity:1" />
    <path
       inkscape:connector-curvature="0"
       id="path948-5-7-4-2"
       d="m 107.77084,190.38839 1.84877,-1.84877"
       style="fill:none;stroke:#000000;stroke-width:0.43297851;stroke-linecap:butt;stroke-linejoin:miter;stroke-miterlimit:4;stroke-dasharray:none;stroke-opacity:1" />
    <path
       inkscape:connector-curvature="0"
       id="path948-5-7-4-6"
       d="m 112.52674,190.38839 1.84878,-1.84877"
       style="fill:none;stroke:#000000;stroke-width:0.43297851;stroke-linecap:butt;stroke-linejoin:miter;stroke-miterlimit:4;stroke-dasharray:none;stroke-opacity:1" />
    <path
       inkscape:connector-curvature="0"
       id="path948-5-7-4-64"
       d="m 117.28263,190.38839 1.84878,-1.84877"
       style="fill:none;stroke:#000000;stroke-width:0.43297851;stroke-linecap:butt;stroke-linejoin:miter;stroke-miterlimit:4;stroke-dasharray:none;stroke-opacity:1" />
    <path
       inkscape:connector-curvature="0"
       id="path948-5-7-4-9"
       d="m 122.03855,190.38839 1.84878,-1.84877"
       style="fill:none;stroke:#000000;stroke-width:0.43297851;stroke-linecap:butt;stroke-linejoin:miter;stroke-miterlimit:4;stroke-dasharray:none;stroke-opacity:1" />
    <path
       inkscape:connector-curvature="0"
       id="path948-5-7-4-5"
       d="m 131.55035,190.38839 1.84878,-1.84877"
       style="fill:none;stroke:#000000;stroke-width:0.43297851;stroke-linecap:butt;stroke-linejoin:miter;stroke-miterlimit:4;stroke-dasharray:none;stroke-opacity:1" />
    <path
       inkscape:connector-curvature="0"
       id="path948-5-7-4-0"
       d="m 141.06216,190.38839 1.84878,-1.84877"
       style="fill:none;stroke:#000000;stroke-width:0.43297851;stroke-linecap:butt;stroke-linejoin:miter;stroke-miterlimit:4;stroke-dasharray:none;stroke-opacity:1" />
    <path
       inkscape:connector-curvature="0"
       id="path948-5-7-4-0-4"
       d="m 145.81807,190.38839 1.84877,-1.84877"
       style="fill:none;stroke:#000000;stroke-width:0.43297851;stroke-linecap:butt;stroke-linejoin:miter;stroke-miterlimit:4;stroke-dasharray:none;stroke-opacity:1" />
    <path
       inkscape:connector-curvature="0"
       id="path948-5-7-4-0-8"
       d="m 136.30626,190.38839 1.84878,-1.84877"
       style="fill:none;stroke:#000000;stroke-width:0.43297851;stroke-linecap:butt;stroke-linejoin:miter;stroke-miterlimit:4;stroke-dasharray:none;stroke-opacity:1" />
    <path
       inkscape:connector-curvature="0"
       id="path948-5-7-4-0-7"
       d="m 126.79445,190.38839 1.84877,-1.84877"
       style="fill:none;stroke:#000000;stroke-width:0.43297851;stroke-linecap:butt;stroke-linejoin:miter;stroke-miterlimit:4;stroke-dasharray:none;stroke-opacity:1" />
    <g
       id="g6559"
       transform="matrix(291.75041,0,0,291.75041,11.453141,198.91122)"
       ns0:text="\\(m_1\\)">
      <g
         word-spacing="normal"
         letter-spacing="normal"
         font-size-adjust="none"
         font-stretch="normal"
         font-weight="normal"
         font-variant="normal"
         font-style="normal"
         stroke-miterlimit="10.433"
         xml:space="preserve"
         transform="matrix(0.0017361,0,0,-0.0017361,-0.03125,1.1875)"
         id="content"
         style="font-style:normal;font-variant:normal;font-weight:normal;font-stretch:normal;letter-spacing:normal;word-spacing:normal;text-anchor:start;fill:none;fill-opacity:1;fill-rule:evenodd;stroke:#000000;stroke-linecap:butt;stroke-linejoin:miter;stroke-miterlimit:10.43299961;stroke-dasharray:none;stroke-dashoffset:0;stroke-opacity:1"><path
           id="path6554"
           d="m 179.46,731.48 v -0.01 l -0.01,-0.01 v -0.02 -0.01 l -0.01,-0.04 -0.01,-0.03 v -0.03 l -0.01,-0.03 -0.01,-0.03 -0.01,-0.04 v -0.01 -0.02 l -0.01,-0.01 v -0.01 -0.02 l -0.01,-0.01 v -0.01 -0.02 -0.01 -0.01 l -0.01,-0.01 v -0.01 0 -0.01 -0.01 0 c 0,-0.18 0.14,-0.27 0.29,-0.27 0.12,0 0.3,0.08 0.37,0.28 0.01,0.02 0.13,0.48 0.19,0.73 l 0.22,0.9 c 0.05,0.22 0.11,0.44 0.16,0.67 0.05,0.17 0.12,0.46 0.13,0.5 0.15,0.3 0.68,1.21 1.63,1.21 0.45,0 0.54,-0.37 0.54,-0.7 0,-0.24 -0.07,-0.52 -0.15,-0.82 l -0.28,-1.16 -0.2,-0.75 c -0.04,-0.2 -0.13,-0.54 -0.13,-0.59 0,-0.18 0.14,-0.27 0.29,-0.27 0.31,0 0.37,0.25 0.45,0.57 0.14,0.55 0.5,2.01 0.59,2.4 0.03,0.13 0.56,1.32 1.65,1.32 0.43,0 0.54,-0.34 0.54,-0.7 0,-0.56 -0.42,-1.7 -0.62,-2.23 -0.09,-0.24 -0.13,-0.35 -0.13,-0.55 0,-0.46 0.35,-0.81 0.82,-0.81 0.93,0 1.3,1.45 1.3,1.53 0,0.1 -0.09,0.1 -0.12,0.1 -0.1,0 -0.1,-0.03 -0.15,-0.18 -0.15,-0.53 -0.47,-1.23 -1.01,-1.23 -0.17,0 -0.24,0.1 -0.24,0.33 0,0.25 0.09,0.48 0.18,0.7 0.19,0.52 0.6,1.63 0.6,2.19 0,0.65 -0.39,1.07 -1.14,1.07 -0.75,0 -1.26,-0.44 -1.63,-0.96 -0.01,0.12 -0.04,0.46 -0.31,0.7 -0.25,0.21 -0.57,0.26 -0.82,0.26 -0.9,0 -1.39,-0.64 -1.56,-0.87 -0.05,0.57 -0.46,0.87 -0.91,0.87 -0.46,0 -0.65,-0.39 -0.74,-0.57 -0.18,-0.35 -0.31,-0.93 -0.31,-0.96 0,-0.1 0.1,-0.1 0.12,-0.1 0.1,0 0.11,0.01 0.17,0.23 0.17,0.7 0.37,1.18 0.73,1.18 0.16,0 0.31,-0.08 0.31,-0.46 0,-0.21 -0.03,-0.32 -0.16,-0.83 z"
           inkscape:connector-curvature="0"
           style="fill:#000000;stroke-width:0" /><path
           id="path6556"
           d="m 189.67,733.84 v 0.01 0.01 0.01 0 0.01 0.01 0.01 0 0.01 0.01 0 0.01 0 0.01 0.01 0 l -0.01,0.01 v 0 0.01 0.01 0.01 h -0.01 V 734 h -0.01 v 0.01 h -0.01 v 0.01 h -0.01 -0.01 v 0.01 h -0.01 -0.01 -0.01 v 0 h -0.01 v 0 h -0.01 -0.01 v 0 h -0.01 l -0.01,0.01 v 0 h -0.01 -0.01 -0.01 v 0 h -0.01 -0.01 -0.01 -0.01 c -0.44,-0.44 -1.08,-0.45 -1.36,-0.45 v -0.25 c 0.16,0 0.62,0 1.01,0.19 v -3.55 c 0,-0.23 0,-0.32 -0.7,-0.32 h -0.27 v -0.25 c 0.13,0 0.99,0.02 1.24,0.02 0.22,0 1.1,-0.02 1.25,-0.02 v 0.25 h -0.26 c -0.7,0 -0.7,0.09 -0.7,0.32 z"
           inkscape:connector-curvature="0"
           style="fill:#000000;stroke-width:0" /></g>    </g>
    <g
       ns0:text="\\(m_2\\)"
       transform="matrix(291.75041,0,0,291.75041,53.146701,198.91155)"
       id="g6723">
      <g
         style="font-style:normal;font-variant:normal;font-weight:normal;font-stretch:normal;letter-spacing:normal;word-spacing:normal;text-anchor:start;fill:none;fill-opacity:1;fill-rule:evenodd;stroke:#000000;stroke-linecap:butt;stroke-linejoin:miter;stroke-miterlimit:10.43299961;stroke-dasharray:none;stroke-dashoffset:0;stroke-opacity:1"
         id="g6721"
         transform="matrix(0.0017361,0,0,-0.0017361,-0.03125,1.1875)"
         xml:space="preserve"
         stroke-miterlimit="10.433"
         font-style="normal"
         font-variant="normal"
         font-weight="normal"
         font-stretch="normal"
         font-size-adjust="none"
         letter-spacing="normal"
         word-spacing="normal"><path
           style="fill:#000000;stroke-width:0"
           inkscape:connector-curvature="0"
           d="m 179.46,731.48 v -0.01 l -0.01,-0.01 v -0.02 -0.01 l -0.01,-0.04 -0.01,-0.03 v -0.03 l -0.01,-0.03 -0.01,-0.03 -0.01,-0.04 v -0.01 -0.02 l -0.01,-0.01 v -0.01 -0.02 l -0.01,-0.01 v -0.01 -0.02 -0.01 -0.01 l -0.01,-0.01 v -0.01 0 -0.01 -0.01 0 c 0,-0.18 0.14,-0.27 0.29,-0.27 0.12,0 0.3,0.08 0.37,0.28 0.01,0.02 0.13,0.48 0.19,0.73 l 0.22,0.9 c 0.05,0.22 0.11,0.44 0.16,0.67 0.05,0.17 0.12,0.46 0.13,0.5 0.15,0.3 0.68,1.21 1.63,1.21 0.45,0 0.54,-0.37 0.54,-0.7 0,-0.24 -0.07,-0.52 -0.15,-0.82 l -0.28,-1.16 -0.2,-0.75 c -0.04,-0.2 -0.13,-0.54 -0.13,-0.59 0,-0.18 0.14,-0.27 0.29,-0.27 0.31,0 0.37,0.25 0.45,0.57 0.14,0.55 0.5,2.01 0.59,2.4 0.03,0.13 0.56,1.32 1.65,1.32 0.43,0 0.54,-0.34 0.54,-0.7 0,-0.56 -0.42,-1.7 -0.62,-2.23 -0.09,-0.24 -0.13,-0.35 -0.13,-0.55 0,-0.46 0.35,-0.81 0.82,-0.81 0.93,0 1.3,1.45 1.3,1.53 0,0.1 -0.09,0.1 -0.12,0.1 -0.1,0 -0.1,-0.03 -0.15,-0.18 -0.15,-0.53 -0.47,-1.23 -1.01,-1.23 -0.17,0 -0.24,0.1 -0.24,0.33 0,0.25 0.09,0.48 0.18,0.7 0.19,0.52 0.6,1.63 0.6,2.19 0,0.65 -0.39,1.07 -1.14,1.07 -0.75,0 -1.26,-0.44 -1.63,-0.96 -0.01,0.12 -0.04,0.46 -0.31,0.7 -0.25,0.21 -0.57,0.26 -0.82,0.26 -0.9,0 -1.39,-0.64 -1.56,-0.87 -0.05,0.57 -0.46,0.87 -0.91,0.87 -0.46,0 -0.65,-0.39 -0.74,-0.57 -0.18,-0.35 -0.31,-0.93 -0.31,-0.96 0,-0.1 0.1,-0.1 0.12,-0.1 0.1,0 0.11,0.01 0.17,0.23 0.17,0.7 0.37,1.18 0.73,1.18 0.16,0 0.31,-0.08 0.31,-0.46 0,-0.21 -0.03,-0.32 -0.16,-0.83 z"
           id="path6717" /><path
           style="fill:#000000;stroke-width:0"
           inkscape:connector-curvature="0"
           d="m 190.86,730.67 h -0.24 c -0.02,-0.15 -0.09,-0.56 -0.18,-0.63 C 190.38,730 189.85,730 189.75,730 h -1.29 c 0.74,0.65 0.98,0.84 1.4,1.17 0.52,0.41 1,0.84 1,1.51 0,0.84 -0.74,1.36 -1.63,1.36 -0.87,0 -1.46,-0.61 -1.46,-1.25 0,-0.36 0.3,-0.39 0.37,-0.39 0.17,0 0.37,0.12 0.37,0.37 0,0.12 -0.05,0.37 -0.41,0.37 0.22,0.49 0.69,0.64 1.02,0.64 0.7,0 1.06,-0.54 1.06,-1.1 0,-0.61 -0.43,-1.09 -0.66,-1.34 l -1.68,-1.66 c -0.07,-0.07 -0.07,-0.08 -0.07,-0.27 h 2.88 z"
           id="path6719" /></g>    </g>
    <g
       id="g7615"
       transform="matrix(291.75041,0,0,291.75041,34.106682,191.75477)"
       ns0:text="\\(k_2\\)">
      <g
         word-spacing="normal"
         letter-spacing="normal"
         font-size-adjust="none"
         font-stretch="normal"
         font-weight="normal"
         font-variant="normal"
         font-style="normal"
         stroke-miterlimit="10.433"
         xml:space="preserve"
         transform="matrix(0.0017361,0,0,-0.0017361,-0.03125,1.1875)"
         id="g7613"
         style="font-style:normal;font-variant:normal;font-weight:normal;font-stretch:normal;letter-spacing:normal;word-spacing:normal;text-anchor:start;fill:none;fill-opacity:1;fill-rule:evenodd;stroke:#000000;stroke-linecap:butt;stroke-linejoin:miter;stroke-miterlimit:10.43299961;stroke-dasharray:none;stroke-dashoffset:0;stroke-opacity:1"><path
           id="path7609"
           d="m 181.44,737.7 v 0 0 0 0.01 0 0 0.01 0 0 0.01 0 0.01 0 l -0.01,0.01 v 0 0.01 0 l -0.01,0.01 v 0 l -0.01,0.01 v 0 0 0 l -0.01,0.01 v 0 0 h -0.01 v 0 0.01 h -0.01 v 0 0 h -0.01 v 0 l -0.01,0.01 v 0 h -0.01 v 0 0 h -0.01 -0.01 v 0 h -0.01 v 0 h -0.01 c -0.23,0 -0.95,-0.08 -1.21,-0.1 -0.08,-0.01 -0.19,-0.02 -0.19,-0.2 0,-0.12 0.09,-0.12 0.24,-0.12 0.47,0 0.5,-0.07 0.5,-0.17 l -0.03,-0.2 -1.45,-5.73 c -0.04,-0.14 -0.04,-0.16 -0.04,-0.22 0,-0.23 0.2,-0.28 0.29,-0.28 0.13,0 0.28,0.09 0.34,0.21 0.05,0.09 0.5,1.93 0.56,2.18 0.33,-0.03 1.15,-0.19 1.15,-0.85 0,-0.07 0,-0.11 -0.03,-0.21 -0.02,-0.12 -0.04,-0.24 -0.04,-0.35 0,-0.58 0.4,-0.98 0.92,-0.98 0.3,0 0.57,0.16 0.79,0.53 0.24,0.43 0.35,0.98 0.35,1 0,0.1 -0.08,0.1 -0.11,0.1 -0.11,0 -0.11,-0.04 -0.14,-0.18 -0.2,-0.72 -0.43,-1.23 -0.87,-1.23 -0.19,0 -0.32,0.11 -0.32,0.46 0,0.18 0.04,0.4 0.08,0.56 0.04,0.17 0.04,0.21 0.04,0.31 0,0.65 -0.63,0.94 -1.48,1.05 0.31,0.18 0.63,0.5 0.86,0.73 0.48,0.53 0.94,0.96 1.43,0.96 0.06,0 0.07,0 0.09,-0.01 0.11,-0.02 0.12,-0.02 0.2,-0.08 0.02,-0.01 0.02,-0.02 0.05,-0.04 -0.48,-0.03 -0.57,-0.42 -0.57,-0.54 0,-0.15 0.11,-0.34 0.38,-0.34 0.25,0 0.54,0.21 0.54,0.6 0,0.3 -0.23,0.63 -0.67,0.63 -0.28,0 -0.74,-0.08 -1.46,-0.88 -0.34,-0.37 -0.73,-0.77 -1.1,-0.92 z"
           inkscape:connector-curvature="0"
           style="fill:#000000;stroke-width:0" /><path
           id="path7611"
           d="m 187.29,730.67 h -0.23 c -0.02,-0.15 -0.09,-0.56 -0.18,-0.63 -0.06,-0.04 -0.6,-0.04 -0.7,-0.04 h -1.28 c 0.73,0.65 0.98,0.84 1.4,1.17 0.51,0.41 0.99,0.84 0.99,1.51 0,0.84 -0.74,1.36 -1.63,1.36 -0.86,0 -1.45,-0.61 -1.45,-1.25 0,-0.36 0.3,-0.39 0.37,-0.39 0.17,0 0.37,0.12 0.37,0.37 0,0.12 -0.05,0.37 -0.41,0.37 0.22,0.49 0.69,0.64 1.02,0.64 0.7,0 1.06,-0.54 1.06,-1.1 0,-0.61 -0.44,-1.09 -0.66,-1.34 l -1.68,-1.66 c -0.07,-0.07 -0.07,-0.08 -0.07,-0.27 h 2.88 z"
           inkscape:connector-curvature="0"
           style="fill:#000000;stroke-width:0" /></g>    </g>
    <g
       ns0:text="\\(b_2\\)"
       transform="matrix(291.75041,0,0,291.75041,34.21513,209.02301)"
       id="g7775">
      <g
         id="g7773"
         transform="matrix(0.0017361,0,0,-0.0017361,-0.03125,1.1875)"
         xml:space="preserve"
         stroke-miterlimit="10.433"
         font-style="normal"
         font-variant="normal"
         font-weight="normal"
         font-stretch="normal"
         font-size-adjust="none"
         letter-spacing="normal"
         word-spacing="normal"
         style="font-style:normal;font-variant:normal;font-weight:normal;font-stretch:normal;letter-spacing:normal;word-spacing:normal;text-anchor:start;fill:none;fill-opacity:1;fill-rule:evenodd;stroke:#000000;stroke-linecap:butt;stroke-linejoin:miter;stroke-miterlimit:10.43299961;stroke-dasharray:none;stroke-dashoffset:0;stroke-opacity:1"><path
           d="m 180.96,737.7 v 0 0 0 0.01 0 0 0.01 0 0 0.01 0 0.01 0 0.01 h -0.01 v 0.01 0 l -0.01,0.01 v 0 0.01 h -0.01 v 0 0 l -0.01,0.01 v 0 0 0 h -0.01 v 0.01 0 h -0.01 v 0 h -0.01 v 0 0.01 h -0.01 v 0 h -0.01 v 0 h -0.01 v 0 h -0.01 v 0 h -0.01 -0.01 c -0.23,0 -0.95,-0.08 -1.21,-0.1 -0.08,-0.01 -0.19,-0.02 -0.19,-0.2 0,-0.12 0.09,-0.12 0.24,-0.12 0.48,0 0.5,-0.07 0.5,-0.17 0,-0.07 -0.09,-0.4 -0.14,-0.61 l -0.82,-3.25 c -0.12,-0.5 -0.16,-0.66 -0.16,-1.01 0,-0.94 0.53,-1.56 1.27,-1.56 v 0.22 c -0.34,0 -0.67,0.27 -0.67,1 0,0.19 0,0.38 0.16,1.01 l 0.22,0.92 c 0.06,0.22 0.06,0.23 0.15,0.34 0.48,0.65 0.93,0.8 1.19,0.8 0.36,0 0.63,-0.3 0.63,-0.93 0,-0.59 -0.33,-1.74 -0.51,-2.12 -0.33,-0.66 -0.78,-1.02 -1.17,-1.02 v -0.22 c 1.17,0 2.4,1.48 2.4,2.92 0,0.9 -0.53,1.59 -1.33,1.59 -0.46,0 -0.87,-0.29 -1.16,-0.6 z"
           id="path7769"
           inkscape:connector-curvature="0"
           style="fill:#000000;stroke-width:0" /><path
           d="m 186.38,730.67 h -0.24 c -0.02,-0.15 -0.09,-0.56 -0.18,-0.63 C 185.9,730 185.37,730 185.27,730 h -1.28 c 0.73,0.65 0.97,0.84 1.39,1.17 0.52,0.41 1,0.84 1,1.51 0,0.84 -0.74,1.36 -1.63,1.36 -0.87,0 -1.45,-0.61 -1.45,-1.25 0,-0.36 0.3,-0.39 0.37,-0.39 0.16,0 0.37,0.12 0.37,0.37 0,0.12 -0.05,0.37 -0.42,0.37 0.22,0.49 0.7,0.64 1.02,0.64 0.7,0 1.06,-0.54 1.06,-1.1 0,-0.61 -0.43,-1.09 -0.65,-1.34 l -1.68,-1.66 c -0.07,-0.07 -0.07,-0.08 -0.07,-0.27 h 2.87 z"
           id="path7771"
           inkscape:connector-curvature="0"
           style="fill:#000000;stroke-width:0" /></g>    </g>
    <g
       id="g7963"
       transform="matrix(291.75041,0,0,291.75041,-7.8321984,193.79821)"
       ns0:text="\\(k_1\\)">
      <g
         word-spacing="normal"
         letter-spacing="normal"
         font-size-adjust="none"
         font-stretch="normal"
         font-weight="normal"
         font-variant="normal"
         font-style="normal"
         stroke-miterlimit="10.433"
         xml:space="preserve"
         transform="matrix(0.0017361,0,0,-0.0017361,-0.03125,1.1875)"
         id="g7961"
         style="font-style:normal;font-variant:normal;font-weight:normal;font-stretch:normal;letter-spacing:normal;word-spacing:normal;text-anchor:start;fill:none;fill-opacity:1;fill-rule:evenodd;stroke:#000000;stroke-linecap:butt;stroke-linejoin:miter;stroke-miterlimit:10.43299961;stroke-dasharray:none;stroke-dashoffset:0;stroke-opacity:1"><path
           id="path7957"
           d="m 181.44,737.7 v 0 0 0 0.01 0 0 0.01 0 0 0.01 0 0.01 0 l -0.01,0.01 v 0 0.01 0 l -0.01,0.01 v 0 l -0.01,0.01 v 0 0 0 l -0.01,0.01 v 0 0 h -0.01 v 0 0.01 h -0.01 v 0 0 h -0.01 v 0 l -0.01,0.01 v 0 h -0.01 v 0 0 h -0.01 -0.01 v 0 h -0.01 v 0 h -0.01 c -0.23,0 -0.95,-0.08 -1.21,-0.1 -0.08,-0.01 -0.19,-0.02 -0.19,-0.2 0,-0.12 0.09,-0.12 0.24,-0.12 0.47,0 0.5,-0.07 0.5,-0.17 l -0.03,-0.2 -1.45,-5.73 c -0.04,-0.14 -0.04,-0.16 -0.04,-0.22 0,-0.23 0.2,-0.28 0.29,-0.28 0.13,0 0.28,0.09 0.34,0.21 0.05,0.09 0.5,1.93 0.56,2.18 0.33,-0.03 1.15,-0.19 1.15,-0.85 0,-0.07 0,-0.11 -0.03,-0.21 -0.02,-0.12 -0.04,-0.24 -0.04,-0.35 0,-0.58 0.4,-0.98 0.92,-0.98 0.3,0 0.57,0.16 0.79,0.53 0.24,0.43 0.35,0.98 0.35,1 0,0.1 -0.08,0.1 -0.11,0.1 -0.11,0 -0.11,-0.04 -0.14,-0.18 -0.2,-0.72 -0.43,-1.23 -0.87,-1.23 -0.19,0 -0.32,0.11 -0.32,0.46 0,0.18 0.04,0.4 0.08,0.56 0.04,0.17 0.04,0.21 0.04,0.31 0,0.65 -0.63,0.94 -1.48,1.05 0.31,0.18 0.63,0.5 0.86,0.73 0.48,0.53 0.94,0.96 1.43,0.96 0.06,0 0.07,0 0.09,-0.01 0.11,-0.02 0.12,-0.02 0.2,-0.08 0.02,-0.01 0.02,-0.02 0.05,-0.04 -0.48,-0.03 -0.57,-0.42 -0.57,-0.54 0,-0.15 0.11,-0.34 0.38,-0.34 0.25,0 0.54,0.21 0.54,0.6 0,0.3 -0.23,0.63 -0.67,0.63 -0.28,0 -0.74,-0.08 -1.46,-0.88 -0.34,-0.37 -0.73,-0.77 -1.1,-0.92 z"
           inkscape:connector-curvature="0"
           style="fill:#000000;stroke-width:0" /><path
           id="path7959"
           d="m 186.11,733.84 v 0.01 0.01 0.01 0 0.01 0.01 0.01 0 0.01 0.01 0 0.01 0 0.01 l -0.01,0.01 v 0 0.01 0 0.01 0.01 l -0.01,0.01 v 0 0.01 h -0.01 v 0.01 h -0.01 v 0.01 h -0.01 -0.01 l -0.01,0.01 h -0.01 v 0 h -0.01 -0.01 v 0 H 186 v 0 h -0.01 v 0 h -0.01 l -0.01,0.01 h -0.01 v 0 h -0.01 -0.01 -0.01 v 0 h -0.01 -0.01 -0.01 c -0.45,-0.44 -1.08,-0.45 -1.37,-0.45 v -0.25 c 0.17,0 0.63,0 1.01,0.19 v -3.55 c 0,-0.23 0,-0.32 -0.69,-0.32 h -0.27 v -0.25 c 0.13,0 0.99,0.02 1.24,0.02 0.22,0 1.1,-0.02 1.25,-0.02 v 0.25 h -0.26 c -0.7,0 -0.7,0.09 -0.7,0.32 z"
           inkscape:connector-curvature="0"
           style="fill:#000000;stroke-width:0" /></g>    </g>
  </g>
</svg>
