<?xml version="1.0" encoding="UTF-8" standalone="no"?>
<!-- Created with Inkscape (http://www.inkscape.org/) -->

<svg
   xmlns:ns0="http://wanglongqi.github.io/WriteTeX"
   xmlns:dc="http://purl.org/dc/elements/1.1/"
   xmlns:cc="http://creativecommons.org/ns#"
   xmlns:rdf="http://www.w3.org/1999/02/22-rdf-syntax-ns#"
   xmlns:svg="http://www.w3.org/2000/svg"
   xmlns="http://www.w3.org/2000/svg"
   xmlns:sodipodi="http://sodipodi.sourceforge.net/DTD/sodipodi-0.dtd"
   xmlns:inkscape="http://www.inkscape.org/namespaces/inkscape"
   width="100.07746mm"
   height="32.444511mm"
   viewBox="0 0 100.07746 32.444512"
   version="1.1"
   id="svg1381"
   sodipodi:docname="espacoestadosDiagramaSS.svg"
   inkscape:version="0.92.4 (5da689c313, 2019-01-14)">
  <sodipodi:namedview
     id="base"
     pagecolor="#ffffff"
     bordercolor="#666666"
     borderopacity="1.0"
     inkscape:pageopacity="0.0"
     inkscape:pageshadow="2"
     inkscape:zoom="1.8101934"
     inkscape:cx="192.78154"
     inkscape:cy="57.856647"
     inkscape:document-units="mm"
     inkscape:current-layer="layer1"
     showgrid="false"
     inkscape:window-width="1366"
     inkscape:window-height="705"
     inkscape:window-x="-8"
     inkscape:window-y="-8"
     inkscape:window-maximized="1"
     fit-margin-top="0"
     fit-margin-left="0"
     fit-margin-right="0"
     fit-margin-bottom="0" />
  <defs
     id="defs1375">
    <marker
       inkscape:stockid="Arrow1Lend"
       orient="auto"
       refY="0"
       refX="0"
       id="marker902"
       style="overflow:visible"
       inkscape:isstock="true">
      <path
         inkscape:connector-curvature="0"
         id="path900"
         d="M 0,0 5,-5 -12.5,0 5,5 Z"
         style="fill:#000000;fill-opacity:1;fill-rule:evenodd;stroke:#000000;stroke-width:1.00000003pt;stroke-opacity:1"
         transform="matrix(-0.8,0,0,-0.8,-10,0)" />
    </marker>
    <marker
       inkscape:isstock="true"
       style="overflow:visible"
       id="marker1379-7-3"
       refX="0"
       refY="0"
       orient="auto"
       inkscape:stockid="Arrow1Lend"
       inkscape:collect="always">
      <path
         transform="matrix(-0.8,0,0,-0.8,-10,0)"
         style="fill:#000000;fill-opacity:1;fill-rule:evenodd;stroke:#000000;stroke-width:1.00000003pt;stroke-opacity:1"
         d="M 0,0 5,-5 -12.5,0 5,5 Z"
         id="path1377-0-6"
         inkscape:connector-curvature="0" />
    </marker>
    <marker
       inkscape:isstock="true"
       style="overflow:visible"
       id="marker1379-7-3-2"
       refX="0"
       refY="0"
       orient="auto"
       inkscape:stockid="Arrow1Lend"
       inkscape:collect="always">
      <path
         transform="matrix(-0.8,0,0,-0.8,-10,0)"
         style="fill:#000000;fill-opacity:1;fill-rule:evenodd;stroke:#000000;stroke-width:1.00000003pt;stroke-opacity:1"
         d="M 0,0 5,-5 -12.5,0 5,5 Z"
         id="path1377-0-6-6"
         inkscape:connector-curvature="0" />
    </marker>
    <marker
       inkscape:isstock="true"
       style="overflow:visible"
       id="marker1379-7-3-8"
       refX="0"
       refY="0"
       orient="auto"
       inkscape:stockid="Arrow1Lend"
       inkscape:collect="always">
      <path
         transform="matrix(-0.8,0,0,-0.8,-10,0)"
         style="fill:#000000;fill-opacity:1;fill-rule:evenodd;stroke:#000000;stroke-width:1.00000003pt;stroke-opacity:1"
         d="M 0,0 5,-5 -12.5,0 5,5 Z"
         id="path1377-0-6-7"
         inkscape:connector-curvature="0" />
    </marker>
    <marker
       inkscape:isstock="true"
       style="overflow:visible"
       id="marker1379-7-3-20"
       refX="0"
       refY="0"
       orient="auto"
       inkscape:stockid="Arrow1Lend"
       inkscape:collect="always">
      <path
         transform="matrix(-0.8,0,0,-0.8,-10,0)"
         style="fill:#000000;fill-opacity:1;fill-rule:evenodd;stroke:#000000;stroke-width:1.00000003pt;stroke-opacity:1"
         d="M 0,0 5,-5 -12.5,0 5,5 Z"
         id="path1377-0-6-2"
         inkscape:connector-curvature="0" />
    </marker>
    <marker
       inkscape:isstock="true"
       style="overflow:visible"
       id="marker1379-7-3-20-7"
       refX="0"
       refY="0"
       orient="auto"
       inkscape:stockid="Arrow1Lend"
       inkscape:collect="always">
      <path
         transform="matrix(-0.8,0,0,-0.8,-10,0)"
         style="fill:#000000;fill-opacity:1;fill-rule:evenodd;stroke:#000000;stroke-width:1.00000003pt;stroke-opacity:1"
         d="M 0,0 5,-5 -12.5,0 5,5 Z"
         id="path1377-0-6-2-5"
         inkscape:connector-curvature="0" />
    </marker>
    <marker
       inkscape:isstock="true"
       style="overflow:visible"
       id="marker1379-7-3-20-7-4"
       refX="0"
       refY="0"
       orient="auto"
       inkscape:stockid="Arrow1Lend"
       inkscape:collect="always">
      <path
         transform="matrix(-0.8,0,0,-0.8,-10,0)"
         style="fill:#000000;fill-opacity:1;fill-rule:evenodd;stroke:#000000;stroke-width:1.00000003pt;stroke-opacity:1"
         d="M 0,0 5,-5 -12.5,0 5,5 Z"
         id="path1377-0-6-2-5-7"
         inkscape:connector-curvature="0" />
    </marker>
    <marker
       inkscape:isstock="true"
       style="overflow:visible"
       id="marker1379-7-3-20-7-3"
       refX="0"
       refY="0"
       orient="auto"
       inkscape:stockid="Arrow1Lend"
       inkscape:collect="always">
      <path
         transform="matrix(-0.8,0,0,-0.8,-10,0)"
         style="fill:#000000;fill-opacity:1;fill-rule:evenodd;stroke:#000000;stroke-width:1.00000003pt;stroke-opacity:1"
         d="M 0,0 5,-5 -12.5,0 5,5 Z"
         id="path1377-0-6-2-5-6"
         inkscape:connector-curvature="0" />
    </marker>
  </defs>
  <metadata
     id="metadata1378">
    <rdf:RDF>
      <cc:Work
         rdf:about="">
        <dc:format>image/svg+xml</dc:format>
        <dc:type
           rdf:resource="http://purl.org/dc/dcmitype/StillImage" />
        <dc:title></dc:title>
      </cc:Work>
    </rdf:RDF>
  </metadata>
  <g
     id="layer1"
     inkscape:groupmode="layer"
     inkscape:label="Layer 1"
     transform="translate(-44.292,-141.31033)">
    <rect
       style="fill:none;stroke:#000000;stroke-width:0.32019973;stroke-miterlimit:4;stroke-dasharray:none;stroke-opacity:1"
       id="rect836-1"
       width="11.735477"
       height="8.3278179"
       x="55.238224"
       y="142.70114" />
    <path
       style="fill:none;stroke:#000000;stroke-width:0.2;stroke-linecap:butt;stroke-linejoin:miter;stroke-miterlimit:4;stroke-dasharray:none;stroke-opacity:1;marker-end:url(#marker1379-7-3)"
       d="M 44.292,146.86506 H 54.918861"
       id="path842-7-7-7"
       inkscape:connector-curvature="0" />
    <rect
       style="fill:none;stroke:#000000;stroke-width:0.32019973;stroke-miterlimit:4;stroke-dasharray:none;stroke-opacity:1"
       id="rect836-1-7"
       width="11.735477"
       height="8.3278179"
       x="109.57134"
       y="165.26692" />
    <rect
       style="fill:none;stroke:#000000;stroke-width:0.32019973;stroke-miterlimit:4;stroke-dasharray:none;stroke-opacity:1"
       id="rect836-1-0"
       width="11.735477"
       height="8.3278179"
       x="114.32527"
       y="142.70114" />
    <rect
       style="fill:none;stroke:#000000;stroke-width:0.32019973;stroke-miterlimit:4;stroke-dasharray:none;stroke-opacity:1"
       id="rect836-1-9"
       width="11.735477"
       height="8.3278179"
       x="89.076324"
       y="156.84496" />
    <rect
       style="fill:none;stroke:#000000;stroke-width:0.32019973;stroke-miterlimit:4;stroke-dasharray:none;stroke-opacity:1"
       id="rect836-1-3"
       width="7.6009336"
       height="10.789242"
       x="91.1436"
       y="141.47043" />
    <g
       id="g2031"
       transform="matrix(364.09095,0,0,364.09095,-8.5714374,178.10058)"
       ns0:text="\\(\\frac{1}{s}\\)">
      <g
         word-spacing="normal"
         letter-spacing="normal"
         font-size-adjust="none"
         font-stretch="normal"
         font-weight="normal"
         font-variant="normal"
         font-style="normal"
         stroke-miterlimit="10.433"
         xml:space="preserve"
         transform="matrix(0.0017361,0,0,-0.0017361,-0.03125,1.1875)"
         id="content"
         style="font-style:normal;font-variant:normal;font-weight:normal;font-stretch:normal;letter-spacing:normal;word-spacing:normal;text-anchor:start;fill:none;fill-opacity:1;fill-rule:evenodd;stroke:#000000;stroke-linecap:butt;stroke-linejoin:miter;stroke-miterlimit:10.43299961;stroke-dasharray:none;stroke-dashoffset:0;stroke-opacity:1"><path
           id="path2024"
           d="m 182.12,739.26 v 0 0.01 0.01 0.01 0.01 0 0.01 0.01 0 0.01 0.01 0 0.01 0 l -0.01,0.01 v 0.01 0 0.01 0 0.01 l -0.01,0.01 v 0.01 0 l -0.01,0.01 v 0 l -0.01,0.01 v 0 l -0.01,0.01 h -0.01 -0.01 -0.01 v 0.01 h -0.01 -0.01 v 0 h -0.01 v 0 H 182 v 0 h -0.01 -0.01 -0.01 v 0 h -0.01 -0.01 -0.01 v 0 h -0.01 -0.01 -0.01 c -0.45,-0.44 -1.08,-0.45 -1.37,-0.45 v -0.25 c 0.17,0 0.63,0 1.01,0.2 v -3.56 c 0,-0.23 0,-0.32 -0.69,-0.32 h -0.27 v -0.25 c 0.13,0.01 0.98,0.03 1.24,0.03 0.22,0 1.1,-0.02 1.25,-0.03 v 0.25 h -0.26 c -0.7,0 -0.7,0.09 -0.7,0.32 z"
           inkscape:connector-curvature="0"
           style="fill:#000000;stroke-width:0" /><line
           id="line2026"
           y2="733.39001"
           x2="183.75"
           y1="733.39001"
           x1="179.78"
           style="stroke-width:0.3985" /><path
           id="path2028"
           d="m 182.89,730.09 -0.01,-0.01 h -0.02 l -0.02,-0.01 -0.01,-0.01 h -0.02 l -0.01,-0.01 -0.02,-0.01 h -0.01 l -0.01,-0.01 -0.02,-0.01 -0.01,-0.01 -0.01,-0.01 -0.01,-0.01 -0.01,-0.01 -0.01,-0.01 -0.01,-0.01 -0.01,-0.01 -0.01,-0.02 -0.01,-0.01 -0.01,-0.01 v -0.01 l -0.01,-0.01 v -0.02 l -0.01,-0.01 v -0.01 l -0.01,-0.01 v -0.02 -0.01 l -0.01,-0.01 v -0.02 -0.01 -0.01 c 0,-0.16 0.14,-0.23 0.23,-0.23 0.07,0 0.33,0.05 0.33,0.4 0,0.46 -0.5,0.61 -0.92,0.61 -1.09,0 -1.29,-0.8 -1.29,-1.02 0,-0.26 0.15,-0.43 0.25,-0.51 0.18,-0.14 0.31,-0.17 0.79,-0.25 0.14,-0.03 0.59,-0.11 0.59,-0.46 0,-0.12 -0.08,-0.38 -0.37,-0.56 -0.27,-0.15 -0.61,-0.15 -0.7,-0.15 -0.28,0 -0.67,0.06 -0.83,0.29 0.23,0.03 0.38,0.2 0.38,0.4 0,0.17 -0.13,0.26 -0.27,0.26 -0.2,0 -0.41,-0.16 -0.41,-0.47 0,-0.42 0.45,-0.68 1.13,-0.68 1.28,0 1.52,0.88 1.52,1.15 0,0.64 -0.71,0.77 -0.97,0.82 -0.06,0.01 -0.23,0.04 -0.28,0.05 -0.25,0.05 -0.38,0.2 -0.38,0.35 0,0.16 0.13,0.35 0.28,0.45 0.19,0.12 0.43,0.13 0.55,0.13 0.15,0 0.51,-0.02 0.66,-0.25 z"
           inkscape:connector-curvature="0"
           style="fill:#000000;stroke-width:0" /></g>    </g>
    <circle
       style="opacity:1;fill:none;fill-opacity:1;stroke:#000000;stroke-width:0.32019973;stroke-miterlimit:4;stroke-dasharray:none;stroke-dashoffset:0;stroke-opacity:1"
       id="path2054"
       cx="80.96801"
       cy="146.86505"
       r="3.0727804" />
    <path
       style="fill:none;stroke:#000000;stroke-width:0.2;stroke-linecap:butt;stroke-linejoin:miter;stroke-miterlimit:4;stroke-dasharray:none;stroke-opacity:1;marker-end:url(#marker1379-7-3-2)"
       d="m 66.931885,146.86506 h 10.62686"
       id="path842-7-7-7-1"
       inkscape:connector-curvature="0" />
    <path
       style="fill:none;stroke:#000000;stroke-width:0.2;stroke-linecap:butt;stroke-linejoin:miter;stroke-miterlimit:4;stroke-dasharray:none;stroke-opacity:1;marker-end:url(#marker1379-7-3-8)"
       d="m 83.932304,146.86506 h 6.924569"
       id="path842-7-7-7-9"
       inkscape:connector-curvature="0" />
    <path
       style="fill:none;stroke:#000000;stroke-width:0.2;stroke-linecap:butt;stroke-linejoin:miter;stroke-miterlimit:4;stroke-dasharray:none;stroke-opacity:1;marker-end:url(#marker1379-7-3-20)"
       d="M 98.637181,146.86506 H 113.98571"
       id="path842-7-7-7-3"
       inkscape:connector-curvature="0" />
    <path
       style="fill:none;stroke:#000000;stroke-width:0.2;stroke-linecap:butt;stroke-linejoin:miter;stroke-miterlimit:4;stroke-dasharray:none;stroke-opacity:1;marker-end:url(#marker1379-7-3-20-7)"
       d="m 126.05154,146.86506 h 5.7346"
       id="path842-7-7-7-3-9"
       inkscape:connector-curvature="0" />
    <path
       style="fill:none;stroke:#000000;stroke-width:0.2;stroke-linecap:butt;stroke-linejoin:miter;stroke-miterlimit:4;stroke-dasharray:none;stroke-opacity:1"
       d="m 108.69159,146.86448 v 14.14439"
       id="path842-7-7-7-3-9-8"
       inkscape:connector-curvature="0" />
    <path
       style="fill:none;stroke:#000000;stroke-width:0.2;stroke-linecap:butt;stroke-linejoin:miter;stroke-miterlimit:4;stroke-dasharray:none;stroke-opacity:1;marker-end:url(#marker902)"
       d="M 80.968008,161.31949 V 150.12692"
       id="path842-7-7-7-3-9-8-7"
       inkscape:connector-curvature="0" />
    <path
       style="fill:none;stroke:#000000;stroke-width:0.2;stroke-linecap:butt;stroke-linejoin:miter;stroke-miterlimit:4;stroke-dasharray:none;stroke-opacity:1"
       d="M 88.960761,161.00887 H 80.968008"
       id="path842-7-7-7-3-9-8-7-3"
       inkscape:connector-curvature="0" />
    <path
       style="fill:none;stroke:#000000;stroke-width:0.2;stroke-linecap:butt;stroke-linejoin:miter;stroke-miterlimit:4;stroke-dasharray:none;stroke-opacity:1"
       d="m 108.69159,161.00887 h -7.77833"
       id="path842-7-7-7-3-9-8-7-3-2"
       inkscape:connector-curvature="0" />
    <path
       style="fill:none;stroke:#000000;stroke-width:0.2;stroke-linecap:butt;stroke-linejoin:miter;stroke-miterlimit:4;stroke-dasharray:none;stroke-opacity:1"
       d="M 135.10333,169.43084 H 121.34116"
       id="path842-7-7-7-3-9-8-7-3-2-3"
       inkscape:connector-curvature="0" />
    <circle
       style="opacity:1;fill:none;fill-opacity:1;stroke:#000000;stroke-width:0.32019973;stroke-miterlimit:4;stroke-dasharray:none;stroke-dashoffset:0;stroke-opacity:1"
       id="path2054-9"
       cx="135.10333"
       cy="146.86505"
       r="3.0727804" />
    <path
       style="fill:none;stroke:#000000;stroke-width:0.2;stroke-linecap:butt;stroke-linejoin:miter;stroke-miterlimit:4;stroke-dasharray:none;stroke-opacity:1;marker-end:url(#marker1379-7-3-20-7-4)"
       d="M 135.10333,169.43084 V 150.27223"
       id="path842-7-7-7-3-9-84"
       inkscape:connector-curvature="0" />
    <path
       style="fill:none;stroke:#000000;stroke-width:0.2;stroke-linecap:butt;stroke-linejoin:miter;stroke-miterlimit:4;stroke-dasharray:none;stroke-opacity:1"
       d="M 109.43954,169.43084 H 49.500443"
       id="path842-7-7-7-3-9-8-7-3-2-3-5"
       inkscape:connector-curvature="0" />
    <path
       style="fill:none;stroke:#000000;stroke-width:0.2;stroke-linecap:butt;stroke-linejoin:miter;stroke-miterlimit:4;stroke-dasharray:none;stroke-opacity:1"
       d="m 49.500443,146.87189 v 22.55895"
       id="path842-7-7-7-3-9-8-0"
       inkscape:connector-curvature="0" />
    <path
       style="fill:none;stroke:#000000;stroke-width:0.2;stroke-linecap:butt;stroke-linejoin:miter;stroke-miterlimit:4;stroke-dasharray:none;stroke-opacity:1;marker-end:url(#marker1379-7-3-20-7-3)"
       d="m 138.2466,146.86506 h 5.73459"
       id="path842-7-7-7-3-9-1"
       inkscape:connector-curvature="0" />
    <g
       id="g184"
       transform="matrix(0.63610597,0,0,0.63610597,-55.021901,78.429749)"
       ns0:text="$B$">
      <g
         id="surface1">
        <g
           id="g181"
           style="fill:#000000;fill-opacity:1">
          <path
             id="path179"
             transform="translate(178.584,110.991)"
             d="M 1.59375,-0.78125 C 1.5,-0.390625 1.46875,-0.3125 0.6875,-0.3125 c -0.171875,0 -0.265625,0 -0.265625,0.203125 C 0.421875,0 0.515625,0 0.6875,0 H 4.25 C 5.828125,0 7,-1.171875 7,-2.15625 7,-2.875 6.421875,-3.453125 5.453125,-3.5625 6.484375,-3.75 7.53125,-4.484375 7.53125,-5.4375 c 0,-0.734375 -0.65625,-1.375 -1.84375,-1.375 H 2.328125 c -0.1875,0 -0.28125,0 -0.28125,0.203125 0,0.109375 0.09375,0.109375 0.28125,0.109375 0.015625,0 0.203125,0 0.375,0.015625 0.171875,0.03125 0.265625,0.03125 0.265625,0.171875 0,0.03125 -0.015625,0.0625 -0.03125,0.1875 z m 1.5,-2.875 0.625,-2.46875 C 3.8125,-6.46875 3.828125,-6.5 4.25,-6.5 h 1.296875 c 0.875,0 1.078125,0.59375 1.078125,1.03125 0,0.875 -0.859375,1.8125 -2.0625,1.8125 z m -0.4375,3.34375 c -0.140625,0 -0.15625,0 -0.21875,0 -0.109375,-0.015625 -0.140625,-0.03125 -0.140625,-0.109375 0,-0.03125 0,-0.046875 0.0625,-0.21875 l 0.6875,-2.78125 h 1.875 c 0.953125,0 1.15625,0.734375 1.15625,1.15625 C 6.078125,-1.28125 5.1875,-0.3125 4,-0.3125 Z m 0,0"
             style="stroke:none"
             inkscape:connector-curvature="0" />
        </g>
      </g>
    </g>
    <g
       id="g303"
       transform="matrix(0.63610596,0,0,0.63610596,-21.04962,92.677925)"
       ns0:text="$A$">
      <g
         id="g301">
        <g
           id="g299"
           style="fill:#000000;fill-opacity:1">
          <path
             id="path297"
             transform="translate(178.584,110.991)"
             d="M 1.78125,-1.140625 C 1.390625,-0.484375 1,-0.34375 0.5625,-0.3125 0.4375,-0.296875 0.34375,-0.296875 0.34375,-0.109375 0.34375,-0.046875 0.40625,0 0.484375,0 0.75,0 1.0625,-0.03125 1.328125,-0.03125 c 0.34375,0 0.6875,0.03125 1,0.03125 0.0625,0 0.1875,0 0.1875,-0.1875 0,-0.109375 -0.078125,-0.125 -0.15625,-0.125 -0.21875,-0.015625 -0.46875,-0.09375 -0.46875,-0.34375 0,-0.125 0.0625,-0.234375 0.140625,-0.375 l 0.765625,-1.265625 h 2.5 c 0.015625,0.203125 0.15625,1.5625 0.15625,1.65625 0,0.296875 -0.515625,0.328125 -0.71875,0.328125 C 4.59375,-0.3125 4.5,-0.3125 4.5,-0.109375 4.5,0 4.609375,0 4.640625,0 5.046875,0 5.46875,-0.03125 5.875,-0.03125 6.125,-0.03125 6.765625,0 7.015625,0 7.0625,0 7.1875,0 7.1875,-0.203125 7.1875,-0.3125 7.09375,-0.3125 6.953125,-0.3125 6.34375,-0.3125 6.34375,-0.375 6.3125,-0.671875 l -0.609375,-6.21875 c -0.015625,-0.203125 -0.015625,-0.25 -0.1875,-0.25 -0.15625,0 -0.203125,0.078125 -0.265625,0.171875 z M 2.984375,-2.609375 4.9375,-5.90625 5.265625,-2.609375 Z m 0,0"
             style="stroke:none"
             inkscape:connector-curvature="0" />
        </g>
      </g>
    </g>
    <g
       id="g374"
       transform="matrix(0.63610596,0,0,0.63610596,4.0253918,78.42975)"
       ns0:text="$C$">
      <g
         id="g372">
        <g
           id="g370"
           style="fill:#000000;fill-opacity:1">
          <path
             id="path368"
             transform="translate(178.584,110.991)"
             d="m 7.578125,-6.921875 c 0,-0.03125 -0.015625,-0.109375 -0.109375,-0.109375 -0.03125,0 -0.046875,0.015625 -0.15625,0.125 L 6.625,-6.140625 C 6.53125,-6.28125 6.078125,-7.03125 4.96875,-7.03125 2.734375,-7.03125 0.5,-4.828125 0.5,-2.515625 0.5,-0.875 1.671875,0.21875 3.203125,0.21875 c 0.859375,0 1.625,-0.390625 2.15625,-0.859375 0.921875,-0.8125 1.09375,-1.71875 1.09375,-1.75 C 6.453125,-2.5 6.34375,-2.5 6.328125,-2.5 c -0.0625,0 -0.109375,0.03125 -0.125,0.109375 -0.09375,0.28125 -0.328125,1 -1.015625,1.578125 -0.6875,0.546875 -1.3125,0.71875 -1.828125,0.71875 -0.890625,0 -1.953125,-0.515625 -1.953125,-2.0625 0,-0.578125 0.203125,-2.1875 1.203125,-3.359375 0.609375,-0.703125 1.546875,-1.203125 2.4375,-1.203125 1.015625,0 1.609375,0.765625 1.609375,1.921875 0,0.40625 -0.03125,0.40625 -0.03125,0.515625 0,0.09375 0.109375,0.09375 0.140625,0.09375 0.125,0 0.125,-0.015625 0.1875,-0.203125 z m 0,0"
             style="stroke:none"
             inkscape:connector-curvature="0" />
        </g>
      </g>
    </g>
    <g
       id="g445"
       transform="matrix(0.63610596,0,0,0.63610596,-0.83786801,100.99553)"
       ns0:text="$D$">
      <g
         id="g443">
        <g
           id="g441"
           style="fill:#000000;fill-opacity:1">
          <path
             id="path439"
             transform="translate(178.584,110.991)"
             d="m 1.578125,-0.78125 c -0.09375,0.390625 -0.109375,0.46875 -0.90625,0.46875 -0.15625,0 -0.265625,0 -0.265625,0.1875 C 0.40625,0 0.484375,0 0.671875,0 h 3.3125 c 2.0625,0 4.03125,-2.109375 4.03125,-4.28125 0,-1.40625 -0.84375,-2.53125 -2.34375,-2.53125 h -3.34375 c -0.1875,0 -0.296875,0 -0.296875,0.1875 0,0.125 0.078125,0.125 0.28125,0.125 0.125,0 0.3125,0.015625 0.421875,0.015625 0.171875,0.03125 0.21875,0.046875 0.21875,0.171875 0,0.03125 0,0.0625 -0.03125,0.1875 z M 3.734375,-6.125 C 3.828125,-6.46875 3.84375,-6.5 4.28125,-6.5 h 1.0625 c 0.96875,0 1.796875,0.53125 1.796875,1.84375 0,0.484375 -0.1875,2.125 -1.046875,3.21875 -0.28125,0.375 -1.0625,1.125 -2.296875,1.125 h -1.125 c -0.140625,0 -0.15625,0 -0.21875,0 -0.09375,-0.015625 -0.125,-0.03125 -0.125,-0.109375 0,-0.03125 0,-0.046875 0.046875,-0.21875 z m 0,0"
             style="stroke:none"
             inkscape:connector-curvature="0" />
        </g>
      </g>
    </g>
    <text
       xml:space="preserve"
       style="font-style:normal;font-weight:normal;font-size:8.37145042px;line-height:1.25;font-family:sans-serif;letter-spacing:0px;word-spacing:0px;fill:#000000;fill-opacity:1;stroke:none;stroke-width:0.20928624"
       x="74.134216"
       y="145.04118"
       id="text455"><tspan
         sodipodi:role="line"
         id="tspan453"
         x="74.134216"
         y="145.04118"
         style="font-size:4.46477365px;stroke-width:0.20928624">+</tspan></text>
    <text
       xml:space="preserve"
       style="font-style:normal;font-weight:normal;font-size:8.37145042px;line-height:1.25;font-family:sans-serif;letter-spacing:0px;word-spacing:0px;fill:#000000;fill-opacity:1;stroke:none;stroke-width:0.20928624"
       x="76.468201"
       y="152.64532"
       id="text455-0"><tspan
         sodipodi:role="line"
         id="tspan453-2"
         x="76.468201"
         y="152.64532"
         style="font-size:4.46477365px;stroke-width:0.20928624">+</tspan></text>
    <g
       id="g676"
       transform="matrix(0.54988999,0,0,0.54988999,5.3895227,84.1802)"
       ns0:text="$x$">
      <g
         id="g674">
        <g
           id="g672"
           style="fill:#000000;fill-opacity:1">
          <path
             id="path670"
             transform="translate(178.584,110.991)"
             d="M 3.328125,-3.015625 C 3.390625,-3.265625 3.625,-4.1875 4.3125,-4.1875 c 0.046875,0 0.296875,0 0.5,0.125 C 4.53125,-4 4.34375,-3.765625 4.34375,-3.515625 c 0,0.15625 0.109375,0.34375 0.375,0.34375 0.21875,0 0.53125,-0.171875 0.53125,-0.578125 0,-0.515625 -0.578125,-0.65625 -0.921875,-0.65625 -0.578125,0 -0.921875,0.53125 -1.046875,0.75 -0.25,-0.65625 -0.78125,-0.75 -1.078125,-0.75 -1.03125,0 -1.609375,1.28125 -1.609375,1.53125 0,0.109375 0.109375,0.109375 0.125,0.109375 0.078125,0 0.109375,-0.03125 0.125,-0.109375 0.34375,-1.0625 1,-1.3125 1.34375,-1.3125 0.1875,0 0.53125,0.09375 0.53125,0.671875 0,0.3125 -0.171875,0.96875 -0.53125,2.375 -0.15625,0.609375 -0.515625,1.03125 -0.953125,1.03125 -0.0625,0 -0.28125,0 -0.5,-0.125 0.25,-0.0625 0.46875,-0.265625 0.46875,-0.546875 0,-0.265625 -0.21875,-0.34375 -0.359375,-0.34375 -0.3125,0 -0.546875,0.25 -0.546875,0.578125 0,0.453125 0.484375,0.65625 0.921875,0.65625 0.671875,0 1.03125,-0.703125 1.046875,-0.75 0.125,0.359375 0.484375,0.75 1.078125,0.75 1.03125,0 1.59375,-1.28125 1.59375,-1.53125 0,-0.109375 -0.078125,-0.109375 -0.109375,-0.109375 -0.09375,0 -0.109375,0.046875 -0.140625,0.109375 -0.328125,1.078125 -1,1.3125 -1.3125,1.3125 -0.390625,0 -0.546875,-0.3125 -0.546875,-0.65625 0,-0.21875 0.046875,-0.4375 0.15625,-0.875 z m 0,0"
             style="stroke:none"
             inkscape:connector-curvature="0" />
        </g>
      </g>
    </g>
    <g
       id="g787"
       transform="matrix(0.54988999,0,0,0.54988999,-12.772699,84.1802)"
       ns0:text="$\\dot{x}$">
      <g
         id="g785">
        <g
           id="g779"
           style="fill:#000000;fill-opacity:1">
          <path
             id="path777"
             transform="translate(180.325,110.991)"
             d="m 1.90625,-6.140625 c 0,-0.265625 -0.21875,-0.53125 -0.515625,-0.53125 -0.34375,0 -0.546875,0.28125 -0.546875,0.53125 0,0.265625 0.234375,0.53125 0.53125,0.53125 0.34375,0 0.53125,-0.28125 0.53125,-0.53125 z m 0,0"
             style="stroke:none"
             inkscape:connector-curvature="0" />
        </g>
        <g
           id="g783"
           style="fill:#000000;fill-opacity:1">
          <path
             id="path781"
             transform="translate(178.585,110.991)"
             d="M 3.328125,-3.015625 C 3.390625,-3.265625 3.625,-4.1875 4.3125,-4.1875 c 0.046875,0 0.296875,0 0.5,0.125 C 4.53125,-4 4.34375,-3.765625 4.34375,-3.515625 c 0,0.15625 0.109375,0.34375 0.375,0.34375 0.21875,0 0.53125,-0.171875 0.53125,-0.578125 0,-0.515625 -0.578125,-0.65625 -0.921875,-0.65625 -0.578125,0 -0.921875,0.53125 -1.046875,0.75 -0.25,-0.65625 -0.78125,-0.75 -1.078125,-0.75 -1.03125,0 -1.609375,1.28125 -1.609375,1.53125 0,0.109375 0.109375,0.109375 0.125,0.109375 0.078125,0 0.109375,-0.03125 0.125,-0.109375 0.34375,-1.0625 1,-1.3125 1.34375,-1.3125 0.1875,0 0.53125,0.09375 0.53125,0.671875 0,0.3125 -0.171875,0.96875 -0.53125,2.375 -0.15625,0.609375 -0.515625,1.03125 -0.953125,1.03125 -0.0625,0 -0.28125,0 -0.5,-0.125 0.25,-0.0625 0.46875,-0.265625 0.46875,-0.546875 0,-0.265625 -0.21875,-0.34375 -0.359375,-0.34375 -0.3125,0 -0.546875,0.25 -0.546875,0.578125 0,0.453125 0.484375,0.65625 0.921875,0.65625 0.671875,0 1.03125,-0.703125 1.046875,-0.75 0.125,0.359375 0.484375,0.75 1.078125,0.75 1.03125,0 1.59375,-1.28125 1.59375,-1.53125 0,-0.109375 -0.078125,-0.109375 -0.109375,-0.109375 -0.09375,0 -0.109375,0.046875 -0.140625,0.109375 -0.328125,1.078125 -1,1.3125 -1.3125,1.3125 -0.390625,0 -0.546875,-0.3125 -0.546875,-0.65625 0,-0.21875 0.046875,-0.4375 0.15625,-0.875 z m 0,0"
             style="stroke:none"
             inkscape:connector-curvature="0" />
        </g>
      </g>
    </g>
    <text
       xml:space="preserve"
       style="font-style:normal;font-weight:normal;font-size:8.37145042px;line-height:1.25;font-family:sans-serif;letter-spacing:0px;word-spacing:0px;fill:#000000;fill-opacity:1;stroke:none;stroke-width:0.20928624"
       x="128.26511"
       y="145.21098"
       id="text455-6"><tspan
         sodipodi:role="line"
         id="tspan453-5"
         x="128.26511"
         y="145.21098"
         style="font-size:4.46477365px;stroke-width:0.20928624">+</tspan></text>
    <text
       xml:space="preserve"
       style="font-style:normal;font-weight:normal;font-size:8.37145042px;line-height:1.25;font-family:sans-serif;letter-spacing:0px;word-spacing:0px;fill:#000000;fill-opacity:1;stroke:none;stroke-width:0.20928624"
       x="130.59911"
       y="152.81512"
       id="text455-0-8"><tspan
         sodipodi:role="line"
         id="tspan453-2-1"
         x="130.59911"
         y="152.81512"
         style="font-size:4.46477365px;stroke-width:0.20928624">+</tspan></text>
    <g
       id="g958"
       transform="matrix(0.54988999,0,0,0.54988999,-52.488313,84.1802)"
       ns0:text="$u$">
      <g
         id="g956">
        <g
           id="g954"
           style="fill:#000000;fill-opacity:1">
          <path
             id="path952"
             transform="translate(178.584,110.991)"
             d="M 3.484375,-0.5625 C 3.59375,-0.15625 3.953125,0.109375 4.375,0.109375 4.71875,0.109375 4.953125,-0.125 5.109375,-0.4375 5.28125,-0.796875 5.40625,-1.40625 5.40625,-1.421875 c 0,-0.109375 -0.078125,-0.109375 -0.109375,-0.109375 -0.109375,0 -0.109375,0.046875 -0.140625,0.1875 -0.140625,0.5625 -0.328125,1.234375 -0.75,1.234375 -0.203125,0 -0.3125,-0.125 -0.3125,-0.453125 0,-0.21875 0.125,-0.6875 0.203125,-1.046875 L 4.578125,-2.6875 C 4.609375,-2.828125 4.703125,-3.203125 4.75,-3.359375 4.796875,-3.59375 4.890625,-3.96875 4.890625,-4.03125 c 0,-0.171875 -0.140625,-0.265625 -0.28125,-0.265625 -0.046875,0 -0.3125,0.015625 -0.390625,0.34375 -0.1875,0.734375 -0.625,2.484375 -0.75,3 -0.015625,0.046875 -0.40625,0.84375 -1.140625,0.84375 -0.515625,0 -0.609375,-0.453125 -0.609375,-0.8125 0,-0.5625 0.28125,-1.34375 0.53125,-2.03125 0.125,-0.3125 0.171875,-0.453125 0.171875,-0.640625 0,-0.4375 -0.3125,-0.8125 -0.8125,-0.8125 -0.953125,0 -1.3125,1.453125 -1.3125,1.53125 0,0.109375 0.09375,0.109375 0.109375,0.109375 0.109375,0 0.109375,-0.03125 0.15625,-0.1875 0.25,-0.859375 0.640625,-1.234375 1.015625,-1.234375 0.09375,0 0.25,0.015625 0.25,0.328125 0,0.234375 -0.109375,0.53125 -0.171875,0.671875 -0.375,1 -0.578125,1.609375 -0.578125,2.09375 0,0.953125 0.6875,1.203125 1.21875,1.203125 0.65625,0 1.015625,-0.453125 1.1875,-0.671875 z m 0,0"
             style="stroke:none"
             inkscape:connector-curvature="0" />
        </g>
      </g>
    </g>
    <g
       id="g1055"
       transform="matrix(0.63610596,0,0,0.63610596,25.835538,73.369118)"
       ns0:text="$y$">
      <g
         id="g1053">
        <g
           id="g1051"
           style="fill:#000000;fill-opacity:1">
          <path
             id="path1049"
             d="m 183.4341,107.98617 c 0.0405,-0.12156 0.0405,-0.13507 0.0405,-0.20261 0,-0.14858 -0.12157,-0.22962 -0.25664,-0.22962 -0.081,0 -0.21612,0.054 -0.29716,0.17559 -0.0135,0.054 -0.0945,0.31067 -0.12157,0.47276 -0.0675,0.21611 -0.12156,0.45924 -0.17559,0.68886 l -0.39171,1.55334 c -0.027,0.12156 -0.40522,0.72939 -0.97252,0.72939 -0.43223,0 -0.52678,-0.37821 -0.52678,-0.70238 0,-0.39171 0.14858,-0.932 0.43223,-1.6884 0.13507,-0.35119 0.17559,-0.44574 0.17559,-0.62134 0,-0.3782 -0.27014,-0.70237 -0.70237,-0.70237 -0.82394,0 -1.13461,1.25617 -1.13461,1.32371 0,0.0945 0.081,0.0945 0.0945,0.0945 0.0945,0 0.0945,-0.027 0.13507,-0.16209 0.24313,-0.81043 0.58081,-1.06707 0.87797,-1.06707 0.0675,0 0.21612,0 0.21612,0.27014 0,0.21612 -0.0945,0.44574 -0.14858,0.60783 -0.35119,0.91849 -0.49977,1.40475 -0.49977,1.80997 0,0.76991 0.54029,1.02655 1.05356,1.02655 0.33769,0 0.62134,-0.14858 0.86447,-0.39171 -0.10806,0.44574 -0.21612,0.87797 -0.5538,1.33721 -0.22962,0.28366 -0.5538,0.54029 -0.94551,0.54029 -0.12156,0 -0.51327,-0.027 -0.66185,-0.36469 0.13507,0 0.25664,0 0.3647,-0.10806 0.0945,-0.0675 0.17559,-0.1891 0.17559,-0.35119 0,-0.27014 -0.22962,-0.29716 -0.31067,-0.29716 -0.20261,0 -0.48626,0.13508 -0.48626,0.5538 0,0.43223 0.37821,0.75641 0.91849,0.75641 0.87797,0 1.76945,-0.78342 2.01258,-1.75595 z m 0,0"
             style="stroke:none;stroke-width:0.86446285"
             inkscape:connector-curvature="0" />
        </g>
      </g>
    </g>
  </g>
</svg>
