<?xml version="1.0" encoding="UTF-8" standalone="no"?>
<!-- Created with Inkscape (http://www.inkscape.org/) -->

<svg
   xmlns:ns1="http://wanglongqi.github.io/WriteTeX"
   xmlns:dc="http://purl.org/dc/elements/1.1/"
   xmlns:cc="http://creativecommons.org/ns#"
   xmlns:rdf="http://www.w3.org/1999/02/22-rdf-syntax-ns#"
   xmlns:svg="http://www.w3.org/2000/svg"
   xmlns="http://www.w3.org/2000/svg"
   xmlns:sodipodi="http://sodipodi.sourceforge.net/DTD/sodipodi-0.dtd"
   xmlns:inkscape="http://www.inkscape.org/namespaces/inkscape"
   width="120mm"
   height="60mm"
   viewBox="0 0 120 60"
   version="1.1"
   id="svg8"
   inkscape:version="0.92.4 (unknown)"
   sodipodi:docname="functransEtapas2.svg">
  <defs
     id="defs2">
    <marker
       inkscape:stockid="Arrow1Lend"
       orient="auto"
       refY="0"
       refX="0"
       id="marker1530"
       style="overflow:visible"
       inkscape:isstock="true">
      <path
         id="path1528"
         d="M 0,0 5,-5 -12.5,0 5,5 Z"
         style="fill:#000000;fill-opacity:1;fill-rule:evenodd;stroke:#000000;stroke-width:1.00000003pt;stroke-opacity:1"
         transform="matrix(-0.8,0,0,-0.8,-10,0)"
         inkscape:connector-curvature="0" />
    </marker>
    <marker
       inkscape:isstock="true"
       style="overflow:visible"
       id="marker1269"
       refX="0"
       refY="0"
       orient="auto"
       inkscape:stockid="Arrow1Lend"
       inkscape:collect="always">
      <path
         transform="matrix(-0.8,0,0,-0.8,-10,0)"
         style="fill:#000000;fill-opacity:1;fill-rule:evenodd;stroke:#000000;stroke-width:1.00000003pt;stroke-opacity:1"
         d="M 0,0 5,-5 -12.5,0 5,5 Z"
         id="path1267"
         inkscape:connector-curvature="0" />
    </marker>
    <marker
       inkscape:stockid="Arrow1Lend"
       orient="auto"
       refY="0"
       refX="0"
       id="marker1530-2"
       style="overflow:visible"
       inkscape:isstock="true">
      <path
         inkscape:connector-curvature="0"
         id="path1528-9"
         d="M 0,0 5,-5 -12.5,0 5,5 Z"
         style="fill:#000000;fill-opacity:1;fill-rule:evenodd;stroke:#000000;stroke-width:1.00000003pt;stroke-opacity:1"
         transform="matrix(-0.8,0,0,-0.8,-10,0)" />
    </marker>
    <marker
       inkscape:stockid="Arrow1Lend"
       orient="auto"
       refY="0"
       refX="0"
       id="marker1530-2-2"
       style="overflow:visible"
       inkscape:isstock="true">
      <path
         inkscape:connector-curvature="0"
         id="path1528-9-7"
         d="M 0,0 5,-5 -12.5,0 5,5 Z"
         style="fill:#000000;fill-opacity:1;fill-rule:evenodd;stroke:#000000;stroke-width:1.00000003pt;stroke-opacity:1"
         transform="matrix(-0.8,0,0,-0.8,-10,0)" />
    </marker>
    <marker
       inkscape:isstock="true"
       style="overflow:visible"
       id="marker1269-3"
       refX="0"
       refY="0"
       orient="auto"
       inkscape:stockid="Arrow1Lend"
       inkscape:collect="always">
      <path
         transform="matrix(-0.8,0,0,-0.8,-10,0)"
         style="fill:#000000;fill-opacity:1;fill-rule:evenodd;stroke:#000000;stroke-width:1.00000003pt;stroke-opacity:1"
         d="M 0,0 5,-5 -12.5,0 5,5 Z"
         id="path1267-3"
         inkscape:connector-curvature="0" />
    </marker>
    <marker
       inkscape:isstock="true"
       style="overflow:visible"
       id="marker1269-32"
       refX="0"
       refY="0"
       orient="auto"
       inkscape:stockid="Arrow1Lend"
       inkscape:collect="always">
      <path
         transform="matrix(-0.8,0,0,-0.8,-10,0)"
         style="fill:#000000;fill-opacity:1;fill-rule:evenodd;stroke:#000000;stroke-width:1.00000003pt;stroke-opacity:1"
         d="M 0,0 5,-5 -12.5,0 5,5 Z"
         id="path1267-6"
         inkscape:connector-curvature="0" />
    </marker>
    <marker
       inkscape:isstock="true"
       style="overflow:visible"
       id="marker1269-2"
       refX="0"
       refY="0"
       orient="auto"
       inkscape:stockid="Arrow1Lend"
       inkscape:collect="always">
      <path
         transform="matrix(-0.8,0,0,-0.8,-10,0)"
         style="fill:#000000;fill-opacity:1;fill-rule:evenodd;stroke:#000000;stroke-width:1.00000003pt;stroke-opacity:1"
         d="M 0,0 5,-5 -12.5,0 5,5 Z"
         id="path1267-65"
         inkscape:connector-curvature="0" />
    </marker>
    <clipPath
       clipPathUnits="userSpaceOnUse"
       id="clipPath1152">
      <path
         d="M 200.13292,235.22667 H 828.98708 V 553.89333 H 200.13292 Z"
         id="path1150"
         inkscape:connector-curvature="0"
         style="clip-rule:evenodd" />
    </clipPath>
    <clipPath
       clipPathUnits="userSpaceOnUse"
       id="clipPath1126">
      <path
         d="M 200.13292,235.22667 H 828.98708 V 553.89333 H 200.13292 Z"
         id="path1124"
         inkscape:connector-curvature="0"
         style="clip-rule:evenodd" />
    </clipPath>
    <clipPath
       clipPathUnits="userSpaceOnUse"
       id="clipPath1132">
      <path
         d="m 459.36208,287.22667 h 30.77084 v 18.66666 h -30.77084 z"
         id="path1130"
         inkscape:connector-curvature="0"
         style="clip-rule:evenodd" />
    </clipPath>
    <clipPath
       clipPathUnits="userSpaceOnUse"
       id="clipPath1100">
      <path
         d="M 200.13292,235.22667 H 828.98708 V 553.89333 H 200.13292 Z"
         id="path1098"
         inkscape:connector-curvature="0"
         style="clip-rule:evenodd" />
    </clipPath>
    <clipPath
       clipPathUnits="userSpaceOnUse"
       id="clipPath1072">
      <path
         d="M 200.13292,235.22667 H 828.98708 V 553.89333 H 200.13292 Z"
         id="path1070"
         inkscape:connector-curvature="0"
         style="clip-rule:evenodd" />
    </clipPath>
    <clipPath
       clipPathUnits="userSpaceOnUse"
       id="clipPath1078">
      <path
         d="m 454.7475,244.56 h 40 v 40 h -40 z"
         id="path1076"
         inkscape:connector-curvature="0"
         style="clip-rule:evenodd" />
    </clipPath>
    <clipPath
       clipPathUnits="userSpaceOnUse"
       id="clipPath1046">
      <path
         d="M 200.13292,235.22667 H 828.98708 V 553.89333 H 200.13292 Z"
         id="path1044"
         inkscape:connector-curvature="0"
         style="clip-rule:evenodd" />
    </clipPath>
    <clipPath
       clipPathUnits="userSpaceOnUse"
       id="clipPath1020">
      <path
         d="M 200.13292,235.22667 H 828.98708 V 553.89333 H 200.13292 Z"
         id="path1018"
         inkscape:connector-curvature="0"
         style="clip-rule:evenodd" />
    </clipPath>
    <clipPath
       clipPathUnits="userSpaceOnUse"
       id="clipPath1026">
      <path
         d="m 543.10167,287.22667 h 63.29166 v 18.66666 h -63.29166 z"
         id="path1024"
         inkscape:connector-curvature="0"
         style="clip-rule:evenodd" />
    </clipPath>
    <clipPath
       clipPathUnits="userSpaceOnUse"
       id="clipPath994">
      <path
         d="M 200.13292,235.22667 H 828.98708 V 553.89333 H 200.13292 Z"
         id="path992"
         inkscape:connector-curvature="0"
         style="clip-rule:evenodd" />
    </clipPath>
    <clipPath
       clipPathUnits="userSpaceOnUse"
       id="clipPath794">
      <path
         d="m 554.7475,244.56 h 40 v 40 h -40 z"
         id="path792"
         inkscape:connector-curvature="0"
         style="clip-rule:evenodd" />
    </clipPath>
    <clipPath
       clipPathUnits="userSpaceOnUse"
       id="clipPath800">
      <path
         d="m 553.41417,243.22667 h 44 v 44 h -44 z"
         id="path798"
         inkscape:connector-curvature="0"
         style="clip-rule:evenodd" />
    </clipPath>
    <clipPath
       clipPathUnits="userSpaceOnUse"
       id="clipPath806">
      <path
         d="m 553.41417,243.22667 h 44 v 44 h -44 z"
         id="path804"
         inkscape:connector-curvature="0"
         style="clip-rule:evenodd" />
    </clipPath>
    <clipPath
       clipPathUnits="userSpaceOnUse"
       id="clipPath666">
      <path
         d="M 200.13292,235.22667 H 828.98708 V 553.89333 H 200.13292 Z"
         id="path664"
         inkscape:connector-curvature="0"
         style="clip-rule:evenodd" />
    </clipPath>
    <clipPath
       clipPathUnits="userSpaceOnUse"
       id="clipPath634">
      <path
         d="M 200.13292,235.22667 H 828.98708 V 553.89333 H 200.13292 Z"
         id="path632"
         inkscape:connector-curvature="0"
         style="clip-rule:evenodd" />
    </clipPath>
    <clipPath
       clipPathUnits="userSpaceOnUse"
       id="clipPath640">
      <path
         d="m 361.41417,251.22667 h 26.66666 v 26.66666 h -26.66666 z"
         id="path638"
         inkscape:connector-curvature="0"
         style="clip-rule:evenodd" />
    </clipPath>
    <clipPath
       clipPathUnits="userSpaceOnUse"
       id="clipPath608">
      <path
         d="M 200.13292,235.22667 H 828.98708 V 553.89333 H 200.13292 Z"
         id="path606"
         inkscape:connector-curvature="0"
         style="clip-rule:evenodd" />
    </clipPath>
    <clipPath
       clipPathUnits="userSpaceOnUse"
       id="clipPath576">
      <path
         d="M 200.13292,235.22667 H 828.98708 V 553.89333 H 200.13292 Z"
         id="path574"
         inkscape:connector-curvature="0"
         style="clip-rule:evenodd" />
    </clipPath>
    <clipPath
       clipPathUnits="userSpaceOnUse"
       id="clipPath582">
      <path
         d="m 202.79958,287.22667 h 63.89584 v 34.66666 h -63.89584 z"
         id="path580"
         inkscape:connector-curvature="0"
         style="clip-rule:evenodd" />
    </clipPath>
    <clipPath
       clipPathUnits="userSpaceOnUse"
       id="clipPath550">
      <path
         d="M 200.13292,235.22667 H 828.98708 V 553.89333 H 200.13292 Z"
         id="path548"
         inkscape:connector-curvature="0"
         style="clip-rule:evenodd" />
    </clipPath>
    <clipPath
       clipPathUnits="userSpaceOnUse"
       id="clipPath506">
      <path
         d="M 200.13292,235.22667 H 828.98708 V 553.89333 H 200.13292 Z"
         id="path504"
         inkscape:connector-curvature="0"
         style="clip-rule:evenodd" />
    </clipPath>
    <clipPath
       clipPathUnits="userSpaceOnUse"
       id="clipPath512">
      <path
         d="m 214.7475,244.56 h 40 v 40 h -40 z"
         id="path510"
         inkscape:connector-curvature="0"
         style="clip-rule:evenodd" />
    </clipPath>
    <clipPath
       clipPathUnits="userSpaceOnUse"
       id="clipPath478">
      <path
         d="M 200.13292,235.22667 H 828.98708 V 553.89333 H 200.13292 Z"
         id="path476"
         inkscape:connector-curvature="0"
         style="clip-rule:evenodd" />
    </clipPath>
    <clipPath
       clipPathUnits="userSpaceOnUse"
       id="clipPath452">
      <path
         d="M 200.13292,235.22667 H 828.98708 V 553.89333 H 200.13292 Z"
         id="path450"
         inkscape:connector-curvature="0"
         style="clip-rule:evenodd" />
    </clipPath>
    <clipPath
       clipPathUnits="userSpaceOnUse"
       id="clipPath458">
      <path
         d="m 737.88292,532.56 h 40.39583 v 18.66667 h -40.39583 z"
         id="path456"
         inkscape:connector-curvature="0"
         style="clip-rule:evenodd" />
    </clipPath>
    <clipPath
       clipPathUnits="userSpaceOnUse"
       id="clipPath426">
      <path
         d="M 200.13292,235.22667 H 828.98708 V 553.89333 H 200.13292 Z"
         id="path424"
         inkscape:connector-curvature="0"
         style="clip-rule:evenodd" />
    </clipPath>
    <clipPath
       clipPathUnits="userSpaceOnUse"
       id="clipPath402">
      <path
         d="M 200.13292,235.22667 H 828.98708 V 553.89333 H 200.13292 Z"
         id="path400"
         inkscape:connector-curvature="0"
         style="clip-rule:evenodd" />
    </clipPath>
    <clipPath
       clipPathUnits="userSpaceOnUse"
       id="clipPath408">
      <path
         d="m 734.7475,465.89333 h 46.66667 v 64 H 734.7475 Z"
         id="path406"
         inkscape:connector-curvature="0"
         style="clip-rule:evenodd" />
    </clipPath>
    <clipPath
       clipPathUnits="userSpaceOnUse"
       id="clipPath372">
      <path
         d="M 200.13292,235.22667 H 828.98708 V 553.89333 H 200.13292 Z"
         id="path370"
         inkscape:connector-curvature="0"
         style="clip-rule:evenodd" />
    </clipPath>
    <clipPath
       clipPathUnits="userSpaceOnUse"
       id="clipPath340">
      <path
         d="M 200.13292,235.22667 H 828.98708 V 553.89333 H 200.13292 Z"
         id="path338"
         inkscape:connector-curvature="0"
         style="clip-rule:evenodd" />
    </clipPath>
    <clipPath
       clipPathUnits="userSpaceOnUse"
       id="clipPath346">
      <path
         d="m 689.84125,312.56 h 136.47917 v 34.66667 H 689.84125 Z"
         id="path344"
         inkscape:connector-curvature="0"
         style="clip-rule:evenodd" />
    </clipPath>
    <clipPath
       clipPathUnits="userSpaceOnUse"
       id="clipPath290">
      <path
         d="M 200.13292,235.22667 H 828.98708 V 553.89333 H 200.13292 Z"
         id="path288"
         inkscape:connector-curvature="0"
         style="clip-rule:evenodd" />
    </clipPath>
    <clipPath
       clipPathUnits="userSpaceOnUse"
       id="clipPath296">
      <path
         d="m 714.23708,293.89333 h 87.6875 V 312.56 h -87.6875 z"
         id="path294"
         inkscape:connector-curvature="0"
         style="clip-rule:evenodd" />
    </clipPath>
    <clipPath
       clipPathUnits="userSpaceOnUse"
       id="clipPath264">
      <path
         d="M 200.13292,235.22667 H 828.98708 V 553.89333 H 200.13292 Z"
         id="path262"
         inkscape:connector-curvature="0"
         style="clip-rule:evenodd" />
    </clipPath>
    <clipPath
       clipPathUnits="userSpaceOnUse"
       id="clipPath228">
      <path
         d="M 200.13292,235.22667 H 828.98708 V 553.89333 H 200.13292 Z"
         id="path226"
         inkscape:connector-curvature="0"
         style="clip-rule:evenodd" />
    </clipPath>
    <clipPath
       clipPathUnits="userSpaceOnUse"
       id="clipPath234">
      <path
         d="m 721.41417,237.89333 h 73.33333 v 53.33334 h -73.33333 z"
         id="path232"
         inkscape:connector-curvature="0"
         style="clip-rule:evenodd" />
    </clipPath>
    <clipPath
       clipPathUnits="userSpaceOnUse"
       id="clipPath198">
      <path
         d="M 200.13292,235.22667 H 828.98708 V 553.89333 H 200.13292 Z"
         id="path196"
         inkscape:connector-curvature="0"
         style="clip-rule:evenodd" />
    </clipPath>
    <clipPath
       clipPathUnits="userSpaceOnUse"
       id="clipPath166">
      <path
         d="M 200.13292,235.22667 H 828.98708 V 553.89333 H 200.13292 Z"
         id="path164"
         inkscape:connector-curvature="0"
         style="clip-rule:evenodd" />
    </clipPath>
    <clipPath
       clipPathUnits="userSpaceOnUse"
       id="clipPath172">
      <path
         d="M 689.84125,425.89333 H 826.32042 V 460.56 H 689.84125 Z"
         id="path170"
         inkscape:connector-curvature="0"
         style="clip-rule:evenodd" />
    </clipPath>
    <clipPath
       clipPathUnits="userSpaceOnUse"
       id="clipPath116">
      <path
         d="M 200.13292,235.22667 H 828.98708 V 553.89333 H 200.13292 Z"
         id="path114"
         inkscape:connector-curvature="0"
         style="clip-rule:evenodd" />
    </clipPath>
    <clipPath
       clipPathUnits="userSpaceOnUse"
       id="clipPath122">
      <path
         d="m 719.41417,407.22667 h 77.33333 v 18.66666 h -77.33333 z"
         id="path120"
         inkscape:connector-curvature="0"
         style="clip-rule:evenodd" />
    </clipPath>
    <clipPath
       clipPathUnits="userSpaceOnUse"
       id="clipPath90">
      <path
         d="M 200.13292,235.22667 H 828.98708 V 553.89333 H 200.13292 Z"
         id="path88"
         inkscape:connector-curvature="0"
         style="clip-rule:evenodd" />
    </clipPath>
    <clipPath
       clipPathUnits="userSpaceOnUse"
       id="clipPath54">
      <path
         d="M 200.13292,235.22667 H 828.98708 V 553.89333 H 200.13292 Z"
         id="path52"
         inkscape:connector-curvature="0"
         style="clip-rule:evenodd" />
    </clipPath>
    <clipPath
       clipPathUnits="userSpaceOnUse"
       id="clipPath60">
      <path
         d="M 721.41417,351.22667 H 794.7475 V 404.56 h -73.33333 z"
         id="path58"
         inkscape:connector-curvature="0"
         style="clip-rule:evenodd" />
    </clipPath>
    <clipPath
       clipPathUnits="userSpaceOnUse"
       id="clipPath32">
      <path
         d="M 200.13292,235.22667 H 828.98708 V 553.89333 H 200.13292 Z"
         id="path30"
         inkscape:connector-curvature="0"
         style="clip-rule:evenodd" />
    </clipPath>
    <clipPath
       id="clipPath2564"
       clipPathUnits="userSpaceOnUse">
      <path
         id="path2566"
         d="M 72.54,579.24 H 539.46 V 342.148 H 72.54 Z"
         inkscape:connector-curvature="0" />
    </clipPath>
    <clipPath
       id="clipPath1611"
       clipPathUnits="userSpaceOnUse">
      <path
         id="path1609"
         d="M 72.54,579.24 H 539.46 V 342.148 H 72.54 Z"
         inkscape:connector-curvature="0" />
    </clipPath>
    <clipPath
       id="clipPath1615"
       clipPathUnits="userSpaceOnUse">
      <path
         id="path1613"
         d="M 72.54,579.24 H 539.46 V 342.148 H 72.54 Z"
         inkscape:connector-curvature="0" />
    </clipPath>
    <clipPath
       id="clipPath1619"
       clipPathUnits="userSpaceOnUse">
      <path
         id="path1617"
         d="M 72.54,579.24 H 539.46 V 342.148 H 72.54 Z"
         inkscape:connector-curvature="0" />
    </clipPath>
    <clipPath
       id="clipPath1623"
       clipPathUnits="userSpaceOnUse">
      <path
         id="path1621"
         d="M 72.54,579.24 H 539.46 V 342.148 H 72.54 Z"
         inkscape:connector-curvature="0" />
    </clipPath>
    <clipPath
       id="clipPath1627"
       clipPathUnits="userSpaceOnUse">
      <path
         id="path1625"
         d="M 72.54,579.24 H 539.46 V 342.148 H 72.54 Z"
         inkscape:connector-curvature="0" />
    </clipPath>
    <marker
       inkscape:stockid="Arrow1Lend"
       orient="auto"
       refY="0"
       refX="0"
       id="marker1530-7"
       style="overflow:visible"
       inkscape:isstock="true">
      <path
         id="path1528-96"
         d="M 0,0 5,-5 -12.5,0 5,5 Z"
         style="fill:#000000;fill-opacity:1;fill-rule:evenodd;stroke:#000000;stroke-width:1.00000003pt;stroke-opacity:1"
         transform="matrix(-0.8,0,0,-0.8,-10,0)"
         inkscape:connector-curvature="0" />
    </marker>
  </defs>
  <sodipodi:namedview
     id="base"
     pagecolor="#ffffff"
     bordercolor="#666666"
     borderopacity="1.0"
     inkscape:pageopacity="0.0"
     inkscape:pageshadow="2"
     inkscape:zoom="2.8284272"
     inkscape:cx="192.60878"
     inkscape:cy="137.71926"
     inkscape:document-units="mm"
     inkscape:current-layer="layer1"
     showgrid="false"
     inkscape:window-width="1920"
     inkscape:window-height="1025"
     inkscape:window-x="0"
     inkscape:window-y="27"
     inkscape:window-maximized="1" />
  <metadata
     id="metadata5">
    <rdf:RDF>
      <cc:Work
         rdf:about="">
        <dc:format>image/svg+xml</dc:format>
        <dc:type
           rdf:resource="http://purl.org/dc/dcmitype/StillImage" />
        <dc:title />
      </cc:Work>
    </rdf:RDF>
  </metadata>
  <g
     inkscape:label="Layer 1"
     inkscape:groupmode="layer"
     id="layer1"
     transform="translate(0,-237)">
    <rect
       style="fill:none;stroke:#000000;stroke-width:0.5291667;stroke-miterlimit:4;stroke-dasharray:none;stroke-opacity:1"
       id="rect836"
       width="13.963791"
       height="13.963791"
       x="38.164356"
       y="258.50601" />
    <circle
       style="fill:none;stroke:#000000;stroke-width:0.5291667;stroke-miterlimit:4;stroke-dasharray:none;stroke-opacity:1"
       id="path840"
       cx="26.175039"
       cy="265.48792"
       r="4.0462675" />
    <path
       style="fill:none;stroke:#000000;stroke-width:0.26458332;stroke-linecap:butt;stroke-linejoin:miter;stroke-miterlimit:4;stroke-dasharray:none;stroke-opacity:1"
       d="M 26.373471,288.152 H 113.98798"
       id="path844"
       inkscape:connector-curvature="0" />
    <path
       style="fill:none;stroke:#000000;stroke-width:0.26458332;stroke-linecap:butt;stroke-linejoin:miter;stroke-miterlimit:4;stroke-dasharray:none;stroke-opacity:1"
       d="m 113.96806,265.51282 v 22.76694"
       id="path846"
       inkscape:connector-curvature="0" />
    <path
       style="fill:none;stroke:#000000;stroke-width:0.26458332;stroke-linecap:butt;stroke-linejoin:miter;stroke-miterlimit:4;stroke-dasharray:none;stroke-opacity:1;marker-end:url(#marker1269)"
       d="m 14.473714,265.48795 h 7.112549"
       id="path842-3"
       inkscape:connector-curvature="0" />
    <path
       style="fill:none;stroke:#000000;stroke-width:0.26458332;stroke-linecap:butt;stroke-linejoin:miter;stroke-miterlimit:4;stroke-dasharray:none;stroke-opacity:1;marker-end:url(#marker1530)"
       d="M 26.373471,288.152 V 270.06821"
       id="path846-6"
       inkscape:connector-curvature="0" />
    <path
       style="fill:none;stroke:#000000;stroke-width:0.26458332;stroke-linecap:butt;stroke-linejoin:miter;stroke-miterlimit:4;stroke-dasharray:none;stroke-opacity:1;marker-end:url(#marker1530-2)"
       d="m 83.539385,246.21713 v 9.14385"
       id="path846-6-1"
       inkscape:connector-curvature="0" />
    <g
       style="overflow:visible"
       id="Shape_1"
       transform="matrix(0.05244964,0,0,0.05244964,58.934343,249.56994)">
      <g
         id="g4">
        <path
           d="m 251.99,369.532 c -3.653,0 -6.615,2.962 -6.615,6.615 0,3.653 2.962,6.615 6.615,6.615 3.653,0 6.615,-2.962 6.615,-6.615 0,-3.653 -2.961,-6.615 -6.615,-6.615 z m 0,18.772 c -1.548,0 -2.804,1.256 -2.804,2.805 0,1.548 1.255,2.804 2.804,2.804 1.549,0 2.804,-1.256 2.804,-2.804 0,-1.549 -1.255,-2.805 -2.804,-2.805 z m 7.431,8.607 v 22.711 c 6.642,-1.127 12.776,-3.74 18.053,-7.483 L 261.415,396.08 c -0.648,0.307 -1.312,0.587 -1.994,0.831 z m 12.505,-11.337 16.058,16.058 c 3.744,-5.276 6.354,-11.413 7.482,-18.055 h -22.713 c -0.245,0.682 -0.52,1.349 -0.827,1.997 z m -0.002,-18.852 c 0.307,0.648 0.585,1.313 0.83,1.995 h 22.712 c -1.127,-6.642 -3.74,-12.776 -7.483,-18.054 z m -29.358,-10.507 c 0.649,-0.308 1.313,-0.587 1.995,-0.831 v -22.711 c -6.642,1.127 -12.776,3.74 -18.053,7.483 z m 9.424,-52.279 c -39.881,0 -72.212,32.33 -72.212,72.212 0,39.882 32.331,72.212 72.212,72.212 39.882,0 72.212,-32.33 72.212,-72.212 0,-39.882 -32.33,-72.212 -72.212,-72.212 z m 0,123.792 c -28.487,0 -51.58,-23.093 -51.58,-51.58 0,-28.486 23.093,-51.58 51.58,-51.58 28.487,0 51.58,23.094 51.58,51.58 0,28.487 -23.093,51.58 -51.58,51.58 z m 0,-63.739 c 1.549,0 2.804,-1.256 2.804,-2.805 0,-1.548 -1.255,-2.804 -2.804,-2.804 -1.548,0 -2.804,1.256 -2.804,2.804 0.001,1.549 1.256,2.805 2.804,2.805 z m 25.484,-23.834 c -5.276,-3.743 -11.412,-6.355 -18.053,-7.482 v 22.711 c 0.682,0.244 1.347,0.522 1.995,0.83 z m -45.418,26.566 -16.058,-16.059 c -3.744,5.277 -6.355,11.413 -7.482,18.055 h 22.713 c 0.244,-0.682 0.519,-1.348 0.827,-1.996 z m -5.55,45.419 c 5.277,3.743 11.413,6.355 18.055,7.482 v -22.711 c -0.682,-0.244 -1.348,-0.522 -1.996,-0.83 z m 4.721,-28.563 h -22.711 c 1.127,6.642 3.739,12.777 7.482,18.055 l 16.059,-16.06 c -0.307,-0.648 -0.586,-1.313 -0.83,-1.995 z m 8.606,-7.431 c 0,-1.549 -1.255,-2.804 -2.804,-2.804 -1.549,0 -2.804,1.255 -2.804,2.804 0,1.549 1.255,2.804 2.804,2.804 1.548,0 2.804,-1.255 2.804,-2.804 z m 24.315,0 c 0,1.549 1.255,2.804 2.804,2.804 1.549,0 2.804,-1.255 2.804,-2.804 0,-1.549 -1.255,-2.804 -2.804,-2.804 -1.549,0.001 -2.804,1.256 -2.804,2.804 z m 547.493,-6.614 c -3.653,0 -6.615,2.962 -6.615,6.615 0,3.653 2.962,6.615 6.615,6.615 3.653,0 6.615,-2.962 6.615,-6.615 0,-3.653 -2.962,-6.615 -6.615,-6.615 z m -9.424,-13.317 c 0.648,-0.308 1.313,-0.587 1.994,-0.831 v -22.711 c -6.642,1.127 -12.776,3.74 -18.054,7.483 z m 9.424,32.089 c -1.549,0 -2.804,1.256 -2.804,2.805 0,1.548 1.255,2.804 2.804,2.804 1.549,0 2.804,-1.256 2.804,-2.804 -0.001,-1.549 -1.256,-2.805 -2.804,-2.805 z m 7.43,8.607 v 22.711 c 6.642,-1.127 12.775,-3.74 18.053,-7.483 L 821.065,396.08 c -0.648,0.307 -1.312,0.587 -1.994,0.831 z m 13.331,-13.334 c -0.244,0.682 -0.52,1.349 -0.826,1.997 l 16.058,16.058 c 3.744,-5.276 6.354,-11.413 7.482,-18.055 z m 104.874,-91.42 C 927.475,277.153 902.38,271.922 883.264,265.68 749.776,233.438 705.382,243.933 683.102,240.792 c -4.495,-1.199 -8.503,-5.123 -12.179,-7.413 -8.057,-5.019 -16.418,-9.434 -24.358,-14.298 -13.119,-8.036 -73.653,-41.146 -90.02,-47.128 -35.963,-13.142 -92.818,-23.68 -229.815,-12.708 -5.56,-1.528 -8.916,-6.016 -14.826,-7.414 -5.846,-1.383 -11.214,1.693 -15.356,2.648 0.075,4.491 -0.326,8.136 -1.059,11.649 -26.775,11.291 -53.869,19.953 -80.488,31.242 -11.108,4.711 -22.569,9.32 -33.89,14.297 -7.042,3.097 -13.77,7.495 -21.71,10.062 -8.624,2.786 -18.051,1.527 -27.536,3.706 -17.267,3.967 -35.99,4.497 -55.071,4.766 -2.181,3.738 -5.977,7.503 -6.884,12.18 3.305,1.02 4.412,3.298 4.236,7.942 -5.84,8.653 -4.274,20.981 -4.236,34.949 -12.441,6.37 -14.333,29.711 -11.12,48.187 -0.353,1.589 -0.706,3.178 -1.059,4.767 0.665,5.223 2.365,10.742 2.647,16.415 4.672,3.133 9.968,8.167 13.238,12.709 1.595,2.215 2.371,6.033 5.295,6.884 15.631,11.41 94.785,13.768 94.785,13.768 l 4.164,0.228 c -0.637,-3.934 -0.973,-7.969 -0.973,-12.082 0,-41.478 33.625,-75.102 75.102,-75.102 41.478,0 75.102,33.624 75.102,75.102 0,6.966 -0.952,18.277 -2.728,24.678 l 416.073,-0.736 c -2.527,-7.52 -3.898,-15.57 -3.898,-23.941 0,-41.478 33.624,-75.102 75.102,-75.102 41.478,0 75.102,33.624 75.102,75.102 0,7.27 -1.036,14.297 -2.964,20.945 l 4.252,-0.089 c 0,0 32.779,-1.584 40.773,-5.296 7.994,-3.711 11.12,-14.297 11.12,-14.297 l -2.118,-22.24 c 0.001,-0.001 9.847,-47.13 -0.529,-63.015 z M 272.719,237.621 c -24.887,-16.535 -11.702,-35.842 -12.373,-35.781 -0.398,0.354 -0.685,0.636 -0.865,0.827 0.528,-0.559 0.788,-0.82 0.865,-0.827 6.412,-5.714 43.006,-31.271 172.82,-31.474 4.06,22.768 8.12,52.68 12.179,75.446 -52.233,-1.583 -155.045,-0.7 -172.626,-8.191 z m 334.662,8.467 c -11.408,0 -124.969,-0.031 -124.969,-0.031 0,0 -18.331,-48.33 -24.887,-75.157 0.763,0.07 23.298,1.055 23.298,1.055 0,0 44.613,5.079 72.546,14.298 21.976,7.253 65.363,36.403 66.19,38.126 -13.053,0.668 -16.143,10.95 -12.178,21.709 z m 204.26,57.848 c -39.882,0 -72.212,32.33 -72.212,72.212 0,39.882 32.33,72.212 72.212,72.212 39.882,0 72.212,-32.33 72.212,-72.212 0,-39.882 -32.331,-72.212 -72.212,-72.212 z m 0,123.792 c -28.486,0 -51.58,-23.093 -51.58,-51.58 0,-28.486 23.094,-51.58 51.58,-51.58 28.487,0 51.58,23.094 51.58,51.58 0,28.487 -23.093,51.58 -51.58,51.58 z m -19.935,-61.007 -16.059,-16.059 c -3.743,5.277 -6.354,11.413 -7.481,18.055 h 22.713 c 0.244,-0.682 0.519,-1.348 0.827,-1.996 z m 7.777,9.425 c 0,-1.549 -1.256,-2.804 -2.805,-2.804 -1.548,0 -2.804,1.255 -2.804,2.804 0,1.549 1.256,2.804 2.804,2.804 1.55,0 2.805,-1.255 2.805,-2.804 z m 12.158,-12.157 c 1.549,0 2.804,-1.256 2.804,-2.805 0,-1.548 -1.255,-2.804 -2.804,-2.804 -1.549,0 -2.804,1.256 -2.804,2.804 0,1.549 1.255,2.805 2.804,2.805 z m 25.484,-23.834 c -5.277,-3.743 -11.412,-6.355 -18.054,-7.482 v 22.711 c 0.682,0.244 1.347,0.522 1.995,0.83 z m -13.327,35.991 c 0,1.549 1.256,2.804 2.805,2.804 1.548,0 2.804,-1.255 2.804,-2.804 0,-1.549 -1.256,-2.804 -2.804,-2.804 -1.549,0.001 -2.805,1.256 -2.805,2.804 z m -37.642,35.994 c 5.277,3.743 11.413,6.355 18.055,7.482 v -22.711 c -0.683,-0.244 -1.348,-0.522 -1.996,-0.83 z m 4.721,-28.563 h -22.711 c 1.127,6.642 3.739,12.777 7.482,18.055 l 16.059,-16.06 c -0.308,-0.648 -0.586,-1.313 -0.83,-1.995 z m 41.527,-14.86 h 22.711 c -1.127,-6.642 -3.739,-12.776 -7.482,-18.054 l -16.059,16.059 c 0.307,0.648 0.586,1.313 0.83,1.995 z"
           id="path2"
           inkscape:connector-curvature="0"
           style="fill:#323232" />
      </g>
    </g>
    <path
       style="fill:none;stroke:#000000;stroke-width:0.26458332;stroke-linecap:butt;stroke-linejoin:miter;stroke-miterlimit:4;stroke-dasharray:none;stroke-opacity:1;marker-end:url(#marker1269-3)"
       d="m 30.520745,265.48795 h 7.112548"
       id="path842-3-7"
       inkscape:connector-curvature="0" />
    <path
       style="fill:none;stroke:#000000;stroke-width:0.26458332;stroke-linecap:butt;stroke-linejoin:miter;stroke-miterlimit:4;stroke-dasharray:none;stroke-opacity:1;marker-end:url(#marker1269-32)"
       d="m 52.320229,265.48795 h 7.112548"
       id="path842-3-5"
       inkscape:connector-curvature="0" />
    <path
       style="fill:none;stroke:#000000;stroke-width:0.26458332;stroke-linecap:butt;stroke-linejoin:miter;stroke-miterlimit:4;stroke-dasharray:none;stroke-opacity:1;marker-end:url(#marker1269-2)"
       d="m 112.01243,265.48795 h 7.11254"
       id="path842-3-8"
       inkscape:connector-curvature="0" />
    <g
       id="g3176"
       transform="matrix(0.5319281,0,0,0.5319281,-63.411414,203.90312)"
       ns1:text="\\( e  \\)"
       style="fill:#000080;stroke-width:1.87995338">
      <g
         id="g3174"
         style="fill:#000080;stroke-width:1.87995338">
        <g
           id="g3172"
           style="fill:#000080;fill-opacity:1;stroke-width:1.87995338">
          <path
             id="path3170"
             transform="translate(178.585,110.99)"
             d="m 1.859375,-2.296875 c 0.296875,0 1.03125,-0.03125 1.53125,-0.234375 0.703125,-0.296875 0.75,-0.890625 0.75,-1.03125 0,-0.4375 -0.375,-0.84375 -1.0625,-0.84375 -1.109375,0 -2.625,0.96875 -2.625,2.71875 0,1.015625 0.59375,1.796875 1.578125,1.796875 1.421875,0 2.25,-1.0625 2.25,-1.171875 0,-0.0625 -0.046875,-0.140625 -0.109375,-0.140625 -0.0625,0 -0.078125,0.03125 -0.140625,0.109375 -0.78125,0.984375 -1.875,0.984375 -1.984375,0.984375 -0.78125,0 -0.875,-0.84375 -0.875,-1.15625 0,-0.125 0.015625,-0.421875 0.15625,-1.03125 z m -0.46875,-0.21875 C 1.78125,-4.03125 2.8125,-4.1875 3.078125,-4.1875 c 0.453125,0 0.734375,0.296875 0.734375,0.625 0,1.046875 -1.59375,1.046875 -2.015625,1.046875 z m 0,0"
             style="fill:#000080;stroke:none;stroke-width:1.87995338"
             inkscape:connector-curvature="0" />
        </g>
      </g>
    </g>
    <g
       id="g1994"
       style="fill:#000080;stroke-width:1.87995338"
       transform="matrix(0.5319281,0,0,0.5319281,14.502453,203.90312)"
       ns1:text="\\( x \\)">
      <g
         id="g1992"
         style="fill:#000080">
        <g
           id="g1990"
           style="fill:#000080;fill-opacity:1">
          <path
             id="path1988"
             transform="translate(178.585,110.99)"
             d="M 3.328125,-3.015625 C 3.390625,-3.265625 3.625,-4.1875 4.3125,-4.1875 c 0.046875,0 0.296875,0 0.5,0.125 C 4.53125,-4 4.34375,-3.765625 4.34375,-3.515625 c 0,0.15625 0.109375,0.34375 0.375,0.34375 0.21875,0 0.53125,-0.171875 0.53125,-0.578125 0,-0.515625 -0.578125,-0.65625 -0.921875,-0.65625 -0.578125,0 -0.921875,0.53125 -1.046875,0.75 -0.25,-0.65625 -0.78125,-0.75 -1.078125,-0.75 -1.03125,0 -1.609375,1.28125 -1.609375,1.53125 0,0.109375 0.109375,0.109375 0.125,0.109375 0.078125,0 0.109375,-0.03125 0.125,-0.109375 0.34375,-1.0625 1,-1.3125 1.34375,-1.3125 0.1875,0 0.53125,0.09375 0.53125,0.671875 0,0.3125 -0.171875,0.96875 -0.53125,2.375 -0.15625,0.609375 -0.515625,1.03125 -0.953125,1.03125 -0.0625,0 -0.28125,0 -0.5,-0.125 0.25,-0.0625 0.46875,-0.265625 0.46875,-0.546875 0,-0.265625 -0.21875,-0.34375 -0.359375,-0.34375 -0.3125,0 -0.546875,0.25 -0.546875,0.578125 0,0.453125 0.484375,0.65625 0.921875,0.65625 0.671875,0 1.03125,-0.703125 1.046875,-0.75 0.125,0.359375 0.484375,0.75 1.078125,0.75 1.03125,0 1.59375,-1.28125 1.59375,-1.53125 0,-0.109375 -0.078125,-0.109375 -0.109375,-0.109375 -0.09375,0 -0.109375,0.046875 -0.140625,0.109375 -0.328125,1.078125 -1,1.3125 -1.3125,1.3125 -0.390625,0 -0.546875,-0.3125 -0.546875,-0.65625 0,-0.21875 0.046875,-0.4375 0.15625,-0.875 z m 0,0"
             style="fill:#000080;stroke:none"
             inkscape:connector-curvature="0" />
        </g>
      </g>
    </g>
    <g
       id="g2156"
       style="fill:#000080;stroke-width:1.87995338"
       transform="matrix(0.5319281,0,0,0.5319281,-39.156878,203.90312)"
       ns1:text="\\( u \\)">
      <g
         id="surface1"
         style="fill:#000080">
        <g
           id="g2153"
           style="fill:#000080;fill-opacity:1">
          <path
             id="path2151"
             transform="translate(178.585,110.99)"
             d="M 3.484375,-0.5625 C 3.59375,-0.15625 3.953125,0.109375 4.375,0.109375 4.71875,0.109375 4.953125,-0.125 5.109375,-0.4375 5.28125,-0.796875 5.40625,-1.40625 5.40625,-1.421875 c 0,-0.109375 -0.078125,-0.109375 -0.109375,-0.109375 -0.109375,0 -0.109375,0.046875 -0.140625,0.1875 -0.140625,0.5625 -0.328125,1.234375 -0.75,1.234375 -0.203125,0 -0.3125,-0.125 -0.3125,-0.453125 0,-0.21875 0.125,-0.6875 0.203125,-1.046875 L 4.578125,-2.6875 C 4.609375,-2.828125 4.703125,-3.203125 4.75,-3.359375 4.796875,-3.59375 4.890625,-3.96875 4.890625,-4.03125 c 0,-0.171875 -0.140625,-0.265625 -0.28125,-0.265625 -0.046875,0 -0.3125,0.015625 -0.390625,0.34375 -0.1875,0.734375 -0.625,2.484375 -0.75,3 -0.015625,0.046875 -0.40625,0.84375 -1.140625,0.84375 -0.515625,0 -0.609375,-0.453125 -0.609375,-0.8125 0,-0.5625 0.28125,-1.34375 0.53125,-2.03125 0.125,-0.3125 0.171875,-0.453125 0.171875,-0.640625 0,-0.4375 -0.3125,-0.8125 -0.8125,-0.8125 -0.953125,0 -1.3125,1.453125 -1.3125,1.53125 0,0.109375 0.09375,0.109375 0.109375,0.109375 0.109375,0 0.109375,-0.03125 0.15625,-0.1875 0.25,-0.859375 0.640625,-1.234375 1.015625,-1.234375 0.09375,0 0.25,0.015625 0.25,0.328125 0,0.234375 -0.109375,0.53125 -0.171875,0.671875 -0.375,1 -0.578125,1.609375 -0.578125,2.09375 0,0.953125 0.6875,1.203125 1.21875,1.203125 0.65625,0 1.015625,-0.453125 1.1875,-0.671875 z m 0,0"
             style="fill:#000080;stroke:none"
             inkscape:connector-curvature="0" />
        </g>
      </g>
    </g>
    <g
       id="g2264"
       style="fill:#000080;stroke-width:1.87995338"
       transform="matrix(0.5319281,0,0,0.5319281,-17.977659,193.93531)"
       ns1:text="\\( d \\)">
      <g
         id="g2262"
         style="fill:#000080">
        <g
           id="g2260"
           style="fill:#000080;fill-opacity:1">
          <path
             id="path2258"
             transform="translate(178.585,110.99)"
             d="m 5.140625,-6.8125 c 0,0 0,-0.109375 -0.125,-0.109375 -0.15625,0 -1.09375,0.09375 -1.265625,0.109375 -0.078125,0.015625 -0.140625,0.0625 -0.140625,0.1875 0,0.125 0.09375,0.125 0.234375,0.125 0.484375,0 0.5,0.0625 0.5,0.171875 L 4.3125,-6.125 3.71875,-3.765625 C 3.53125,-4.140625 3.25,-4.40625 2.796875,-4.40625 c -1.15625,0 -2.390625,1.46875 -2.390625,2.921875 0,0.9375 0.546875,1.59375 1.3125,1.59375 0.203125,0 0.703125,-0.046875 1.296875,-0.75 0.078125,0.421875 0.4375,0.75 0.90625,0.75 0.359375,0 0.578125,-0.234375 0.75,-0.546875 0.15625,-0.359375 0.296875,-0.96875 0.296875,-0.984375 0,-0.109375 -0.09375,-0.109375 -0.125,-0.109375 -0.09375,0 -0.109375,0.046875 -0.140625,0.1875 -0.171875,0.640625 -0.34375,1.234375 -0.75,1.234375 -0.28125,0 -0.296875,-0.265625 -0.296875,-0.453125 0,-0.25 0.015625,-0.3125 0.046875,-0.484375 z m -2.0625,5.625 C 3.015625,-1 3.015625,-0.984375 2.875,-0.8125 2.4375,-0.265625 2.03125,-0.109375 1.75,-0.109375 c -0.5,0 -0.640625,-0.546875 -0.640625,-0.9375 0,-0.5 0.3125,-1.71875 0.546875,-2.1875 0.3125,-0.578125 0.75,-0.953125 1.15625,-0.953125 0.640625,0 0.78125,0.8125 0.78125,0.875 0,0.0625 -0.015625,0.125 -0.03125,0.171875 z m 0,0"
             style="fill:#000080;stroke:none"
             inkscape:connector-curvature="0" />
        </g>
      </g>
    </g>
    <g
       id="g2348"
       style="fill:#000080;stroke-width:1.87995338"
       transform="matrix(0.5319281,0,0,0.5319281,-81.152296,203.90312)"
       ns1:text="\\( r \\)">
      <g
         id="g2346"
         style="fill:#000080">
        <g
           id="g2344"
           style="fill:#000080;fill-opacity:1">
          <path
             id="path2342"
             transform="translate(178.585,110.99)"
             d="m 0.875,-0.59375 c -0.03125,0.15625 -0.09375,0.390625 -0.09375,0.4375 0,0.171875 0.140625,0.265625 0.296875,0.265625 0.125,0 0.296875,-0.078125 0.375,-0.28125 C 1.46875,-0.203125 1.796875,-1.5625 1.84375,-1.75 c 0.078125,-0.328125 0.265625,-1.015625 0.3125,-1.296875 0.046875,-0.125 0.328125,-0.59375 0.5625,-0.8125 0.078125,-0.0625 0.375,-0.328125 0.796875,-0.328125 0.265625,0 0.40625,0.125 0.421875,0.125 -0.296875,0.046875 -0.515625,0.28125 -0.515625,0.546875 0,0.15625 0.109375,0.34375 0.375,0.34375 0.265625,0 0.546875,-0.234375 0.546875,-0.59375 0,-0.34375 -0.3125,-0.640625 -0.828125,-0.640625 C 2.875,-4.40625 2.4375,-3.921875 2.25,-3.640625 2.15625,-4.09375 1.796875,-4.40625 1.328125,-4.40625 0.875,-4.40625 0.6875,-4.015625 0.59375,-3.84375 0.421875,-3.5 0.296875,-2.90625 0.296875,-2.875 c 0,0.109375 0.09375,0.109375 0.109375,0.109375 0.109375,0 0.109375,-0.015625 0.171875,-0.234375 0.171875,-0.703125 0.375,-1.1875 0.734375,-1.1875 0.15625,0 0.296875,0.078125 0.296875,0.453125 0,0.21875 -0.03125,0.328125 -0.15625,0.84375 z m 0,0"
             style="fill:#000080;stroke:none"
             inkscape:connector-curvature="0" />
        </g>
      </g>
    </g>
    <g
       id="g3066"
       transform="matrix(0.5319281,0,0,0.5319281,-51.996619,208.26109)"
       ns1:text="\\( C  \\)"
       style="stroke-width:1.87995338">
      <g
         id="g3064"
         style="stroke-width:1.87995338">
        <g
           id="g3062"
           style="fill:#000000;fill-opacity:1;stroke-width:1.87995338">
          <path
             id="path3060"
             transform="translate(178.585,110.99)"
             d="m 7.578125,-6.921875 c 0,-0.03125 -0.015625,-0.109375 -0.109375,-0.109375 -0.03125,0 -0.046875,0.015625 -0.15625,0.125 L 6.625,-6.140625 C 6.53125,-6.28125 6.078125,-7.03125 4.96875,-7.03125 2.734375,-7.03125 0.5,-4.828125 0.5,-2.515625 0.5,-0.875 1.671875,0.21875 3.203125,0.21875 c 0.859375,0 1.625,-0.390625 2.15625,-0.859375 0.921875,-0.8125 1.09375,-1.71875 1.09375,-1.75 C 6.453125,-2.5 6.34375,-2.5 6.328125,-2.5 c -0.0625,0 -0.109375,0.03125 -0.125,0.109375 -0.09375,0.28125 -0.328125,1 -1.015625,1.578125 -0.6875,0.546875 -1.3125,0.71875 -1.828125,0.71875 -0.890625,0 -1.953125,-0.515625 -1.953125,-2.0625 0,-0.578125 0.203125,-2.1875 1.203125,-3.359375 0.609375,-0.703125 1.546875,-1.203125 2.4375,-1.203125 1.015625,0 1.609375,0.765625 1.609375,1.921875 0,0.40625 -0.03125,0.40625 -0.03125,0.515625 0,0.09375 0.109375,0.09375 0.140625,0.09375 0.125,0 0.125,-0.015625 0.1875,-0.203125 z m 0,0"
             style="stroke:none;stroke-width:1.87995338"
             inkscape:connector-curvature="0" />
        </g>
      </g>
    </g>
  </g>
</svg>
