<?xml version="1.0" encoding="UTF-8" standalone="no"?>
<!-- Created with Inkscape (http://www.inkscape.org/) -->

<svg
   xmlns:ns0="http://wanglongqi.github.io/WriteTeX"
   xmlns:dc="http://purl.org/dc/elements/1.1/"
   xmlns:cc="http://creativecommons.org/ns#"
   xmlns:rdf="http://www.w3.org/1999/02/22-rdf-syntax-ns#"
   xmlns:svg="http://www.w3.org/2000/svg"
   xmlns="http://www.w3.org/2000/svg"
   xmlns:sodipodi="http://sodipodi.sourceforge.net/DTD/sodipodi-0.dtd"
   xmlns:inkscape="http://www.inkscape.org/namespaces/inkscape"
   width="109.99999mm"
   height="48.311729mm"
   viewBox="0 0 110 48.311729"
   version="1.1"
   id="svg8"
   inkscape:version="0.92.2 (unknown)"
   sodipodi:docname="diagramaLJ.svg">
  <sodipodi:namedview
     id="base"
     pagecolor="#ffffff"
     bordercolor="#666666"
     borderopacity="1.0"
     inkscape:pageopacity="0.0"
     inkscape:pageshadow="2"
     inkscape:zoom="1.4"
     inkscape:cx="197.9329"
     inkscape:cy="50.062077"
     inkscape:document-units="mm"
     inkscape:current-layer="layer1"
     showgrid="false"
     inkscape:window-width="1366"
     inkscape:window-height="744"
     inkscape:window-x="0"
     inkscape:window-y="24"
     inkscape:window-maximized="1"
     fit-margin-top="0"
     fit-margin-left="0"
     fit-margin-right="0"
     fit-margin-bottom="0" />
  <defs
     id="defs2">
    <marker
       inkscape:stockid="Arrow1Lend"
       orient="auto"
       refY="0"
       refX="0"
       id="Arrow1Lend"
       style="overflow:visible"
       inkscape:isstock="true">
      <path
         id="path990"
         d="M 0,0 5,-5 -12.5,0 5,5 Z"
         style="fill:#000000;fill-opacity:1;fill-rule:evenodd;stroke:#000000;stroke-width:1.00000003pt;stroke-opacity:1"
         transform="matrix(-0.8,0,0,-0.8,-10,0)"
         inkscape:connector-curvature="0" />
    </marker>
    <marker
       inkscape:stockid="Arrow1Mend"
       orient="auto"
       refY="0"
       refX="0"
       id="Arrow1Mend"
       style="overflow:visible"
       inkscape:isstock="true">
      <path
         id="path996"
         d="M 0,0 5,-5 -12.5,0 5,5 Z"
         style="fill:#000000;fill-opacity:1;fill-rule:evenodd;stroke:#000000;stroke-width:1.00000003pt;stroke-opacity:1"
         transform="matrix(-0.4,0,0,-0.4,-4,0)"
         inkscape:connector-curvature="0" />
    </marker>
    <marker
       inkscape:stockid="Arrow1Lend"
       orient="auto"
       refY="0"
       refX="0"
       id="Arrow1Lend-9"
       style="overflow:visible"
       inkscape:isstock="true">
      <path
         inkscape:connector-curvature="0"
         id="path990-3"
         d="M 0,0 5,-5 -12.5,0 5,5 Z"
         style="fill:#000000;fill-opacity:1;fill-rule:evenodd;stroke:#000000;stroke-width:1.00000003pt;stroke-opacity:1"
         transform="matrix(-0.8,0,0,-0.8,-10,0)" />
    </marker>
    <marker
       inkscape:stockid="Arrow1Lend"
       orient="auto"
       refY="0"
       refX="0"
       id="Arrow1Lend-0"
       style="overflow:visible"
       inkscape:isstock="true">
      <path
         inkscape:connector-curvature="0"
         id="path990-6"
         d="M 0,0 5,-5 -12.5,0 5,5 Z"
         style="fill:#000000;fill-opacity:1;fill-rule:evenodd;stroke:#000000;stroke-width:1.00000003pt;stroke-opacity:1"
         transform="matrix(-0.8,0,0,-0.8,-10,0)" />
    </marker>
    <marker
       inkscape:stockid="Arrow1Lend"
       orient="auto"
       refY="0"
       refX="0"
       id="Arrow1Lend-9-8"
       style="overflow:visible"
       inkscape:isstock="true">
      <path
         inkscape:connector-curvature="0"
         id="path990-3-7"
         d="M 0,0 5,-5 -12.5,0 5,5 Z"
         style="fill:#000000;fill-opacity:1;fill-rule:evenodd;stroke:#000000;stroke-width:1.00000003pt;stroke-opacity:1"
         transform="matrix(-0.8,0,0,-0.8,-10,0)" />
    </marker>
    <marker
       inkscape:stockid="Arrow1Lend"
       orient="auto"
       refY="0"
       refX="0"
       id="Arrow1Lend-0-2"
       style="overflow:visible"
       inkscape:isstock="true">
      <path
         inkscape:connector-curvature="0"
         id="path990-6-0"
         d="M 0,0 5,-5 -12.5,0 5,5 Z"
         style="fill:#000000;fill-opacity:1;fill-rule:evenodd;stroke:#000000;stroke-width:1.00000003pt;stroke-opacity:1"
         transform="matrix(-0.8,0,0,-0.8,-10,0)" />
    </marker>
    <marker
       inkscape:stockid="Arrow1Lend"
       orient="auto"
       refY="0"
       refX="0"
       id="Arrow1Lend-9-8-3"
       style="overflow:visible"
       inkscape:isstock="true">
      <path
         inkscape:connector-curvature="0"
         id="path990-3-7-7"
         d="M 0,0 5,-5 -12.5,0 5,5 Z"
         style="fill:#000000;fill-opacity:1;fill-rule:evenodd;stroke:#000000;stroke-width:1.00000003pt;stroke-opacity:1"
         transform="matrix(-0.8,0,0,-0.8,-10,0)" />
    </marker>
    <marker
       inkscape:stockid="Arrow1Lend"
       orient="auto"
       refY="0"
       refX="0"
       id="Arrow1Lend-9-8-9"
       style="overflow:visible"
       inkscape:isstock="true">
      <path
         inkscape:connector-curvature="0"
         id="path990-3-7-2"
         d="M 0,0 5,-5 -12.5,0 5,5 Z"
         style="fill:#000000;fill-opacity:1;fill-rule:evenodd;stroke:#000000;stroke-width:1.00000003pt;stroke-opacity:1"
         transform="matrix(-0.8,0,0,-0.8,-10,0)" />
    </marker>
    <marker
       inkscape:stockid="Arrow1Lend"
       orient="auto"
       refY="0"
       refX="0"
       id="Arrow1Lend-9-8-8"
       style="overflow:visible"
       inkscape:isstock="true">
      <path
         inkscape:connector-curvature="0"
         id="path990-3-7-9"
         d="M 0,0 5,-5 -12.5,0 5,5 Z"
         style="fill:#000000;fill-opacity:1;fill-rule:evenodd;stroke:#000000;stroke-width:1.00000003pt;stroke-opacity:1"
         transform="matrix(-0.8,0,0,-0.8,-10,0)" />
    </marker>
  </defs>
  <metadata
     id="metadata5">
    <rdf:RDF>
      <cc:Work
         rdf:about="">
        <dc:format>image/svg+xml</dc:format>
        <dc:type
           rdf:resource="http://purl.org/dc/dcmitype/StillImage" />
        <dc:title></dc:title>
      </cc:Work>
    </rdf:RDF>
  </metadata>
  <g
     transform="translate(3.2126066,-255.78322)"
     id="layer1"
     inkscape:groupmode="layer"
     inkscape:label="Layer 1">
    <rect
       y="260.77902"
       x="10.245934"
       height="10.866094"
       width="18.145885"
       id="rect815"
       style="opacity:1;fill:none;fill-opacity:1;stroke:#000000;stroke-width:0.23027289;stroke-miterlimit:4;stroke-dasharray:none;stroke-dashoffset:0;stroke-opacity:1" />
    <rect
       y="255.89836"
       x="73.520248"
       height="20.627388"
       width="11.042896"
       id="rect815-6"
       style="opacity:1;fill:none;fill-opacity:1;stroke:#000000;stroke-width:0.23027289;stroke-miterlimit:4;stroke-dasharray:none;stroke-dashoffset:0;stroke-opacity:1" />
    <text
       id="text840"
       y="267.30945"
       x="14.732158"
       style="font-style:normal;font-weight:normal;font-size:3.07030535px;line-height:1.25;font-family:sans-serif;letter-spacing:0px;word-spacing:0px;fill:#000000;fill-opacity:1;stroke:none;stroke-width:0.23027289"
       xml:space="preserve"><tspan
         style="stroke-width:0.23027289"
         y="267.30945"
         x="14.732158"
         id="tspan838"
         sodipodi:role="line">Motor</tspan></text>
    <rect
       y="260.77902"
       x="41.917439"
       height="10.866094"
       width="18.145885"
       id="rect815-7"
       style="opacity:1;fill:none;fill-opacity:1;stroke:#000000;stroke-width:0.23027289;stroke-miterlimit:4;stroke-dasharray:none;stroke-dashoffset:0;stroke-opacity:1" />
    <text
       id="text840-5"
       y="267.10855"
       x="44.305569"
       style="font-style:normal;font-weight:normal;font-size:3.07030535px;line-height:1.25;font-family:sans-serif;letter-spacing:0px;word-spacing:0px;fill:#000000;fill-opacity:1;stroke:none;stroke-width:0.23027289"
       xml:space="preserve"><tspan
         style="stroke-width:0.23027289"
         y="267.10855"
         x="44.305569"
         id="tspan838-3"
         sodipodi:role="line">Redução</tspan></text>
    <text
       id="text840-5-5"
       y="283.92947"
       x="35.237881"
       style="font-style:normal;font-weight:normal;font-size:3.07030535px;line-height:1.25;font-family:sans-serif;letter-spacing:0px;word-spacing:0px;fill:#000000;fill-opacity:1;stroke:none;stroke-width:0.23027289"
       xml:space="preserve"><tspan
         style="text-align:center;text-anchor:middle;stroke-width:0.23027289"
         y="283.92947"
         x="35.237881"
         id="tspan838-3-6"
         sodipodi:role="line">Sensor de</tspan><tspan
         id="tspan893"
         style="text-align:center;text-anchor:middle;stroke-width:0.23027289"
         y="287.76736"
         x="35.237881"
         sodipodi:role="line">Velocidade</tspan></text>
    <text
       id="text840-5-5-2"
       y="284.04593"
       x="97.579819"
       style="font-style:normal;font-weight:normal;font-size:3.07030535px;line-height:1.25;font-family:sans-serif;letter-spacing:0px;word-spacing:0px;fill:#000000;fill-opacity:1;stroke:none;stroke-width:0.23027289"
       xml:space="preserve"><tspan
         style="text-align:center;text-anchor:middle;stroke-width:0.23027289"
         y="284.04593"
         x="97.579819"
         id="tspan838-3-6-9"
         sodipodi:role="line">Sensor de</tspan><tspan
         id="tspan893-1"
         style="text-align:center;text-anchor:middle;stroke-width:0.23027289"
         y="287.88382"
         x="97.579819"
         sodipodi:role="line">posição</tspan></text>
    <g
       id="g959"
       transform="matrix(696.25823,0,0,696.25823,-119.07017,325.90208)"
       ns0:text="\\(\\int\\)">
      <g
         word-spacing="normal"
         letter-spacing="normal"
         font-size-adjust="none"
         font-stretch="normal"
         font-weight="normal"
         font-variant="normal"
         font-style="normal"
         stroke-miterlimit="10.433"
         xml:space="preserve"
         transform="matrix(0.0017361,0,0,-0.0017361,-0.03125,1.1875)"
         id="content"
         style="font-style:normal;font-variant:normal;font-weight:normal;font-stretch:normal;letter-spacing:normal;word-spacing:normal;text-anchor:start;fill:none;fill-opacity:1;fill-rule:evenodd;stroke:#000000;stroke-linecap:butt;stroke-linejoin:miter;stroke-miterlimit:10.43299961;stroke-dasharray:none;stroke-dashoffset:0;stroke-opacity:1"><path
           id="path956"
           d="m 181.29,730.16 v -0.08 l -0.01,-0.07 -0.01,-0.15 -0.02,-0.13 -0.02,-0.13 -0.02,-0.13 -0.01,-0.11 -0.03,-0.11 -0.02,-0.11 -0.02,-0.1 -0.03,-0.09 -0.02,-0.09 -0.03,-0.08 -0.03,-0.08 -0.03,-0.07 -0.03,-0.07 -0.03,-0.06 -0.04,-0.06 -0.03,-0.05 -0.04,-0.05 -0.03,-0.04 -0.04,-0.04 -0.04,-0.03 -0.04,-0.03 -0.05,-0.03 -0.04,-0.02 -0.05,-0.02 -0.04,-0.02 -0.05,-0.01 -0.05,-0.01 -0.05,-0.01 -0.05,-0.01 h -0.05 c -0.13,0 -0.43,0.03 -0.64,0.21 0.29,0.04 0.37,0.27 0.37,0.41 0,0.29 -0.22,0.42 -0.41,0.42 -0.2,0 -0.42,-0.13 -0.42,-0.43 0,-0.48 0.5,-0.83 1.1,-0.83 0.94,0 1.42,0.87 1.64,1.77 0.13,0.52 0.49,3.41 0.57,4.52 l 0.19,2.48 c 0.14,1.83 0.48,2.08 0.92,2.08 0.1,0 0.41,-0.02 0.63,-0.21 -0.29,-0.04 -0.37,-0.27 -0.37,-0.4 0,-0.29 0.22,-0.42 0.41,-0.42 0.2,0 0.42,0.13 0.42,0.43 0,0.47 -0.5,0.82 -1.1,0.82 -0.94,0 -1.33,-0.96 -1.5,-1.72 -0.12,-0.55 -0.48,-3.36 -0.57,-4.56 z"
           inkscape:connector-curvature="0"
           style="fill:#000000;stroke-width:0" /></g>    </g>
    <path
       style="fill:none;stroke:#000000;stroke-width:0.23027289;stroke-linecap:butt;stroke-linejoin:miter;stroke-miterlimit:4;stroke-dasharray:none;stroke-opacity:1;marker-end:url(#Arrow1Lend)"
       d="M -3.2126066,266.21206 H 9.8422358"
       id="path985"
       inkscape:connector-curvature="0" />
    <path
       style="fill:none;stroke:#000000;stroke-width:0.23027289;stroke-linecap:butt;stroke-linejoin:miter;stroke-miterlimit:4;stroke-dasharray:none;stroke-opacity:1;marker-end:url(#Arrow1Lend-9)"
       d="M 28.405891,266.21206 H 41.460733"
       id="path985-6"
       inkscape:connector-curvature="0" />
    <path
       style="fill:none;stroke:#000000;stroke-width:0.23027289;stroke-linecap:butt;stroke-linejoin:miter;stroke-miterlimit:4;stroke-dasharray:none;stroke-opacity:1;marker-end:url(#Arrow1Lend-0)"
       d="M 60.078665,266.21206 H 73.133507"
       id="path985-2"
       inkscape:connector-curvature="0" />
    <rect
       y="279.57712"
       x="26.095224"
       height="10.866094"
       width="18.145885"
       id="rect815-7-6"
       style="opacity:1;fill:none;fill-opacity:1;stroke:#000000;stroke-width:0.23027289;stroke-miterlimit:4;stroke-dasharray:none;stroke-dashoffset:0;stroke-opacity:1" />
    <rect
       y="279.68478"
       x="88.526367"
       height="10.866094"
       width="18.145885"
       id="rect815-7-1"
       style="opacity:1;fill:none;fill-opacity:1;stroke:#000000;stroke-width:0.23027289;stroke-miterlimit:4;stroke-dasharray:none;stroke-dashoffset:0;stroke-opacity:1" />
    <path
       style="fill:none;stroke:#000000;stroke-width:0.23027289;stroke-linecap:butt;stroke-linejoin:miter;stroke-miterlimit:4;stroke-dasharray:none;stroke-opacity:1;marker-end:url(#Arrow1Lend-9-8)"
       d="m 35.168168,266.12311 v 13.05485"
       id="path985-6-9"
       inkscape:connector-curvature="0" />
    <path
       style="fill:none;stroke:#000000;stroke-width:0.23027289;stroke-linecap:butt;stroke-linejoin:miter;stroke-miterlimit:4;stroke-dasharray:none;stroke-opacity:1;marker-end:url(#Arrow1Lend-9-8-3)"
       d="m 97.599316,266.21205 v 13.05484"
       id="path985-6-9-5"
       inkscape:connector-curvature="0" />
    <path
       style="fill:none;stroke:#000000;stroke-width:0.23027289;stroke-linecap:butt;stroke-linejoin:miter;stroke-miterlimit:4;stroke-dasharray:none;stroke-opacity:1"
       d="m 84.544476,266.21205 h 13.05484"
       id="path2180"
       inkscape:connector-curvature="0" />
    <path
       style="fill:none;stroke:#000000;stroke-width:0.23027289;stroke-linecap:butt;stroke-linejoin:miter;stroke-miterlimit:4;stroke-dasharray:none;stroke-opacity:1;marker-end:url(#Arrow1Lend-9-8-9)"
       d="m 35.168168,290.46078 v 13.05484"
       id="path985-6-9-2"
       inkscape:connector-curvature="0" />
    <path
       style="fill:none;stroke:#000000;stroke-width:0.23027289;stroke-linecap:butt;stroke-linejoin:miter;stroke-miterlimit:4;stroke-dasharray:none;stroke-opacity:1;marker-end:url(#Arrow1Lend-9-8-8)"
       d="m 97.599316,290.59307 v 13.05484"
       id="path985-6-9-7"
       inkscape:connector-curvature="0" />
    <g
       ns0:text="\\(V_{in}\\)"
       transform="matrix(220.90149,0,0,220.90149,-62.048365,281.03856)"
       id="g3349">
      <g
         style="font-style:normal;font-variant:normal;font-weight:normal;font-stretch:normal;letter-spacing:normal;word-spacing:normal;text-anchor:start;fill:none;fill-opacity:1;fill-rule:evenodd;stroke:#000000;stroke-linecap:butt;stroke-linejoin:miter;stroke-miterlimit:10.43299961;stroke-dasharray:none;stroke-dashoffset:0;stroke-opacity:1"
         id="g3347"
         transform="matrix(0.0017361,0,0,-0.0017361,-0.03125,1.1875)"
         xml:space="preserve"
         stroke-miterlimit="10.433"
         font-style="normal"
         font-variant="normal"
         font-weight="normal"
         font-stretch="normal"
         font-size-adjust="none"
         letter-spacing="normal"
         word-spacing="normal"><path
           style="fill:#000000;stroke-width:0"
           inkscape:connector-curvature="0"
           d="m 184.84,736.57 0.04,0.07 0.05,0.06 0.04,0.07 0.05,0.05 0.04,0.06 0.05,0.05 0.04,0.05 0.04,0.04 0.04,0.04 0.05,0.04 0.04,0.03 0.04,0.03 0.04,0.03 0.04,0.03 0.04,0.02 0.04,0.02 0.04,0.02 0.04,0.02 0.04,0.01 0.04,0.02 0.04,0.01 0.03,0.01 0.04,0.01 h 0.04 l 0.03,0.01 0.04,0.01 h 0.07 l 0.07,0.01 h 0.07 c 0.12,0.01 0.13,0.18 0.13,0.19 0,0.08 -0.05,0.12 -0.13,0.12 -0.26,0 -0.54,-0.03 -0.81,-0.03 -0.33,0 -0.67,0.03 -0.99,0.03 -0.06,0 -0.19,0 -0.19,-0.19 0,-0.11 0.09,-0.12 0.16,-0.12 0.27,-0.02 0.46,-0.12 0.46,-0.33 0,-0.15 -0.15,-0.36 -0.15,-0.37 l -3.06,-4.87 -0.68,5.27 c 0,0.17 0.23,0.3 0.69,0.3 0.14,0 0.25,0 0.25,0.2 0,0.09 -0.08,0.11 -0.14,0.11 -0.4,0 -0.83,-0.03 -1.23,-0.03 -0.18,0 -0.37,0.01 -0.55,0.01 -0.18,0 -0.37,0.02 -0.54,0.02 -0.07,0 -0.19,0 -0.19,-0.19 0,-0.12 0.09,-0.12 0.25,-0.12 0.56,0 0.57,-0.09 0.6,-0.34 l 0.78,-6.14 c 0.03,-0.2 0.07,-0.23 0.2,-0.23 0.16,0 0.2,0.05 0.28,0.18 z"
           id="path3339" /><path
           style="fill:#000000;stroke-width:0"
           inkscape:connector-curvature="0"
           d="m 186.65,733.76 v 0.01 0.02 0.01 0.01 0.01 0.01 l -0.01,0.01 v 0.01 l -0.01,0.01 v 0.01 l -0.01,0.02 v 0.01 l -0.01,0.01 -0.01,0.01 v 0.01 l -0.01,0.01 -0.01,0.01 -0.01,0.01 -0.01,0.01 h -0.01 l -0.01,0.01 -0.01,0.01 -0.02,0.01 h -0.01 l -0.01,0.01 h -0.02 l -0.01,0.01 h -0.02 l -0.01,0.01 h -0.02 -0.02 -0.01 c -0.19,0 -0.39,-0.18 -0.39,-0.38 0,-0.12 0.09,-0.27 0.27,-0.27 0.21,0 0.39,0.2 0.39,0.38 z"
           id="path3341" /><path
           style="fill:#000000;stroke-width:0"
           inkscape:connector-curvature="0"
           d="m 185.23,730.22 v -0.02 l -0.01,-0.01 -0.01,-0.04 -0.01,-0.01 v -0.02 l -0.01,-0.02 v -0.02 -0.01 l -0.01,-0.02 v -0.02 l -0.01,-0.02 v -0.01 -0.01 -0.01 -0.01 -0.01 -0.01 -0.01 -0.01 c 0,-0.33 0.28,-0.59 0.66,-0.59 0.7,0 1.01,0.96 1.01,1.06 0,0.09 -0.1,0.09 -0.12,0.09 -0.09,0 -0.1,-0.04 -0.13,-0.12 -0.16,-0.55 -0.47,-0.84 -0.74,-0.84 -0.14,0 -0.17,0.09 -0.17,0.25 0,0.15 0.05,0.29 0.11,0.44 0.07,0.19 0.15,0.38 0.22,0.56 0.07,0.17 0.32,0.8 0.34,0.88 0.03,0.07 0.05,0.16 0.05,0.23 0,0.33 -0.28,0.59 -0.67,0.59 -0.69,0 -1.01,-0.95 -1.01,-1.07 0,-0.09 0.1,-0.09 0.12,-0.09 0.1,0 0.11,0.04 0.13,0.11 0.18,0.6 0.49,0.85 0.74,0.85 0.11,0 0.18,-0.05 0.18,-0.24 0,-0.16 -0.04,-0.26 -0.22,-0.7 z"
           id="path3343" /><path
           style="fill:#000000;stroke-width:0"
           inkscape:connector-curvature="0"
           d="m 188.07,729.84 h -0.01 v -0.01 -0.01 l -0.01,-0.01 v -0.01 -0.01 -0.01 l -0.01,-0.02 v -0.02 l -0.01,-0.02 v -0.02 l -0.01,-0.02 v -0.02 -0.01 l -0.01,-0.01 v -0.01 -0.01 0 L 188,729.61 v -0.01 -0.01 -0.01 0 -0.01 0 -0.01 0 0 0 0 c 0,-0.15 0.12,-0.22 0.23,-0.22 0.13,0 0.24,0.09 0.28,0.15 0.03,0.06 0.09,0.29 0.12,0.43 0.04,0.13 0.11,0.45 0.15,0.63 0.05,0.15 0.09,0.31 0.12,0.47 0.08,0.28 0.09,0.34 0.3,0.62 0.19,0.28 0.52,0.64 1.04,0.64 0.41,0 0.41,-0.35 0.41,-0.48 0,-0.42 -0.3,-1.2 -0.41,-1.49 -0.08,-0.19 -0.1,-0.26 -0.1,-0.38 0,-0.36 0.3,-0.59 0.66,-0.59 0.7,0 1,0.96 1,1.06 0,0.09 -0.09,0.09 -0.11,0.09 -0.09,0 -0.1,-0.04 -0.13,-0.12 -0.16,-0.55 -0.46,-0.84 -0.74,-0.84 -0.15,0 -0.17,0.1 -0.17,0.25 0,0.15 0.03,0.25 0.16,0.56 0.08,0.22 0.37,0.95 0.37,1.34 0,0.68 -0.54,0.8 -0.91,0.8 -0.58,0 -0.97,-0.36 -1.18,-0.63 -0.05,0.48 -0.46,0.63 -0.74,0.63 -0.31,0 -0.47,-0.22 -0.56,-0.38 -0.15,-0.25 -0.25,-0.65 -0.25,-0.69 0,-0.09 0.1,-0.09 0.12,-0.09 0.1,0 0.11,0.02 0.16,0.21 0.1,0.41 0.23,0.75 0.5,0.75 0.19,0 0.23,-0.15 0.23,-0.34 0,-0.13 -0.06,-0.39 -0.11,-0.58 -0.05,-0.18 -0.12,-0.47 -0.15,-0.62 z"
           id="path3345" /></g>    </g>
    <g
       id="g3495"
       transform="matrix(220.90482,0,0,220.90482,-28.814078,280.65535)"
       ns0:text="\\(\\omega_{m}\\)">
      <g
         word-spacing="normal"
         letter-spacing="normal"
         font-size-adjust="none"
         font-stretch="normal"
         font-weight="normal"
         font-variant="normal"
         font-style="normal"
         stroke-miterlimit="10.433"
         xml:space="preserve"
         transform="matrix(0.0017361,0,0,-0.0017361,-0.03125,1.1875)"
         id="g3493"
         style="font-style:normal;font-variant:normal;font-weight:normal;font-stretch:normal;letter-spacing:normal;word-spacing:normal;text-anchor:start;fill:none;fill-opacity:1;fill-rule:evenodd;stroke:#000000;stroke-linecap:butt;stroke-linejoin:miter;stroke-miterlimit:10.43299961;stroke-dasharray:none;stroke-dashoffset:0;stroke-opacity:1"><path
           id="path3489"
           d="m 184.61,734.6 v 0.05 0.04 0.03 l -0.01,0.04 v 0.04 l -0.01,0.03 v 0.04 l -0.01,0.03 -0.01,0.03 -0.01,0.03 -0.01,0.03 -0.01,0.03 -0.01,0.03 -0.01,0.02 -0.01,0.03 -0.02,0.02 -0.01,0.02 -0.02,0.02 -0.01,0.02 -0.02,0.02 -0.01,0.01 -0.02,0.02 -0.02,0.01 -0.01,0.02 -0.02,0.01 -0.02,0.01 h -0.02 l -0.02,0.01 h -0.02 l -0.02,0.01 h -0.02 -0.02 c -0.26,0 -0.53,-0.24 -0.53,-0.47 0,-0.1 0.05,-0.21 0.15,-0.3 0.17,-0.15 0.35,-0.42 0.35,-0.83 0,-0.4 -0.19,-0.97 -0.5,-1.43 -0.3,-0.43 -0.66,-0.76 -1.13,-0.76 -0.57,0 -0.88,0.35 -0.97,0.89 0.11,0.26 0.34,0.9 0.34,1.18 0,0.12 -0.05,0.22 -0.18,0.22 -0.08,0 -0.19,-0.02 -0.27,-0.17 -0.11,-0.2 -0.23,-0.85 -0.23,-1.21 -0.33,-0.47 -0.73,-0.91 -1.35,-0.91 -0.66,0 -0.87,0.58 -0.87,1.14 0,1.25 1.02,2.29 1.02,2.42 0,0.11 -0.08,0.19 -0.19,0.19 -0.13,0 -0.2,-0.13 -0.26,-0.22 -0.51,-0.74 -0.89,-1.92 -0.89,-2.83 0,-0.68 0.23,-1.42 1.05,-1.42 0.71,0 1.17,0.5 1.53,1.04 0.09,-0.57 0.48,-1.04 1.1,-1.04 0.77,0 1.25,0.61 1.61,1.35 0.24,0.49 0.62,1.85 0.62,2.46 z"
           inkscape:connector-curvature="0"
           style="fill:#000000;stroke-width:0" /><path
           id="path3491"
           d="m 187.81,729.97 v -0.01 -0.02 l -0.01,-0.01 v -0.02 l -0.01,-0.01 v -0.02 l -0.01,-0.03 -0.01,-0.03 v -0.03 l -0.01,-0.03 -0.01,-0.02 v -0.02 -0.01 l -0.01,-0.02 v -0.01 -0.01 l -0.01,-0.02 v -0.01 -0.01 l -0.01,-0.01 v -0.01 -0.01 -0.01 -0.01 -0.01 h -0.01 v -0.01 0 c 0,-0.15 0.13,-0.22 0.24,-0.22 0.13,0 0.24,0.09 0.27,0.15 0.04,0.06 0.09,0.29 0.13,0.43 0.03,0.13 0.11,0.45 0.15,0.63 0.04,0.15 0.09,0.31 0.12,0.47 0.08,0.3 0.08,0.31 0.22,0.53 0.22,0.34 0.57,0.73 1.11,0.73 0.39,0 0.41,-0.32 0.41,-0.48 0,-0.42 -0.3,-1.2 -0.41,-1.49 -0.07,-0.19 -0.1,-0.26 -0.1,-0.38 0,-0.36 0.3,-0.59 0.66,-0.59 0.7,0 1,0.96 1,1.06 0,0.09 -0.09,0.09 -0.11,0.09 -0.09,0 -0.1,-0.04 -0.13,-0.12 -0.16,-0.55 -0.46,-0.84 -0.74,-0.84 -0.15,0 -0.17,0.1 -0.17,0.25 0,0.15 0.03,0.25 0.16,0.56 0.08,0.22 0.37,0.95 0.37,1.34 0,0.12 0,0.41 -0.26,0.61 -0.12,0.09 -0.32,0.19 -0.65,0.19 -0.63,0 -1.01,-0.41 -1.23,-0.7 -0.06,0.59 -0.55,0.7 -0.91,0.7 -0.58,0 -0.97,-0.36 -1.18,-0.63 -0.05,0.48 -0.46,0.63 -0.75,0.63 -0.29,0 -0.46,-0.22 -0.55,-0.38 -0.15,-0.25 -0.25,-0.65 -0.25,-0.69 0,-0.09 0.1,-0.09 0.12,-0.09 0.1,0 0.11,0.02 0.15,0.21 0.11,0.41 0.24,0.75 0.51,0.75 0.18,0 0.23,-0.15 0.23,-0.34 0,-0.13 -0.06,-0.39 -0.11,-0.58 -0.05,-0.18 -0.12,-0.47 -0.15,-0.62 l -0.22,-0.9 c -0.03,-0.09 -0.07,-0.26 -0.07,-0.28 0,-0.15 0.12,-0.22 0.23,-0.22 0.13,0 0.24,0.09 0.27,0.15 0.04,0.06 0.1,0.29 0.13,0.43 0.04,0.13 0.11,0.45 0.15,0.63 0.05,0.15 0.09,0.31 0.12,0.47 0.08,0.28 0.09,0.34 0.3,0.62 0.19,0.28 0.52,0.64 1.04,0.64 0.41,0 0.41,-0.35 0.41,-0.48 0,-0.18 -0.02,-0.27 -0.12,-0.66 z"
           inkscape:connector-curvature="0"
           style="fill:#000000;stroke-width:0" /></g>    </g>
    <g
       ns0:text="\\(\\omega_{s}\\)"
       transform="matrix(220.87524,0,0,220.87524,3.1213705,280.65302)"
       id="g3643">
      <g
         id="g3641"
         transform="matrix(0.0017361,0,0,-0.0017361,-0.03125,1.1875)"
         xml:space="preserve"
         stroke-miterlimit="10.433"
         font-style="normal"
         font-variant="normal"
         font-weight="normal"
         font-stretch="normal"
         font-size-adjust="none"
         letter-spacing="normal"
         word-spacing="normal"
         style="font-style:normal;font-variant:normal;font-weight:normal;font-stretch:normal;letter-spacing:normal;word-spacing:normal;text-anchor:start;fill:none;fill-opacity:1;fill-rule:evenodd;stroke:#000000;stroke-linecap:butt;stroke-linejoin:miter;stroke-miterlimit:10.43299961;stroke-dasharray:none;stroke-dashoffset:0;stroke-opacity:1"><path
           d="m 184.61,734.6 v 0.05 0.04 0.03 l -0.01,0.04 v 0.04 l -0.01,0.03 v 0.04 l -0.01,0.03 -0.01,0.03 -0.01,0.03 -0.01,0.03 -0.01,0.03 -0.01,0.03 -0.01,0.02 -0.01,0.03 -0.02,0.02 -0.01,0.02 -0.02,0.02 -0.01,0.02 -0.02,0.02 -0.01,0.01 -0.02,0.02 -0.02,0.01 -0.01,0.02 -0.02,0.01 -0.02,0.01 h -0.02 l -0.02,0.01 h -0.02 l -0.02,0.01 h -0.02 -0.02 c -0.26,0 -0.53,-0.24 -0.53,-0.47 0,-0.1 0.05,-0.21 0.15,-0.3 0.17,-0.15 0.35,-0.42 0.35,-0.83 0,-0.4 -0.19,-0.97 -0.5,-1.43 -0.3,-0.43 -0.66,-0.76 -1.13,-0.76 -0.57,0 -0.88,0.35 -0.97,0.89 0.11,0.26 0.34,0.9 0.34,1.18 0,0.12 -0.05,0.22 -0.18,0.22 -0.08,0 -0.19,-0.02 -0.27,-0.17 -0.11,-0.2 -0.23,-0.85 -0.23,-1.21 -0.33,-0.47 -0.73,-0.91 -1.35,-0.91 -0.66,0 -0.87,0.58 -0.87,1.14 0,1.25 1.02,2.29 1.02,2.42 0,0.11 -0.08,0.19 -0.19,0.19 -0.13,0 -0.2,-0.13 -0.26,-0.22 -0.51,-0.74 -0.89,-1.92 -0.89,-2.83 0,-0.68 0.23,-1.42 1.05,-1.42 0.71,0 1.17,0.5 1.53,1.04 0.09,-0.57 0.48,-1.04 1.1,-1.04 0.77,0 1.25,0.61 1.61,1.35 0.24,0.49 0.62,1.85 0.62,2.46 z"
           id="path3637"
           inkscape:connector-curvature="0"
           style="fill:#000000;stroke-width:0" /><path
           d="m 187.79,732.03 -0.02,-0.01 h -0.01 l -0.02,-0.01 h -0.01 l -0.02,-0.01 -0.01,-0.01 h -0.02 l -0.01,-0.01 -0.01,-0.01 -0.02,-0.01 -0.01,-0.01 -0.01,-0.01 -0.01,-0.01 -0.01,-0.01 -0.01,-0.01 -0.01,-0.01 -0.01,-0.01 -0.01,-0.01 -0.01,-0.01 -0.01,-0.02 v -0.01 l -0.01,-0.01 -0.01,-0.01 v -0.02 l -0.01,-0.01 v -0.01 -0.02 l -0.01,-0.01 v -0.01 -0.01 -0.02 -0.01 c 0,-0.16 0.14,-0.22 0.23,-0.22 0.07,0 0.33,0.04 0.33,0.39 0,0.46 -0.5,0.61 -0.93,0.61 -1.08,0 -1.28,-0.8 -1.28,-1.02 0,-0.26 0.15,-0.42 0.25,-0.51 0.18,-0.14 0.3,-0.16 0.78,-0.25 0.15,-0.03 0.6,-0.11 0.6,-0.46 0,-0.12 -0.08,-0.38 -0.37,-0.56 -0.27,-0.15 -0.62,-0.15 -0.7,-0.15 -0.28,0 -0.68,0.06 -0.84,0.29 0.23,0.03 0.39,0.21 0.39,0.4 0,0.18 -0.13,0.26 -0.28,0.26 -0.2,0 -0.4,-0.16 -0.4,-0.47 0,-0.42 0.45,-0.67 1.12,-0.67 1.29,0 1.52,0.87 1.52,1.15 0,0.64 -0.7,0.76 -0.96,0.81 -0.06,0.02 -0.24,0.04 -0.28,0.06 -0.26,0.05 -0.38,0.19 -0.38,0.35 0,0.16 0.12,0.34 0.28,0.44 0.19,0.12 0.43,0.13 0.55,0.13 0.14,0 0.51,-0.02 0.66,-0.25 z"
           id="path3639"
           inkscape:connector-curvature="0"
           style="fill:#000000;stroke-width:0" /></g>    </g>
    <g
       id="g3787"
       transform="matrix(220.83703,0,0,220.83703,29.067922,281.06864)"
       ns0:text="\\(\\theta_{s}\\)">
      <g
         word-spacing="normal"
         letter-spacing="normal"
         font-size-adjust="none"
         font-stretch="normal"
         font-weight="normal"
         font-variant="normal"
         font-style="normal"
         stroke-miterlimit="10.433"
         xml:space="preserve"
         transform="matrix(0.0017361,0,0,-0.0017361,-0.03125,1.1875)"
         id="g3785"
         style="font-style:normal;font-variant:normal;font-weight:normal;font-stretch:normal;letter-spacing:normal;word-spacing:normal;text-anchor:start;fill:none;fill-opacity:1;fill-rule:evenodd;stroke:#000000;stroke-linecap:butt;stroke-linejoin:miter;stroke-miterlimit:10.43299961;stroke-dasharray:none;stroke-dashoffset:0;stroke-opacity:1"><path
           id="path3781"
           d="m 183.12,735.88 -0.01,0.06 v 0.07 0.07 0.08 l -0.01,0.07 -0.01,0.08 -0.01,0.08 -0.01,0.09 -0.01,0.08 -0.02,0.08 -0.02,0.09 -0.02,0.08 -0.02,0.09 -0.02,0.08 -0.03,0.09 -0.03,0.08 -0.04,0.08 -0.03,0.07 -0.04,0.08 -0.05,0.07 -0.04,0.07 -0.05,0.06 -0.06,0.06 -0.05,0.05 -0.07,0.05 -0.03,0.03 -0.03,0.02 -0.04,0.02 -0.03,0.02 -0.04,0.01 -0.04,0.02 -0.04,0.01 -0.04,0.02 -0.04,0.01 -0.04,0.01 h -0.04 l -0.05,0.01 h -0.04 -0.05 l -0.01,-0.22 c 0.49,0 0.55,-0.64 0.55,-1.2 0,-0.49 -0.08,-1 -0.32,-1.99 h -2.08 c 0.17,0.64 0.37,1.44 0.76,2.15 0.27,0.48 0.64,1.04 1.09,1.04 l 0.01,0.22 c -1.38,0 -2.92,-2.81 -2.92,-5.09 0,-0.94 0.29,-2.04 1.2,-2.04 v 0.22 c -0.33,0 -0.54,0.29 -0.54,1.21 0,0.42 0.06,1 0.32,1.98 h 2.07 c -0.11,-0.46 -0.32,-1.31 -0.7,-2.03 -0.35,-0.68 -0.73,-1.16 -1.15,-1.16 v -0.22 c 1.4,0 2.92,2.86 2.92,5.09 z"
           inkscape:connector-curvature="0"
           style="fill:#000000;stroke-width:0" /><path
           id="path3783"
           d="m 186.27,732.03 -0.02,-0.01 h -0.02 l -0.01,-0.01 h -0.02 l -0.01,-0.01 -0.02,-0.01 h -0.01 l -0.01,-0.01 -0.02,-0.01 -0.01,-0.01 -0.01,-0.01 -0.01,-0.01 -0.02,-0.01 -0.01,-0.01 -0.01,-0.01 -0.01,-0.01 -0.01,-0.01 v -0.01 l -0.01,-0.01 -0.01,-0.02 -0.01,-0.01 v -0.01 L 186,731.82 v -0.02 l -0.01,-0.01 v -0.01 l -0.01,-0.02 v -0.01 -0.01 -0.01 -0.02 -0.01 c 0,-0.16 0.14,-0.22 0.23,-0.22 0.06,0 0.33,0.04 0.33,0.39 0,0.46 -0.5,0.61 -0.93,0.61 -1.09,0 -1.28,-0.8 -1.28,-1.02 0,-0.26 0.15,-0.42 0.24,-0.51 0.19,-0.14 0.31,-0.16 0.79,-0.25 0.15,-0.03 0.59,-0.11 0.59,-0.46 0,-0.12 -0.07,-0.38 -0.36,-0.56 -0.28,-0.15 -0.62,-0.15 -0.7,-0.15 -0.28,0 -0.68,0.06 -0.84,0.29 0.23,0.03 0.38,0.21 0.38,0.4 0,0.18 -0.12,0.26 -0.27,0.26 -0.2,0 -0.4,-0.16 -0.4,-0.47 0,-0.42 0.44,-0.67 1.12,-0.67 1.28,0 1.52,0.87 1.52,1.15 0,0.64 -0.7,0.76 -0.96,0.81 -0.06,0.02 -0.24,0.04 -0.28,0.06 -0.26,0.05 -0.38,0.19 -0.38,0.35 0,0.16 0.12,0.34 0.27,0.44 0.19,0.12 0.44,0.13 0.56,0.13 0.14,0 0.51,-0.02 0.66,-0.25 z"
           inkscape:connector-curvature="0"
           style="fill:#000000;stroke-width:0" /></g>    </g>
    <g
       ns0:text="\\(V_{taco}\\)"
       transform="matrix(220.87201,0,0,220.87201,-36.925489,318.39661)"
       id="g3963">
      <g
         style="font-style:normal;font-variant:normal;font-weight:normal;font-stretch:normal;letter-spacing:normal;word-spacing:normal;text-anchor:start;fill:none;fill-opacity:1;fill-rule:evenodd;stroke:#000000;stroke-linecap:butt;stroke-linejoin:miter;stroke-miterlimit:10.43299961;stroke-dasharray:none;stroke-dashoffset:0;stroke-opacity:1"
         id="g3961"
         transform="matrix(0.0017361,0,0,-0.0017361,-0.03125,1.1875)"
         xml:space="preserve"
         stroke-miterlimit="10.433"
         font-style="normal"
         font-variant="normal"
         font-weight="normal"
         font-stretch="normal"
         font-size-adjust="none"
         letter-spacing="normal"
         word-spacing="normal"><path
           style="fill:#000000;stroke-width:0"
           inkscape:connector-curvature="0"
           d="m 184.84,736.57 0.04,0.07 0.05,0.06 0.04,0.07 0.05,0.05 0.04,0.06 0.05,0.05 0.04,0.05 0.04,0.04 0.04,0.04 0.05,0.04 0.04,0.03 0.04,0.03 0.04,0.03 0.04,0.03 0.04,0.02 0.04,0.02 0.04,0.02 0.04,0.02 0.04,0.01 0.04,0.02 0.04,0.01 0.03,0.01 0.04,0.01 h 0.04 l 0.03,0.01 0.04,0.01 h 0.07 l 0.07,0.01 h 0.07 c 0.12,0.01 0.13,0.18 0.13,0.19 0,0.08 -0.05,0.12 -0.13,0.12 -0.26,0 -0.54,-0.03 -0.81,-0.03 -0.33,0 -0.67,0.03 -0.99,0.03 -0.06,0 -0.19,0 -0.19,-0.19 0,-0.11 0.09,-0.12 0.16,-0.12 0.27,-0.02 0.46,-0.12 0.46,-0.33 0,-0.15 -0.15,-0.36 -0.15,-0.37 l -3.06,-4.87 -0.68,5.27 c 0,0.17 0.23,0.3 0.69,0.3 0.14,0 0.25,0 0.25,0.2 0,0.09 -0.08,0.11 -0.14,0.11 -0.4,0 -0.83,-0.03 -1.23,-0.03 -0.18,0 -0.37,0.01 -0.55,0.01 -0.18,0 -0.37,0.02 -0.54,0.02 -0.07,0 -0.19,0 -0.19,-0.19 0,-0.12 0.09,-0.12 0.25,-0.12 0.56,0 0.57,-0.09 0.6,-0.34 l 0.78,-6.14 c 0.03,-0.2 0.07,-0.23 0.2,-0.23 0.16,0 0.2,0.05 0.28,0.18 z"
           id="path3951" /><path
           style="fill:#000000;stroke-width:0"
           inkscape:connector-curvature="0"
           d="m 186.11,732.16 h 0.71 c 0.13,0 0.22,0 0.22,0.15 0,0.1 -0.09,0.1 -0.2,0.1 h -0.67 l 0.26,1.03 c 0.01,0.04 0.02,0.07 0.02,0.1 0,0.13 -0.1,0.22 -0.24,0.22 -0.17,0 -0.27,-0.11 -0.32,-0.3 -0.05,-0.17 0.04,0.16 -0.27,-1.05 h -0.71 c -0.13,0 -0.22,0 -0.22,-0.15 0,-0.1 0.08,-0.1 0.21,-0.1 h 0.66 l -0.41,-1.65 c -0.04,-0.17 -0.11,-0.42 -0.11,-0.51 0,-0.41 0.35,-0.66 0.75,-0.66 0.77,0 1.21,0.97 1.21,1.06 0,0.09 -0.09,0.09 -0.11,0.09 -0.08,0 -0.09,-0.01 -0.15,-0.13 -0.19,-0.44 -0.55,-0.83 -0.93,-0.83 -0.15,0 -0.24,0.09 -0.24,0.34 0,0.07 0.03,0.22 0.04,0.29 z"
           id="path3953" /><path
           style="fill:#000000;stroke-width:0"
           inkscape:connector-curvature="0"
           d="m 190.35,732.07 -0.02,0.02 -0.01,0.02 -0.02,0.02 -0.01,0.02 -0.02,0.02 -0.02,0.02 -0.01,0.02 -0.02,0.02 -0.02,0.02 -0.02,0.02 -0.02,0.01 -0.02,0.02 -0.02,0.02 -0.02,0.01 -0.02,0.02 -0.02,0.01 -0.03,0.01 -0.02,0.02 -0.02,0.01 -0.03,0.01 -0.02,0.01 -0.03,0.01 -0.02,0.01 -0.03,0.01 -0.03,0.01 h -0.02 l -0.03,0.01 h -0.03 l -0.03,0.01 h -0.03 -0.03 -0.03 v -0.2 c 0.49,0 0.62,-0.52 0.62,-0.6 0,-0.03 -0.02,-0.08 -0.02,-0.1 l -0.33,-1.3 c -0.05,-0.2 -0.2,-0.34 -0.36,-0.47 -0.06,-0.06 -0.34,-0.28 -0.64,-0.28 -0.26,0 -0.51,0.18 -0.51,0.68 0,0.37 0.21,1.13 0.37,1.41 0.32,0.56 0.67,0.66 0.87,0.66 v 0.2 c -0.9,0 -1.8,-0.98 -1.8,-1.99 0,-0.67 0.45,-1.15 1.05,-1.15 0.38,0 0.71,0.21 0.99,0.48 0.13,-0.41 0.54,-0.48 0.72,-0.48 0.25,0 0.42,0.15 0.55,0.37 0.15,0.27 0.24,0.66 0.24,0.69 0,0.09 -0.09,0.09 -0.11,0.09 -0.09,0 -0.1,-0.02 -0.15,-0.21 -0.08,-0.34 -0.22,-0.75 -0.51,-0.75 -0.18,0 -0.23,0.15 -0.23,0.34 0,0.12 0.06,0.37 0.11,0.55 0.04,0.19 0.11,0.48 0.15,0.63 l 0.14,0.53 c 0.04,0.18 0.12,0.51 0.12,0.54 0,0.16 -0.12,0.23 -0.23,0.23 -0.12,0 -0.28,-0.09 -0.32,-0.28 z"
           id="path3955" /><path
           style="fill:#000000;stroke-width:0"
           inkscape:connector-curvature="0"
           d="m 194.79,732.08 -0.03,-0.01 h -0.02 l -0.02,-0.01 -0.02,-0.01 h -0.02 l -0.02,-0.01 -0.02,-0.01 -0.02,-0.01 -0.01,-0.01 -0.02,-0.01 -0.01,-0.01 -0.02,-0.02 -0.01,-0.01 -0.01,-0.01 -0.02,-0.01 -0.01,-0.02 -0.01,-0.01 -0.01,-0.02 -0.01,-0.01 v -0.01 l -0.01,-0.02 -0.01,-0.01 -0.01,-0.02 v -0.01 l -0.01,-0.02 v -0.02 -0.01 l -0.01,-0.02 v -0.01 -0.02 -0.01 -0.02 c 0,-0.18 0.14,-0.25 0.27,-0.25 0.15,0 0.4,0.11 0.4,0.44 0,0.48 -0.55,0.61 -0.92,0.61 -1.05,0 -2.02,-0.96 -2.02,-1.93 0,-0.6 0.42,-1.21 1.29,-1.21 1.18,0 1.73,0.69 1.73,0.78 0,0.04 -0.06,0.12 -0.12,0.12 -0.04,0 -0.05,-0.01 -0.11,-0.07 -0.54,-0.64 -1.36,-0.64 -1.48,-0.64 -0.51,0 -0.73,0.34 -0.73,0.77 0,0.21 0.1,0.97 0.46,1.45 0.27,0.34 0.63,0.53 0.98,0.53 0.09,0 0.43,-0.01 0.61,-0.2 z"
           id="path3957" /><path
           style="fill:#000000;stroke-width:0"
           inkscape:connector-curvature="0"
           d="m 198.99,731.26 v 0.07 l -0.01,0.07 -0.01,0.07 -0.01,0.06 -0.01,0.07 -0.02,0.06 -0.02,0.06 -0.02,0.06 -0.03,0.05 -0.03,0.06 -0.03,0.05 -0.03,0.05 -0.04,0.04 -0.03,0.05 -0.04,0.04 -0.05,0.04 -0.04,0.04 -0.05,0.03 -0.04,0.04 -0.05,0.03 -0.06,0.03 -0.05,0.02 -0.05,0.03 -0.06,0.02 -0.06,0.02 -0.05,0.01 -0.06,0.02 -0.06,0.01 -0.07,0.01 h -0.06 l -0.06,0.01 h -0.06 l -0.01,-0.2 c 0.38,0 0.7,-0.25 0.7,-0.77 0,-0.17 -0.09,-0.86 -0.39,-1.35 -0.27,-0.41 -0.69,-0.63 -1.04,-0.63 v 0 c -0.34,0 -0.69,0.22 -0.69,0.77 0,0.29 0.13,0.97 0.4,1.37 0.3,0.43 0.7,0.61 1.02,0.61 l 0.01,0.2 c -1.04,0 -2.01,-0.97 -2.01,-1.92 0,-0.7 0.51,-1.22 1.27,-1.22 0.99,0 2,0.92 2,1.92 z"
           id="path3959" /></g>    </g>
    <g
       id="g4154"
       transform="matrix(220.88205,0,0,220.88205,27.057229,318.10883)"
       ns0:text="\\(V_{pot}\\)">
      <g
         word-spacing="normal"
         letter-spacing="normal"
         font-size-adjust="none"
         font-stretch="normal"
         font-weight="normal"
         font-variant="normal"
         font-style="normal"
         stroke-miterlimit="10.433"
         xml:space="preserve"
         transform="matrix(0.0017361,0,0,-0.0017361,-0.03125,1.1875)"
         id="g4152"
         style="font-style:normal;font-variant:normal;font-weight:normal;font-stretch:normal;letter-spacing:normal;word-spacing:normal;text-anchor:start;fill:none;fill-opacity:1;fill-rule:evenodd;stroke:#000000;stroke-linecap:butt;stroke-linejoin:miter;stroke-miterlimit:10.43299961;stroke-dasharray:none;stroke-dashoffset:0;stroke-opacity:1"><path
           id="path4144"
           d="m 184.84,736.57 0.04,0.07 0.05,0.06 0.04,0.07 0.05,0.05 0.04,0.06 0.05,0.05 0.04,0.05 0.04,0.04 0.04,0.04 0.05,0.04 0.04,0.03 0.04,0.03 0.04,0.03 0.04,0.03 0.04,0.02 0.04,0.02 0.04,0.02 0.04,0.02 0.04,0.01 0.04,0.02 0.04,0.01 0.03,0.01 0.04,0.01 h 0.04 l 0.03,0.01 0.04,0.01 h 0.07 l 0.07,0.01 h 0.07 c 0.12,0.01 0.13,0.18 0.13,0.19 0,0.08 -0.05,0.12 -0.13,0.12 -0.26,0 -0.54,-0.03 -0.81,-0.03 -0.33,0 -0.67,0.03 -0.99,0.03 -0.06,0 -0.19,0 -0.19,-0.19 0,-0.11 0.09,-0.12 0.16,-0.12 0.27,-0.02 0.46,-0.12 0.46,-0.33 0,-0.15 -0.15,-0.36 -0.15,-0.37 l -3.06,-4.87 -0.68,5.27 c 0,0.17 0.23,0.3 0.69,0.3 0.14,0 0.25,0 0.25,0.2 0,0.09 -0.08,0.11 -0.14,0.11 -0.4,0 -0.83,-0.03 -1.23,-0.03 -0.18,0 -0.37,0.01 -0.55,0.01 -0.18,0 -0.37,0.02 -0.54,0.02 -0.07,0 -0.19,0 -0.19,-0.19 0,-0.12 0.09,-0.12 0.25,-0.12 0.56,0 0.57,-0.09 0.6,-0.34 l 0.78,-6.14 c 0.03,-0.2 0.07,-0.23 0.2,-0.23 0.16,0 0.2,0.05 0.28,0.18 z"
           inkscape:connector-curvature="0"
           style="fill:#000000;stroke-width:0" /><path
           id="path4146"
           d="m 184.92,728.55 -0.01,-0.01 v -0.02 l -0.01,-0.02 v -0.01 -0.02 l -0.01,-0.01 v -0.01 l -0.01,-0.02 v -0.01 l -0.01,-0.01 v -0.01 l -0.01,-0.01 v -0.01 l -0.01,-0.01 -0.01,-0.01 h -0.01 l -0.01,-0.01 v -0.01 h -0.02 l -0.01,-0.01 h -0.01 l -0.01,-0.01 h -0.01 l -0.02,-0.01 h -0.02 v 0 h -0.01 -0.01 -0.01 -0.01 -0.01 -0.01 l -0.01,-0.01 h -0.01 -0.01 -0.02 -0.01 -0.01 -0.01 c -0.09,0 -0.19,0 -0.19,-0.14 0,-0.08 0.06,-0.11 0.1,-0.11 0.18,0 0.41,0.03 0.6,0.03 0.23,0 0.5,-0.03 0.73,-0.03 0.06,0 0.14,0.02 0.14,0.16 0,0.09 -0.1,0.09 -0.18,0.09 -0.16,0 -0.35,0 -0.35,0.09 0,0.03 0.05,0.21 0.08,0.32 0.09,0.37 0.18,0.74 0.26,1.04 0.08,-0.14 0.3,-0.41 0.72,-0.41 v 0.19 c -0.5,0 -0.62,0.54 -0.62,0.61 0,0.02 0.01,0.07 0.02,0.1 l 0.35,1.4 c 0.4,0.54 0.75,0.64 0.97,0.64 0.27,0 0.51,-0.2 0.51,-0.67 0,-0.29 -0.15,-1 -0.36,-1.4 -0.18,-0.35 -0.52,-0.68 -0.87,-0.68 v -0.19 c 0.85,0 1.79,0.94 1.79,1.98 0,0.81 -0.57,1.16 -1.05,1.16 -0.43,0 -0.8,-0.29 -0.99,-0.49 -0.12,0.4 -0.51,0.49 -0.72,0.49 -0.27,0 -0.43,-0.18 -0.55,-0.37 -0.14,-0.24 -0.25,-0.65 -0.25,-0.7 0,-0.09 0.1,-0.09 0.12,-0.09 0.1,0 0.11,0.02 0.15,0.21 0.11,0.41 0.24,0.75 0.51,0.75 0.18,0 0.23,-0.15 0.23,-0.34 0,-0.07 -0.01,-0.16 -0.02,-0.21 z"
           inkscape:connector-curvature="0"
           style="fill:#000000;stroke-width:0" /><path
           id="path4148"
           d="m 192.21,731.26 v 0.07 l -0.01,0.07 -0.01,0.07 -0.01,0.06 -0.01,0.07 -0.02,0.06 -0.02,0.06 -0.02,0.06 -0.03,0.05 -0.03,0.06 -0.03,0.05 -0.03,0.05 -0.04,0.04 -0.03,0.05 -0.04,0.04 -0.05,0.04 -0.04,0.04 -0.05,0.03 -0.04,0.04 -0.05,0.03 -0.06,0.03 -0.05,0.02 -0.05,0.03 -0.06,0.02 -0.06,0.02 -0.05,0.01 -0.06,0.02 -0.06,0.01 -0.07,0.01 h -0.06 l -0.06,0.01 h -0.06 l -0.01,-0.2 c 0.38,0 0.7,-0.25 0.7,-0.77 0,-0.17 -0.09,-0.86 -0.39,-1.35 -0.27,-0.41 -0.69,-0.63 -1.04,-0.63 v 0 c -0.34,0 -0.69,0.22 -0.69,0.77 0,0.29 0.13,0.97 0.4,1.37 0.3,0.43 0.7,0.61 1.02,0.61 l 0.01,0.2 c -1.04,0 -2.01,-0.97 -2.01,-1.92 0,-0.7 0.51,-1.22 1.27,-1.22 0.99,0 2,0.92 2,1.92 z"
           inkscape:connector-curvature="0"
           style="fill:#000000;stroke-width:0" /><path
           id="path4150"
           d="m 194.15,732.16 h 0.71 c 0.13,0 0.23,0 0.23,0.15 0,0.1 -0.1,0.1 -0.21,0.1 h -0.67 l 0.26,1.03 c 0.01,0.04 0.02,0.07 0.02,0.1 0,0.13 -0.09,0.22 -0.23,0.22 -0.18,0 -0.28,-0.11 -0.33,-0.3 -0.05,-0.17 0.04,0.16 -0.27,-1.05 h -0.71 c -0.13,0 -0.22,0 -0.22,-0.15 0,-0.1 0.08,-0.1 0.21,-0.1 h 0.66 l -0.41,-1.65 c -0.04,-0.17 -0.11,-0.42 -0.11,-0.51 0,-0.41 0.35,-0.66 0.75,-0.66 0.77,0 1.21,0.97 1.21,1.06 0,0.09 -0.09,0.09 -0.11,0.09 -0.08,0 -0.09,-0.01 -0.14,-0.13 -0.2,-0.44 -0.56,-0.83 -0.94,-0.83 -0.15,0 -0.24,0.09 -0.24,0.34 0,0.07 0.02,0.22 0.04,0.29 z"
           inkscape:connector-curvature="0"
           style="fill:#000000;stroke-width:0" /></g>    </g>
  </g>
</svg>
