<?xml version="1.0" encoding="UTF-8" standalone="no"?>
<!-- Created with Inkscape (http://www.inkscape.org/) -->

<svg
   xmlns:dc="http://purl.org/dc/elements/1.1/"
   xmlns:cc="http://creativecommons.org/ns#"
   xmlns:rdf="http://www.w3.org/1999/02/22-rdf-syntax-ns#"
   xmlns:svg="http://www.w3.org/2000/svg"
   xmlns="http://www.w3.org/2000/svg"
   xmlns:sodipodi="http://sodipodi.sourceforge.net/DTD/sodipodi-0.dtd"
   xmlns:inkscape="http://www.inkscape.org/namespaces/inkscape"
   width="143.17966mm"
   height="58.566395mm"
   viewBox="0 0 143.17966 58.566395"
   version="1.1"
   id="svg3999"
   inkscape:version="0.92.3 (unknown)"
   sodipodi:docname="resposta2aOrdemDesempenho.svg">
  <defs
     id="defs3993">
    <clipPath
       id="clipPath1007"
       clipPathUnits="userSpaceOnUse">
      <path
         inkscape:connector-curvature="0"
         id="path1005"
         d="M 60.859,506.326 H 282.421 V 618.278 H 60.859 Z" />
    </clipPath>
    <clipPath
       id="clipPath1007-3"
       clipPathUnits="userSpaceOnUse">
      <path
         inkscape:connector-curvature="0"
         id="path1005-6"
         d="M 60.859,506.326 H 282.421 V 618.278 H 60.859 Z" />
    </clipPath>
  </defs>
  <sodipodi:namedview
     id="base"
     pagecolor="#ffffff"
     bordercolor="#666666"
     borderopacity="1.0"
     inkscape:pageopacity="0.0"
     inkscape:pageshadow="2"
     inkscape:zoom="0.98994949"
     inkscape:cx="373.92983"
     inkscape:cy="59.409604"
     inkscape:document-units="mm"
     inkscape:current-layer="layer1"
     showgrid="false"
     fit-margin-top="0"
     fit-margin-left="0"
     fit-margin-right="0"
     fit-margin-bottom="0"
     inkscape:window-width="1366"
     inkscape:window-height="713"
     inkscape:window-x="0"
     inkscape:window-y="27"
     inkscape:window-maximized="1" />
  <metadata
     id="metadata3996">
    <rdf:RDF>
      <cc:Work
         rdf:about="">
        <dc:format>image/svg+xml</dc:format>
        <dc:type
           rdf:resource="http://purl.org/dc/dcmitype/StillImage" />
        <dc:title></dc:title>
      </cc:Work>
    </rdf:RDF>
  </metadata>
  <g
     inkscape:label="Layer 1"
     inkscape:groupmode="layer"
     id="layer1"
     transform="translate(-50.344103,-99.139419)">
    <g
       transform="matrix(0.35277777,0,0,-0.35277777,54.633503,101.73163)"
       id="g2822">
      <path
         inkscape:connector-curvature="0"
         id="path2824"
         style="fill:#000000;fill-opacity:1;fill-rule:nonzero;stroke:none"
         d="M 0,0 C 0.827,0 1.69,-0.32 1.978,-0.565 1.195,0.26 0.329,3.969 0,7.348 -0.33,3.969 -1.196,0.26 -1.979,-0.565 -1.691,-0.32 -0.828,0 0,0" />
    </g>
    <g
       transform="matrix(0.35277777,0,0,-0.35277777,141.52161,141.43888)"
       id="g2826">
      <path
         inkscape:connector-curvature="0"
         id="path2828"
         style="fill:#000000;fill-opacity:1;fill-rule:nonzero;stroke:none"
         d="M 0,0 C 0,-0.827 -0.32,-1.69 -0.564,-1.978 0.26,-1.195 3.969,-0.329 7.348,0 3.969,0.33 0.26,1.196 -0.564,1.979 -0.32,1.69 0,0.828 0,0" />
    </g>
    <g
       transform="matrix(0.35277777,0,0,-0.35277777,142.09769,141.43888)"
       id="g2830">
      <path
         inkscape:connector-curvature="0"
         id="path2832"
         style="fill:none;stroke:#000000;stroke-width:0.80000001;stroke-linecap:butt;stroke-linejoin:miter;stroke-miterlimit:4;stroke-dasharray:none;stroke-opacity:1"
         d="M 0,0 H -247.931 V 114.189" />
    </g>
    <g
       transform="matrix(0.35277777,0,0,-0.35277777,134.16019,113.21666)"
       id="g2838">
      <path
         inkscape:connector-curvature="0"
         id="path2840"
         style="fill:none;stroke:#000000;stroke-width:0.40000001;stroke-linecap:butt;stroke-linejoin:miter;stroke-miterlimit:4;stroke-dasharray:none;stroke-opacity:1"
         d="M 0,0 H -225.431" />
    </g>
    <g
       transform="matrix(0.35277777,0,0,-0.35277777,54.633149,141.43888)"
       id="g2842">
      <path
         inkscape:connector-curvature="0"
         id="path2844"
         style="fill:none;stroke:#000000;stroke-width:1.60000002;stroke-linecap:butt;stroke-linejoin:miter;stroke-miterlimit:4;stroke-dasharray:none;stroke-opacity:1"
         d="m 0,0 c 13.431,0 24.931,40.556 27.431,49.556 2.5,9 13.5,52 26,52 11,0 25.333,-29 51,-29 23,0 25.662,9.852 56.495,9.852 25.834,0 28.838,-5.852 51.505,-3.519" />
    </g>
    <g
       transform="matrix(0.35277777,0,0,-0.35277777,63.376747,127.60223)"
       id="g2846">
      <path
         inkscape:connector-curvature="0"
         id="path2848"
         style="fill:none;stroke:#000000;stroke-width:0.40000001;stroke-linecap:butt;stroke-linejoin:miter;stroke-miterlimit:4;stroke-dasharray:none;stroke-opacity:1"
         d="M 0,0 2.9464286,13.905428 M -24.785,-85.333 v 46.111 m 37.097,-16.111 v 16.111 m 16.355,-29.444 v 29.444 m 71.354,-46.111 v 46.111"
         sodipodi:nodetypes="cccccccccc" />
    </g>
    <g
       transform="matrix(0.35277777,0,0,-0.35277777,67.720147,141.43888)"
       id="g2850">
      <path
         inkscape:connector-curvature="0"
         id="path2852"
         style="fill:none;stroke:#000000;stroke-width:0.40000001;stroke-linecap:butt;stroke-linejoin:miter;stroke-miterlimit:4;stroke-dasharray:3, 1.5;stroke-dashoffset:0;stroke-opacity:1"
         d="M 0,0 V 80 M 16.355,0 V 101.556 M 87.709,0 V 75.847 H 188.334 M 87.709,84.741 h 100.625" />
    </g>
    <g
       transform="matrix(0.35277777,0,0,-0.35277777,71.130449,105.61218)"
       id="g2854">
      <path
         inkscape:connector-curvature="0"
         id="path2856"
         style="fill:none;stroke:#000000;stroke-width:0.40000001;stroke-linecap:butt;stroke-linejoin:miter;stroke-miterlimit:4;stroke-dasharray:none;stroke-opacity:1"
         d="M 0,0 H -29.958" />
    </g>
    <g
       transform="matrix(0.35277777,0,0,-0.35277777,62.314532,107.78318)"
       id="g2858">
      <path
         inkscape:connector-curvature="0"
         id="path2860"
         style="fill:#000000;fill-opacity:1;fill-rule:nonzero;stroke:none"
         d="M 0,0 C 0.693,0 1.416,-0.268 1.657,-0.473 1.001,0.217 0.276,3.324 0,6.154 -0.276,3.324 -1.001,0.217 -1.657,-0.473 -1.415,-0.268 -0.693,0 0,0" />
    </g>
    <g
       transform="matrix(0.35277777,0,0,-0.35277777,62.313828,107.78318)"
       id="g2862">
      <path
         inkscape:connector-curvature="0"
         id="path2864"
         style="fill:none;stroke:#000000;stroke-width:0.40000001;stroke-linecap:butt;stroke-linejoin:miter;stroke-miterlimit:4;stroke-dasharray:none;stroke-opacity:1"
         d="M 0,0 V -9.248" />
    </g>
    <g
       transform="matrix(0.35277777,0,0,-0.35277777,62.314532,111.04567)"
       id="g2866">
      <path
         inkscape:connector-curvature="0"
         id="path2868"
         style="fill:#000000;fill-opacity:1;fill-rule:nonzero;stroke:none"
         d="M 0,0 C 0.693,0 1.416,0.268 1.657,0.472 1.001,-0.218 0.276,-3.324 0,-6.154 -0.276,-3.324 -1.001,-0.218 -1.657,0.472 -1.415,0.268 -0.693,0 0,0" />
    </g>
    <g
       transform="matrix(0.35277777,0,0,-0.35277777,105.70549,107.36443)"
       id="g2870">
      <path
         inkscape:connector-curvature="0"
         id="path2872"
         style="fill:none;stroke:#000000;stroke-width:0.40000001;stroke-linecap:butt;stroke-linejoin:miter;stroke-miterlimit:4;stroke-dasharray:none;stroke-opacity:1"
         d="M 0,0 V -5.694" />
    </g>
    <g
       transform="matrix(0.35277777,0,0,-0.35277777,105.7062,116.85239)"
       id="g2874">
      <path
         inkscape:connector-curvature="0"
         id="path2876"
         style="fill:#000000;fill-opacity:1;fill-rule:nonzero;stroke:none"
         d="M 0,0 C 0.694,0 1.416,-0.268 1.657,-0.473 1.001,0.217 0.276,3.323 0,6.153 -0.276,3.323 -1.001,0.217 -1.657,-0.473 -1.415,-0.268 -0.693,0 0,0" />
    </g>
    <g
       transform="matrix(0.35277777,0,0,-0.35277777,105.70549,116.85239)"
       id="g2878">
      <path
         inkscape:connector-curvature="0"
         id="path2880"
         style="fill:none;stroke:#000000;stroke-width:0.40000001;stroke-linecap:butt;stroke-linejoin:miter;stroke-miterlimit:4;stroke-dasharray:none;stroke-opacity:1"
         d="M 0,0 V -5.694" />
    </g>
    <g
       transform="matrix(0.35277777,0,0,-0.35277777,105.7062,109.37315)"
       id="g2882">
      <path
         inkscape:connector-curvature="0"
         id="path2884"
         style="fill:#000000;fill-opacity:1;fill-rule:nonzero;stroke:none"
         d="M 0,0 C 0.694,0 1.416,0.268 1.657,0.473 1.001,-0.218 0.276,-3.323 0,-6.154 -0.276,-3.323 -1.001,-0.218 -1.657,0.473 -1.415,0.268 -0.693,0 0,0" />
    </g>
    <g
       transform="matrix(0.35277777,0,0,-0.35277777,56.804145,146.18092)"
       id="g2926">
      <path
         inkscape:connector-curvature="0"
         id="path2928"
         style="fill:#000000;fill-opacity:1;fill-rule:nonzero;stroke:none"
         d="M 0,0 C 0,0.693 0.269,1.415 0.473,1.657 -0.217,1.001 -3.324,0.276 -6.154,0 -3.324,-0.277 -0.217,-1.001 0.473,-1.657 0.269,-1.416 0,-0.694 0,0" />
    </g>
    <g
       transform="matrix(0.35277777,0,0,-0.35277777,62.721287,146.18163)"
       id="g2930">
      <path
         inkscape:connector-curvature="0"
         id="path2932"
         style="fill:none;stroke:#000000;stroke-width:0.40000001;stroke-linecap:butt;stroke-linejoin:miter;stroke-miterlimit:4;stroke-dasharray:none;stroke-opacity:1"
         d="m 0,0 h 8.017 m -24.79,0 h 8.439" />
    </g>
    <g
       transform="matrix(0.35277777,0,0,-0.35277777,65.549505,146.18092)"
       id="g2934">
      <path
         inkscape:connector-curvature="0"
         id="path2936"
         style="fill:#000000;fill-opacity:1;fill-rule:nonzero;stroke:none"
         d="M 0,0 C 0,0.693 -0.269,1.415 -0.473,1.657 0.217,1.001 3.323,0.276 6.153,0 3.323,-0.277 0.217,-1.001 -0.473,-1.657 -0.269,-1.416 0,-0.694 0,0" />
    </g>
    <g
       transform="matrix(0.35277777,0,0,-0.35277777,56.804145,150.40438)"
       id="g2950">
      <path
         inkscape:connector-curvature="0"
         id="path2952"
         style="fill:#000000;fill-opacity:1;fill-rule:nonzero;stroke:none"
         d="M 0,0 C 0,0.693 0.269,1.415 0.473,1.656 -0.217,1.001 -3.324,0.276 -6.154,0 -3.324,-0.277 -0.217,-1.001 0.473,-1.657 0.269,-1.416 0,-0.694 0,0" />
    </g>
    <g
       transform="matrix(0.35277777,0,0,-0.35277777,65.36712,150.40508)"
       id="g2954">
      <path
         inkscape:connector-curvature="0"
         id="path2956"
         style="fill:none;stroke:#000000;stroke-width:0.40000001;stroke-linecap:butt;stroke-linejoin:miter;stroke-miterlimit:4;stroke-dasharray:none;stroke-opacity:1"
         d="M 0,0 H 16.871 M -24.273,0 H -8.334" />
    </g>
    <g
       transform="matrix(0.35277777,0,0,-0.35277777,71.318832,150.40438)"
       id="g2958">
      <path
         inkscape:connector-curvature="0"
         id="path2960"
         style="fill:#000000;fill-opacity:1;fill-rule:nonzero;stroke:none"
         d="M 0,0 C 0,0.693 -0.269,1.415 -0.473,1.656 0.217,1.001 3.324,0.276 6.154,0 3.324,-0.277 0.217,-1.001 -0.473,-1.657 -0.269,-1.416 0,-0.694 0,0" />
    </g>
    <g
       transform="matrix(0.35277777,0,0,-0.35277777,56.804145,155.71015)"
       id="g2962">
      <path
         inkscape:connector-curvature="0"
         id="path2964"
         style="fill:#000000;fill-opacity:1;fill-rule:nonzero;stroke:none"
         d="M 0,0 C 0,0.693 0.269,1.415 0.473,1.657 -0.217,1.001 -3.324,0.276 -6.154,0 -3.324,-0.276 -0.217,-1.001 0.473,-1.657 0.269,-1.415 0,-0.693 0,0" />
    </g>
    <g
       transform="matrix(0.35277777,0,0,-0.35277777,77.185175,155.71086)"
       id="g2966">
      <path
         inkscape:connector-curvature="0"
         id="path2968"
         style="fill:none;stroke:#000000;stroke-width:0.40000001;stroke-linecap:butt;stroke-linejoin:miter;stroke-miterlimit:4;stroke-dasharray:none;stroke-opacity:1"
         d="M 3.0304577,0 H 54.725 M -57.773,0 h 46.833157"
         sodipodi:nodetypes="cccc" />
    </g>
    <g
       transform="matrix(0.35277777,0,0,-0.35277777,96.49094,155.71015)"
       id="g2970">
      <path
         inkscape:connector-curvature="0"
         id="path2972"
         style="fill:#000000;fill-opacity:1;fill-rule:nonzero;stroke:none"
         d="M 0,0 C 0,0.693 -0.268,1.415 -0.473,1.657 0.218,1.001 3.324,0.276 6.154,0 3.324,-0.276 0.218,-1.001 -0.473,-1.657 -0.268,-1.415 0,-0.693 0,0" />
    </g>
    <text
       y="101.75687"
       x="50.414383"
       id="text2980"
       style="font-style:italic;font-variant:normal;font-size:2.82222199px;font-family:TimesNewRomanPS;-inkscape-font-specification:TimesNewRomanPS-Italic;writing-mode:lr-tb;fill:#000000;fill-opacity:1;fill-rule:nonzero;stroke:none;stroke-width:0.35277775">
      <tspan
         style="stroke-width:0.35277775"
         id="tspan2978"
         y="101.75687"
         x="50.414383">y</tspan>
    </text>
    <text
       y="101.37889"
       x="52.257896"
       id="text3000"
       style="font-variant:normal;font-weight:normal;font-size:2.82222199px;font-family:TimesNewRomanPS;-inkscape-font-specification:TimesNewRomanPS;writing-mode:lr-tb;fill:#000000;fill-opacity:1;fill-rule:nonzero;stroke:none;stroke-width:0.35277775">
      <tspan
         style="stroke-width:0.35277775"
         id="tspan2998"
         sodipodi:role="line"
         x="52.257896"
         y="103.87589" />
    </text>
    <text
       y="110.02335"
       x="57.724541"
       id="text3004"
       style="font-style:italic;font-variant:normal;font-size:2.82222199px;font-family:TimesNewRomanPS;-inkscape-font-specification:TimesNewRomanPS-Italic;writing-mode:lr-tb;fill:#000000;fill-opacity:1;fill-rule:nonzero;stroke:none;stroke-width:0.35277775">
      <tspan
         style="stroke-width:0.35277775"
         id="tspan3002"
         y="110.02335"
         x="57.724541">M</tspan>
    </text>
    <text
       y="110.55111"
       x="60.076862"
       id="text3008"
       style="font-style:italic;font-variant:normal;font-size:2.11666656px;font-family:TimesNewRomanPS;-inkscape-font-specification:TimesNewRomanPS-Italic;writing-mode:lr-tb;fill:#000000;fill-opacity:1;fill-rule:nonzero;stroke:none;stroke-width:0.35277775">
      <tspan
         style="stroke-width:0.35277775"
         id="tspan3006"
         y="110.55111"
         x="60.076862">p</tspan>
    </text>
    <text
       y="144.59416"
       x="141.84229"
       id="text3020"
       style="font-style:italic;font-variant:normal;font-size:2.82222199px;font-family:TimesNewRomanPS;-inkscape-font-specification:TimesNewRomanPS-Italic;writing-mode:lr-tb;fill:#000000;fill-opacity:1;fill-rule:nonzero;stroke:none;stroke-width:0.35277775">
      <tspan
         style="stroke-width:0.35277775"
         id="tspan3018"
         y="144.59416"
         x="141.84229">t</tspan>
    </text>
    <text
       y="146.7701"
       x="60.449398"
       id="text3032"
       style="font-style:italic;font-variant:normal;font-size:2.82222199px;font-family:TimesNewRomanPS;-inkscape-font-specification:TimesNewRomanPS-Italic;writing-mode:lr-tb;fill:#000000;fill-opacity:1;fill-rule:nonzero;stroke:none;stroke-width:0.35277775">
      <tspan
         style="stroke-width:0.35277775"
         id="tspan3030"
         y="146.7701"
         x="60.449398">t</tspan>
    </text>
    <text
       y="147.2989"
       x="61.233269"
       id="text3036"
       style="font-style:italic;font-variant:normal;font-size:2.11666656px;font-family:TimesNewRomanPS;-inkscape-font-specification:TimesNewRomanPS-Italic;writing-mode:lr-tb;fill:#000000;fill-opacity:1;fill-rule:nonzero;stroke:none;stroke-width:0.35277775">
      <tspan
         style="stroke-width:0.35277775"
         id="tspan3034"
         y="147.2989"
         x="61.233269">s</tspan>
    </text>
    <text
       y="150.99319"
       x="63.035965"
       id="text3040"
       style="font-style:italic;font-variant:normal;font-size:2.82222199px;font-family:TimesNewRomanPS;-inkscape-font-specification:TimesNewRomanPS-Italic;writing-mode:lr-tb;fill:#000000;fill-opacity:1;fill-rule:nonzero;stroke:none;stroke-width:0.35277775">
      <tspan
         style="stroke-width:0.35277775"
         id="tspan3038"
         y="150.99319"
         x="63.035965">t</tspan>
    </text>
    <text
       y="151.52237"
       x="63.820541"
       id="text3044"
       style="font-style:italic;font-variant:normal;font-size:2.11666656px;font-family:TimesNewRomanPS;-inkscape-font-specification:TimesNewRomanPS-Italic;writing-mode:lr-tb;fill:#000000;fill-opacity:1;fill-rule:nonzero;stroke:none;stroke-width:0.35277775">
      <tspan
         style="stroke-width:0.35277775"
         id="tspan3042"
         y="151.52237"
         x="63.820541">p</tspan>
    </text>
    <text
       y="156.29898"
       x="74.383415"
       id="text3048"
       style="font-style:italic;font-variant:normal;font-size:2.82222199px;font-family:TimesNewRomanPS;-inkscape-font-specification:TimesNewRomanPS-Italic;writing-mode:lr-tb;fill:#000000;fill-opacity:1;fill-rule:nonzero;stroke:none;stroke-width:0.35277775">
      <tspan
         style="stroke-width:0.35277775"
         id="tspan3046"
         y="156.29898"
         x="74.383415">t</tspan>
    </text>
    <text
       y="156.82814"
       x="75.167992"
       id="text3052"
       style="font-style:italic;font-variant:normal;font-size:2.11666656px;font-family:TimesNewRomanPS;-inkscape-font-specification:TimesNewRomanPS-Italic;writing-mode:lr-tb;fill:#000000;fill-opacity:1;fill-rule:nonzero;stroke:none;stroke-width:0.35277775">
      <tspan
         style="stroke-width:0.35277775"
         id="tspan3050"
         y="156.82814"
         x="75.167992">ac</tspan>
    </text>
    <text
       y="150.55273"
       x="152.84344"
       id="text979"
       style="font-style:italic;font-variant:normal;font-weight:600;font-size:4.43811703px;font-family:MyriadPro;-inkscape-font-specification:MyriadPro-SemiboldIt;writing-mode:lr-tb;fill:#1c1c1b;fill-opacity:1;fill-rule:nonzero;stroke:none;stroke-width:0.48915645">
      <tspan
         style="stroke-width:0.48915645"
         id="tspan977"
         y="150.55273"
         x="152.84344">s</tspan>
    </text>
    <text
       y="151.48697"
       x="154.60541"
       id="text983"
       style="font-variant:normal;font-weight:600;font-size:3.50377917px;font-family:MyriadPro;-inkscape-font-specification:MyriadPro-Semibold;writing-mode:lr-tb;fill:#1c1c1b;fill-opacity:1;fill-rule:nonzero;stroke:none;stroke-width:0.48915645">
      <tspan
         style="stroke-width:0.48915645"
         id="tspan981"
         y="151.48697"
         x="154.60541">2</tspan>
    </text>
    <text
       y="104.30261"
       x="152.84344"
       id="text987"
       style="font-style:italic;font-variant:normal;font-weight:600;font-size:4.43811703px;font-family:MyriadPro;-inkscape-font-specification:MyriadPro-SemiboldIt;writing-mode:lr-tb;fill:#1c1c1b;fill-opacity:1;fill-rule:nonzero;stroke:none;stroke-width:0.48915645">
      <tspan
         style="stroke-width:0.48915645"
         id="tspan985"
         y="104.30261"
         x="152.84344">s</tspan>
    </text>
    <text
       y="105.23684"
       x="154.60541"
       id="text991"
       style="font-variant:normal;font-weight:600;font-size:3.50377917px;font-family:MyriadPro;-inkscape-font-specification:MyriadPro-Semibold;writing-mode:lr-tb;fill:#1c1c1b;fill-opacity:1;fill-rule:nonzero;stroke:none;stroke-width:0.48915645">
      <tspan
         style="stroke-width:0.48915645"
         id="tspan989"
         y="105.23684"
         x="154.60541">1</tspan>
    </text>
    <g
       transform="matrix(0.4891565,0,0,-0.4891565,178.63743,101.00631)"
       id="g993">
      <path
         inkscape:connector-curvature="0"
         id="path995"
         style="fill:none;stroke:#1c1c1b;stroke-width:0.477;stroke-linecap:butt;stroke-linejoin:miter;stroke-miterlimit:4;stroke-dasharray:none;stroke-opacity:1"
         d="M 0,0 V -109.14" />
    </g>
    <g
       transform="matrix(0.4891565,0,0,-0.4891565,179.42938,101.9088)"
       id="g997">
      <path
         inkscape:connector-curvature="0"
         id="path999"
         style="fill:#1c1c1b;fill-opacity:1;fill-rule:nonzero;stroke:none"
         d="M 0,0 -1.619,1.621 -3.239,0 v 1.374 l 1.62,1.62 L 0,1.374" />
    </g>
    <g
       transform="matrix(0.20917149,0,0,-0.4891565,134.52089,402.06552)"
       id="g1001">
      <g
         clip-path="url(#clipPath1007-3)"
         id="g1003">
        <g
           transform="translate(281.272,562.619)"
           id="g1009">
          <path
             inkscape:connector-curvature="0"
             id="path1011"
             style="fill:none;stroke:#1c1c1b;stroke-width:0.477;stroke-linecap:butt;stroke-linejoin:miter;stroke-miterlimit:4;stroke-dasharray:none;stroke-opacity:1"
             d="M 0,0 H -220.413" />
        </g>
      </g>
    </g>
    <g
       transform="matrix(0.4891565,0,0,-0.4891565,192.05873,126.06384)"
       id="g1013">
      <path
         inkscape:connector-curvature="0"
         id="path1015"
         style="fill:#1c1c1b;fill-opacity:1;fill-rule:nonzero;stroke:none"
         d="M 0,0 1.621,-1.62 0,-3.239 H 1.374 L 2.995,-1.62 1.374,0" />
    </g>
    <text
       y="103.53653"
       x="173.19847"
       id="text1019"
       style="font-style:italic;font-variant:normal;font-weight:600;font-size:4.43811703px;font-family:MyriadPro;-inkscape-font-specification:MyriadPro-SemiboldIt;writing-mode:lr-tb;fill:#1c1c1b;fill-opacity:1;fill-rule:nonzero;stroke:none;stroke-width:0.48915645">
      <tspan
         style="stroke-width:0.48915645"
         id="tspan1017"
         y="103.53653"
         x="173.19847">j</tspan>
    </text>
    <text
       y="103.53653"
       x="174.32574"
       id="text1023"
       style="font-variant:normal;font-weight:normal;font-size:4.43811703px;font-family:SymbolMT;-inkscape-font-specification:SymbolMT;writing-mode:lr-tb;fill:#1c1c1b;fill-opacity:1;fill-rule:nonzero;stroke:none;stroke-width:0.48915645">
      <tspan
         style="stroke-width:0.48915645"
         id="tspan1021"
         y="103.53653"
         x="174.32574">ω</tspan>
    </text>
    <text
       y="107.66888"
       x="181.50351"
       id="text1027"
       style="font-style:italic;font-variant:normal;font-weight:600;font-size:4.43811703px;font-family:MyriadPro;-inkscape-font-specification:MyriadPro-SemiboldIt;writing-mode:lr-tb;fill:#1c1c1b;fill-opacity:1;fill-rule:nonzero;stroke:none;stroke-width:0.48915645">
      <tspan
         style="stroke-width:0.48915645"
         id="tspan1025"
         y="107.66888"
         x="181.50351">j</tspan>
    </text>
    <text
       y="107.66888"
       x="182.63078"
       id="text1031"
       style="font-variant:normal;font-weight:normal;font-size:4.43811703px;font-family:SymbolMT;-inkscape-font-specification:SymbolMT;writing-mode:lr-tb;fill:#1c1c1b;fill-opacity:1;fill-rule:nonzero;stroke:none;stroke-width:0.48915645">
      <tspan
         style="stroke-width:0.48915645"
         id="tspan1029"
         y="107.66888"
         x="182.63078">ω</tspan>
    </text>
    <text
       y="108.6033"
       x="185.67502"
       id="text1035"
       style="font-style:italic;font-variant:normal;font-weight:600;font-size:3.50377917px;font-family:MyriadPro;-inkscape-font-specification:MyriadPro-SemiboldIt;writing-mode:lr-tb;fill:#1c1c1b;fill-opacity:1;fill-rule:nonzero;stroke:none;stroke-width:0.48915645">
      <tspan
         style="stroke-width:0.48915645"
         id="tspan1033"
         y="108.6033"
         x="185.67502">d</tspan>
    </text>
    <text
       y="124.17489"
       x="166.70978"
       id="text1041"
       style="font-variant:normal;font-weight:normal;font-size:4.43811703px;font-family:SymbolMT;-inkscape-font-specification:SymbolMT;writing-mode:lr-tb;fill:#1c1c1b;fill-opacity:1;fill-rule:nonzero;stroke:none;stroke-width:0.48915645">
      <tspan
         style="stroke-width:0.48915645"
         id="tspan1037"
         y="124.17489"
         x="166.70978">φ</tspan>
      <tspan
         style="stroke-width:0.48915645"
         id="tspan1039"
         y="117.63764"
         x="162.03639">ω</tspan>
    </text>
    <text
       y="118.57004"
       x="165.08231"
       id="text1045"
       style="font-style:italic;font-variant:normal;font-weight:600;font-size:3.50377917px;font-family:MyriadPro;-inkscape-font-specification:MyriadPro-SemiboldIt;writing-mode:lr-tb;fill:#1c1c1b;fill-opacity:1;fill-rule:nonzero;stroke:none;stroke-width:0.48915645">
      <tspan
         style="stroke-width:0.48915645"
         id="tspan1043"
         y="118.57004"
         x="165.08231">n</tspan>
    </text>
    <text
       y="182.11804"
       x="148.19664"
       id="text1049"
       style="font-variant:normal;font-weight:600;font-size:5.4355607px;font-family:MyriadPro;-inkscape-font-specification:MyriadPro-Semibold;writing-mode:lr-tb;fill:#1c1c1b;fill-opacity:1;fill-rule:nonzero;stroke:none;stroke-width:0.3993946"
       transform="scale(1.2247449,0.81649657)">
      <tspan
         style="stroke-width:0.3993946"
         id="tspan1047"
         y="182.11804"
         x="148.19664">-</tspan>
    </text>
    <text
       y="148.69878"
       x="183.59964"
       id="text1053"
       style="font-style:italic;font-variant:normal;font-weight:600;font-size:4.43811703px;font-family:MyriadPro;-inkscape-font-specification:MyriadPro-SemiboldIt;writing-mode:lr-tb;fill:#1c1c1b;fill-opacity:1;fill-rule:nonzero;stroke:none;stroke-width:0.48915645">
      <tspan
         style="stroke-width:0.48915645"
         id="tspan1051"
         y="148.69878"
         x="183.59964">j</tspan>
    </text>
    <text
       y="148.69878"
       x="184.72736"
       id="text1057"
       style="font-variant:normal;font-weight:normal;font-size:4.43811703px;font-family:SymbolMT;-inkscape-font-specification:SymbolMT;writing-mode:lr-tb;fill:#1c1c1b;fill-opacity:1;fill-rule:nonzero;stroke:none;stroke-width:0.48915645">
      <tspan
         style="stroke-width:0.48915645"
         id="tspan1055"
         y="148.69878"
         x="184.72736">ω</tspan>
    </text>
    <text
       y="149.63298"
       x="187.77234"
       id="text1061"
       style="font-style:italic;font-variant:normal;font-weight:600;font-size:3.50377917px;font-family:MyriadPro;-inkscape-font-specification:MyriadPro-SemiboldIt;writing-mode:lr-tb;fill:#1c1c1b;fill-opacity:1;fill-rule:nonzero;stroke:none;stroke-width:0.48915645">
      <tspan
         style="stroke-width:0.48915645"
         id="tspan1059"
         y="149.63298"
         x="187.77234">d</tspan>
    </text>
    <text
       y="131.11156"
       x="180.11543"
       id="text1065"
       style="font-variant:normal;font-weight:600;font-size:4.43811703px;font-family:MyriadPro;-inkscape-font-specification:MyriadPro-Semibold;writing-mode:lr-tb;fill:#1c1c1b;fill-opacity:1;fill-rule:nonzero;stroke:none;stroke-width:0.48915645">
      <tspan
         style="stroke-width:0.48915645"
         id="tspan1063"
         y="131.11156"
         x="180.11543">0</tspan>
    </text>
    <text
       y="131.11156"
       x="190.71349"
       id="text1069"
       style="font-variant:normal;font-weight:normal;font-size:4.43811703px;font-family:SymbolMT;-inkscape-font-specification:SymbolMT;writing-mode:lr-tb;fill:#1c1c1b;fill-opacity:1;fill-rule:nonzero;stroke:none;stroke-width:0.48915645">
      <tspan
         style="stroke-width:0.48915645"
         id="tspan1067"
         y="131.11156"
         x="190.71349">σ</tspan>
    </text>
    <g
       transform="matrix(0.4891565,0,0,-0.4891565,178.6389,127.52789)"
       id="g1071">
      <path
         inkscape:connector-curvature="0"
         id="path1073"
         style="fill:none;stroke:#1c1c1b;stroke-width:0.477;stroke-linecap:butt;stroke-linejoin:miter;stroke-miterlimit:4;stroke-dasharray:none;stroke-opacity:1"
         d="M 0,0 V 2.708" />
    </g>
    <text
       y="160.57819"
       x="123.60579"
       id="text1077"
       style="font-variant:normal;font-weight:600;font-size:5.4355607px;font-family:MyriadPro;-inkscape-font-specification:MyriadPro-Semibold;writing-mode:lr-tb;fill:#1c1c1b;fill-opacity:1;fill-rule:nonzero;stroke:none;stroke-width:0.3993946"
       transform="scale(1.2247449,0.81649657)">
      <tspan
         style="stroke-width:0.3993946"
         id="tspan1075"
         y="160.57819"
         x="123.60579">-</tspan>
    </text>
    <text
       y="131.11156"
       x="153.48291"
       id="text1081"
       style="font-variant:normal;font-weight:normal;font-size:4.43811703px;font-family:SymbolMT;-inkscape-font-specification:SymbolMT;writing-mode:lr-tb;fill:#1c1c1b;fill-opacity:1;fill-rule:nonzero;stroke:none;stroke-width:0.48915645">
      <tspan
         style="stroke-width:0.48915645"
         id="tspan1079"
         y="131.11156"
         x="153.48291">α</tspan>
    </text>
    <g
       transform="matrix(0.4891565,0,0,-0.4891565,179.30611,126.85285)"
       id="g1083">
      <path
         inkscape:connector-curvature="0"
         id="path1085"
         style="fill:none;stroke:#1c1c1b;stroke-width:0.477;stroke-linecap:butt;stroke-linejoin:miter;stroke-miterlimit:4;stroke-dasharray:none;stroke-opacity:1"
         d="M 0,0 H -2.708" />
      <g
         transform="translate(-2.714)"
         id="g1087">
        <path
           inkscape:connector-curvature="0"
           id="path1089"
           style="fill:none;stroke:#1c1c1b;stroke-width:0.477;stroke-linecap:butt;stroke-linejoin:miter;stroke-miterlimit:4;stroke-dasharray:none;stroke-opacity:1"
           d="M 0,0 H 2.707" />
      </g>
    </g>
    <g
       transform="matrix(0.4891565,0,0,-0.4891565,158.99926,147.94919)"
       id="g1091">
      <path
         inkscape:connector-curvature="0"
         id="path1093"
         style="fill:#ffffff;fill-opacity:1;fill-rule:nonzero;stroke:none"
         d="M 0,0 -2.988,2.988" />
    </g>
    <g
       transform="matrix(0.4891565,0,0,-0.4891565,158.99926,147.94919)"
       id="g1095">
      <path
         inkscape:connector-curvature="0"
         id="path1097"
         style="fill:none;stroke:#ffffff;stroke-width:1.43200004;stroke-linecap:butt;stroke-linejoin:miter;stroke-miterlimit:4;stroke-dasharray:none;stroke-opacity:1"
         d="M 0,0 -2.988,2.988" />
    </g>
    <g
       transform="matrix(0.4891565,0,0,-0.4891565,158.99926,146.48759)"
       id="g1099">
      <path
         inkscape:connector-curvature="0"
         id="path1101"
         style="fill:#ffffff;fill-opacity:1;fill-rule:nonzero;stroke:none"
         d="M 0,0 -2.99,-2.988" />
    </g>
    <g
       transform="matrix(0.4891565,0,0,-0.4891565,158.99926,146.48759)"
       id="g1103">
      <path
         inkscape:connector-curvature="0"
         id="path1105"
         style="fill:none;stroke:#ffffff;stroke-width:1.43200004;stroke-linecap:butt;stroke-linejoin:miter;stroke-miterlimit:4;stroke-dasharray:none;stroke-opacity:1"
         d="M 0,0 -2.99,-2.988" />
    </g>
    <g
       transform="matrix(0.4891565,0,0,-0.4891565,158.99926,147.94919)"
       id="g1107">
      <path
         inkscape:connector-curvature="0"
         id="path1109"
         style="fill:#ffffff;fill-opacity:1;fill-rule:nonzero;stroke:none"
         d="M 0,0 -2.988,2.988" />
    </g>
    <g
       transform="matrix(0.4891565,0,0,-0.4891565,158.99926,147.94919)"
       id="g1111">
      <path
         inkscape:connector-curvature="0"
         id="path1113"
         style="fill:none;stroke:#1c1c1b;stroke-width:0.95499998;stroke-linecap:butt;stroke-linejoin:miter;stroke-miterlimit:4;stroke-dasharray:none;stroke-opacity:1"
         d="M 0,0 -2.988,2.988" />
    </g>
    <g
       transform="matrix(0.4891565,0,0,-0.4891565,158.99926,146.48759)"
       id="g1115">
      <path
         inkscape:connector-curvature="0"
         id="path1117"
         style="fill:#ffffff;fill-opacity:1;fill-rule:nonzero;stroke:none"
         d="M 0,0 -2.99,-2.988" />
    </g>
    <g
       transform="matrix(0.4891565,0,0,-0.4891565,158.99926,146.48759)"
       id="g1119">
      <path
         inkscape:connector-curvature="0"
         id="path1121"
         style="fill:none;stroke:#1c1c1b;stroke-width:0.95499998;stroke-linecap:butt;stroke-linejoin:miter;stroke-miterlimit:4;stroke-dasharray:none;stroke-opacity:1"
         d="M 0,0 -2.99,-2.988" />
    </g>
    <g
       transform="matrix(0.4891565,0,0,-0.4891565,158.99926,107.26066)"
       id="g1123">
      <path
         inkscape:connector-curvature="0"
         id="path1125"
         style="fill:#ffffff;fill-opacity:1;fill-rule:nonzero;stroke:none"
         d="M 0,0 -2.988,2.987" />
    </g>
    <g
       transform="matrix(0.4891565,0,0,-0.4891565,158.99926,107.26066)"
       id="g1127">
      <path
         inkscape:connector-curvature="0"
         id="path1129"
         style="fill:none;stroke:#ffffff;stroke-width:1.43200004;stroke-linecap:butt;stroke-linejoin:miter;stroke-miterlimit:4;stroke-dasharray:none;stroke-opacity:1"
         d="M 0,0 -2.988,2.987" />
    </g>
    <g
       transform="matrix(0.4891565,0,0,-0.4891565,158.99926,105.79906)"
       id="g1131">
      <path
         inkscape:connector-curvature="0"
         id="path1133"
         style="fill:#ffffff;fill-opacity:1;fill-rule:nonzero;stroke:none"
         d="M 0,0 -2.99,-2.988" />
    </g>
    <g
       transform="matrix(0.4891565,0,0,-0.4891565,158.99926,105.79906)"
       id="g1135">
      <path
         inkscape:connector-curvature="0"
         id="path1137"
         style="fill:none;stroke:#ffffff;stroke-width:1.43200004;stroke-linecap:butt;stroke-linejoin:miter;stroke-miterlimit:4;stroke-dasharray:none;stroke-opacity:1"
         d="M 0,0 -2.99,-2.988" />
    </g>
    <g
       transform="matrix(0.4891565,0,0,-0.4891565,158.99926,107.26066)"
       id="g1139">
      <path
         inkscape:connector-curvature="0"
         id="path1141"
         style="fill:#ffffff;fill-opacity:1;fill-rule:nonzero;stroke:none"
         d="M 0,0 -2.988,2.987" />
    </g>
    <g
       transform="matrix(0.4891565,0,0,-0.4891565,158.99926,107.26066)"
       id="g1143">
      <path
         inkscape:connector-curvature="0"
         id="path1145"
         style="fill:none;stroke:#1c1c1b;stroke-width:0.95499998;stroke-linecap:butt;stroke-linejoin:miter;stroke-miterlimit:4;stroke-dasharray:none;stroke-opacity:1"
         d="M 0,0 -2.988,2.987" />
    </g>
    <g
       transform="matrix(0.4891565,0,0,-0.4891565,158.99926,105.79906)"
       id="g1147">
      <path
         inkscape:connector-curvature="0"
         id="path1149"
         style="fill:#ffffff;fill-opacity:1;fill-rule:nonzero;stroke:none"
         d="M 0,0 -2.99,-2.988" />
    </g>
    <g
       transform="matrix(0.4891565,0,0,-0.4891565,158.99926,105.79906)"
       id="g1151">
      <path
         inkscape:connector-curvature="0"
         id="path1153"
         style="fill:none;stroke:#1c1c1b;stroke-width:0.95499998;stroke-linecap:butt;stroke-linejoin:miter;stroke-miterlimit:4;stroke-dasharray:none;stroke-opacity:1"
         d="M 0,0 -2.99,-2.988" />
    </g>
    <path
       inkscape:connector-curvature="0"
       id="path1155"
       style="fill:none;stroke:#1c1c1b;stroke-width:0.23332766;stroke-linecap:butt;stroke-linejoin:miter;stroke-miterlimit:4;stroke-dasharray:0.93424001, 0.93424001;stroke-dashoffset:0;stroke-opacity:1"
       d="m 178.67315,106.51522 h -20.40223 v 40.70026 h 20.40223 m -20.40223,-40.70026 20.40223,20.34402 -20.40223,20.35624" />
    <g
       transform="matrix(0.4891565,0,0,-0.4891565,170.08356,126.54566)"
       id="g1157">
      <path
         inkscape:connector-curvature="0"
         id="path1159"
         style="fill:none;stroke:#1c1c1b;stroke-width:0.477;stroke-linecap:butt;stroke-linejoin:miter;stroke-miterlimit:4;stroke-dasharray:none;stroke-opacity:1"
         d="M 0,0 C 0.102,4.363 1.796,8.332 4.525,11.348" />
    </g>
    <g
       transform="matrix(0.4891565,0,0,-0.4891565,172.17665,122.29733)"
       id="g1161">
      <path
         inkscape:connector-curvature="0"
         id="path1163"
         style="fill:#1c1c1b;fill-opacity:1;fill-rule:nonzero;stroke:none"
         d="M 0,0 -0.115,2.287 -2.403,2.172 -1.481,3.192 0.806,3.307 0.922,1.02" />
    </g>
    <g
       transform="matrix(0.4891565,0,0,-0.4891565,169.31313,125.27336)"
       id="g1165">
      <path
         inkscape:connector-curvature="0"
         id="path1167"
         style="fill:#1c1c1b;fill-opacity:1;fill-rule:nonzero;stroke:none"
         d="M 0,0 1.58,-1.657 3.237,-0.075 3.205,-1.45 1.548,-3.031 -0.032,-1.374" />
    </g>
    <g
       transform="matrix(0.4891565,0,0,-0.4891565,179.37018,127.59638)"
       id="g1169">
      <path
         inkscape:connector-curvature="0"
         id="path1171"
         style="fill:#ffffff;fill-opacity:1;fill-rule:nonzero;stroke:none"
         d="M 0,0 -2.988,2.988" />
    </g>
    <g
       transform="matrix(0.4891565,0,0,-0.4891565,179.37018,127.59638)"
       id="g1173">
      <path
         inkscape:connector-curvature="0"
         id="path1175"
         style="fill:none;stroke:#ffffff;stroke-width:1.43200004;stroke-linecap:butt;stroke-linejoin:miter;stroke-miterlimit:4;stroke-dasharray:none;stroke-opacity:1"
         d="M 0,0 -2.988,2.988" />
    </g>
    <g
       transform="matrix(0.4891565,0,0,-0.4891565,179.37018,126.13428)"
       id="g1177">
      <path
         inkscape:connector-curvature="0"
         id="path1179"
         style="fill:#ffffff;fill-opacity:1;fill-rule:nonzero;stroke:none"
         d="M 0,0 -2.99,-2.988" />
    </g>
    <g
       transform="matrix(0.4891565,0,0,-0.4891565,179.37018,126.13428)"
       id="g1181">
      <path
         inkscape:connector-curvature="0"
         id="path1183"
         style="fill:none;stroke:#ffffff;stroke-width:1.43200004;stroke-linecap:butt;stroke-linejoin:miter;stroke-miterlimit:4;stroke-dasharray:none;stroke-opacity:1"
         d="M 0,0 -2.99,-2.988" />
    </g>
    <g
       transform="matrix(0.4891565,0,0,-0.4891565,179.37018,127.59638)"
       id="g1185">
      <path
         inkscape:connector-curvature="0"
         id="path1187"
         style="fill:#ffffff;fill-opacity:1;fill-rule:nonzero;stroke:none"
         d="M 0,0 -2.988,2.988" />
    </g>
    <g
       transform="matrix(0.4891565,0,0,-0.4891565,179.37018,127.59638)"
       id="g1189">
      <path
         inkscape:connector-curvature="0"
         id="path1191"
         style="fill:none;stroke:#1c1c1b;stroke-width:0.95499998;stroke-linecap:butt;stroke-linejoin:miter;stroke-miterlimit:4;stroke-dasharray:none;stroke-opacity:1"
         d="M 0,0 -2.988,2.988" />
    </g>
    <g
       transform="matrix(0.4891565,0,0,-0.4891565,179.37018,126.13428)"
       id="g1193">
      <path
         inkscape:connector-curvature="0"
         id="path1195"
         style="fill:#ffffff;fill-opacity:1;fill-rule:nonzero;stroke:none"
         d="M 0,0 -2.99,-2.988" />
    </g>
    <g
       transform="matrix(0.4891565,0,0,-0.4891565,179.37018,126.13428)"
       id="g1197">
      <path
         inkscape:connector-curvature="0"
         id="path1199"
         style="fill:none;stroke:#1c1c1b;stroke-width:0.95499998;stroke-linecap:butt;stroke-linejoin:miter;stroke-miterlimit:4;stroke-dasharray:none;stroke-opacity:1"
         d="M 0,0 -2.99,-2.988" />
    </g>
  </g>
</svg>
