<?xml version="1.0" encoding="UTF-8" standalone="no"?>
<!-- Created with Inkscape (http://www.inkscape.org/) -->

<svg
   xmlns:dc="http://purl.org/dc/elements/1.1/"
   xmlns:cc="http://creativecommons.org/ns#"
   xmlns:rdf="http://www.w3.org/1999/02/22-rdf-syntax-ns#"
   xmlns:svg="http://www.w3.org/2000/svg"
   xmlns="http://www.w3.org/2000/svg"
   xmlns:sodipodi="http://sodipodi.sourceforge.net/DTD/sodipodi-0.dtd"
   xmlns:inkscape="http://www.inkscape.org/namespaces/inkscape"
   version="1.1"
   id="svg2"
   xml:space="preserve"
   width="399.34305"
   height="311.58023"
   viewBox="0 0 399.34304 311.58023"
   sodipodi:docname="sistsegundaordemEfeitoZeta.svg"
   inkscape:version="0.92.4 (unknown)"><metadata
     id="metadata8"><rdf:RDF><cc:Work
         rdf:about=""><dc:format>image/svg+xml</dc:format><dc:type
           rdf:resource="http://purl.org/dc/dcmitype/StillImage" /><dc:title></dc:title></cc:Work></rdf:RDF></metadata><defs
     id="defs6"><clipPath
       clipPathUnits="userSpaceOnUse"
       id="clipPath20"><path
         d="M 0,0 H 454 V 340 H 0 Z"
         id="path18"
         inkscape:connector-curvature="0" /></clipPath></defs><sodipodi:namedview
     pagecolor="#ffffff"
     bordercolor="#666666"
     borderopacity="1"
     objecttolerance="10"
     gridtolerance="10"
     guidetolerance="10"
     inkscape:pageopacity="0"
     inkscape:pageshadow="2"
     inkscape:window-width="1366"
     inkscape:window-height="713"
     id="namedview4"
     showgrid="false"
     inkscape:zoom="0.98163059"
     inkscape:cx="134.54955"
     inkscape:cy="140.92926"
     inkscape:window-x="0"
     inkscape:window-y="27"
     inkscape:window-maximized="1"
     inkscape:current-layer="g12"
     fit-margin-top="0"
     fit-margin-left="0"
     fit-margin-right="0"
     fit-margin-bottom="0" /><g
     id="g10"
     inkscape:groupmode="layer"
     inkscape:label="sistsegundaordemEfeitoZeta"
     transform="matrix(1.3333333,0,0,-1.3333333,-16.964079,315.32189)"><g
       id="g12"
       transform="matrix(0.125,0,0,-0.125,0,255)"><g
         id="g28"
         transform="scale(5.9939648,6.0027789)"><path
           d="M 59,298 H 411 V 25.000008 H 59 Z"
           style="fill:#ffffff;fill-opacity:1;fill-rule:nonzero;stroke:none"
           id="path30"
           inkscape:connector-curvature="0" /></g><g
         id="g32"
         transform="scale(5.9939648,6.0027789)"><path
           d="M 59,298 H 411"
           style="fill:none;stroke:#262626;stroke-width:0.66666698;stroke-linecap:square;stroke-linejoin:round;stroke-miterlimit:10;stroke-dasharray:none;stroke-opacity:1"
           id="path34"
           inkscape:connector-curvature="0" /></g><g
         id="g36"
         transform="scale(5.9939648,6.0027789)"><path
           d="m 59,298 v -3.51999"
           style="fill:none;stroke:#262626;stroke-width:0.66666698;stroke-linecap:square;stroke-linejoin:round;stroke-miterlimit:10;stroke-dasharray:none;stroke-opacity:1"
           id="path38"
           inkscape:connector-curvature="0" /></g><g
         id="g40"
         transform="scale(5.9939648,6.0027789)"><path
           d="m 117.66666,298 v -3.51999"
           style="fill:none;stroke:#262626;stroke-width:0.66666698;stroke-linecap:square;stroke-linejoin:round;stroke-miterlimit:10;stroke-dasharray:none;stroke-opacity:1"
           id="path42"
           inkscape:connector-curvature="0" /></g><g
         id="g44"
         transform="scale(5.9939648,6.0027789)"><path
           d="m 176.33333,298 v -3.51999"
           style="fill:none;stroke:#262626;stroke-width:0.66666698;stroke-linecap:square;stroke-linejoin:round;stroke-miterlimit:10;stroke-dasharray:none;stroke-opacity:1"
           id="path46"
           inkscape:connector-curvature="0" /></g><g
         id="g48"
         transform="scale(5.9939648,6.0027789)"><path
           d="m 235,298 v -3.51999"
           style="fill:none;stroke:#262626;stroke-width:0.66666698;stroke-linecap:square;stroke-linejoin:round;stroke-miterlimit:10;stroke-dasharray:none;stroke-opacity:1"
           id="path50"
           inkscape:connector-curvature="0" /></g><g
         id="g52"
         transform="scale(5.9939648,6.0027789)"><path
           d="m 293.66666,298 v -3.51999"
           style="fill:none;stroke:#262626;stroke-width:0.66666698;stroke-linecap:square;stroke-linejoin:round;stroke-miterlimit:10;stroke-dasharray:none;stroke-opacity:1"
           id="path54"
           inkscape:connector-curvature="0" /></g><g
         id="g56"
         transform="scale(5.9939648,6.0027789)"><path
           d="m 352.33334,298 v -3.51999"
           style="fill:none;stroke:#262626;stroke-width:0.66666698;stroke-linecap:square;stroke-linejoin:round;stroke-miterlimit:10;stroke-dasharray:none;stroke-opacity:1"
           id="path58"
           inkscape:connector-curvature="0" /></g><g
         id="g60"
         transform="scale(5.9939648,6.0027789)"><path
           d="m 411,298 v -3.51999"
           style="fill:none;stroke:#262626;stroke-width:0.66666698;stroke-linecap:square;stroke-linejoin:round;stroke-miterlimit:10;stroke-dasharray:none;stroke-opacity:1"
           id="path62"
           inkscape:connector-curvature="0" /></g><g
         id="g64"><g
           id="g66"
           transform="matrix(5.9939648,0,0,6.0027789,353.64392,1820.843)"><text
   transform="translate(-4.5,13)"
   style="font-variant:normal;font-weight:normal;font-size:13.33300018px;font-family:Helvetica;-inkscape-font-specification:Helvetica;writing-mode:lr-tb;fill:#262626;fill-opacity:1;fill-rule:nonzero;stroke:none"
   id="text70"><tspan
     x="0"
     y="0"
     id="tspan68">0</tspan></text>

</g></g><g
         id="g72"><g
           id="g74"
           transform="matrix(5.9939648,0,0,6.0027789,705.28984,1820.843)"><text
   transform="translate(-4.5,13)"
   style="font-variant:normal;font-weight:normal;font-size:13.33300018px;font-family:Helvetica;-inkscape-font-specification:Helvetica;writing-mode:lr-tb;fill:#262626;fill-opacity:1;fill-rule:nonzero;stroke:none"
   id="text78"><tspan
     x="0"
     y="0"
     id="tspan76">2</tspan></text>

</g></g><g
         id="g80"><g
           id="g82"
           transform="matrix(5.9939648,0,0,6.0027789,1056.9358,1820.843)"><text
   transform="translate(-4.5,13)"
   style="font-variant:normal;font-weight:normal;font-size:13.33300018px;font-family:Helvetica;-inkscape-font-specification:Helvetica;writing-mode:lr-tb;fill:#262626;fill-opacity:1;fill-rule:nonzero;stroke:none"
   id="text86"><tspan
     x="0"
     y="0"
     id="tspan84">4</tspan></text>

</g></g><g
         id="g88"><g
           id="g90"
           transform="matrix(5.9939648,0,0,6.0027789,1408.5817,1820.843)"><text
   transform="translate(-4.5,13)"
   style="font-variant:normal;font-weight:normal;font-size:13.33300018px;font-family:Helvetica;-inkscape-font-specification:Helvetica;writing-mode:lr-tb;fill:#262626;fill-opacity:1;fill-rule:nonzero;stroke:none"
   id="text94"><tspan
     x="0"
     y="0"
     id="tspan92">6</tspan></text>

</g></g><g
         id="g96"><g
           id="g98"
           transform="matrix(5.9939648,0,0,6.0027789,1760.2276,1820.843)"><text
   transform="translate(-4.5,13)"
   style="font-variant:normal;font-weight:normal;font-size:13.33300018px;font-family:Helvetica;-inkscape-font-specification:Helvetica;writing-mode:lr-tb;fill:#262626;fill-opacity:1;fill-rule:nonzero;stroke:none"
   id="text102"><tspan
     x="0"
     y="0"
     id="tspan100">8</tspan></text>

</g></g><g
         id="g104"><g
           id="g106"
           transform="matrix(5.9939648,0,0,6.0027789,2111.8737,1820.843)"><text
   transform="translate(-8.5,13)"
   style="font-variant:normal;font-weight:normal;font-size:13.33300018px;font-family:Helvetica;-inkscape-font-specification:Helvetica;writing-mode:lr-tb;fill:#262626;fill-opacity:1;fill-rule:nonzero;stroke:none"
   id="text110"><tspan
     x="0 7.4131479"
     y="0"
     sodipodi:role="line"
     id="tspan108">10</tspan></text>

</g></g><g
         id="g112"><g
           id="g114"
           transform="matrix(5.9939648,0,0,6.0027789,2463.5195,1820.843)"><text
   transform="translate(-8.5,13)"
   style="font-variant:normal;font-weight:normal;font-size:13.33300018px;font-family:Helvetica;-inkscape-font-specification:Helvetica;writing-mode:lr-tb;fill:#262626;fill-opacity:1;fill-rule:nonzero;stroke:none"
   id="text118"><tspan
     x="0 7.4131479"
     y="0"
     sodipodi:role="line"
     id="tspan116">12</tspan></text>

</g></g><g
         id="g120"><g
           id="g122"
           transform="matrix(5.9939648,0,0,6.0027789,1408.5827,1932.8948)"><text
   transform="translate(-3,14)"
   style="font-variant:normal;font-weight:normal;font-size:14.66699982px;font-family:Helvetica;-inkscape-font-specification:Helvetica;writing-mode:lr-tb;fill:#262626;fill-opacity:1;fill-rule:nonzero;stroke:none"
   id="text126"><tspan
     x="0"
     y="0"
     id="tspan124">t</tspan></text>

</g></g><g
         id="g128"
         transform="scale(5.9939648,6.0027789)"><path
           d="M 59,298 V 25.000008"
           style="fill:none;stroke:#262626;stroke-width:0.66666698;stroke-linecap:square;stroke-linejoin:round;stroke-miterlimit:10;stroke-dasharray:none;stroke-opacity:1"
           id="path130"
           inkscape:connector-curvature="0" /></g><g
         id="g132"
         transform="scale(5.9939648,6.0027789)"><path
           d="m 59,298 h 3.52"
           style="fill:none;stroke:#262626;stroke-width:0.66666698;stroke-linecap:square;stroke-linejoin:round;stroke-miterlimit:10;stroke-dasharray:none;stroke-opacity:1"
           id="path134"
           inkscape:connector-curvature="0" /></g><g
         id="g136"
         transform="scale(5.9939648,6.0027789)"><path
           d="m 59,267.66666 h 3.52"
           style="fill:none;stroke:#262626;stroke-width:0.66666698;stroke-linecap:square;stroke-linejoin:round;stroke-miterlimit:10;stroke-dasharray:none;stroke-opacity:1"
           id="path138"
           inkscape:connector-curvature="0" /></g><g
         id="g140"
         transform="scale(5.9939648,6.0027789)"><path
           d="m 59,237.33333 h 3.52"
           style="fill:none;stroke:#262626;stroke-width:0.66666698;stroke-linecap:square;stroke-linejoin:round;stroke-miterlimit:10;stroke-dasharray:none;stroke-opacity:1"
           id="path142"
           inkscape:connector-curvature="0" /></g><g
         id="g144"
         transform="scale(5.9939648,6.0027789)"><path
           d="m 59,207 h 3.52"
           style="fill:none;stroke:#262626;stroke-width:0.66666698;stroke-linecap:square;stroke-linejoin:round;stroke-miterlimit:10;stroke-dasharray:none;stroke-opacity:1"
           id="path146"
           inkscape:connector-curvature="0" /></g><g
         id="g148"
         transform="scale(5.9939648,6.0027789)"><path
           d="m 59,176.66667 h 3.52"
           style="fill:none;stroke:#262626;stroke-width:0.66666698;stroke-linecap:square;stroke-linejoin:round;stroke-miterlimit:10;stroke-dasharray:none;stroke-opacity:1"
           id="path150"
           inkscape:connector-curvature="0" /></g><g
         id="g152"
         transform="scale(5.9939648,6.0027789)"><path
           d="m 59,146.33333 h 3.52"
           style="fill:none;stroke:#262626;stroke-width:0.66666698;stroke-linecap:square;stroke-linejoin:round;stroke-miterlimit:10;stroke-dasharray:none;stroke-opacity:1"
           id="path154"
           inkscape:connector-curvature="0" /></g><g
         id="g156"
         transform="scale(5.9939648,6.0027789)"><path
           d="m 59,115.99999 h 3.52"
           style="fill:none;stroke:#262626;stroke-width:0.66666698;stroke-linecap:square;stroke-linejoin:round;stroke-miterlimit:10;stroke-dasharray:none;stroke-opacity:1"
           id="path158"
           inkscape:connector-curvature="0" /></g><g
         id="g160"
         transform="scale(5.9939648,6.0027789)"><path
           d="m 59,85.666672 h 3.52"
           style="fill:none;stroke:#262626;stroke-width:0.66666698;stroke-linecap:square;stroke-linejoin:round;stroke-miterlimit:10;stroke-dasharray:none;stroke-opacity:1"
           id="path162"
           inkscape:connector-curvature="0" /></g><g
         id="g164"
         transform="scale(5.9939648,6.0027789)"><path
           d="m 59,55.333328 h 3.52"
           style="fill:none;stroke:#262626;stroke-width:0.66666698;stroke-linecap:square;stroke-linejoin:round;stroke-miterlimit:10;stroke-dasharray:none;stroke-opacity:1"
           id="path166"
           inkscape:connector-curvature="0" /></g><g
         id="g168"><g
           id="g170"
           transform="matrix(5.9939648,0,0,6.0027789,321.67612,1788.8281)"><text
   transform="translate(-9,4.5)"
   style="font-variant:normal;font-weight:normal;font-size:13.33300018px;font-family:Helvetica;-inkscape-font-specification:Helvetica;writing-mode:lr-tb;fill:#262626;fill-opacity:1;fill-rule:nonzero;stroke:none"
   id="text174"><tspan
     x="0"
     y="0"
     id="tspan172">0</tspan></text>

</g></g><g
         id="g176"><g
           id="g178"
           transform="matrix(5.9939648,0,0,6.0027789,321.67612,1606.7438)"><text
   transform="translate(-21,4.5)"
   style="font-variant:normal;font-weight:normal;font-size:13.33300018px;font-family:Helvetica;-inkscape-font-specification:Helvetica;writing-mode:lr-tb;fill:#262626;fill-opacity:1;fill-rule:nonzero;stroke:none"
   id="text182"><tspan
     x="0 7.4131479 11.119722"
     y="0"
     sodipodi:role="line"
     id="tspan180">0.2</tspan></text>

</g></g><g
         id="g184"><g
           id="g186"
           transform="matrix(5.9939648,0,0,6.0027789,321.67612,1424.6595)"><text
   transform="translate(-21,4.5)"
   style="font-variant:normal;font-weight:normal;font-size:13.33300018px;font-family:Helvetica;-inkscape-font-specification:Helvetica;writing-mode:lr-tb;fill:#262626;fill-opacity:1;fill-rule:nonzero;stroke:none"
   id="text190"><tspan
     x="0 7.4131479 11.119722"
     y="0"
     sodipodi:role="line"
     id="tspan188">0.4</tspan></text>

</g></g><g
         id="g192"><g
           id="g194"
           transform="matrix(5.9939648,0,0,6.0027789,321.67612,1242.5752)"><text
   transform="translate(-21,4.5)"
   style="font-variant:normal;font-weight:normal;font-size:13.33300018px;font-family:Helvetica;-inkscape-font-specification:Helvetica;writing-mode:lr-tb;fill:#262626;fill-opacity:1;fill-rule:nonzero;stroke:none"
   id="text198"><tspan
     x="0 7.4131479 11.119722"
     y="0"
     sodipodi:role="line"
     id="tspan196">0.6</tspan></text>

</g></g><g
         id="g200"><g
           id="g202"
           transform="matrix(5.9939648,0,0,6.0027789,321.67612,1060.491)"><text
   transform="translate(-21,4.5)"
   style="font-variant:normal;font-weight:normal;font-size:13.33300018px;font-family:Helvetica;-inkscape-font-specification:Helvetica;writing-mode:lr-tb;fill:#262626;fill-opacity:1;fill-rule:nonzero;stroke:none"
   id="text206"><tspan
     x="0 7.4131479 11.119722"
     y="0"
     sodipodi:role="line"
     id="tspan204">0.8</tspan></text>

</g></g><g
         id="g208"><g
           id="g210"
           transform="matrix(5.9939648,0,0,6.0027789,321.67612,878.40661)"><text
   transform="translate(-9,4.5)"
   style="font-variant:normal;font-weight:normal;font-size:13.33300018px;font-family:Helvetica;-inkscape-font-specification:Helvetica;writing-mode:lr-tb;fill:#262626;fill-opacity:1;fill-rule:nonzero;stroke:none"
   id="text214"><tspan
     x="0"
     y="0"
     id="tspan212">1</tspan></text>

</g></g><g
         id="g216"><g
           id="g218"
           transform="matrix(5.9939648,0,0,6.0027789,321.67612,696.32231)"><text
   transform="translate(-21,4.5)"
   style="font-variant:normal;font-weight:normal;font-size:13.33300018px;font-family:Helvetica;-inkscape-font-specification:Helvetica;writing-mode:lr-tb;fill:#262626;fill-opacity:1;fill-rule:nonzero;stroke:none"
   id="text222"><tspan
     x="0 7.4131479 11.119722"
     y="0"
     sodipodi:role="line"
     id="tspan220">1.2</tspan></text>

</g></g><g
         id="g224"><g
           id="g226"
           transform="matrix(5.9939648,0,0,6.0027789,321.67612,514.23809)"><text
   transform="translate(-21,4.5)"
   style="font-variant:normal;font-weight:normal;font-size:13.33300018px;font-family:Helvetica;-inkscape-font-specification:Helvetica;writing-mode:lr-tb;fill:#262626;fill-opacity:1;fill-rule:nonzero;stroke:none"
   id="text230"><tspan
     x="0 7.4131479 11.119722"
     y="0"
     sodipodi:role="line"
     id="tspan228">1.4</tspan></text>

</g></g><g
         id="g232"><g
           id="g234"
           transform="matrix(5.9939648,0,0,6.0027789,321.67612,332.15373)"><text
   transform="translate(-21,4.5)"
   style="font-variant:normal;font-weight:normal;font-size:13.33300018px;font-family:Helvetica;-inkscape-font-specification:Helvetica;writing-mode:lr-tb;fill:#262626;fill-opacity:1;fill-rule:nonzero;stroke:none"
   id="text238"><tspan
     x="0 7.4131479 11.119722"
     y="0"
     sodipodi:role="line"
     id="tspan236">1.6</tspan></text>

</g></g><g
         id="g240"><g
           id="g242"
           transform="matrix(-2.6e-7,-6.0027789,5.9939648,-2.6e-7,171.827,969.44806)"><text
   transform="translate(-4.5,-4)"
   style="font-variant:normal;font-weight:normal;font-size:14.66699982px;font-family:Helvetica;-inkscape-font-specification:Helvetica;writing-mode:lr-tb;fill:#262626;fill-opacity:1;fill-rule:nonzero;stroke:none"
   id="text246"><tspan
     x="0"
     y="0"
     id="tspan244">y</tspan></text>

</g></g><g
         id="g248"
         transform="scale(5.9939648,6.0027789)"><path
           d="m 59,298 2.933334,-0.75269 2.933335,-2.23065 2.933334,-3.65735 2.933327,-5.01959 2.933334,-6.30517 2.933334,-7.50296 2.933335,-8.60282 2.933334,-9.59576 2.933335,-10.47412 2.933334,-11.23148 2.933334,-11.86275 2.933335,-12.36415 2.933326,-12.73333 2.933339,-12.96921 2.93333,-13.07215 2.93333,-13.04371 2.93334,-12.88683 2.93333,-12.60553 2.93333,-12.20514 2.93333,-11.69193 2.93334,-11.073234 2.93333,-10.357201 2.93334,-9.55294 2.93334,-8.670082 2.93332,-7.718941 2.93333,-6.710259 2.93334,-5.655193 2.93333,-4.565075 2.93334,-3.451362 2.93333,-2.325566 2.93333,-1.19907 2.93334,-0.08301 2.93333,1.01176 2.93334,2.074871 2.93333,3.096394 2.93332,4.067039 2.93335,4.978241 2.93332,5.822182 2.93335,6.591778 2.93332,7.280937 2.93333,7.88443 2.93334,8.39798 2.93333,8.818268 2.93334,9.143023 2.93333,9.37089 2.93333,9.50153 2.93334,9.53562 2.93333,9.47468 2.93334,9.32121 2.93333,9.0786 2.93332,8.75098 2.93334,8.34326 2.93334,7.86108 2.93334,7.31072 2.93332,6.69888 2.93333,6.03293 2.93334,5.32047 2.93333,4.56948 2.93334,3.78818 2.93333,2.98485 2.93333,2.16791 2.93334,1.3457 2.93333,0.52647 2.93334,-0.28176 2.93333,-1.07119 2.93332,-1.83441 2.93334,-2.56434 2.93334,-3.25448 2.93332,-3.89874 2.93335,-4.49167 2.93332,-5.02845 2.93332,-5.50483 2.93335,-5.91735 2.93335,-6.26314 2.93332,-6.54013 2.93332,-6.74695 2.93335,-6.88292 2.93335,-6.94811 2.93332,-6.94328 2.93332,-6.86986 2.93335,-6.72993 2.93332,-6.52619 2.93334,-6.26194 2.93332,-5.94097 2.93335,-5.56758 2.93332,-5.1465 2.93332,-4.68287 2.93335,-4.18207 2.93332,-3.649846 2.93335,-3.092033 2.93335,-2.514672 2.93332,-1.923881 2.93335,-1.32576 2.93332,-0.726349 2.93332,-0.131638 2.93335,0.452599 2.93332,1.020798 2.93334,1.567649 2.93332,2.088158 2.93335,2.577698 2.93332,3.032066 2.93332,3.447421 2.93335,3.82044 2.93332,4.14832 2.93335,4.42862 2.93335,4.6596 2.93332,4.83991 2.93335,4.96873 2.93332,5.04589 2.93332,5.07159 2.93335,5.0466 2.93332,4.9722 2.93334,4.85008 2.93332,4.68241 2.93335,4.47171 2.93332,4.22096 2.93332,3.93344 2.93335,3.61269 2.93332,3.26254 2.93335,2.88704"
           style="fill:none;stroke:#0072bd;stroke-width:0.66666698;stroke-linecap:butt;stroke-linejoin:round;stroke-miterlimit:10;stroke-dasharray:none;stroke-opacity:1"
           id="path250"
           inkscape:connector-curvature="0" /></g><g
         id="g252"
         transform="scale(5.9939648,6.0027789)"><path
           d="m 59,298 2.933334,-0.74771 2.933335,-2.19653 2.933334,-3.56711 2.933327,-4.84894 2.933334,-6.03302 2.933334,-7.1116 2.933335,-8.07825 2.933334,-8.92786 2.933335,-9.6567 2.933334,-10.26239 2.933334,-10.74382 2.933335,-11.10114 2.933326,-11.33572 2.933339,-11.45008 2.93333,-11.44778 2.93333,-11.33347 2.93334,-11.11264 2.93333,-10.79161 2.93333,-10.3775 2.93333,-9.87794 2.93334,-9.30125 2.93333,-8.65606 2.93334,-7.9514 2.93334,-7.196482 2.93332,-6.400673 2.93333,-5.57338 L 138.2,77.195 l 2.93333,-3.861542 2.93334,-2.995133 2.93333,-2.133354 2.93333,-1.2845 2.93334,-0.456306 2.93333,0.343864 2.93334,1.109284 2.93333,1.833831 2.93332,2.512009 2.93335,3.138985 2.93332,3.710632 2.93335,4.223541 2.93332,4.67495 2.93333,5.062874 2.93334,5.386017 2.93333,5.643688 2.93334,5.83604 2.93333,5.96365 2.93333,6.02787 2.93334,6.0305 2.93333,5.97398 2.93334,5.86118 2.93333,5.69537 2.93332,5.48027 2.93334,5.21997 2.93334,4.91872 2.93334,4.5811 2.93332,4.21187 2.93333,3.81585 2.93334,3.398 2.93333,2.96323 2.93334,2.51649 2.93333,2.06264 2.93333,1.60634 2.93334,1.15225 2.93333,0.70465 2.93334,0.2677 2.93333,-0.15472 2.93332,-0.5591 2.93334,-0.94211 2.93334,-1.30089 2.93332,-1.63286 2.93335,-1.9358 2.93332,-2.20795 2.93332,-2.44775 2.93335,-2.65421 2.93335,-2.82655 2.93332,-2.96448 2.93332,-3.06795 2.93335,-3.1373 2.93335,-3.17321 2.93332,-3.17665 2.93332,-3.14882 2.93335,-3.09125 2.93332,-3.00566 2.93334,-2.89398 2.93332,-2.75835 2.93335,-2.601 2.93332,-2.42438 2.93332,-2.23089 2.93335,-2.02316 2.93332,-1.80379 2.93335,-1.57529 2.93335,-1.34039 2.93332,-1.10153 2.93335,-0.86124 2.93332,-0.62196 2.93332,-0.38597 2.93335,-0.15543 2.93332,0.0676 2.93334,0.28118 2.93332,0.48364 2.93335,0.67343 2.93332,0.84921 2.93332,1.00973 2.93335,1.15412 2.93332,1.2815 2.93335,1.39137 2.93335,1.48328 2.93332,1.55707 2.93335,1.61271 2.93332,1.65036 2.93332,1.67038 2.93335,1.67328 2.93332,1.65964 2.93334,1.63031 2.93332,1.58613 2.93335,1.52817 2.93332,1.45752 2.93332,1.37534 2.93335,1.28293 2.93332,1.18156 2.93335,1.07263"
           style="fill:none;stroke:#d95319;stroke-width:0.66666698;stroke-linecap:butt;stroke-linejoin:round;stroke-miterlimit:10;stroke-dasharray:none;stroke-opacity:1"
           id="path254"
           inkscape:connector-curvature="0" /></g><g
         id="g256"
         transform="scale(5.9939648,6.0027789)"><path
           d="m 59,298 2.933334,-0.73788 2.933335,-2.13047 2.933334,-3.39547 2.933327,-4.53067 2.933334,-5.53504 2.933334,-6.40903 2.933335,-7.15432 2.933334,-7.77362 2.933335,-8.2706 2.933334,-8.65001 2.933334,-8.91718 2.933335,-9.07815 2.933326,-9.13959 2.933339,-9.10855 2.93333,-8.99243 2.93333,-8.79888 2.93334,-8.53572 2.93333,-8.21084 2.93333,-7.8321 2.93333,-7.40725 2.93334,-6.94394 2.93333,-6.44959 2.93334,-5.93129 2.93334,-5.39592 2.93332,-4.84984 2.93333,-4.29923 2.93334,-3.74965 2.93333,-3.20632 2.93334,-2.67395 2.93333,-2.15688 2.93333,-1.65881 2.93334,-1.18313 2.93333,-0.73265 2.93334,-0.30977 2.93333,0.0836 2.93332,0.44587 2.93335,0.77602 2.93332,1.07334 2.93335,1.33749 2.93332,1.56852 2.93333,1.76667 2.93334,1.93268 2.93333,2.06732 2.93334,2.1718 2.93333,2.24736 2.93333,2.29555 2.93334,2.31797 2.93333,2.31643 2.93334,2.29277 2.93333,2.24887 2.93332,2.1868 2.93334,2.10847 2.93334,2.01593 2.93334,1.91117 2.93332,1.79606 2.93333,1.6726 2.93334,1.54254 2.93333,1.40768 2.93334,1.26969 2.93333,1.13009 2.93333,0.99037 2.93334,0.8519 2.93333,0.7159 2.93334,0.58345 2.93333,0.45561 2.93332,0.33321 2.93334,0.21702 2.93334,0.1077 2.93332,0.006 2.93335,-0.0885 2.93332,-0.17454 2.93332,-0.25234 2.93335,-0.32171 2.93335,-0.38271 2.93332,-0.4353 2.93332,-0.47968 2.93335,-0.51602 2.93335,-0.54466 2.93332,-0.56583 2.93332,-0.57994 2.93335,-0.58742 2.93332,-0.58867 2.93334,-0.58416 2.93332,-0.5744 2.93335,-0.55988 2.93332,-0.54109 2.93332,-0.51856 2.93335,-0.49275 2.93332,-0.46423 2.93335,-0.43344 2.93335,-0.40085 2.93332,-0.3669 2.93335,-0.33206 2.93332,-0.29671 2.93332,-0.26121 2.93335,-0.22594 2.93332,-0.19122 2.93334,-0.15732 2.93332,-0.12451 2.93335,-0.0931 2.93332,-0.0631 2.93332,-0.0349 2.93335,-0.008 2.93332,0.016 2.93335,0.0384 2.93335,0.0588 2.93332,0.077 2.93335,0.0931 2.93332,0.107 2.93332,0.11885 2.93335,0.12861 2.93332,0.13642 2.93334,0.14233 2.93332,0.14638 2.93335,0.14874 2.93332,0.14948 2.93332,0.14872 2.93335,0.14663 2.93332,0.14325 L 411,145.7925"
           style="fill:none;stroke:#edb120;stroke-width:0.66666698;stroke-linecap:butt;stroke-linejoin:round;stroke-miterlimit:10;stroke-dasharray:none;stroke-opacity:1"
           id="path258"
           inkscape:connector-curvature="0" /></g><g
         id="g260"
         transform="scale(5.9939648,6.0027789)"><path
           d="m 59,298 2.933334,-0.72354 2.933335,-2.03641 2.933334,-3.15872 2.933327,-4.10498 2.933334,-4.88934 2.933334,-5.52567 2.933335,-6.02731 2.933334,-6.40726 2.933335,-6.6778 2.933334,-6.85072 2.933334,-6.93722 2.933335,-6.9477 2.933326,-6.89206 2.933339,-6.77942 2.93333,-6.61827 2.93333,-6.41648 2.93334,-6.18122 2.93333,-5.91908 2.93333,-5.63597 2.93333,-5.33733 2.93334,-5.02791 2.93333,-4.71205 2.93334,-4.39351 2.93334,-4.07563 2.93332,-3.76128 2.93333,-3.45291 2.93334,-3.15267 2.93333,-2.86222 2.93334,-2.58304 2.93333,-2.31626 2.93333,-2.06273 2.93334,-1.82308 2.93333,-1.59774 2.93334,-1.38696 2.93333,-1.19078 2.93332,-1.00911 2.93335,-0.84178 2.93332,-0.68845 2.93335,-0.54875 2.93332,-0.42216 2.93333,-0.3082 2.93334,-0.20624 2.93333,-0.11568 2.93334,-0.0359 2.93333,0.0338 2.93333,0.0942 2.93334,0.14569 2.93333,0.18913 2.93334,0.22514 2.93333,0.25435 2.93332,0.27736 2.93334,0.29479 2.93334,0.30719 2.93334,0.3151 2.93332,0.31904 2.93333,0.31951 2.93334,0.31691 2.93333,0.31171 2.93334,0.30429 2.93333,0.295 2.93333,0.28415 2.93334,0.27211 2.93333,0.25906 2.93334,0.24532 2.93333,0.23109 2.93332,0.21657 2.93334,0.20192 2.93334,0.1873 2.93332,0.17285 2.93335,0.15866 2.93332,0.14487 2.93332,0.13152 2.93335,0.11866 2.93335,0.10643 2.93332,0.0948 2.93332,0.0837 2.93335,0.0734 2.93335,0.0637 2.93332,0.0547 2.93332,0.0463 2.93335,0.0387 2.93332,0.0316 2.93334,0.0252 2.93332,0.0194 2.93335,0.0141 2.93332,0.009 2.93332,0.005 2.93335,0.002 2.93332,-0.002 2.93335,-0.004 2.93335,-0.007 2.93332,-0.009 2.93335,-0.0104 2.93332,-0.0117 2.93332,-0.0127 2.93335,-0.0136 2.93332,-0.0141 2.93334,-0.0145 2.93332,-0.0147 2.93335,-0.0147 2.93332,-0.0146 2.93332,-0.0143 2.93335,-0.014 2.93332,-0.0136 2.93335,-0.0131 2.93335,-0.0125 2.93332,-0.0119 2.93335,-0.0113 2.93332,-0.0106 2.93332,-0.01 2.93335,-0.009 2.93332,-0.009 2.93334,-0.008 2.93332,-0.007 2.93335,-0.007 2.93332,-0.006 2.93332,-0.005 2.93335,-0.005 2.93332,-0.004 2.93335,-0.004"
           style="fill:none;stroke:#7e2f8e;stroke-width:0.66666698;stroke-linecap:butt;stroke-linejoin:round;stroke-miterlimit:10;stroke-dasharray:none;stroke-opacity:1"
           id="path262"
           inkscape:connector-curvature="0" /></g><g
         id="g264"
         transform="scale(5.9939648,6.0027789)"><path
           d="m 59,298 2.933334,-0.70963 2.933335,-1.94805 2.933334,-2.94434 2.933327,-3.73337 2.933334,-4.34555 2.933334,-4.80743 2.933335,-5.14206 2.933334,-5.36942 2.933335,-5.50699 2.933334,-5.56973 2.933334,-5.57066 2.933335,-5.52097 2.933326,-5.4303 2.933339,-5.30686 2.93333,-5.1578 2.93333,-4.98898 2.93334,-4.80562 2.93333,-4.61198 2.93333,-4.41165 2.93333,-4.20772 2.93334,-4.00263 2.93333,-3.79846 2.93334,-3.59692 2.93334,-3.39932 2.93332,-3.20678 2.93333,-3.02008 2.93334,-2.83987 2.93333,-2.66663 2.93334,-2.50064 2.93333,-2.34207 2.93333,-2.19105 2.93334,-2.04758 2.93333,-1.91155 2.93334,-1.78288 2.93333,-1.66139 2.93332,-1.54685 2.93335,-1.4391 2.93332,-1.33783 2.93335,-1.24281 2.93332,-1.15376 2.93333,-1.07039 2.93334,-0.99245 2.93333,-0.91966 2.93334,-0.85172 2.93333,-0.78839 2.93333,-0.72938 2.93334,-0.6745 2.93333,-0.62343 2.93334,-0.57599 2.93333,-0.53192 2.93332,-0.49103 2.93334,-0.45309 2.93334,-0.41794 2.93334,-0.38538 2.93332,-0.35521 2.93333,-0.32731 2.93334,-0.3015 2.93333,-0.27765 2.93334,-0.25559 2.93333,-0.23522 2.93333,-0.21642 2.93334,-0.19905 2.93333,-0.18305 2.93334,-0.16827 2.93333,-0.15466 2.93332,-0.14211 2.93334,-0.13055 2.93334,-0.11991 2.93332,-0.11009 2.93335,-0.10107 2.93332,-0.0928 2.93332,-0.0851 2.93335,-0.0781 2.93335,-0.0716 2.93332,-0.0657 2.93332,-0.0603 2.93335,-0.0553 2.93335,-0.0506 2.93332,-0.0464 2.93332,-0.0425 2.93335,-0.039 2.93332,-0.0357 2.93334,-0.0327 2.93332,-0.03 2.93335,-0.0274 2.93332,-0.0251 2.93332,-0.023 2.93335,-0.021 2.93332,-0.0192 2.93335,-0.0176 2.93335,-0.0161 2.93332,-0.0147 2.93335,-0.0135 2.93332,-0.0123 2.93332,-0.0113 2.93335,-0.0103 2.93332,-0.009 2.93334,-0.009 2.93332,-0.008 2.93335,-0.007 2.93332,-0.007 2.93332,-0.006 2.93335,-0.005 2.93332,-0.005 2.93335,-0.005 2.93335,-0.004 2.93332,-0.004 2.93335,-0.004 2.93332,-0.003 2.93332,-0.003 2.93335,-0.003 2.93332,-0.002 2.93334,-0.002 2.93332,-0.002 2.93335,-0.002 2.93332,-0.002 2.93332,-0.002 2.93335,-10e-4 2.93332,-0.001 2.93335,-0.001"
           style="fill:none;stroke:#77ac30;stroke-width:0.66666698;stroke-linecap:butt;stroke-linejoin:round;stroke-miterlimit:10;stroke-dasharray:none;stroke-opacity:1"
           id="path266"
           inkscape:connector-curvature="0" /></g><g
         id="g268"
         transform="scale(5.9939648,6.0027789)"><path
           d="m 59,298 2.933334,-0.66605 2.933335,-1.68997 2.933334,-2.36239 2.933327,-2.79374 2.933334,-3.05981 2.933334,-3.21298 2.933335,-3.28922 2.933334,-3.3132 2.933335,-3.30203 2.933334,-3.26734 2.933334,-3.21713 2.933335,-3.15704 2.933326,-3.09073 2.933339,-3.02084 2.93333,-2.94913 2.93333,-2.87676 2.93334,-2.80453 2.93333,-2.73306 2.93333,-2.66263 2.93333,-2.59348 2.93334,-2.52578 2.93333,-2.45961 2.93334,-2.39498 2.93334,-2.33195 2.93332,-2.27048 2.93333,-2.21059 2.93334,-2.15225 2.93333,-2.09538 2.93334,-2.04006 2.93333,-1.98613 2.93333,-1.93364 2.93334,-1.88253 2.93333,-1.83277 2.93334,-1.78433 2.93333,-1.73714 2.93332,-1.69122 2.93335,-1.64651 2.93332,-1.60299 2.93335,-1.56059 2.93332,-1.51935 2.93333,-1.47917 2.93334,-1.44006 2.93333,-1.40199 2.93334,-1.36492 2.93333,-1.32884 2.93333,-1.2937 2.93334,-1.25949 2.93333,-1.2262 2.93334,-1.19379 2.93333,-1.1622 2.93332,-1.1315 2.93334,-1.10156 2.93334,-1.07245 2.93334,-1.0441 2.93332,-1.01649 2.93333,-0.98961 2.93334,-0.96344 2.93333,-0.93797 2.93334,-0.91318 2.93333,-0.88904 2.93333,-0.86554 2.93334,-0.84263 2.93333,-0.82036 2.93334,-0.79868 2.93333,-0.77757 2.93332,-0.75699 2.93334,-0.73698 2.93334,-0.7175 2.93332,-0.69853 2.93335,-0.68007 2.93332,-0.66208 2.93332,-0.64458 2.93335,-0.62755 2.93335,-0.61093 2.93332,-0.5948 2.93332,-0.57906 2.93335,-0.56376 2.93335,-0.54885 2.93332,-0.53433 2.93332,-0.52022 2.93335,-0.50645 2.93332,-0.49307 2.93334,-0.48003 2.93332,-0.46735 2.93335,-0.45498 2.93332,-0.44295 2.93332,-0.43124 2.93335,-0.41985 2.93332,-0.40874 2.93335,-0.39793 2.93335,-0.38741 2.93332,-0.37718 2.93335,-0.36719 2.93332,-0.35749 2.93332,-0.34804 2.93335,-0.33884 2.93332,-0.32988 2.93334,-0.32115 2.93332,-0.31267 2.93335,-0.3044 2.93332,-0.29634 2.93332,-0.28853 2.93335,-0.28088 2.93332,-0.27345 2.93335,-0.26624 2.93335,-0.25918 2.93332,-0.25234 2.93335,-0.24568 2.93332,-0.23917 2.93332,-0.23284 2.93335,-0.2267 2.93332,-0.22069 2.93334,-0.21486 2.93332,-0.2092 2.93335,-0.20364 2.93332,-0.19828 2.93332,-0.19302 2.93335,-0.18793 2.93332,-0.18295 L 411,152.89207"
           style="fill:none;stroke:#4dbeee;stroke-width:0.66666698;stroke-linecap:butt;stroke-linejoin:round;stroke-miterlimit:10;stroke-dasharray:none;stroke-opacity:1"
           id="path270"
           inkscape:connector-curvature="0" /></g><g
         id="g272"
         transform="scale(5.9939648,6.0027789)"><path
           d="M 59,146.33333 H 411"
           style="fill:none;stroke:#000000;stroke-width:0.66666698;stroke-linecap:butt;stroke-linejoin:round;stroke-miterlimit:10;stroke-dasharray:none;stroke-opacity:1"
           id="path274"
           inkscape:connector-curvature="0" /></g><g
         id="g276"
         transform="scale(5.9939648,6.0027789)"><path
           d="m 304,285 v -97 h 94 v 97 z"
           style="fill:#ffffff;fill-opacity:1;fill-rule:nonzero;stroke:none"
           id="path278"
           inkscape:connector-curvature="0" /></g><g
         id="g280"
         transform="matrix(5.9939648,0,0,6.0027789,2103.8816,1218.5641)"><path
           d="M 2.125,1.875 C 2.1458333,1.78125 2.203125,1.734375 2.296875,1.734375 2.3072917,1.734375 2.375,1.7734375 2.5,1.8515625 2.625,1.9296875 2.7552083,2 2.890625,2.0625 3.0260417,2.125 3.1770833,2.15625 3.34375,2.15625 c 0.1770833,0 0.3229167,-0.080729 0.4375,-0.2421875 C 3.8958333,1.7526042 3.953125,1.578125 3.953125,1.390625 3.953125,1.2135417 3.8932292,1.0598958 3.7734375,0.9296875 3.6536458,0.79947917 3.5,0.703125 3.3125,0.640625 L 2.09375,0.234375 c -0.5,-0.17708333 -0.8828125,-0.453125 -1.1484375,-0.828125 -0.265625,-0.375 -0.3984375,-0.8333333 -0.3984375,-1.375 0,-0.4583333 0.0833333,-0.9479167 0.25,-1.46875 0.16666667,-0.5208333 0.3958333,-1.0234375 0.6875,-1.5078125 0.2916667,-0.484375 0.6302083,-0.921875 1.015625,-1.3125 0.3854167,-0.390625 0.7864583,-0.6953125 1.203125,-0.9140625 -0.083333,-0.15625 -0.125,-0.34375 -0.125,-0.5625 0,-0.4375 0.083333,-0.65625 0.25,-0.65625 0.041667,0 0.078125,0.015625 0.109375,0.046875 0.03125,0.03125 0.046875,0.067708 0.046875,0.109375 0,0.0625 -0.010417,0.1536458 -0.03125,0.2734375 -0.020833,0.1197917 -0.03125,0.1953125 -0.03125,0.2265625 0,0.1458333 0.026042,0.2864583 0.078125,0.421875 0.2083333,-0.083333 0.4010417,-0.125 0.578125,-0.125 0.7291667,0 1.09375,0.1145833 1.09375,0.34375 0,0.2708333 -0.40625,0.40625 -1.21875,0.40625 -0.2395833,0 -0.4322917,-0.072917 -0.578125,-0.21875 -0.34375,0.1979167 -0.6744792,0.4713542 -0.9921875,0.8203125 -0.3177083,0.3489583 -0.5989583,0.7421875 -0.84375,1.1796875 -0.2447917,0.4375 -0.4348958,0.8802083 -0.5703125,1.328125 -0.1354167,0.4479167 -0.203125,0.875 -0.203125,1.28125 0,0.8541667 0.390625,1.421875 1.171875,1.703125 l 1.28125,0.421875 C 3.9895833,-0.08854167 4.2109375,0.0546875 4.3828125,0.2578125 4.5546875,0.4609375 4.640625,0.70833333 4.640625,1 c 0,0.2291667 -0.059896,0.4583333 -0.1796875,0.6875 C 4.3411458,1.9166667 4.1822917,2.1041667 3.984375,2.25 3.7864583,2.3958333 3.5677083,2.46875 3.328125,2.46875 c -0.1979167,0 -0.4479167,-0.065104 -0.75,-0.1953125 C 2.2760417,2.1432292 2.125,2.0104167 2.125,1.875 Z m 2.09375,-8.9375 c -0.010417,0 0.020833,0.015625 0.09375,0.046875 0.041667,0 0.072917,0.0026 0.09375,0.00781 C 4.4270833,-7.0026042 4.453125,-7 4.484375,-7 c 0.375,0 0.6458333,-0.020833 0.8125,-0.0625 -0.1458333,-0.03125 -0.3854167,-0.046875 -0.71875,-0.046875 -0.1145833,0 -0.234375,0.015625 -0.359375,0.046875 z"
           style="fill:#000000;fill-opacity:1;fill-rule:nonzero;stroke:none"
           id="path282"
           inkscape:connector-curvature="0" /></g><g
         id="g284"><g
           id="g286"
           transform="matrix(5.9939648,0,0,6.0027789,2139.8454,1218.5641)"><text
   transform="translate(3.336)"
   style="font-variant:normal;font-weight:normal;font-size:12px;font-family:Helvetica;-inkscape-font-specification:Helvetica;writing-mode:lr-tb;fill:#000000;fill-opacity:1;fill-rule:nonzero;stroke:none"
   id="text290"><tspan
     x="0 7.0079999 10.344 17.016001 20.351999"
     y="0"
     sodipodi:role="line"
     id="tspan288">= 0.1</tspan></text>

</g></g><g
         id="g292"
         transform="scale(5.9939648,6.0027789)"><path
           d="m 308,197.54922 h 40"
           style="fill:none;stroke:#0072bd;stroke-width:0.66666698;stroke-linecap:butt;stroke-linejoin:round;stroke-miterlimit:10;stroke-dasharray:none;stroke-opacity:1"
           id="path294"
           inkscape:connector-curvature="0" /></g><g
         id="g296"
         transform="matrix(5.9939648,0,0,6.0027789,2103.8816,1308.6058)"><path
           d="M 2.125,1.875 C 2.1458333,1.78125 2.203125,1.734375 2.296875,1.734375 2.3072917,1.734375 2.375,1.7734375 2.5,1.8515625 2.625,1.9296875 2.7552083,2 2.890625,2.0625 3.0260417,2.125 3.1770833,2.15625 3.34375,2.15625 c 0.1770833,0 0.3229167,-0.080729 0.4375,-0.2421875 C 3.8958333,1.7526042 3.953125,1.578125 3.953125,1.390625 3.953125,1.2135417 3.8932292,1.0598958 3.7734375,0.9296875 3.6536458,0.79947917 3.5,0.703125 3.3125,0.640625 L 2.09375,0.234375 c -0.5,-0.17708333 -0.8828125,-0.453125 -1.1484375,-0.828125 -0.265625,-0.375 -0.3984375,-0.8333333 -0.3984375,-1.375 0,-0.4583333 0.0833333,-0.9479167 0.25,-1.46875 0.16666667,-0.5208333 0.3958333,-1.0234375 0.6875,-1.5078125 0.2916667,-0.484375 0.6302083,-0.921875 1.015625,-1.3125 0.3854167,-0.390625 0.7864583,-0.6953125 1.203125,-0.9140625 -0.083333,-0.15625 -0.125,-0.34375 -0.125,-0.5625 0,-0.4375 0.083333,-0.65625 0.25,-0.65625 0.041667,0 0.078125,0.015625 0.109375,0.046875 0.03125,0.03125 0.046875,0.067708 0.046875,0.109375 0,0.0625 -0.010417,0.1536458 -0.03125,0.2734375 -0.020833,0.1197917 -0.03125,0.1953125 -0.03125,0.2265625 0,0.1458333 0.026042,0.2864583 0.078125,0.421875 0.2083333,-0.083333 0.4010417,-0.125 0.578125,-0.125 0.7291667,0 1.09375,0.1145833 1.09375,0.34375 0,0.2708333 -0.40625,0.40625 -1.21875,0.40625 -0.2395833,0 -0.4322917,-0.072917 -0.578125,-0.21875 -0.34375,0.1979167 -0.6744792,0.4713542 -0.9921875,0.8203125 -0.3177083,0.3489583 -0.5989583,0.7421875 -0.84375,1.1796875 -0.2447917,0.4375 -0.4348958,0.8802083 -0.5703125,1.328125 -0.1354167,0.4479167 -0.203125,0.875 -0.203125,1.28125 0,0.8541667 0.390625,1.421875 1.171875,1.703125 l 1.28125,0.421875 C 3.9895833,-0.08854167 4.2109375,0.0546875 4.3828125,0.2578125 4.5546875,0.4609375 4.640625,0.70833333 4.640625,1 c 0,0.2291667 -0.059896,0.4583333 -0.1796875,0.6875 C 4.3411458,1.9166667 4.1822917,2.1041667 3.984375,2.25 3.7864583,2.3958333 3.5677083,2.46875 3.328125,2.46875 c -0.1979167,0 -0.4479167,-0.065104 -0.75,-0.1953125 C 2.2760417,2.1432292 2.125,2.0104167 2.125,1.875 Z m 2.09375,-8.9375 c -0.010417,0 0.020833,0.015625 0.09375,0.046875 0.041667,0 0.072917,0.0026 0.09375,0.00781 C 4.4270833,-7.0026042 4.453125,-7 4.484375,-7 c 0.375,0 0.6458333,-0.020833 0.8125,-0.0625 -0.1458333,-0.03125 -0.3854167,-0.046875 -0.71875,-0.046875 -0.1145833,0 -0.234375,0.015625 -0.359375,0.046875 z"
           style="fill:#000000;fill-opacity:1;fill-rule:nonzero;stroke:none"
           id="path298"
           inkscape:connector-curvature="0" /></g><g
         id="g300"><g
           id="g302"
           transform="matrix(5.9939648,0,0,6.0027789,2139.8454,1308.6058)"><text
   transform="translate(3.336)"
   style="font-variant:normal;font-weight:normal;font-size:12px;font-family:Helvetica;-inkscape-font-specification:Helvetica;writing-mode:lr-tb;fill:#000000;fill-opacity:1;fill-rule:nonzero;stroke:none"
   id="text306"><tspan
     x="0 7.0079999 10.344 17.016001 20.351999"
     y="0"
     sodipodi:role="line"
     id="tspan304">= 0.2</tspan></text>

</g></g><g
         id="g308"
         transform="scale(5.9939648,6.0027789)"><path
           d="m 308,213.12953 h 40"
           style="fill:none;stroke:#d95319;stroke-width:0.66666698;stroke-linecap:butt;stroke-linejoin:round;stroke-miterlimit:10;stroke-dasharray:none;stroke-opacity:1"
           id="path310"
           inkscape:connector-curvature="0" /></g><g
         id="g312"
         transform="matrix(5.9939648,0,0,6.0027789,2103.8816,1404.6503)"><path
           d="M 2.125,1.875 C 2.1458333,1.78125 2.203125,1.734375 2.296875,1.734375 2.3072917,1.734375 2.375,1.7734375 2.5,1.8515625 2.625,1.9296875 2.7552083,2 2.890625,2.0625 3.0260417,2.125 3.1770833,2.15625 3.34375,2.15625 c 0.1770833,0 0.3229167,-0.080729 0.4375,-0.2421875 C 3.8958333,1.7526042 3.953125,1.578125 3.953125,1.390625 3.953125,1.2135417 3.8932292,1.0598958 3.7734375,0.9296875 3.6536458,0.79947917 3.5,0.703125 3.3125,0.640625 L 2.09375,0.234375 c -0.5,-0.17708333 -0.8828125,-0.453125 -1.1484375,-0.828125 -0.265625,-0.375 -0.3984375,-0.8333333 -0.3984375,-1.375 0,-0.4583333 0.0833333,-0.9479167 0.25,-1.46875 0.16666667,-0.5208333 0.3958333,-1.0234375 0.6875,-1.5078125 0.2916667,-0.484375 0.6302083,-0.921875 1.015625,-1.3125 0.3854167,-0.390625 0.7864583,-0.6953125 1.203125,-0.9140625 -0.083333,-0.15625 -0.125,-0.34375 -0.125,-0.5625 0,-0.4375 0.083333,-0.65625 0.25,-0.65625 0.041667,0 0.078125,0.015625 0.109375,0.046875 0.03125,0.03125 0.046875,0.067708 0.046875,0.109375 0,0.0625 -0.010417,0.1536458 -0.03125,0.2734375 -0.020833,0.1197917 -0.03125,0.1953125 -0.03125,0.2265625 0,0.1458333 0.026042,0.2864583 0.078125,0.421875 0.2083333,-0.083333 0.4010417,-0.125 0.578125,-0.125 0.7291667,0 1.09375,0.1145833 1.09375,0.34375 0,0.2708333 -0.40625,0.40625 -1.21875,0.40625 -0.2395833,0 -0.4322917,-0.072917 -0.578125,-0.21875 -0.34375,0.1979167 -0.6744792,0.4713542 -0.9921875,0.8203125 -0.3177083,0.3489583 -0.5989583,0.7421875 -0.84375,1.1796875 -0.2447917,0.4375 -0.4348958,0.8802083 -0.5703125,1.328125 -0.1354167,0.4479167 -0.203125,0.875 -0.203125,1.28125 0,0.8541667 0.390625,1.421875 1.171875,1.703125 l 1.28125,0.421875 C 3.9895833,-0.08854167 4.2109375,0.0546875 4.3828125,0.2578125 4.5546875,0.4609375 4.640625,0.70833333 4.640625,1 c 0,0.2291667 -0.059896,0.4583333 -0.1796875,0.6875 C 4.3411458,1.9166667 4.1822917,2.1041667 3.984375,2.25 3.7864583,2.3958333 3.5677083,2.46875 3.328125,2.46875 c -0.1979167,0 -0.4479167,-0.065104 -0.75,-0.1953125 C 2.2760417,2.1432292 2.125,2.0104167 2.125,1.875 Z m 2.09375,-8.9375 c -0.010417,0 0.020833,0.015625 0.09375,0.046875 0.041667,0 0.072917,0.0026 0.09375,0.00781 C 4.4270833,-7.0026042 4.453125,-7 4.484375,-7 c 0.375,0 0.6458333,-0.020833 0.8125,-0.0625 -0.1458333,-0.03125 -0.3854167,-0.046875 -0.71875,-0.046875 -0.1145833,0 -0.234375,0.015625 -0.359375,0.046875 z"
           style="fill:#000000;fill-opacity:1;fill-rule:nonzero;stroke:none"
           id="path314"
           inkscape:connector-curvature="0" /></g><g
         id="g316"><g
           id="g318"
           transform="matrix(5.9939648,0,0,6.0027789,2139.8454,1404.6503)"><text
   transform="translate(3.336)"
   style="font-variant:normal;font-weight:normal;font-size:12px;font-family:Helvetica;-inkscape-font-specification:Helvetica;writing-mode:lr-tb;fill:#000000;fill-opacity:1;fill-rule:nonzero;stroke:none"
   id="text322"><tspan
     x="0 7.0079999 10.344 17.016001 20.351999"
     y="0"
     sodipodi:role="line"
     id="tspan320">= 0.4</tspan></text>

</g></g><g
         id="g324"
         transform="scale(5.9939648,6.0027789)"><path
           d="m 308,228.70984 h 40"
           style="fill:none;stroke:#edb120;stroke-width:0.66666698;stroke-linecap:butt;stroke-linejoin:round;stroke-miterlimit:10;stroke-dasharray:none;stroke-opacity:1"
           id="path326"
           inkscape:connector-curvature="0" /></g><g
         id="g328"
         transform="matrix(5.9939648,0,0,6.0027789,2103.8816,1494.6919)"><path
           d="M 2.125,1.875 C 2.1458333,1.78125 2.203125,1.734375 2.296875,1.734375 2.3072917,1.734375 2.375,1.7734375 2.5,1.8515625 2.625,1.9296875 2.7552083,2 2.890625,2.0625 3.0260417,2.125 3.1770833,2.15625 3.34375,2.15625 c 0.1770833,0 0.3229167,-0.080729 0.4375,-0.2421875 C 3.8958333,1.7526042 3.953125,1.578125 3.953125,1.390625 3.953125,1.2135417 3.8932292,1.0598958 3.7734375,0.9296875 3.6536458,0.79947917 3.5,0.703125 3.3125,0.640625 L 2.09375,0.234375 c -0.5,-0.17708333 -0.8828125,-0.453125 -1.1484375,-0.828125 -0.265625,-0.375 -0.3984375,-0.8333333 -0.3984375,-1.375 0,-0.4583333 0.0833333,-0.9479167 0.25,-1.46875 0.16666667,-0.5208333 0.3958333,-1.0234375 0.6875,-1.5078125 0.2916667,-0.484375 0.6302083,-0.921875 1.015625,-1.3125 0.3854167,-0.390625 0.7864583,-0.6953125 1.203125,-0.9140625 -0.083333,-0.15625 -0.125,-0.34375 -0.125,-0.5625 0,-0.4375 0.083333,-0.65625 0.25,-0.65625 0.041667,0 0.078125,0.015625 0.109375,0.046875 0.03125,0.03125 0.046875,0.067708 0.046875,0.109375 0,0.0625 -0.010417,0.1536458 -0.03125,0.2734375 -0.020833,0.1197917 -0.03125,0.1953125 -0.03125,0.2265625 0,0.1458333 0.026042,0.2864583 0.078125,0.421875 0.2083333,-0.083333 0.4010417,-0.125 0.578125,-0.125 0.7291667,0 1.09375,0.1145833 1.09375,0.34375 0,0.2708333 -0.40625,0.40625 -1.21875,0.40625 -0.2395833,0 -0.4322917,-0.072917 -0.578125,-0.21875 -0.34375,0.1979167 -0.6744792,0.4713542 -0.9921875,0.8203125 -0.3177083,0.3489583 -0.5989583,0.7421875 -0.84375,1.1796875 -0.2447917,0.4375 -0.4348958,0.8802083 -0.5703125,1.328125 -0.1354167,0.4479167 -0.203125,0.875 -0.203125,1.28125 0,0.8541667 0.390625,1.421875 1.171875,1.703125 l 1.28125,0.421875 C 3.9895833,-0.08854167 4.2109375,0.0546875 4.3828125,0.2578125 4.5546875,0.4609375 4.640625,0.70833333 4.640625,1 c 0,0.2291667 -0.059896,0.4583333 -0.1796875,0.6875 C 4.3411458,1.9166667 4.1822917,2.1041667 3.984375,2.25 3.7864583,2.3958333 3.5677083,2.46875 3.328125,2.46875 c -0.1979167,0 -0.4479167,-0.065104 -0.75,-0.1953125 C 2.2760417,2.1432292 2.125,2.0104167 2.125,1.875 Z m 2.09375,-8.9375 c -0.010417,0 0.020833,0.015625 0.09375,0.046875 0.041667,0 0.072917,0.0026 0.09375,0.00781 C 4.4270833,-7.0026042 4.453125,-7 4.484375,-7 c 0.375,0 0.6458333,-0.020833 0.8125,-0.0625 -0.1458333,-0.03125 -0.3854167,-0.046875 -0.71875,-0.046875 -0.1145833,0 -0.234375,0.015625 -0.359375,0.046875 z"
           style="fill:#000000;fill-opacity:1;fill-rule:nonzero;stroke:none"
           id="path330"
           inkscape:connector-curvature="0" /></g><g
         id="g332"><g
           id="g334"
           transform="matrix(5.9939648,0,0,6.0027789,2139.8454,1494.6919)"><text
   transform="translate(3.336)"
   style="font-variant:normal;font-weight:normal;font-size:12px;font-family:Helvetica;-inkscape-font-specification:Helvetica;writing-mode:lr-tb;fill:#000000;fill-opacity:1;fill-rule:nonzero;stroke:none"
   id="text338"><tspan
     x="0 7.0079999 10.344 17.016001 20.351999"
     y="0"
     sodipodi:role="line"
     id="tspan336">= 0.7</tspan></text>

</g></g><g
         id="g340"
         transform="scale(5.9939648,6.0027789)"><path
           d="m 308,244.29016 h 40"
           style="fill:none;stroke:#7e2f8e;stroke-width:0.66666698;stroke-linecap:butt;stroke-linejoin:round;stroke-miterlimit:10;stroke-dasharray:none;stroke-opacity:1"
           id="path342"
           inkscape:connector-curvature="0" /></g><g
         id="g344"
         transform="matrix(5.9939648,0,0,6.0027789,2103.8816,1590.7364)"><path
           d="M 2.125,1.875 C 2.1458333,1.78125 2.203125,1.734375 2.296875,1.734375 2.3072917,1.734375 2.375,1.7734375 2.5,1.8515625 2.625,1.9296875 2.7552083,2 2.890625,2.0625 3.0260417,2.125 3.1770833,2.15625 3.34375,2.15625 c 0.1770833,0 0.3229167,-0.080729 0.4375,-0.2421875 C 3.8958333,1.7526042 3.953125,1.578125 3.953125,1.390625 3.953125,1.2135417 3.8932292,1.0598958 3.7734375,0.9296875 3.6536458,0.79947917 3.5,0.703125 3.3125,0.640625 L 2.09375,0.234375 c -0.5,-0.17708333 -0.8828125,-0.453125 -1.1484375,-0.828125 -0.265625,-0.375 -0.3984375,-0.8333333 -0.3984375,-1.375 0,-0.4583333 0.0833333,-0.9479167 0.25,-1.46875 0.16666667,-0.5208333 0.3958333,-1.0234375 0.6875,-1.5078125 0.2916667,-0.484375 0.6302083,-0.921875 1.015625,-1.3125 0.3854167,-0.390625 0.7864583,-0.6953125 1.203125,-0.9140625 -0.083333,-0.15625 -0.125,-0.34375 -0.125,-0.5625 0,-0.4375 0.083333,-0.65625 0.25,-0.65625 0.041667,0 0.078125,0.015625 0.109375,0.046875 0.03125,0.03125 0.046875,0.067708 0.046875,0.109375 0,0.0625 -0.010417,0.1536458 -0.03125,0.2734375 -0.020833,0.1197917 -0.03125,0.1953125 -0.03125,0.2265625 0,0.1458333 0.026042,0.2864583 0.078125,0.421875 0.2083333,-0.083333 0.4010417,-0.125 0.578125,-0.125 0.7291667,0 1.09375,0.1145833 1.09375,0.34375 0,0.2708333 -0.40625,0.40625 -1.21875,0.40625 -0.2395833,0 -0.4322917,-0.072917 -0.578125,-0.21875 -0.34375,0.1979167 -0.6744792,0.4713542 -0.9921875,0.8203125 -0.3177083,0.3489583 -0.5989583,0.7421875 -0.84375,1.1796875 -0.2447917,0.4375 -0.4348958,0.8802083 -0.5703125,1.328125 -0.1354167,0.4479167 -0.203125,0.875 -0.203125,1.28125 0,0.8541667 0.390625,1.421875 1.171875,1.703125 l 1.28125,0.421875 C 3.9895833,-0.08854167 4.2109375,0.0546875 4.3828125,0.2578125 4.5546875,0.4609375 4.640625,0.70833333 4.640625,1 c 0,0.2291667 -0.059896,0.4583333 -0.1796875,0.6875 C 4.3411458,1.9166667 4.1822917,2.1041667 3.984375,2.25 3.7864583,2.3958333 3.5677083,2.46875 3.328125,2.46875 c -0.1979167,0 -0.4479167,-0.065104 -0.75,-0.1953125 C 2.2760417,2.1432292 2.125,2.0104167 2.125,1.875 Z m 2.09375,-8.9375 c -0.010417,0 0.020833,0.015625 0.09375,0.046875 0.041667,0 0.072917,0.0026 0.09375,0.00781 C 4.4270833,-7.0026042 4.453125,-7 4.484375,-7 c 0.375,0 0.6458333,-0.020833 0.8125,-0.0625 -0.1458333,-0.03125 -0.3854167,-0.046875 -0.71875,-0.046875 -0.1145833,0 -0.234375,0.015625 -0.359375,0.046875 z"
           style="fill:#000000;fill-opacity:1;fill-rule:nonzero;stroke:none"
           id="path346"
           inkscape:connector-curvature="0" /></g><g
         id="g348"><g
           id="g350"
           transform="matrix(5.9939648,0,0,6.0027789,2139.8454,1590.7364)"><text
   transform="translate(3.336)"
   style="font-variant:normal;font-weight:normal;font-size:12px;font-family:Helvetica;-inkscape-font-specification:Helvetica;writing-mode:lr-tb;fill:#000000;fill-opacity:1;fill-rule:nonzero;stroke:none"
   id="text354"><tspan
     x="0 7.0079999 10.344"
     y="0"
     sodipodi:role="line"
     id="tspan352">= 1</tspan></text>

</g></g><g
         id="g356"
         transform="scale(5.9939648,6.0027789)"><path
           d="m 308,259.87045 h 40"
           style="fill:none;stroke:#77ac30;stroke-width:0.66666698;stroke-linecap:butt;stroke-linejoin:round;stroke-miterlimit:10;stroke-dasharray:none;stroke-opacity:1"
           id="path358"
           inkscape:connector-curvature="0" /></g><g
         id="g360"
         transform="matrix(5.9939648,0,0,6.0027789,2103.8816,1680.7781)"><path
           d="M 2.125,1.875 C 2.1458333,1.78125 2.203125,1.734375 2.296875,1.734375 2.3072917,1.734375 2.375,1.7734375 2.5,1.8515625 2.625,1.9296875 2.7552083,2 2.890625,2.0625 3.0260417,2.125 3.1770833,2.15625 3.34375,2.15625 c 0.1770833,0 0.3229167,-0.080729 0.4375,-0.2421875 C 3.8958333,1.7526042 3.953125,1.578125 3.953125,1.390625 3.953125,1.2135417 3.8932292,1.0598958 3.7734375,0.9296875 3.6536458,0.79947917 3.5,0.703125 3.3125,0.640625 L 2.09375,0.234375 c -0.5,-0.17708333 -0.8828125,-0.453125 -1.1484375,-0.828125 -0.265625,-0.375 -0.3984375,-0.8333333 -0.3984375,-1.375 0,-0.4583333 0.0833333,-0.9479167 0.25,-1.46875 0.16666667,-0.5208333 0.3958333,-1.0234375 0.6875,-1.5078125 0.2916667,-0.484375 0.6302083,-0.921875 1.015625,-1.3125 0.3854167,-0.390625 0.7864583,-0.6953125 1.203125,-0.9140625 -0.083333,-0.15625 -0.125,-0.34375 -0.125,-0.5625 0,-0.4375 0.083333,-0.65625 0.25,-0.65625 0.041667,0 0.078125,0.015625 0.109375,0.046875 0.03125,0.03125 0.046875,0.067708 0.046875,0.109375 0,0.0625 -0.010417,0.1536458 -0.03125,0.2734375 -0.020833,0.1197917 -0.03125,0.1953125 -0.03125,0.2265625 0,0.1458333 0.026042,0.2864583 0.078125,0.421875 0.2083333,-0.083333 0.4010417,-0.125 0.578125,-0.125 0.7291667,0 1.09375,0.1145833 1.09375,0.34375 0,0.2708333 -0.40625,0.40625 -1.21875,0.40625 -0.2395833,0 -0.4322917,-0.072917 -0.578125,-0.21875 -0.34375,0.1979167 -0.6744792,0.4713542 -0.9921875,0.8203125 -0.3177083,0.3489583 -0.5989583,0.7421875 -0.84375,1.1796875 -0.2447917,0.4375 -0.4348958,0.8802083 -0.5703125,1.328125 -0.1354167,0.4479167 -0.203125,0.875 -0.203125,1.28125 0,0.8541667 0.390625,1.421875 1.171875,1.703125 l 1.28125,0.421875 C 3.9895833,-0.08854167 4.2109375,0.0546875 4.3828125,0.2578125 4.5546875,0.4609375 4.640625,0.70833333 4.640625,1 c 0,0.2291667 -0.059896,0.4583333 -0.1796875,0.6875 C 4.3411458,1.9166667 4.1822917,2.1041667 3.984375,2.25 3.7864583,2.3958333 3.5677083,2.46875 3.328125,2.46875 c -0.1979167,0 -0.4479167,-0.065104 -0.75,-0.1953125 C 2.2760417,2.1432292 2.125,2.0104167 2.125,1.875 Z m 2.09375,-8.9375 c -0.010417,0 0.020833,0.015625 0.09375,0.046875 0.041667,0 0.072917,0.0026 0.09375,0.00781 C 4.4270833,-7.0026042 4.453125,-7 4.484375,-7 c 0.375,0 0.6458333,-0.020833 0.8125,-0.0625 -0.1458333,-0.03125 -0.3854167,-0.046875 -0.71875,-0.046875 -0.1145833,0 -0.234375,0.015625 -0.359375,0.046875 z"
           style="fill:#000000;fill-opacity:1;fill-rule:nonzero;stroke:none"
           id="path362"
           inkscape:connector-curvature="0" /></g><g
         id="g364"><g
           id="g366"
           transform="matrix(5.9939648,0,0,6.0027789,2139.8454,1680.7781)"><text
   transform="translate(3.336)"
   style="font-variant:normal;font-weight:normal;font-size:12px;font-family:Helvetica;-inkscape-font-specification:Helvetica;writing-mode:lr-tb;fill:#000000;fill-opacity:1;fill-rule:nonzero;stroke:none"
   id="text370"><tspan
     x="0 7.0079999 10.344"
     y="0"
     sodipodi:role="line"
     id="tspan368">= 2</tspan></text>

</g></g><g
         id="g372"
         transform="scale(5.9939648,6.0027789)"><path
           d="m 308,275.45078 h 40"
           style="fill:none;stroke:#4dbeee;stroke-width:0.66666698;stroke-linecap:butt;stroke-linejoin:round;stroke-miterlimit:10;stroke-dasharray:none;stroke-opacity:1"
           id="path374"
           inkscape:connector-curvature="0" /></g><g
         id="g376"
         transform="scale(5.9939648,6.0027789)"><path
           d="m 304,285 v -97 h 94 v 97 z"
           style="fill:none;stroke:#262626;stroke-width:0.66666698;stroke-linecap:butt;stroke-linejoin:miter;stroke-miterlimit:10;stroke-dasharray:none;stroke-opacity:1"
           id="path378"
           inkscape:connector-curvature="0" /></g></g></g></svg>