<?xml version="1.0" encoding="UTF-8" standalone="no"?>
<!-- Created with Inkscape (http://www.inkscape.org/) -->

<svg
   xmlns:ns1="http://wanglongqi.github.io/WriteTeX"
   xmlns:dc="http://purl.org/dc/elements/1.1/"
   xmlns:cc="http://creativecommons.org/ns#"
   xmlns:rdf="http://www.w3.org/1999/02/22-rdf-syntax-ns#"
   xmlns:svg="http://www.w3.org/2000/svg"
   xmlns="http://www.w3.org/2000/svg"
   xmlns:sodipodi="http://sodipodi.sourceforge.net/DTD/sodipodi-0.dtd"
   xmlns:inkscape="http://www.inkscape.org/namespaces/inkscape"
   version="1.1"
   id="svg2"
   xml:space="preserve"
   width="116.57715mm"
   height="24.658619mm"
   viewBox="0 0 440.60654 93.197931"
   sodipodi:docname="sistprimeiraordemEntradaDegrau.svg"
   inkscape:version="0.92.4 (unknown)"><metadata
     id="metadata8"><rdf:RDF><cc:Work
         rdf:about=""><dc:format>image/svg+xml</dc:format><dc:type
           rdf:resource="http://purl.org/dc/dcmitype/StillImage" /><dc:title></dc:title></cc:Work></rdf:RDF></metadata><defs
     id="defs6"><marker
       inkscape:stockid="Arrow1Lstart"
       orient="auto"
       refY="0"
       refX="0"
       id="Arrow1Lstart"
       style="overflow:visible"
       inkscape:isstock="true"><path
         id="path2189"
         d="M 0,0 5,-5 -12.5,0 5,5 Z"
         style="fill:#ff0000;fill-opacity:1;fill-rule:evenodd;stroke:#ff0000;stroke-width:1.00000003pt;stroke-opacity:1"
         transform="matrix(0.8,0,0,0.8,10,0)"
         inkscape:connector-curvature="0" /></marker><marker
       inkscape:stockid="Arrow1Lend"
       orient="auto"
       refY="0"
       refX="0"
       id="Arrow1Lend"
       style="overflow:visible"
       inkscape:isstock="true"><path
         id="path2192"
         d="M 0,0 5,-5 -12.5,0 5,5 Z"
         style="fill:#ff0000;fill-opacity:1;fill-rule:evenodd;stroke:#ff0000;stroke-width:1.00000003pt;stroke-opacity:1"
         transform="matrix(-0.8,0,0,-0.8,-10,0)"
         inkscape:connector-curvature="0" /></marker><clipPath
       clipPathUnits="userSpaceOnUse"
       id="clipPath40"><path
         d="M 0.559,41.961 H 71.536 V 0.559 H 0.559 Z"
         id="path38"
         inkscape:connector-curvature="0" /></clipPath><clipPath
       clipPathUnits="userSpaceOnUse"
       id="clipPath50"><path
         d="M 0,1 H 72 V 43 H 0 Z"
         id="path48"
         inkscape:connector-curvature="0" /></clipPath><clipPath
       clipPathUnits="userSpaceOnUse"
       id="clipPath80"><path
         d="m 239.875,41.965 h 70.988 V 0.555 h -70.988 z"
         id="path78"
         inkscape:connector-curvature="0" /></clipPath><clipPath
       clipPathUnits="userSpaceOnUse"
       id="clipPath90"><path
         d="m 239,1 h 72 v 42 h -72 z"
         id="path88"
         inkscape:connector-curvature="0" /></clipPath></defs><sodipodi:namedview
     pagecolor="#ffffff"
     bordercolor="#666666"
     borderopacity="1"
     objecttolerance="10"
     gridtolerance="10"
     guidetolerance="10"
     inkscape:pageopacity="0"
     inkscape:pageshadow="2"
     inkscape:window-width="1920"
     inkscape:window-height="1025"
     id="namedview4"
     showgrid="false"
     inkscape:zoom="2.3977599"
     inkscape:cx="204.73528"
     inkscape:cy="28.72988"
     inkscape:window-x="0"
     inkscape:window-y="27"
     inkscape:window-maximized="1"
     inkscape:current-layer="g96"
     units="mm"
     fit-margin-top="0"
     fit-margin-left="0"
     fit-margin-right="0"
     fit-margin-bottom="0" /><g
     id="g10"
     inkscape:groupmode="layer"
     inkscape:label="entradaDegrau"
     transform="matrix(1.3333333,0,0,-1.3333333,25.500457,81.056486)"><g
       id="g12"><g
         id="g14"
         transform="matrix(0.99833901,0,0,-1.2562944,0.25888619,47.703532)"><path
           d="m 128.23,6.102 h 55.266 v 30.32 H 128.23 Z"
           style="fill:none;stroke:#000000;stroke-width:1.5;stroke-linecap:butt;stroke-linejoin:miter;stroke-miterlimit:4;stroke-dasharray:none;stroke-opacity:1"
           id="path16"
           inkscape:connector-curvature="0" /></g><g
         id="g18"
         transform="matrix(1,0,0,-1,0,42.519691)"><path
           d="m 183.688,21.262 h 54.511"
           style="fill:none;stroke:#000000;stroke-width:0.75;stroke-linecap:butt;stroke-linejoin:miter;stroke-miterlimit:4;stroke-dasharray:none;stroke-opacity:1"
           id="path20"
           inkscape:connector-curvature="0" /></g><g
         id="g22"
         transform="matrix(-1,0,0,1,0,42.519691)"><path
           d="m -230.699,-21.262 3,-3 -10.5,3 10.5,3 z"
           style="fill:#000000;fill-opacity:1;fill-rule:evenodd;stroke:#000000;stroke-width:0.80000001;stroke-linecap:butt;stroke-linejoin:miter;stroke-miterlimit:4;stroke-dasharray:none;stroke-opacity:1"
           id="path24"
           inkscape:connector-curvature="0" /></g><g
         id="g26"
         transform="matrix(1,0,0,-1,0,42.519691)"><path
           d="M 71.262,21.262 H 125.73"
           style="fill:none;stroke:#000000;stroke-width:0.75;stroke-linecap:butt;stroke-linejoin:miter;stroke-miterlimit:4;stroke-dasharray:none;stroke-opacity:1"
           id="path28"
           inkscape:connector-curvature="0" /></g><g
         id="g30"
         transform="matrix(-1,0,0,1,0,42.519691)"><path
           d="m -118.23,-21.262 3,-3 -10.5,3 10.5,3 z"
           style="fill:#000000;fill-opacity:1;fill-rule:evenodd;stroke:#000000;stroke-width:0.80000001;stroke-linecap:butt;stroke-linejoin:miter;stroke-miterlimit:4;stroke-dasharray:none;stroke-opacity:1"
           id="path32"
           inkscape:connector-curvature="0" /></g></g><g
       id="g34"><g
         id="g36"
         clip-path="url(#clipPath40)"><g
           id="g42"
           transform="translate(0,-0.480309)"><g
             id="g44"><g
               id="g46"
               clip-path="url(#clipPath50)"><g
                 id="g52"><path
                   d="M 0.559,42.441 H 71.536 V 1.039 H 0.559 Z"
                   style="fill:#ffffff;fill-opacity:1;fill-rule:nonzero;stroke:none"
                   id="path54"
                   inkscape:connector-curvature="0" /></g></g></g></g></g></g><g
       id="g56"><path
         d="M 0.559,41.961 H 71.536 V 0.559 H 0.559 Z"
         style="fill:#ffffff;fill-opacity:1;fill-rule:nonzero;stroke:none"
         id="path58"
         inkscape:connector-curvature="0" /><path
         d="M 9.781,38.836 H 64.812 V 5.09 H 9.781 Z"
         style="fill:#ffffff;fill-opacity:1;fill-rule:nonzero;stroke:none"
         id="path60"
         inkscape:connector-curvature="0" /><g
         id="g62"
         transform="matrix(1,0,0,-0.999371,0,42.519691)"><path
           d="M 9.781,37.453 H 64.812"
           style="fill:none;stroke:#262626;stroke-width:0.55858803;stroke-linecap:square;stroke-linejoin:round;stroke-miterlimit:4;stroke-dasharray:none;stroke-opacity:1"
           id="path64"
           inkscape:connector-curvature="0" /></g><g
         id="g66"
         transform="matrix(1,0,0,-0.999371,0,42.519691)"><path
           d="M 9.781,37.453 V 3.686"
           style="fill:none;stroke:#262626;stroke-width:0.55858803;stroke-linecap:square;stroke-linejoin:round;stroke-miterlimit:4;stroke-dasharray:none;stroke-opacity:1"
           id="path68"
           inkscape:connector-curvature="0" /></g><g
         id="g70"
         transform="matrix(1,0,0,-0.999371,0,42.519691)"><path
           d="M 9.781,34.639 H 20.789 L 20.844,6.5 h 43.968"
           style="fill:none;stroke:#000000;stroke-width:0.55858803;stroke-linecap:butt;stroke-linejoin:round;stroke-miterlimit:4;stroke-dasharray:none;stroke-opacity:1"
           id="path72"
           inkscape:connector-curvature="0" /></g></g><g
       id="g74"><g
         id="g76"
         clip-path="url(#clipPath80)"><g
           id="g82"
           transform="translate(0,-0.480309)"><g
             id="g84"><g
               id="g86"
               clip-path="url(#clipPath90)"><g
                 id="g92"><path
                   d="m 239.875,42.445 h 70.988 V 1.035 h -70.988 z"
                   style="fill:#ffffff;fill-opacity:1;fill-rule:nonzero;stroke:none"
                   id="path94"
                   inkscape:connector-curvature="0" /></g></g></g></g></g></g><g
       id="g96"><path
   d="m 239.875,41.965 h 70.988 V 0.555 h -70.988 z"
   style="fill:#ffffff;fill-opacity:1;fill-rule:nonzero;stroke:none"
   id="path98"
   inkscape:connector-curvature="0" /><path
   d="m 249.102,38.84 h 55.035 V 5.086 h -55.035 z"
   style="fill:#ffffff;fill-opacity:1;fill-rule:nonzero;stroke:none"
   id="path100"
   inkscape:connector-curvature="0" /><g
   id="g102"
   transform="matrix(1,0,0,-0.999371,0,42.519691)"><path
     d="m 249.102,37.457 h 55.035"
     style="fill:none;stroke:#262626;stroke-width:0.55559802;stroke-linecap:square;stroke-linejoin:round;stroke-miterlimit:4;stroke-dasharray:none;stroke-opacity:1"
     id="path104"
     inkscape:connector-curvature="0" /></g><g
   id="g106"
   transform="matrix(1,0,0,-0.999371,0,42.519691)"><path
     d="M 249.102,37.457 V 3.682"
     style="fill:none;stroke:#262626;stroke-width:0.55559802;stroke-linecap:square;stroke-linejoin:round;stroke-miterlimit:4;stroke-dasharray:none;stroke-opacity:1"
     id="path108"
     inkscape:connector-curvature="0" /></g><g
   id="g110"
   transform="matrix(1,0,0,-0.999371,0,42.519691)"><path
     d="m 249.102,34.643 h 11.062 l 0.055,-0.282 0.054,-0.277 0.11,-0.547 0.055,-0.266 0.054,-0.27 0.11,-0.524 0.058,-0.258 0.11,-0.508 0.109,-0.5 0.055,-0.246 0.109,-0.485 0.055,-0.238 0.109,-0.469 0.055,-0.231 0.058,-0.231 0.11,-0.453 0.054,-0.223 0.11,-0.438 0.109,-0.43 0.055,-0.211 0.054,-0.207 0.055,-0.211 0.059,-0.203 0.109,-0.407 0.055,-0.199 0.164,-0.586 0.055,-0.192 0.164,-0.563 0.058,-0.183 0.164,-0.54 0.164,-0.527 0.055,-0.168 0.055,-0.172 0.054,-0.169 0.055,-0.164 0.059,-0.168 0.054,-0.16 0.055,-0.164 0.055,-0.16 0.164,-0.47 0.164,-0.457 0.055,-0.148 0.058,-0.149 0.164,-0.434 0.164,-0.422 0.11,-0.274 0.109,-0.265 0.059,-0.133 0.054,-0.133 0.11,-0.258 0.054,-0.125 0.055,-0.129 0.055,-0.121 0.054,-0.125 0.165,-0.364 0.058,-0.117 0.109,-0.235 0.219,-0.453 0.164,-0.328 0.11,-0.211 0.058,-0.106 0.055,-0.106 0.219,-0.406 0.164,-0.293 0.054,-0.094 0.055,-0.098 0.059,-0.094 0.054,-0.093 0.055,-0.09 0.055,-0.094 0.109,-0.18 0.055,-0.086 0.055,-0.09 0.164,-0.258 0.058,-0.086 0.219,-0.328 0.055,-0.078 0.054,-0.082 0.11,-0.157 0.054,-0.074 0.055,-0.078 0.059,-0.074 0.218,-0.297 0.274,-0.352 0.055,-0.067 0.058,-0.07 0.164,-0.199 0.055,-0.063 0.055,-0.066 0.273,-0.313 0.059,-0.059 0.054,-0.058 0.055,-0.063 0.109,-0.117 0.055,-0.055 0.055,-0.058 0.054,-0.055 0.055,-0.059 0.11,-0.109 0.058,-0.055 0.055,-0.055 0.054,-0.051 0.055,-0.054 0.328,-0.305 0.055,-0.047 0.059,-0.051 0.109,-0.094 0.055,-0.05 0.054,-0.047 0.055,-0.043 0.109,-0.094 0.055,-0.043 0.055,-0.047 0.109,-0.086 0.059,-0.043 0.109,-0.086 0.055,-0.039 0.109,-0.086 0.164,-0.117 0.055,-0.043 0.055,-0.039 0.058,-0.036 0.164,-0.117 0.11,-0.07 0.054,-0.039 0.219,-0.141 0.059,-0.035 0.054,-0.035 0.055,-0.032 0.109,-0.07 0.11,-0.063 0.054,-0.035 0.165,-0.094 0.058,-0.031 0.055,-0.031 0.055,-0.027 0.109,-0.063 0.055,-0.027 0.054,-0.032 0.055,-0.027 0.055,-0.031 0.109,-0.055 0.059,-0.027 0.273,-0.137 0.055,-0.024 0.109,-0.054 0.109,-0.047 0.059,-0.028 0.109,-0.047 0.055,-0.027 0.274,-0.117 0.054,-0.02 0.055,-0.023 0.059,-0.024 0.054,-0.023 0.055,-0.02 0.055,-0.023 0.054,-0.02 0.055,-0.023 0.109,-0.039 0.055,-0.024 0.109,-0.039 0.059,-0.019 0.328,-0.117 0.055,-0.016 0.109,-0.039 0.055,-0.016 0.055,-0.019 0.058,-0.02 0.11,-0.031 0.054,-0.02 0.055,-0.015 0.055,-0.02 0.273,-0.078 0.059,-0.02 0.109,-0.031 0.055,-0.012 0.273,-0.078 0.055,-0.012 0.054,-0.015 0.059,-0.016 0.055,-0.012 0.054,-0.015 0.055,-0.012 0.055,-0.015 0.055,-0.012 0.054,-0.016 0.11,-0.023 0.054,-0.016 0.055,-0.012 0.059,-0.011 0.054,-0.016 0.492,-0.106 0.059,-0.011 0.219,-0.047 0.054,-0.008 0.165,-0.035 0.054,-0.008 0.055,-0.012 0.059,-0.008 0.109,-0.023 0.055,-0.008 0.054,-0.012 0.055,-0.007 0.055,-0.012 0.109,-0.016 0.055,-0.011 0.054,-0.008 0.059,-0.012 0.164,-0.023 0.055,-0.012 0.218,-0.031 0.055,-0.012 0.055,-0.008 0.058,-0.008 0.602,-0.086 0.059,-0.004 0.218,-0.031 0.055,-0.004 0.164,-0.023 0.055,-0.004 0.054,-0.008 0.059,-0.008 0.055,-0.004 0.109,-0.015 0.055,-0.004 0.055,-0.008 0.054,-0.004 0.11,-0.016 0.054,-0.004 0.055,-0.007 0.059,-0.004 0.054,-0.008 0.11,-0.008 0.054,-0.008 0.055,-0.004 0.055,-0.008 0.109,-0.007 0.055,-0.008 0.054,-0.004 0.059,-0.008 0.164,-0.012 0.055,-0.007 0.109,-0.008 0.055,-0.008 0.164,-0.012 0.058,-0.004 0.055,-0.007 0.328,-0.024 0.055,-0.008 0.109,-0.008 0.059,-0.003 0.547,-0.04 0.058,-0.003 0.329,-0.024 h 0.054 l 0.164,-0.012 0.059,-0.004 0.109,-0.007 h 0.055 l 0.273,-0.02 h 0.055 l 0.109,-0.008 0.059,-0.004 h 0.055 l 0.164,-0.011 h 0.054 l 0.165,-0.012 h 0.054 l 0.055,-0.004 0.058,-0.004 h 0.055 l 0.11,-0.008 h 0.054 l 0.11,-0.008 h 0.054 l 0.055,-0.003 h 0.055 l 0.054,-0.004 0.059,-0.004 h 0.055 l 0.054,-0.004 h 0.055 l 0.109,-0.008 h 0.055 l 0.055,-0.004 h 0.054 l 0.055,-0.004 h 0.055 l 0.058,-0.004 0.055,-0.004 h 0.055 l 0.055,-0.004 h 0.054 L 287.297,6.7 h 0.055 l 0.054,-0.004 h 0.055 l 0.055,-0.004 h 0.054 l 0.059,-0.004 h 0.055 l 0.054,-0.004 h 0.055 l 0.055,-0.004 h 0.054 l 0.055,-0.004 h 0.055 l 0.054,-0.004 h 0.11 l 0.058,-0.004 h 0.055 l 0.055,-0.004 h 0.054 l 0.055,-0.004 h 0.109 l 0.055,-0.003 h 0.055 l 0.055,-0.004 h 0.113 l 0.055,-0.004 h 0.054 l 0.055,-0.004 h 0.109 l 0.055,-0.004 h 0.109 l 0.055,-0.004 h 0.055 l 0.054,-0.004 h 0.114 l 0.054,-0.004 h 0.11 l 0.054,-0.004 h 0.11 l 0.055,-0.004 h 0.109 l 0.058,-0.004 h 0.165 l 0.054,-0.003 h 0.11 l 0.054,-0.004 h 0.164 l 0.059,-0.004 h 0.109 l 0.055,-0.004 h 0.164 l 0.055,-0.004 h 0.164 l 0.058,-0.004 h 0.164 l 0.055,-0.004 h 0.164 l 0.055,-0.004 h 0.168 l 0.055,-0.004 h 0.218 l 0.055,-0.004 h 0.219 l 0.058,-0.004 h 0.219 l 0.055,-0.003 h 0.219 l 0.054,-0.004 h 0.278 l 0.054,-0.004 h 0.274 l 0.058,-0.004 h 0.274 l 0.054,-0.004 h 0.332 l 0.055,-0.004 h 0.328 l 0.055,-0.004 h 0.387 l 0.054,-0.004 h 0.442 l 0.054,-0.004 h 0.442 l 0.055,-0.004 h 0.492 l 0.058,-0.004 h 0.606 l 0.054,-0.003 h 0.661 l 0.054,-0.004 h 0.715 l 0.055,-0.004 h 0.937 l 0.055,-0.004 h 1.098 l 0.058,-0.004 h 1.43 l 0.055,-0.004 h 1.539"
     style="fill:none;stroke:#000000;stroke-width:0.55559802;stroke-linecap:butt;stroke-linejoin:round;stroke-miterlimit:4;stroke-dasharray:none;stroke-opacity:1"
     id="path112"
     inkscape:connector-curvature="0" /></g><g
   id="g114"
   transform="matrix(1,0,0,-1.4172027,0,51.063761)"
   style="stroke-width:0.83974493"><path
     d="M 0.559,0.559 H 71.536 V 41.987 H 0.559 Z"
     style="fill:none;stroke:#000017;stroke-width:0.93814206;stroke-linecap:butt;stroke-linejoin:miter;stroke-miterlimit:4;stroke-dasharray:none;stroke-opacity:1"
     id="path116"
     inkscape:connector-curvature="0" /></g><g
   id="g118"
   transform="matrix(1,0,0,-1.4170939,0,51.060292)"
   style="stroke-width:0.83977717"><path
     d="m 239.875,0.555 h 70.988 v 41.436 h -70.988 z"
     style="fill:none;stroke:#000017;stroke-width:0.93315613;stroke-linecap:butt;stroke-linejoin:miter;stroke-miterlimit:4;stroke-dasharray:none;stroke-opacity:1"
     id="path120"
     inkscape:connector-curvature="0" /></g><g
   id="g122"
   transform="matrix(1,0,0,-1,0,42.519691)"><path
     d="m 9.781,37.43 h 57.61"
     style="fill:none;stroke:#000000;stroke-width:0.375;stroke-linecap:butt;stroke-linejoin:miter;stroke-miterlimit:4;stroke-dasharray:none;stroke-opacity:1"
     id="path124"
     inkscape:connector-curvature="0" /></g><g
   id="g126"
   transform="matrix(-1,0,0,1,0,42.519691)"><path
     d="m -63.641,-37.43 1.5,-1.5 -5.25,1.5 5.25,1.5 z"
     style="fill:#000000;fill-opacity:1;fill-rule:evenodd;stroke:#000000;stroke-width:0.40000001;stroke-linecap:butt;stroke-linejoin:miter;stroke-miterlimit:4;stroke-dasharray:none;stroke-opacity:1"
     id="path128"
     inkscape:connector-curvature="0" /></g><g
   id="g130"
   transform="matrix(1,0,0,-1,0,42.519691)"><path
     d="m 249.102,37.434 h 57.605"
     style="fill:none;stroke:#000000;stroke-width:0.375;stroke-linecap:butt;stroke-linejoin:miter;stroke-miterlimit:4;stroke-dasharray:none;stroke-opacity:1"
     id="path132"
     inkscape:connector-curvature="0" /></g><g
   id="g134"
   transform="matrix(-1,0,0,1,0,42.519691)"><path
     d="m -302.957,-37.434 1.5,-1.5 -5.25,1.5 5.25,1.5 z"
     style="fill:#000000;fill-opacity:1;fill-rule:evenodd;stroke:#000000;stroke-width:0.40000001;stroke-linecap:butt;stroke-linejoin:miter;stroke-miterlimit:4;stroke-dasharray:none;stroke-opacity:1"
     id="path136"
     inkscape:connector-curvature="0" /></g><g
   id="g138"
   transform="matrix(1,0,0,-1,0,42.519691)"><path
     d="M 249.102,37.434 V 3.457"
     style="fill:none;stroke:#000000;stroke-width:0.375;stroke-linecap:butt;stroke-linejoin:miter;stroke-miterlimit:4;stroke-dasharray:none;stroke-opacity:1"
     id="path140"
     inkscape:connector-curvature="0" /></g><g
   id="g142"
   transform="matrix(0,-1,-1,0,0,42.519691)"><path
     d="m 7.207,-249.102 1.5,-1.5 -5.25,1.5 5.25,1.5 z"
     style="fill:#000000;fill-opacity:1;fill-rule:evenodd;stroke:#000000;stroke-width:0.40000001;stroke-linecap:butt;stroke-linejoin:miter;stroke-miterlimit:4;stroke-dasharray:none;stroke-opacity:1"
     id="path144"
     inkscape:connector-curvature="0" /></g><g
   id="g146"
   transform="matrix(1,0,0,-1,0,42.519691)"><path
     d="M 9.781,37.43 V 3.453"
     style="fill:none;stroke:#000000;stroke-width:0.375;stroke-linecap:butt;stroke-linejoin:miter;stroke-miterlimit:4;stroke-dasharray:none;stroke-opacity:1"
     id="path148"
     inkscape:connector-curvature="0" /></g><g
   id="g150"
   transform="matrix(0,-1,-1,0,0,42.519691)"><path
     d="m 7.203,-9.781 1.5,-1.5 -5.25,1.5 5.25,1.5 z"
     style="fill:#000000;fill-opacity:1;fill-rule:evenodd;stroke:#000000;stroke-width:0.40000001;stroke-linecap:butt;stroke-linejoin:miter;stroke-miterlimit:4;stroke-dasharray:none;stroke-opacity:1"
     id="path152"
     inkscape:connector-curvature="0" /></g><g
   id="g1479"
   transform="matrix(1.8654872,0,0,-1.8654872,-198.98098,223.08385)"
   ns1:text="\\( \\frac{K_g}{\\tau \\, s + 1} \\)"
   style="stroke-width:1.5195204"><g
     id="surface1"
     style="stroke-width:1.5195204"><g
       id="g1456"
       style="fill:#000000;fill-opacity:1;stroke-width:1.5195204"><path
         id="path1454"
         transform="translate(184.194,105.937)"
         d="M 3.984375,-2.796875 C 3.953125,-2.859375 3.9375,-2.875 3.9375,-2.890625 c 0,-0.015625 0.015625,-0.015625 0.171875,-0.125 l 0.703125,-0.5 c 0.921875,-0.640625 1.359375,-0.953125 1.84375,-1 0.078125,0 0.171875,0 0.171875,-0.140625 0,-0.0625 -0.046875,-0.09375 -0.09375,-0.09375 -0.15625,0 -0.328125,0.015625 -0.484375,0.015625 -0.1875,0 -0.65625,-0.03125 -0.84375,-0.03125 -0.046875,0 -0.140625,0 -0.140625,0.15625 0,0.015625 0,0.09375 0.09375,0.09375 0.09375,0.015625 0.1875,0.03125 0.1875,0.109375 0,0.125 -0.21875,0.28125 -0.3125,0.34375 L 2.328125,-2.015625 2.875,-4.21875 c 0.0625,-0.234375 0.078125,-0.296875 0.609375,-0.296875 0.125,0 0.21875,0 0.21875,-0.140625 0,-0.0625 -0.046875,-0.109375 -0.109375,-0.109375 -0.203125,0 -0.71875,0.03125 -0.921875,0.03125 -0.109375,0 -0.359375,0 -0.484375,0 C 2.0625,-4.75 1.890625,-4.765625 1.75,-4.765625 c -0.03125,0 -0.140625,0 -0.140625,0.15625 0,0.09375 0.078125,0.09375 0.234375,0.09375 0.109375,0 0.140625,0 0.265625,0.015625 0.140625,0.015625 0.15625,0.03125 0.15625,0.109375 0,0 0,0.046875 -0.03125,0.140625 l -0.9375,3.703125 C 1.25,-0.3125 1.234375,-0.25 0.6875,-0.25 c -0.125,0 -0.203125,0 -0.203125,0.15625 0,0 0,0.09375 0.109375,0.09375 0.203125,0 0.703125,-0.03125 0.90625,-0.03125 0.109375,0 0.359375,0 0.484375,0.015625 C 2.125,-0.015625 2.296875,0 2.421875,0 2.46875,0 2.578125,0 2.578125,-0.15625 2.578125,-0.25 2.484375,-0.25 2.34375,-0.25 c 0,0 -0.140625,0 -0.265625,-0.015625 C 1.921875,-0.28125 1.921875,-0.296875 1.921875,-0.375 1.921875,-0.421875 2,-0.6875 2.25,-1.703125 l 1.15625,-0.8125 1.015625,1.953125 c 0.046875,0.09375 0.046875,0.09375 0.046875,0.125 0,0.171875 -0.203125,0.1875 -0.328125,0.1875 -0.078125,0 -0.171875,0 -0.171875,0.15625 0,0 0,0.09375 0.109375,0.09375 C 4.28125,0 4.78125,-0.03125 4.96875,-0.03125 5.1875,-0.03125 5.46875,0 5.65625,0 5.75,0 5.796875,-0.046875 5.796875,-0.140625 5.796875,-0.25 5.703125,-0.25 5.640625,-0.25 c -0.125,0 -0.34375,-0.015625 -0.46875,-0.234375 z m 0,0"
         style="stroke:none;stroke-width:1.5195204"
         inkscape:connector-curvature="0" /></g><g
       id="g1460"
       style="fill:#000000;fill-opacity:1;stroke-width:1.5195204"><path
         id="path1458"
         transform="translate(190.888,106.933)"
         d="m 3.140625,-1.8125 c 0.03125,-0.09375 0.03125,-0.09375 0.03125,-0.109375 0,-0.09375 -0.078125,-0.1875 -0.1875,-0.1875 -0.109375,0 -0.21875,0.078125 -0.25,0.203125 C 2.5625,-2.125 2.359375,-2.203125 2.140625,-2.203125 1.453125,-2.203125 0.75,-1.5625 0.75,-0.859375 0.75,-0.328125 1.140625,0 1.625,0 1.9375,0 2.203125,-0.171875 2.328125,-0.265625 2.3125,-0.21875 2.21875,0.125 2.203125,0.203125 2.15625,0.390625 2.125,0.53125 1.890625,0.6875 1.65625,0.859375 1.4375,0.859375 1.296875,0.859375 1.25,0.859375 0.890625,0.84375 0.890625,0.8125 L 0.90625,0.796875 C 1,0.71875 1.03125,0.609375 1.03125,0.5625 1.03125,0.484375 0.96875,0.359375 0.796875,0.359375 0.640625,0.359375 0.5,0.5 0.5,0.6875 c 0,0.328125 0.5,0.328125 0.796875,0.328125 0.6875,0 1.203125,-0.21875 1.3125,-0.703125 z M 2.4375,-0.703125 c -0.03125,0.078125 -0.03125,0.09375 -0.125,0.1875 -0.1875,0.1875 -0.40625,0.34375 -0.671875,0.34375 -0.1875,0 -0.4375,-0.109375 -0.4375,-0.5 0,-0.1875 0.078125,-0.65625 0.265625,-0.953125 0.140625,-0.21875 0.40625,-0.40625 0.671875,-0.40625 0.40625,0 0.515625,0.390625 0.515625,0.4375 0,0 -0.015625,0.03125 -0.015625,0.0625 z m 0,0"
         style="stroke:none;stroke-width:1.5195204"
         inkscape:connector-curvature="0" /></g><path
       id="path1462"
       transform="matrix(1,0,0,-1,72,72)"
       d="m 107.78125,-36.5 h 19.6875"
       style="fill:none;stroke:#000000;stroke-width:0.60552883;stroke-linecap:butt;stroke-linejoin:miter;stroke-miterlimit:10;stroke-opacity:1"
       inkscape:connector-curvature="0" /><g
       id="g1466"
       style="fill:#000000;fill-opacity:1;stroke-width:1.5195204"><path
         id="path1464"
         transform="translate(179.78,114.426)"
         d="M 2.390625,-2.53125 H 3.6875 c 0.078125,0 0.375,0 0.375,-0.28125 C 4.0625,-3 3.875,-3 3.75,-3 H 1.5625 c -0.203125,0 -0.421875,0.015625 -0.78125,0.34375 -0.203125,0.1875 -0.46875,0.546875 -0.46875,0.609375 0,0.078125 0.09375,0.078125 0.125,0.078125 0.078125,0 0.078125,-0.015625 0.125,-0.078125 C 0.90625,-2.53125 1.34375,-2.53125 1.5,-2.53125 h 0.625 l -0.703125,2.234375 c -0.03125,0.109375 -0.03125,0.109375 -0.03125,0.15625 0,0.1875 0.171875,0.21875 0.234375,0.21875 0.265625,0 0.3125,-0.25 0.328125,-0.34375 z m 0,0"
         style="stroke:none;stroke-width:1.5195204"
         inkscape:connector-curvature="0" /></g><g
       id="g1470"
       style="fill:#000000;fill-opacity:1;stroke-width:1.5195204"><path
         id="path1468"
         transform="translate(185.61568,114.426)"
         d="m 3,-2.625 c -0.171875,0.046875 -0.296875,0.1875 -0.296875,0.328125 0,0.171875 0.140625,0.234375 0.234375,0.234375 0.078125,0 0.34375,-0.046875 0.34375,-0.40625 0,-0.453125 -0.5,-0.609375 -0.9375,-0.609375 -1.078125,0 -1.28125,0.8125 -1.28125,1.015625 0,0.265625 0.15625,0.4375 0.25,0.515625 0.171875,0.140625 0.296875,0.171875 0.78125,0.25 0.15625,0.03125 0.59375,0.109375 0.59375,0.453125 0,0.125 -0.078125,0.390625 -0.359375,0.5625 C 2.046875,-0.125 1.703125,-0.125 1.625,-0.125 1.34375,-0.125 0.953125,-0.1875 0.78125,-0.421875 1.015625,-0.453125 1.171875,-0.625 1.171875,-0.8125 c 0,-0.171875 -0.125,-0.265625 -0.265625,-0.265625 -0.203125,0 -0.40625,0.171875 -0.40625,0.46875 0,0.421875 0.4375,0.671875 1.109375,0.671875 1.296875,0 1.53125,-0.875 1.53125,-1.140625 0,-0.640625 -0.703125,-0.765625 -0.96875,-0.8125 -0.0625,-0.015625 -0.234375,-0.046875 -0.28125,-0.0625 -0.25,-0.046875 -0.375,-0.1875 -0.375,-0.34375 0,-0.15625 0.125,-0.34375 0.28125,-0.453125 0.1875,-0.109375 0.421875,-0.125 0.546875,-0.125 0.140625,0 0.5,0.015625 0.65625,0.25 z m 0,0"
         style="stroke:none;stroke-width:1.5195204"
         inkscape:connector-curvature="0" /></g><g
       id="g1476"
       style="fill:#000000;fill-opacity:1;stroke-width:1.5195204"><path
         id="path1472"
         transform="translate(189.381,114.426)"
         d="m 3.21875,-1.578125 h 2.140625 c 0.09375,0 0.25,0 0.25,-0.15625 0,-0.1875 -0.15625,-0.1875 -0.25,-0.1875 H 3.21875 V -4.0625 c 0,-0.078125 0,-0.25 -0.15625,-0.25 -0.171875,0 -0.171875,0.15625 -0.171875,0.25 v 2.140625 H 0.75 c -0.09375,0 -0.265625,0 -0.265625,0.171875 0,0.171875 0.15625,0.171875 0.265625,0.171875 H 2.890625 V 0.5625 c 0,0.09375 0,0.265625 0.15625,0.265625 0.171875,0 0.171875,-0.171875 0.171875,-0.265625 z m 0,0"
         style="stroke:none;stroke-width:1.5195204"
         inkscape:connector-curvature="0" /><path
         id="path1474"
         transform="translate(195.49702,114.426)"
         d="m 2.328125,-4.4375 c 0,-0.1875 0,-0.1875 -0.203125,-0.1875 -0.453125,0.4375 -1.078125,0.4375 -1.359375,0.4375 v 0.25 c 0.15625,0 0.625,0 1,-0.1875 v 3.546875 c 0,0.234375 0,0.328125 -0.6875,0.328125 H 0.8125 V 0 c 0.125,0 0.984375,-0.03125 1.234375,-0.03125 0.21875,0 1.09375,0.03125 1.25,0.03125 V -0.25 H 3.03125 c -0.703125,0 -0.703125,-0.09375 -0.703125,-0.328125 z m 0,0"
         style="stroke:none;stroke-width:1.5195204"
         inkscape:connector-curvature="0" /></g></g></g><g
   id="g3792"
   style="stroke-width:2.0324955"
   transform="matrix(1.3946626,0,0,-1.3946626,-108.84354,202.44916)"
   ns1:text="\\( P(s) \\)"><g
     id="g3790"
     style="stroke-width:2.0324955"><g
       id="g3776"
       style="fill:#000000;fill-opacity:1;stroke-width:2.0324955"><path
         id="path3774"
         transform="translate(178.585,110.99)"
         d="M 3.015625,-3.15625 H 4.71875 c 1.40625,0 2.796875,-1.03125 2.796875,-2.140625 0,-0.78125 -0.65625,-1.515625 -1.96875,-1.515625 h -3.21875 c -0.1875,0 -0.296875,0 -0.296875,0.1875 0,0.125 0.078125,0.125 0.28125,0.125 0.125,0 0.3125,0.015625 0.421875,0.015625 0.171875,0.03125 0.21875,0.046875 0.21875,0.171875 0,0.03125 0,0.0625 -0.03125,0.1875 l -1.34375,5.34375 c -0.09375,0.390625 -0.109375,0.46875 -0.90625,0.46875 -0.15625,0 -0.265625,0 -0.265625,0.1875 C 0.40625,0 0.515625,0 0.546875,0 0.828125,0 1.53125,-0.03125 1.8125,-0.03125 c 0.21875,0 0.4375,0.015625 0.640625,0.015625 0.21875,0 0.4375,0.015625 0.640625,0.015625 0.078125,0 0.203125,0 0.203125,-0.203125 0,-0.109375 -0.09375,-0.109375 -0.28125,-0.109375 -0.359375,0 -0.640625,0 -0.640625,-0.171875 0,-0.0625 0.015625,-0.109375 0.03125,-0.171875 z M 3.734375,-6.125 C 3.828125,-6.46875 3.84375,-6.5 4.28125,-6.5 h 0.953125 c 0.828125,0 1.359375,0.265625 1.359375,0.953125 0,0.390625 -0.203125,1.25 -0.59375,1.609375 -0.5,0.453125 -1.09375,0.53125 -1.53125,0.53125 H 3.0625 Z m 0,0"
         style="stroke:none;stroke-width:2.0324955"
         inkscape:connector-curvature="0" /></g><g
       id="g3780"
       style="fill:#000000;fill-opacity:1;stroke-width:2.0324955"><path
         id="path3778"
         transform="translate(186.364,110.99)"
         d="m 3.296875,2.390625 c 0,-0.03125 0,-0.046875 -0.171875,-0.21875 C 1.890625,0.921875 1.5625,-0.96875 1.5625,-2.5 c 0,-1.734375 0.375,-3.46875 1.609375,-4.703125 0.125,-0.125 0.125,-0.140625 0.125,-0.171875 0,-0.078125 -0.03125,-0.109375 -0.09375,-0.109375 -0.109375,0 -1,0.6875 -1.59375,1.953125 -0.5,1.09375 -0.625,2.203125 -0.625,3.03125 0,0.78125 0.109375,1.984375 0.65625,3.125 C 2.25,1.84375 3.09375,2.5 3.203125,2.5 c 0.0625,0 0.09375,-0.03125 0.09375,-0.109375 z m 0,0"
         style="stroke:none;stroke-width:2.0324955"
         inkscape:connector-curvature="0" /></g><g
       id="g3784"
       style="fill:#000000;fill-opacity:1;stroke-width:2.0324955"><path
         id="path3782"
         transform="translate(190.239,110.99)"
         d="M 3.890625,-3.734375 C 3.625,-3.71875 3.421875,-3.5 3.421875,-3.28125 c 0,0.140625 0.09375,0.296875 0.3125,0.296875 0.21875,0 0.453125,-0.171875 0.453125,-0.5625 C 4.1875,-4 3.765625,-4.40625 3,-4.40625 c -1.3125,0 -1.6875,1.015625 -1.6875,1.453125 0,0.78125 0.734375,0.921875 1.03125,0.984375 0.515625,0.109375 1.03125,0.21875 1.03125,0.765625 0,0.25 -0.21875,1.09375 -1.421875,1.09375 -0.140625,0 -0.90625,0 -1.140625,-0.53125 0.390625,0.046875 0.640625,-0.25 0.640625,-0.53125 0,-0.21875 -0.171875,-0.34375 -0.375,-0.34375 -0.265625,0 -0.5625,0.203125 -0.5625,0.65625 0,0.5625 0.578125,0.96875 1.421875,0.96875 1.625,0 2.015625,-1.203125 2.015625,-1.65625 0,-0.359375 -0.1875,-0.609375 -0.3125,-0.71875 -0.265625,-0.28125 -0.5625,-0.34375 -1,-0.421875 -0.359375,-0.078125 -0.75,-0.15625 -0.75,-0.609375 C 1.890625,-3.578125 2.125,-4.1875 3,-4.1875 c 0.25,0 0.75,0.078125 0.890625,0.453125 z m 0,0"
         style="stroke:none;stroke-width:2.0324955"
         inkscape:connector-curvature="0" /></g><g
       id="g3788"
       style="fill:#000000;fill-opacity:1;stroke-width:2.0324955"><path
         id="path3786"
         transform="translate(194.909,110.99)"
         d="m 2.875,-2.5 c 0,-0.765625 -0.109375,-1.96875 -0.65625,-3.109375 -0.59375,-1.21875 -1.453125,-1.875 -1.546875,-1.875 -0.0625,0 -0.109375,0.046875 -0.109375,0.109375 0,0.03125 0,0.046875 0.1875,0.234375 0.984375,0.984375 1.546875,2.5625 1.546875,4.640625 0,1.71875 -0.359375,3.46875 -1.59375,4.71875 C 0.5625,2.34375 0.5625,2.359375 0.5625,2.390625 0.5625,2.453125 0.609375,2.5 0.671875,2.5 0.765625,2.5 1.671875,1.8125 2.25,0.546875 2.765625,-0.546875 2.875,-1.65625 2.875,-2.5 Z m 0,0"
         style="stroke:none;stroke-width:2.0324955"
         inkscape:connector-curvature="0" /></g></g></g><g
   id="g1838"
   style="display:inline;fill:#0000ff;stroke-width:2.3860836"
   transform="matrix(1.1879909,0,0,-1.1879909,-4.3666186,161.79586)"
   ns1:text="\\( Y(s) \\)"><g
   id="g1836">
<g
   id="g1822"
   style="fill:#000000;fill-opacity:1">
  <path
   id="path1820"
   transform="translate(178.585,110.99)"
   d="M 5.953125,-5.671875 6.09375,-5.8125 C 6.390625,-6.109375 6.71875,-6.453125 7.390625,-6.5 7.5,-6.515625 7.59375,-6.515625 7.59375,-6.6875 c 0,-0.078125 -0.046875,-0.125 -0.125,-0.125 -0.265625,0 -0.546875,0.03125 -0.8125,0.03125 -0.34375,0 -0.6875,-0.03125 -1,-0.03125 -0.0625,0 -0.1875,0 -0.1875,0.1875 0,0.109375 0.09375,0.125 0.140625,0.125 0.078125,0 0.359375,0.015625 0.359375,0.234375 0,0.171875 -0.234375,0.421875 -0.265625,0.46875 L 3.390625,-3.125 2.296875,-6.09375 C 2.234375,-6.234375 2.234375,-6.25 2.234375,-6.265625 2.234375,-6.5 2.71875,-6.5 2.828125,-6.5 c 0.125,0 0.234375,0 0.234375,-0.203125 0,-0.109375 -0.125,-0.109375 -0.15625,-0.109375 -0.28125,0 -0.96875,0.03125 -1.25,0.03125 -0.25,0 -0.875,-0.03125 -1.125,-0.03125 -0.046875,0 -0.1875,0 -0.1875,0.203125 C 0.34375,-6.5 0.453125,-6.5 0.578125,-6.5 c 0.59375,0 0.640625,0.09375 0.734375,0.34375 L 2.53125,-2.875 c 0.015625,0.03125 0.046875,0.140625 0.046875,0.15625 0,0.03125 -0.40625,1.640625 -0.453125,1.828125 C 2,-0.34375 1.984375,-0.3125 1.1875,-0.3125 c -0.1875,0 -0.265625,0 -0.265625,0.203125 C 0.921875,0 1.03125,0 1.0625,0 c 0.265625,0 0.96875,-0.03125 1.25,-0.03125 0.28125,0 1,0.03125 1.28125,0.03125 0.0625,0 0.1875,0 0.1875,-0.203125 C 3.78125,-0.3125 3.6875,-0.3125 3.5,-0.3125 c -0.015625,0 -0.203125,0 -0.375,-0.015625 C 2.90625,-0.34375 2.84375,-0.375 2.84375,-0.484375 c 0,-0.078125 0.09375,-0.421875 0.140625,-0.625 l 0.359375,-1.40625 c 0.046875,-0.203125 0.0625,-0.21875 0.140625,-0.3125 z m 0,0"
   style="stroke:none"
   inkscape:connector-curvature="0" />
</g>
<g
   id="g1826"
   style="fill:#000000;fill-opacity:1">
  <path
   id="path1824"
   transform="translate(186.582,110.99)"
   d="m 3.296875,2.390625 c 0,-0.03125 0,-0.046875 -0.171875,-0.21875 C 1.890625,0.921875 1.5625,-0.96875 1.5625,-2.5 c 0,-1.734375 0.375,-3.46875 1.609375,-4.703125 0.125,-0.125 0.125,-0.140625 0.125,-0.171875 0,-0.078125 -0.03125,-0.109375 -0.09375,-0.109375 -0.109375,0 -1,0.6875 -1.59375,1.953125 -0.5,1.09375 -0.625,2.203125 -0.625,3.03125 0,0.78125 0.109375,1.984375 0.65625,3.125 C 2.25,1.84375 3.09375,2.5 3.203125,2.5 c 0.0625,0 0.09375,-0.03125 0.09375,-0.109375 z m 0,0"
   style="stroke:none"
   inkscape:connector-curvature="0" />
</g>
<g
   id="g1830"
   style="fill:#000000;fill-opacity:1">
  <path
   id="path1828"
   transform="translate(190.457,110.99)"
   d="M 3.890625,-3.734375 C 3.625,-3.71875 3.421875,-3.5 3.421875,-3.28125 c 0,0.140625 0.09375,0.296875 0.3125,0.296875 0.21875,0 0.453125,-0.171875 0.453125,-0.5625 C 4.1875,-4 3.765625,-4.40625 3,-4.40625 c -1.3125,0 -1.6875,1.015625 -1.6875,1.453125 0,0.78125 0.734375,0.921875 1.03125,0.984375 0.515625,0.109375 1.03125,0.21875 1.03125,0.765625 0,0.25 -0.21875,1.09375 -1.421875,1.09375 -0.140625,0 -0.90625,0 -1.140625,-0.53125 0.390625,0.046875 0.640625,-0.25 0.640625,-0.53125 0,-0.21875 -0.171875,-0.34375 -0.375,-0.34375 -0.265625,0 -0.5625,0.203125 -0.5625,0.65625 0,0.5625 0.578125,0.96875 1.421875,0.96875 1.625,0 2.015625,-1.203125 2.015625,-1.65625 0,-0.359375 -0.1875,-0.609375 -0.3125,-0.71875 -0.265625,-0.28125 -0.5625,-0.34375 -1,-0.421875 -0.359375,-0.078125 -0.75,-0.15625 -0.75,-0.609375 C 1.890625,-3.578125 2.125,-4.1875 3,-4.1875 c 0.25,0 0.75,0.078125 0.890625,0.453125 z m 0,0"
   style="stroke:none"
   inkscape:connector-curvature="0" />
</g>
<g
   id="g1834"
   style="fill:#000000;fill-opacity:1">
  <path
   id="path1832"
   transform="translate(195.127,110.99)"
   d="m 2.875,-2.5 c 0,-0.765625 -0.109375,-1.96875 -0.65625,-3.109375 -0.59375,-1.21875 -1.453125,-1.875 -1.546875,-1.875 -0.0625,0 -0.109375,0.046875 -0.109375,0.109375 0,0.03125 0,0.046875 0.1875,0.234375 0.984375,0.984375 1.546875,2.5625 1.546875,4.640625 0,1.71875 -0.359375,3.46875 -1.59375,4.71875 C 0.5625,2.34375 0.5625,2.359375 0.5625,2.390625 0.5625,2.453125 0.609375,2.5 0.671875,2.5 0.765625,2.5 1.671875,1.8125 2.25,0.546875 2.765625,-0.546875 2.875,-1.65625 2.875,-2.5 Z m 0,0"
   style="stroke:none"
   inkscape:connector-curvature="0" />
</g>
</g>
</g><text
   xml:space="preserve"
   style="font-style:normal;font-weight:normal;font-size:9px;line-height:1.25;font-family:sans-serif;letter-spacing:0px;word-spacing:0px;fill:#000000;fill-opacity:1;stroke:none;stroke-width:0.75"
   x="17.521248"
   y="-53.7743"
   id="text2016"
   transform="scale(1,-1)"><tspan
     sodipodi:role="line"
     id="tspan2014"
     x="17.521248"
     y="-53.7743"
     style="stroke-width:0.75">Entrada</tspan></text>


<text
   xml:space="preserve"
   style="font-style:normal;font-weight:normal;font-size:9px;line-height:1.25;font-family:sans-serif;letter-spacing:0px;word-spacing:0px;fill:#000000;fill-opacity:1;stroke:none;stroke-width:0.75"
   x="262.66217"
   y="-53.594124"
   id="text2020"
   transform="scale(1,-1)"><tspan
     sodipodi:role="line"
     id="tspan2018"
     x="262.66217"
     y="-53.594124"
     style="stroke-width:0.75">Saída</tspan></text>


<g
   id="g2165"
   style="display:inline;fill:#0000ff;stroke-width:2.3860836"
   transform="matrix(1.1879909,0,0,-1.1879909,-137.40586,164.10576)"
   ns1:text="\\( U(s) = \\frac{A}{s} \\)"><g
   id="g2163">
<g
   id="g2135"
   style="fill:#000000;fill-opacity:1">
  <path
   id="path2133"
   transform="translate(178.585,110.99)"
   d="M 6.328125,-5.765625 C 6.4375,-6.171875 6.609375,-6.46875 7.40625,-6.5 c 0.046875,0 0.171875,-0.015625 0.171875,-0.203125 0,0 0,-0.109375 -0.125,-0.109375 -0.328125,0 -0.6875,0.03125 -1.015625,0.03125 -0.34375,0 -0.71875,-0.03125 -1.046875,-0.03125 -0.0625,0 -0.171875,0 -0.171875,0.203125 C 5.21875,-6.5 5.3125,-6.5 5.390625,-6.5 c 0.578125,0.015625 0.6875,0.21875 0.6875,0.4375 0,0.03125 -0.03125,0.1875 -0.03125,0.203125 l -0.90625,3.5625 C 4.8125,-0.953125 3.65625,-0.09375 2.65625,-0.09375 c -0.671875,0 -1.203125,-0.4375 -1.203125,-1.296875 0,-0.015625 0,-0.328125 0.109375,-0.765625 L 2.515625,-6.046875 C 2.609375,-6.40625 2.625,-6.5 3.359375,-6.5 c 0.265625,0 0.34375,0 0.34375,-0.203125 0,-0.109375 -0.109375,-0.109375 -0.140625,-0.109375 -0.28125,0 -1,0.03125 -1.28125,0.03125 -0.28125,0 -1,-0.03125 -1.28125,-0.03125 -0.078125,0 -0.1875,0 -0.1875,0.203125 C 0.8125,-6.5 0.890625,-6.5 1.09375,-6.5 c 0.015625,0 0.203125,0 0.375,0.015625 0.171875,0.03125 0.265625,0.03125 0.265625,0.171875 0,0.046875 -0.109375,0.46875 -0.171875,0.703125 l -0.21875,0.875 C 1.25,-4.34375 0.78125,-2.46875 0.734375,-2.265625 0.671875,-2 0.671875,-1.84375 0.671875,-1.6875 c 0,1.203125 0.90625,1.90625 1.953125,1.90625 1.25,0 2.484375,-1.125 2.8125,-2.4375 z m 0,0"
   style="stroke:none"
   inkscape:connector-curvature="0" />
</g>
<g
   id="g2139"
   style="fill:#000000;fill-opacity:1">
  <path
   id="path2137"
   transform="translate(186.473,110.99)"
   d="m 3.296875,2.390625 c 0,-0.03125 0,-0.046875 -0.171875,-0.21875 C 1.890625,0.921875 1.5625,-0.96875 1.5625,-2.5 c 0,-1.734375 0.375,-3.46875 1.609375,-4.703125 0.125,-0.125 0.125,-0.140625 0.125,-0.171875 0,-0.078125 -0.03125,-0.109375 -0.09375,-0.109375 -0.109375,0 -1,0.6875 -1.59375,1.953125 -0.5,1.09375 -0.625,2.203125 -0.625,3.03125 0,0.78125 0.109375,1.984375 0.65625,3.125 C 2.25,1.84375 3.09375,2.5 3.203125,2.5 c 0.0625,0 0.09375,-0.03125 0.09375,-0.109375 z m 0,0"
   style="stroke:none"
   inkscape:connector-curvature="0" />
</g>
<g
   id="g2143"
   style="fill:#000000;fill-opacity:1">
  <path
   id="path2141"
   transform="translate(190.347,110.99)"
   d="M 3.890625,-3.734375 C 3.625,-3.71875 3.421875,-3.5 3.421875,-3.28125 c 0,0.140625 0.09375,0.296875 0.3125,0.296875 0.21875,0 0.453125,-0.171875 0.453125,-0.5625 C 4.1875,-4 3.765625,-4.40625 3,-4.40625 c -1.3125,0 -1.6875,1.015625 -1.6875,1.453125 0,0.78125 0.734375,0.921875 1.03125,0.984375 0.515625,0.109375 1.03125,0.21875 1.03125,0.765625 0,0.25 -0.21875,1.09375 -1.421875,1.09375 -0.140625,0 -0.90625,0 -1.140625,-0.53125 0.390625,0.046875 0.640625,-0.25 0.640625,-0.53125 0,-0.21875 -0.171875,-0.34375 -0.375,-0.34375 -0.265625,0 -0.5625,0.203125 -0.5625,0.65625 0,0.5625 0.578125,0.96875 1.421875,0.96875 1.625,0 2.015625,-1.203125 2.015625,-1.65625 0,-0.359375 -0.1875,-0.609375 -0.3125,-0.71875 -0.265625,-0.28125 -0.5625,-0.34375 -1,-0.421875 -0.359375,-0.078125 -0.75,-0.15625 -0.75,-0.609375 C 1.890625,-3.578125 2.125,-4.1875 3,-4.1875 c 0.25,0 0.75,0.078125 0.890625,0.453125 z m 0,0"
   style="stroke:none"
   inkscape:connector-curvature="0" />
</g>
<g
   id="g2147"
   style="fill:#000000;fill-opacity:1">
  <path
   id="path2145"
   transform="translate(195.017,110.99)"
   d="m 2.875,-2.5 c 0,-0.765625 -0.109375,-1.96875 -0.65625,-3.109375 -0.59375,-1.21875 -1.453125,-1.875 -1.546875,-1.875 -0.0625,0 -0.109375,0.046875 -0.109375,0.109375 0,0.03125 0,0.046875 0.1875,0.234375 0.984375,0.984375 1.546875,2.5625 1.546875,4.640625 0,1.71875 -0.359375,3.46875 -1.59375,4.71875 C 0.5625,2.34375 0.5625,2.359375 0.5625,2.390625 0.5625,2.453125 0.609375,2.5 0.671875,2.5 0.765625,2.5 1.671875,1.8125 2.25,0.546875 2.765625,-0.546875 2.875,-1.65625 2.875,-2.5 Z m 0,0"
   style="stroke:none"
   inkscape:connector-curvature="0" />
</g>
<g
   id="g2151"
   style="fill:#000000;fill-opacity:1">
  <path
   id="path2149"
   transform="translate(201.65109,110.99)"
   d="m 6.84375,-3.265625 c 0.15625,0 0.34375,0 0.34375,-0.1875 C 7.1875,-3.65625 7,-3.65625 6.859375,-3.65625 h -5.96875 c -0.140625,0 -0.328125,0 -0.328125,0.203125 0,0.1875 0.1875,0.1875 0.328125,0.1875 z m 0.015625,1.9375 c 0.140625,0 0.328125,0 0.328125,-0.203125 0,-0.1875 -0.1875,-0.1875 -0.34375,-0.1875 H 0.890625 c -0.140625,0 -0.328125,0 -0.328125,0.1875 0,0.203125 0.1875,0.203125 0.328125,0.203125 z m 0,0"
   style="stroke:none"
   inkscape:connector-curvature="0" />
</g>
<g
   id="g2155"
   style="fill:#000000;fill-opacity:1">
  <path
   id="path2153"
   transform="translate(213.371,107.068)"
   d="m 1.4375,-0.84375 c -0.25,0.390625 -0.46875,0.5625 -0.875,0.59375 -0.078125,0 -0.171875,0 -0.171875,0.140625 C 0.390625,-0.03125 0.453125,0 0.5,0 0.671875,0 0.90625,-0.03125 1.09375,-0.03125 1.3125,-0.03125 1.609375,0 1.8125,0 1.84375,0 1.953125,0 1.953125,-0.15625 1.953125,-0.25 1.859375,-0.25 1.828125,-0.25 1.78125,-0.265625 1.53125,-0.265625 1.53125,-0.453125 c 0,-0.09375 0.0625,-0.203125 0.09375,-0.265625 l 0.5625,-0.875 h 2 L 4.34375,-0.4375 C 4.328125,-0.359375 4.28125,-0.25 3.875,-0.25 c -0.09375,0 -0.1875,0 -0.1875,0.15625 C 3.6875,-0.0625 3.703125,0 3.796875,0 4,0 4.5,-0.03125 4.703125,-0.03125 c 0.125,0 0.28125,0.015625 0.40625,0.015625 C 5.234375,-0.015625 5.375,0 5.5,0 5.59375,0 5.640625,-0.0625 5.640625,-0.140625 5.640625,-0.25 5.5625,-0.25 5.453125,-0.25 c -0.40625,0 -0.421875,-0.0625 -0.4375,-0.21875 l -0.625,-4.3125 C 4.375,-4.921875 4.359375,-4.96875 4.234375,-4.96875 4.09375,-4.96875 4.0625,-4.90625 4,-4.8125 Z m 0.921875,-1 L 3.8125,-4.125 4.140625,-1.84375 Z m 0,0"
   style="stroke:none"
   inkscape:connector-curvature="0" />
</g>
<path
   id="path2157"
   transform="matrix(1,0,0,-1,72,72)"
   d="m 141.37109,-36.5 h 5.99219"
   style="fill:none;stroke:#000000;stroke-width:0.3985;stroke-linecap:butt;stroke-linejoin:miter;stroke-miterlimit:10;stroke-opacity:1"
   inkscape:connector-curvature="0" />
<g
   id="g2161"
   style="fill:#000000;fill-opacity:1">
  <path
   id="path2159"
   transform="translate(214.486,114.426)"
   d="m 3,-2.625 c -0.171875,0.046875 -0.296875,0.1875 -0.296875,0.328125 0,0.171875 0.140625,0.234375 0.234375,0.234375 0.078125,0 0.34375,-0.046875 0.34375,-0.40625 0,-0.453125 -0.5,-0.609375 -0.9375,-0.609375 -1.078125,0 -1.28125,0.8125 -1.28125,1.015625 0,0.265625 0.15625,0.4375 0.25,0.515625 0.171875,0.140625 0.296875,0.171875 0.78125,0.25 0.15625,0.03125 0.59375,0.109375 0.59375,0.453125 0,0.125 -0.078125,0.390625 -0.359375,0.5625 C 2.046875,-0.125 1.703125,-0.125 1.625,-0.125 1.34375,-0.125 0.953125,-0.1875 0.78125,-0.421875 1.015625,-0.453125 1.171875,-0.625 1.171875,-0.8125 c 0,-0.171875 -0.125,-0.265625 -0.265625,-0.265625 -0.203125,0 -0.40625,0.171875 -0.40625,0.46875 0,0.421875 0.4375,0.671875 1.109375,0.671875 1.296875,0 1.53125,-0.875 1.53125,-1.140625 0,-0.640625 -0.703125,-0.765625 -0.96875,-0.8125 -0.0625,-0.015625 -0.234375,-0.046875 -0.28125,-0.0625 -0.25,-0.046875 -0.375,-0.1875 -0.375,-0.34375 0,-0.15625 0.125,-0.34375 0.28125,-0.453125 0.1875,-0.109375 0.421875,-0.125 0.546875,-0.125 0.140625,0 0.5,0.015625 0.65625,0.25 z m 0,0"
   style="stroke:none"
   inkscape:connector-curvature="0" />
</g>
</g>
</g><path
   style="fill:none;stroke:#ff0000;stroke-width:0.375;stroke-linecap:butt;stroke-linejoin:miter;stroke-miterlimit:4;stroke-dasharray:none;stroke-opacity:1;marker-start:url(#Arrow1Lstart);marker-end:url(#Arrow1Lend)"
   d="M -6.139632,36.02378 V 8.4178096"
   id="path2187"
   inkscape:connector-curvature="0" /><path
   style="fill:none;stroke:#ff0000;stroke-width:0.75;stroke-linecap:butt;stroke-linejoin:miter;stroke-miterlimit:4;stroke-dasharray:0.75000002, 1.50000004;stroke-dashoffset:0;stroke-opacity:1"
   d="m -6.139632,36.02378 c 1.769418,-0.442355 26.983632,0 26.983632,0"
   id="path3477"
   inkscape:connector-curvature="0" /><path
   style="fill:none;stroke:#ff0000;stroke-width:0.75;stroke-linecap:butt;stroke-linejoin:miter;stroke-miterlimit:4;stroke-dasharray:0.75000002, 1.50000004;stroke-dashoffset:0;stroke-opacity:1"
   d="m -6.4013407,7.9024789 c 1.0611369,-0.442355 16.1823407,0 16.1823407,0"
   id="path3477-2"
   inkscape:connector-curvature="0" /><g
   id="g3914"
   style="display:inline;fill:#ff0000;stroke-width:2.3860836"
   transform="matrix(1.1879909,0,0,-1.1879909,-231.69107,150.54855)"
   ns1:text="\\( A \\)"><g
   id="g3912"
   style="fill:#ff0000">
<g
   id="g3910"
   style="fill:#ff0000;fill-opacity:1">
  <path
   id="path3908"
   transform="translate(178.585,110.99)"
   d="M 1.78125,-1.140625 C 1.390625,-0.484375 1,-0.34375 0.5625,-0.3125 0.4375,-0.296875 0.34375,-0.296875 0.34375,-0.109375 0.34375,-0.046875 0.40625,0 0.484375,0 0.75,0 1.0625,-0.03125 1.328125,-0.03125 c 0.34375,0 0.6875,0.03125 1,0.03125 0.0625,0 0.1875,0 0.1875,-0.1875 0,-0.109375 -0.078125,-0.125 -0.15625,-0.125 -0.21875,-0.015625 -0.46875,-0.09375 -0.46875,-0.34375 0,-0.125 0.0625,-0.234375 0.140625,-0.375 l 0.765625,-1.265625 h 2.5 c 0.015625,0.203125 0.15625,1.5625 0.15625,1.65625 0,0.296875 -0.515625,0.328125 -0.71875,0.328125 C 4.59375,-0.3125 4.5,-0.3125 4.5,-0.109375 4.5,0 4.609375,0 4.640625,0 5.046875,0 5.46875,-0.03125 5.875,-0.03125 6.125,-0.03125 6.765625,0 7.015625,0 7.0625,0 7.1875,0 7.1875,-0.203125 7.1875,-0.3125 7.09375,-0.3125 6.953125,-0.3125 6.34375,-0.3125 6.34375,-0.375 6.3125,-0.671875 l -0.609375,-6.21875 c -0.015625,-0.203125 -0.015625,-0.25 -0.1875,-0.25 -0.15625,0 -0.203125,0.078125 -0.265625,0.171875 z M 2.984375,-2.609375 4.9375,-5.90625 5.265625,-2.609375 Z m 0,0"
   style="fill:#ff0000;stroke:none"
   inkscape:connector-curvature="0" />
</g>
</g>
</g><text
   xml:space="preserve"
   style="font-style:normal;font-weight:normal;font-size:9px;line-height:1.25;font-family:sans-serif;letter-spacing:0px;word-spacing:0px;fill:#000000;fill-opacity:1;stroke:none;stroke-width:0.75"
   x="59.72966"
   y="4.6920252"
   id="text3925"
   transform="scale(1,-1)"><tspan
     sodipodi:role="line"
     id="tspan3923"
     x="59.72966"
     y="4.6920252"
     style="stroke-width:0.75">t</tspan></text>
<text
   xml:space="preserve"
   style="font-style:normal;font-weight:normal;font-size:9px;line-height:1.25;font-family:sans-serif;letter-spacing:0px;word-spacing:0px;fill:#000000;fill-opacity:1;stroke:none;stroke-width:0.75"
   x="297.46558"
   y="4.6920252"
   id="text3929"
   transform="scale(1,-1)"><tspan
     sodipodi:role="line"
     id="tspan3927"
     x="297.46558"
     y="4.6920252"
     style="stroke-width:0.75">t</tspan></text>
<text
   xml:space="preserve"
   style="font-style:normal;font-weight:normal;font-size:9px;line-height:1.25;font-family:sans-serif;letter-spacing:0px;word-spacing:0px;fill:#000000;fill-opacity:1;stroke:none;stroke-width:0.75"
   x="1.9948416"
   y="-40.077103"
   id="text3925-3"
   transform="scale(1,-1)"><tspan
     sodipodi:role="line"
     id="tspan3923-6"
     x="1.9948416"
     y="-40.077103"
     style="stroke-width:0.75">u</tspan></text>
<text
   xml:space="preserve"
   style="font-style:normal;font-weight:normal;font-size:9px;line-height:1.25;font-family:sans-serif;letter-spacing:0px;word-spacing:0px;fill:#000000;fill-opacity:1;stroke:none;stroke-width:0.75"
   x="242.43846"
   y="-40.844189"
   id="text3925-3-1"
   transform="scale(1,-1)"><tspan
     sodipodi:role="line"
     id="tspan3923-6-2"
     x="242.43846"
     y="-40.844189"
     style="stroke-width:0.75">y</tspan></text>
</g></g></svg>