<?xml version="1.0" encoding="UTF-8" standalone="no"?>
<!-- Created with Inkscape (http://www.inkscape.org/) -->

<svg
   xmlns:dc="http://purl.org/dc/elements/1.1/"
   xmlns:cc="http://creativecommons.org/ns#"
   xmlns:rdf="http://www.w3.org/1999/02/22-rdf-syntax-ns#"
   xmlns:svg="http://www.w3.org/2000/svg"
   xmlns="http://www.w3.org/2000/svg"
   xmlns:sodipodi="http://sodipodi.sourceforge.net/DTD/sodipodi-0.dtd"
   xmlns:inkscape="http://www.inkscape.org/namespaces/inkscape"
   width="68.941917mm"
   height="40.000004mm"
   viewBox="0 0 68.941911 40.000006"
   version="1.1"
   id="svg8"
   inkscape:version="0.92.3 (unknown)"
   sodipodi:docname="exemplo12.svg">
  <defs
     id="defs2">
    <marker
       inkscape:stockid="Arrow1Lend"
       orient="auto"
       refY="0"
       refX="0"
       id="marker1530"
       style="overflow:visible"
       inkscape:isstock="true">
      <path
         id="path1528"
         d="M 0,0 5,-5 -12.5,0 5,5 Z"
         style="fill:#000000;fill-opacity:1;fill-rule:evenodd;stroke:#000000;stroke-width:1.00000003pt;stroke-opacity:1"
         transform="matrix(-0.8,0,0,-0.8,-10,0)"
         inkscape:connector-curvature="0" />
    </marker>
    <marker
       inkscape:stockid="Arrow1Lend"
       orient="auto"
       refY="0"
       refX="0"
       id="marker1530-2"
       style="overflow:visible"
       inkscape:isstock="true">
      <path
         inkscape:connector-curvature="0"
         id="path1528-9"
         d="M 0,0 5,-5 -12.5,0 5,5 Z"
         style="fill:#000000;fill-opacity:1;fill-rule:evenodd;stroke:#000000;stroke-width:1.00000003pt;stroke-opacity:1"
         transform="matrix(-0.8,0,0,-0.8,-10,0)" />
    </marker>
    <marker
       inkscape:stockid="Arrow1Lend"
       orient="auto"
       refY="0"
       refX="0"
       id="marker1530-2-2"
       style="overflow:visible"
       inkscape:isstock="true">
      <path
         inkscape:connector-curvature="0"
         id="path1528-9-7"
         d="M 0,0 5,-5 -12.5,0 5,5 Z"
         style="fill:#000000;fill-opacity:1;fill-rule:evenodd;stroke:#000000;stroke-width:1.00000003pt;stroke-opacity:1"
         transform="matrix(-0.8,0,0,-0.8,-10,0)" />
    </marker>
    <marker
       inkscape:stockid="Arrow1Lend"
       orient="auto"
       refY="0"
       refX="0"
       id="Arrow1Lend-3"
       style="overflow:visible"
       inkscape:isstock="true">
      <path
         id="path2063"
         d="M 0,0 5,-5 -12.5,0 5,5 Z"
         style="fill:#000000;fill-opacity:1;fill-rule:evenodd;stroke:#000000;stroke-width:1.00000003pt;stroke-opacity:1"
         transform="matrix(-0.8,0,0,-0.8,-10,0)"
         inkscape:connector-curvature="0" />
    </marker>
    <marker
       inkscape:stockid="Arrow1Lend"
       orient="auto"
       refY="0"
       refX="0"
       id="Arrow1Lend-3-2-1"
       style="overflow:visible"
       inkscape:isstock="true">
      <path
         inkscape:connector-curvature="0"
         id="path2063-6-9-9"
         d="M 0,0 5,-5 -12.5,0 5,5 Z"
         style="fill:#000000;fill-opacity:1;fill-rule:evenodd;stroke:#000000;stroke-width:1.00000003pt;stroke-opacity:1"
         transform="matrix(-0.8,0,0,-0.8,-10,0)" />
    </marker>
    <marker
       inkscape:stockid="Arrow1Lend"
       orient="auto"
       refY="0"
       refX="0"
       id="Arrow1Lend"
       style="overflow:visible"
       inkscape:isstock="true"
       inkscape:collect="always">
      <path
         id="path2360"
         d="M 0,0 5,-5 -12.5,0 5,5 Z"
         style="fill:#000000;fill-opacity:1;fill-rule:evenodd;stroke:#000000;stroke-width:1.00000003pt;stroke-opacity:1"
         transform="matrix(-0.8,0,0,-0.8,-10,0)"
         inkscape:connector-curvature="0" />
    </marker>
    <marker
       inkscape:isstock="true"
       style="overflow:visible"
       id="marker2647"
       refX="0"
       refY="0"
       orient="auto"
       inkscape:stockid="Arrow1Lend">
      <path
         transform="matrix(-0.8,0,0,-0.8,-10,0)"
         style="fill:#000000;fill-opacity:1;fill-rule:evenodd;stroke:#000000;stroke-width:1.00000003pt;stroke-opacity:1"
         d="M 0,0 5,-5 -12.5,0 5,5 Z"
         id="path2645"
         inkscape:connector-curvature="0" />
    </marker>
    <clipPath
       id="clipPath1007"
       clipPathUnits="userSpaceOnUse">
      <path
         inkscape:connector-curvature="0"
         id="path1005"
         d="M 60.859,506.326 H 282.421 V 618.278 H 60.859 Z" />
    </clipPath>
  </defs>
  <sodipodi:namedview
     id="base"
     pagecolor="#ffffff"
     bordercolor="#666666"
     borderopacity="1.0"
     inkscape:pageopacity="0.0"
     inkscape:pageshadow="2"
     inkscape:zoom="0.98994949"
     inkscape:cx="332.26046"
     inkscape:cy="30.600195"
     inkscape:document-units="mm"
     inkscape:current-layer="layer1"
     showgrid="false"
     inkscape:window-width="1366"
     inkscape:window-height="713"
     inkscape:window-x="0"
     inkscape:window-y="27"
     inkscape:window-maximized="1"
     fit-margin-top="0"
     fit-margin-left="0"
     fit-margin-right="0"
     fit-margin-bottom="0" />
  <metadata
     id="metadata5">
    <rdf:RDF>
      <cc:Work
         rdf:about="">
        <dc:format>image/svg+xml</dc:format>
        <dc:type
           rdf:resource="http://purl.org/dc/dcmitype/StillImage" />
        <dc:title></dc:title>
      </cc:Work>
    </rdf:RDF>
  </metadata>
  <g
     inkscape:label="Layer 1"
     inkscape:groupmode="layer"
     id="layer1"
     transform="translate(-33.315237,-240.94582)">
    <path
       style="fill:none;stroke:#000000;stroke-width:0.24141996;stroke-linecap:butt;stroke-linejoin:miter;stroke-miterlimit:4;stroke-dasharray:none;stroke-opacity:1;marker-end:url(#marker2647)"
       d="M 34.541226,279.71983 V 241.4145"
       id="path2353"
       inkscape:connector-curvature="0" />
    <path
       style="fill:none;stroke:#000000;stroke-width:0.24141996;stroke-linecap:butt;stroke-linejoin:miter;stroke-miterlimit:4;stroke-dasharray:none;stroke-opacity:1;marker-end:url(#Arrow1Lend)"
       d="M 34.541226,279.71983 H 101.78847"
       id="path2355"
       inkscape:connector-curvature="0" />
    <g
       id="g32"
       transform="matrix(0.16595493,0,0,0.15566696,24.749885,242.98244)">
      <path
         d="M 59,236 H 411"
         style="fill:none;stroke:#262626;stroke-width:0.66666698;stroke-linecap:square;stroke-linejoin:round;stroke-miterlimit:10;stroke-dasharray:none;stroke-opacity:1"
         id="path34"
         inkscape:connector-curvature="0" />
    </g>
    <g
       id="g36"
       transform="matrix(0.16595493,0,0,0.15566696,24.749885,242.98244)"
       style="stroke-width:1.50203443;stroke-miterlimit:4;stroke-dasharray:none">
      <path
         d="M 59,236 V 20.000008"
         style="fill:none;stroke:#262626;stroke-width:1.50203443;stroke-linecap:square;stroke-linejoin:round;stroke-miterlimit:4;stroke-dasharray:none;stroke-opacity:1"
         id="path38"
         inkscape:connector-curvature="0" />
    </g>
    <g
       id="g40"
       transform="matrix(0.16595283,0,0,0.16021765,24.750329,241.97112)"
       style="stroke-width:2.67650294;stroke-miterlimit:4;stroke-dasharray:none">
      <path
         d="m 59,220.57143 h 0.234665 0.234669 0.234665 0.234668 0.234665 0.234669 0.234665 0.234669 0.234665 0.234668 0.234665 0.234665 0.234669 0.234665 0.234668 0.234665 0.234669 0.234665 0.234669 0.234665 0.234668 0.234665 0.234665 0.234665 0.234673 0.234665 0.234665 0.234664 0.234673 0.234665 0.234665 0.234665 0.234672 0.234665 0.234665 0.234665 0.234665 0.234673 0.234664 0.234665 0.234665 0.234673 0.234665 0.234665 0.234665 0.234672 0.234665 0.234665 0.234665 0.234665 0.234672 0.234665 0.234665 0.234665 0.234673 0.234665 0.234664 0.234665 0.234665 0.234673 0.234665 0.234665 0.234665 0.234672 0.234665 0.234665 0.234665 0.234672 0.234665 0.234665 0.234665 0.234673 0.234665 0.234665 0.234664 0.234665 0.234673 0.234665 0.234665 0.234665 0.234672 0.234665 0.234665 0.234665 0.234673 0.234664 0.234665 0.234665 0.234665 0.234673 0.234665 0.234665 0.234664 0.234673 0.234665 0.234665 0.234665 0.234672 0.234665 0.234665 0.234665 0.234665 0.234673 0.234664 0.234665 0.234665 0.234673 0.234665 0.234665 0.234665 0.234672 0.234665 0.234665 0.234665 0.234665 0.234665 0.234672 0.234665 0.234665 0.234673 0.234665 0.234664 0.234665 0.234665 0.234673 0.234665 0.234665 0.234665 0.234665 0.234672 0.234665 0.234665 0.234672 0.234665 0.234665 0.234665 0.234665 0.234673 0.234665 0.234665 0.234664 0.234665 0.234673 0.234665 0.234665 0.234672 0.234665 0.234665 0.234665 0.234665 0.234672 0.234665 0.234665 0.234665 0.234665 0.234673 0.234665 0.234665 0.234672 0.234665 0.234665 0.234665 0.234665 0.234672 0.234665 0.234665 0.234665 0.234665 0.234673 0.234664 0.234665 0.234673 0.234665 0.234665 0.234669 0.23466 0.23467 0.23467 0.23466 0.23467 0.23466 0.23468 0.23466 0.23467 0.23467 0.23466 0.23467 0.23466 0.23467 0.23467 0.23466 0.23467 0.23466 0.23468 0.23466 0.23467 0.23466 0.23467 0.23467 0.23466 0.23467 l 0.23466,-0.008 0.23467,-0.023 0.23467,-0.0381 0.23467,-0.0531 0.23466,-0.0679 0.23467,-0.0825 0.23466,-0.097 0.23467,-0.11136 0.23467,-0.12556 0.23466,-0.13962 0.23467,-0.15349 0.23467,-0.16724 0.23467,-0.18081 0.23467,-0.19423 0.23466,-0.20752 0.23467,-0.22064 0.23466,-0.23362 0.23467,-0.24642 0.23467,-0.2591 0.23467,-0.27161 0.23466,-0.28396 0.23467,-0.29617 0.23466,-0.30825 0.23467,-0.32014 0.23467,-0.33191 0.23466,-0.34352 0.23467,-0.35498 0.23466,-0.36629 0.23468,-0.37746 0.23466,-0.38845 0.23467,-0.39933 0.23466,-0.41003 0.23466,-0.42063 0.23468,-0.43103 0.23466,-0.44129 0.23467,-0.45145 0.23467,-0.46143 0.23466,-0.47125 0.23467,-0.48096 0.23467,-0.49049 0.23467,-0.49991 0.23466,-0.50917 0.23467,-0.51829 0.23466,-0.52727 0.23467,-0.5361 0.23467,-0.54479 0.23466,-0.55334 0.23467,-0.56177 0.23466,-0.57004 0.23468,-0.57817 0.23466,-0.58615 0.23467,-0.59403 0.23466,-0.60174 0.23467,-0.60933 0.23467,-0.61678 0.23466,-0.62408 0.23467,-0.63127 0.23466,-0.63831 0.23467,-0.64522 0.23467,-0.65199 0.23467,-0.65864 0.23467,-0.66515 0.23466,-0.67154 0.23467,-0.67779 0.23466,-0.6839 0.23467,-0.6899 0.23467,-0.69577 0.23467,-0.70151 0.23466,-0.7071 0.23467,-0.71261 0.23466,-0.71795 0.23467,-0.72319 0.23467,-0.7283 0.23466,-0.73328 0.23467,-0.73816 0.23466,-0.74289 0.23468,-0.74751 0.23466,-0.75202 0.23467,-0.75639 0.23466,-0.76065 0.23466,-0.7648 0.23468,-0.76883 0.23466,-0.77274 0.23467,-0.77653 0.23466,-0.78021 0.23467,-0.78377 0.23467,-0.78723 0.23467,-0.79056 0.23467,-0.79379 0.23466,-0.79691 0.23467,-0.79993 0.23466,-0.80281 0.23467,-0.80558 0.23467,-0.80829 0.23466,-0.81085 0.23467,-0.81331 0.23466,-0.81568 0.23467,-0.81793 0.23466,-0.8201 0.23468,-0.82213 0.23467,-0.82408 0.23466,-0.82593 0.23467,-0.82766 0.23466,-0.82933 0.23467,-0.83086 0.23466,-0.83232 0.23467,-0.83366 0.23466,-0.83492 0.23467,-0.83607 0.23466,-0.83715 0.23468,-0.83812 0.23467,-0.83899 0.23466,-0.83978 0.23467,-0.84047 0.23466,-0.84106 0.23467,-0.8416 0.23468,-0.84201 0.23466,-0.84235 0.23467,-0.8426 0.23466,-0.84276 0.23467,-0.84284 0.23466,-0.84283 0.23467,-0.84274 0.23466,-0.84258 0.23467,-0.84231 0.23466,-0.84198 0.23468,-0.84156 0.23467,-0.84106 0.23466,-0.8405 0.23467,-0.83983 0.23466,-0.83911 0.23467,-0.83829 0.23466,-0.83742 0.23467,-0.83645 0.23466,-0.83544 0.23467,-0.83432 0.23468,-0.83316 0.23466,-0.83189 0.23467,-0.8306 0.23466,-0.82919 0.23467,-0.82776 0.23466,-0.82622 0.23468,-0.82463 0.23467,-0.82297 0.23466,-0.82125 0.23467,-0.81948 0.23466,-0.81761 0.23467,-0.8157 0.23466,-0.81374 0.23467,-0.81169 0.23466,-0.8096 0.23467,-0.80744 0.23468,-0.80522 0.23466,-0.80295 0.23467,-0.80062 0.23466,-0.79824 0.23467,-0.79578 0.23466,-0.79329 0.23467,-0.79074 0.23466,-0.78814 0.23467,-0.78548 0.23468,-0.78277 0.23466,-0.78 0.23467,-0.77719 0.23466,-0.77434 0.23467,-0.77142 0.23466,-0.76848 0.23467,-0.76547 0.23466,-0.76242 0.23468,-0.75932 0.23467,-0.75618 0.23466,-0.753 0.23467,-0.74977 0.23466,-0.74651 0.23466,-0.7432 0.23467,-0.73984 0.23466,-0.73644 0.23467,-0.73302 0.23468,-0.72953 0.23466,-0.72604 0.23467,-0.72249 0.23466,-0.71891 0.23467,-0.71528 0.23466,-0.71164 0.23467,-0.707935 0.23466,-0.704224 0.23468,-0.70047 0.23467,-0.696678 0.23466,-0.692856 0.23467,-0.68901 0.23466,-0.685135 0.23467,-0.681214 0.23466,-0.677284 0.23467,-0.673317 0.23466,-0.669311 0.23468,-0.665306 0.23467,-0.661248 0.23466,-0.657173 0.23467,-0.653084 0.23466,-0.648956 0.23467,-0.644814 0.23468,-0.64064 0.23465,-0.636459 0.23468,-0.632233 0.23465,-0.628013 0.23468,-0.623749 0.23466,-0.619476 0.23467,-0.615189 0.23466,-0.610878 0.23467,-0.606545 0.23466,-0.602195 0.23468,-0.597847 0.23465,-0.593453 0.23468,-0.589058 0.23465,-0.584655 0.23468,-0.580231 0.23467,-0.575791 0.23466,-0.571342 0.23467,-0.566879 0.23466,-0.562401 0.23467,-0.557922 0.23468,-0.553414 0.23465,-0.54892 0.23468,-0.544387 0.23466,-0.539864 0.23467,-0.535332 0.23466,-0.530792 0.23467,-0.526237 0.23468,-0.521676 0.23465,-0.51712 0.23468,-0.512535 0.23466,-0.507965 0.23467,-0.503388 0.23466,-0.498802 0.23467,-0.494209 0.23466,-0.489609 0.23467,-0.485023 0.23466,-0.480423 0.23468,-0.475823 0.23465,-0.471214 0.23468,-0.466606 0.23467,-0.462006 0.23466,-0.45742 0.23467,-0.452797 0.23466,-0.448204 0.23467,-0.443581 0.23466,-0.43901 0.23467,-0.434388 0.23468,-0.429809 0.23466,-0.425194 0.23467,-0.420631 0.23466,-0.416035 0.23467,-0.411434 0.23466,-0.406876 0.23467,-0.402313 0.23468,-0.397732 0.23465,-0.393173 0.23468,-0.388626 0.23466,-0.384071 0.23467,-0.379544 0.23466,-0.375 0.23467,-0.370476 0.23466,-0.365951 0.23467,-0.361443 0.23466,-0.35696 0.23468,-0.352451 0.23465,-0.347981 0.23468,-0.343513 0.23466,-0.339043 0.23467,-0.334595 0.23466,-0.330158 0.23467,-0.325729 0.23466,-0.321312 0.23467,-0.316918 0.23468,-0.312522 0.23466,-0.308144 0.23467,-0.303768 0.23466,-0.299423 0.23467,-0.295086 0.23466,-0.290749 0.23468,-0.286442 0.23465,-0.282154 0.23468,-0.277851 0.23465,-0.273605 0.23468,-0.269356 0.23467,-0.265106 0.23466,-0.260876 0.23467,-0.256683 0.23466,-0.252507 0.23467,-0.248313 0.23468,-0.24416 0.23465,-0.240036 0.23468,-0.235901 0.23465,-0.231815 0.23468,-0.227715 0.23466,-0.223652 0.23467,-0.219604 0.23466,-0.215557 0.23467,-0.211567 0.23468,-0.207558 0.23466,-0.203602 0.23467,-0.199631 0.23466,-0.195694 0.23467,-0.191791 0.23466,-0.187878 0.23467,-0.184017 0.23466,-0.180153 0.23468,-0.176327 0.23465,-0.1725 0.23468,-0.168713 0.23467,-0.16494 0.23466,-0.16119 0.23467,-0.157459 0.23466,-0.153759 0.23467,-0.150063 0.23466,-0.146385 0.23467,-0.142757 0.23468,-0.139122 0.23465,-0.135533 0.23468,-0.131965 0.23466,-0.128395 0.23467,-0.124867 0.23466,-0.121349 0.23467,-0.117878 0.23468,-0.114399 0.23465,-0.110962 0.23468,-0.107559 0.23466,-0.104153 0.23467,-0.100792 0.23466,-0.09744 0.23467,-0.09411 0.23466,-0.0908 0.23467,-0.08755 0.23466,-0.08429 0.23468,-0.08105 0.23465,-0.07785 0.23468,-0.07467 0.23467,-0.07151 0.23466,-0.0684 0.23467,-0.06527 0.23466,-0.0622 0.23467,-0.05913 0.23466,-0.05611 0.23467,-0.0531 0.23468,-0.0501 0.23465,-0.04716 0.23468,-0.04422 0.23466,-0.04131 0.23467,-0.03842 0.23468,-0.03557 0.23465,-0.03272 0.23468,-0.02992 0.23465,-0.02713 0.23468,-0.02437 0.23466,-0.02163 0.23467,-0.01893 0.23466,-0.01624 0.23467,-0.01359 0.23466,-0.01094 0.23468,-0.0083 0.23465,-0.0057 0.23468,-0.0032 0.23465,-6.44e-4 0.23468,0.0018 0.23466,0.0043 0.23467,0.0068 0.23466,0.0092 0.23467,0.01163 0.23466,0.01403 0.23468,0.01639 0.23465,0.01871 0.23468,0.02102 0.23465,0.0233 0.23468,0.02557 0.23467,0.02781 0.23466,0.03 0.23468,0.03218 0.23465,0.03436 0.23468,0.03649 0.23467,0.03859 0.23466,0.04067 0.23467,0.04274 0.23466,0.04477 0.23467,0.04677 0.23466,0.04876 0.23467,0.05072 0.23468,0.05266 0.23465,0.05457 0.23468,0.05645 0.23466,0.05832 0.23467,0.06016 0.23466,0.06196 0.23467,0.06377 0.23466,0.06553 0.23467,0.06726 0.23466,0.06899 0.23468,0.07066 0.23465,0.07235 0.23468,0.07399 0.23467,0.07561 0.23466,0.07721 0.23467,0.07879 0.23466,0.08034 0.23468,0.08187 0.23465,0.08337 0.23468,0.08486 0.23467,0.0863 0.23466,0.08775 0.23467,0.08915 0.23466,0.09056 0.23467,0.09191 0.23466,0.09325 0.23467,0.09457 0.23468,0.09588 0.23465,0.09714 0.23468,0.0984 0.23466,0.09965 0.23467,0.100826 0.23466,0.10204 0.23467,0.103199 0.23466,0.104339 0.23467,0.105461 0.23466,0.106549 0.23468,0.107647 0.23467,0.10868 0.23466,0.10973 0.23467,0.11076 0.23466,0.111732 0.23468,0.112706 0.23465,0.113666 0.23468,0.114582 0.23465,0.115505 0.23468,0.116387 0.23467,0.117252 0.23466,0.118115 0.23467,0.118923 0.23466,0.119751 0.23467,0.120525 0.23468,0.1213 0.23465,0.122051 0.23468,0.122769 0.23465,0.123485 0.23468,0.124184 0.23466,0.124847 0.23467,0.125488 0.23466,0.126137 0.23467,0.12674 0.23466,0.12735 0.23468,0.127918 0.23467,0.128487 0.23466,0.129005 0.23467,0.129536 0.23466,0.13005 0.23467,0.130532 0.23466,0.130989 0.23468,0.13145 0.23465,0.131874 0.23468,0.132294 0.23466,0.132702 0.23467,0.133068 0.23466,0.133434 0.23467,0.133786 0.23466,0.134117 0.23467,0.134411 0.23466,0.134723 0.23468,0.135018 0.23465,0.135257 0.23468,0.135514 0.23467,0.135753 0.23466,0.135975 0.23467,0.136158 0.23466,0.13636 0.23467,0.136528 0.23466,0.136673 0.23468,0.136803 0.23467,0.136948 0.23466,0.137039 0.23467,0.137153 0.23466,0.137227 0.23467,0.137298 0.23466,0.137333 0.23467,0.13739 0.23468,0.13739 0.23465,0.13741 0.23468,0.137409 0.23466,0.13739 0.23467,0.137371 0.23466,0.137299 0.23467,0.137264 0.23466,0.137188 0.23467,0.137096 0.23466,0.137001 0.23468,0.136894 0.23465,0.136765 0.23468,0.136639 0.23467,0.136509 0.23466,0.136322 0.23467,0.136158 0.23466,0.135974 0.23468,0.135788 0.23465,0.135571 0.23468,0.135368 0.23467,0.135128 0.23466,0.134888 0.23467,0.134651 0.23466,0.134373 0.23467,0.134117 0.23468,0.133823 0.23465,0.133526 0.23468,0.133217 0.23465,0.132923 0.23468,0.132569 0.23466,0.132259 0.23467,0.131912 0.23466,0.131558 0.23467,0.131191 0.23466,0.130806 0.23468,0.13044 0.23465,0.13005 0.23468,0.129631 0.23465,0.129242 0.23468,0.128819 0.23467,0.12838 0.23466,0.127956 0.23468,0.12751 0.23465,0.127056 0.23468,0.126595 0.23467,0.126133 0.23466,0.125656 0.23467,0.125179 0.23466,0.124661 0.23467,0.124187 0.23466,0.123669 0.23467,0.123172 0.23468,0.122624 0.23465,0.122124 0.23468,0.121574 0.23466,0.121037 0.23467,0.120491 0.23466,0.119915 0.23467,0.119384 0.23466,0.118798 0.23467,0.118225 0.23466,0.117656 0.23468,0.117066 0.23465,0.116459 0.23468,0.11589 0.23467,0.115265 0.23466,0.114678 0.23466,0.114048 0.23467,0.113426 0.23468,0.11282 0.23465,0.112175 0.23468,0.111545 0.23466,0.110909 0.23467,0.11026 0.23466,0.109619 0.23467,0.108955 0.23466,0.108311 0.23467,0.107651 0.23466,0.106987 0.23468,0.106308 0.23465,0.105648 0.23468,0.104965 0.23467,0.104282 0.23466,0.103584 0.23467,0.102925 0.23466,0.102207 0.23467,0.101524 0.23466,0.100827 0.23467,0.100128 0.23468,0.09943 0.23465,0.09871 0.23468,0.09801 0.23466,0.09729 0.23467,0.09658 0.23468,0.09588 0.23465,0.09515 0.23468,0.09442 0.23465,0.0937 0.23468,0.09297 0.23466,0.09225 0.23467,0.0915 0.23466,0.09078 0.23467,0.09005 0.23466,0.08932 0.23468,0.08858 0.23465,0.08784 0.23468,0.0871 0.23465,0.08636 0.23468,0.08562 0.23467,0.08488 0.23466,0.08413 0.23467,0.08337 0.23466,0.08264 0.23467,0.0819 0.23468,0.08112 0.23465,0.08041 0.23468,0.07963 0.23466,0.07889 0.23468,0.07815 0.23465,0.07739 0.23467,0.07664 0.23468,0.0759 0.23466,0.07514 0.23465,0.07439 0.23468,0.07364 0.23467,0.07289 0.23466,0.07214 0.23465,0.07139 0.23468,0.07064 0.23467,0.0699 0.23468,0.06913 0.23465,0.0684 0.23466,0.06765 0.23468,0.06689 0.23467,0.06616 0.23465,0.06541 0.23468,0.06467 0.23466,0.06393 0.23468,0.06318 0.23465,0.06244 0.23467,0.0617 0.23468,0.06096 0.23466,0.06023 0.23468,0.05949 0.23465,0.05875 0.23467,0.05802 0.23466,0.05729 0.23468,0.05656 0.23465,0.05583 0.23467,0.0551 0.23468,0.05438 0.23466,0.05365 0.23465,0.05293 0.23468,0.05222 0.23467,0.05149 0.23468,0.05078 0.23465,0.05006 0.23468,0.04935 0.23464,0.04864 0.23469,0.04794 0.23464,0.04723 0.23468,0.04653 0.23469,0.04584 0.23464,0.04514 0.23465,0.04443 0.23468,0.04375 0.23468,0.04305 0.23465,0.04237 0.23468,0.04169 0.23465,0.041 0.23468,0.04032 0.23468,0.03965 0.23465,0.03897 0.23465,0.0383 0.23468,0.03764 0.23468,0.03696 0.23468,0.0363 0.23465,0.03565 0.23465,0.03499 0.23468,0.03433 0.23468,0.03368 0.23465,0.03304 0.23468,0.03239 0.23465,0.03175 0.23468,0.03111 0.23465,0.03049 0.23468,0.02985 0.23465,0.02922 0.23468,0.0286 0.23465,0.02798 0.23468,0.02736 0.23468,0.02674 0.23465,0.02614 0.23468,0.02551 0.23465,0.02493 0.23468,0.02432 0.23468,0.02373 0.23465,0.02313 0.23465,0.02254 0.23468,0.02196 0.23468,0.02137 0.23468,0.0208 0.23465,0.02022 0.23465,0.01965 0.23468,0.01907 0.23468,0.01852 0.23465,0.01796 0.23465,0.0174 0.23468,0.01685 0.23468,0.01631 0.23465,0.01575 0.23468,0.01521 0.23465,0.01468 0.23468,0.01414 0.23465,0.01362 0.23468,0.01308 0.23468,0.01257 0.23465,0.01205 0.23468,0.01154 0.23465,0.01103 0.23468,0.01052 0.23468,0.01002 0.23465,0.0095 0.23465,0.009 0.23468,0.0085 0.23468,0.008 0.23465,0.0076 0.23465,0.0071 0.23468,0.0066 0.23468,0.0062 0.23468,0.0057 0.23465,0.0052 0.23465,0.0048 0.23468,0.0043 0.23468,0.0039 0.23465,0.0034 0.23468,0.003 0.23465,0.0025 0.23468,0.0021 0.23465,0.0017 0.23468,0.0013 0.23468,8.4e-4 0.23465,4.12e-4 0.23468,7e-6 0.23465,-3.89e-4 0.23468,-8.09e-4 0.23465,-0.0012 0.23468,-0.0016 0.23465,-0.002 0.23468,-0.0024 0.23468,-0.0028 0.23465,-0.0031 0.23465,-0.0035 0.23468,-0.0039 0.23468,-0.0043 0.23468,-0.0046 0.23465,-0.005 0.23465,-0.0053 0.23468,-0.0057 0.23468,-0.006 0.23465,-0.0064 0.23468,-0.0067 0.23465,-0.007 0.23468,-0.0074 0.23465,-0.0077 0.23468,-0.008 0.23465,-0.0084 0.23468,-0.0087 0.23468,-0.009 0.23465,-0.0093 0.23468,-0.0096 0.23465,-0.0099 0.23468,-0.01017 0.23465,-0.01047 0.23468,-0.01075 0.23468,-0.01104 0.23465,-0.01131 0.23465,-0.0116 0.23468,-0.01186 0.23468,-0.01213 0.23468,-0.01238 0.23465,-0.01266 0.23465,-0.0129 0.23468,-0.01316 0.23468,-0.01341 0.23465,-0.01365 0.23465,-0.01389 0.23468,-0.01413 0.23468,-0.01436 0.23465,-0.01459 0.23468,-0.01482 0.23465,-0.01505 0.23468,-0.01526 0.23468,-0.01547 0.23465,-0.01568 0.23468,-0.01589 0.23465,-0.01608 0.23468,-0.0163 0.23465,-0.01649 0.23468,-0.01668 0.23468,-0.01686 0.23465,-0.01706 0.23465,-0.01723 0.23468,-0.01742 0.23468,-0.01759 0.23465,-0.01776 0.23465,-0.01793 0.23468,-0.01809 0.23468,-0.01826 0.23468,-0.01842 0.23465,-0.01857 0.23465,-0.01871 0.23468,-0.01887 0.23468,-0.01901 0.23465,-0.01915 0.23468,-0.01929 0.23465,-0.01942 0.23468,-0.01956 0.23468,-0.01968 0.23465,-0.01981 0.23468,-0.01993 0.23465,-0.02004 0.23468,-0.02016 0.23465,-0.02028 0.23468,-0.02038 0.23465,-0.02048 0.23468,-0.02058 0.23465,-0.0207 0.23468,-0.02078 0.23468,-0.02087 0.23465,-0.02096 0.23465,-0.02105 0.23468,-0.02114 0.23468,-0.02123 0.23468,-0.0213 0.23465,-0.02137 0.23465,-0.02145 0.23468,-0.02151 0.23468,-0.02158 0.23465,-0.02165 0.23468,-0.02171 0.23465,-0.02177 0.23468,-0.02182 0.23468,-0.02188 0.23465,-0.02193 0.23464,-0.02197 0.23469,-0.02203 0.23468,-0.02206 0.23464,-0.02211 0.23469,-0.02213 0.23464,-0.02219 0.23468,-0.02221 0.23465,-0.02223 0.23468,-0.02226 0.23468,-0.02229 0.23465,-0.02231 0.23465,-0.02234 0.23468,-0.02235 0.23468,-0.02235 0.23468,-0.02238 0.23465,-0.02239 0.23465,-0.02239 0.23468,-0.02239 0.23468,-0.0224 0.23465,-0.02241 0.23465,-0.02239 0.23468,-0.0224 0.23468,-0.02239 0.23468,-0.02238 0.23465,-0.02238 0.23465,-0.02236 0.23468,-0.02235 0.23468,-0.02234 0.23465,-0.02231 0.23468,-0.02229 0.23465,-0.02227 0.23468,-0.02225 0.23465,-0.02222 0.23468,-0.02219 0.23468,-0.02216 0.23465,-0.02214 0.23465,-0.02209 0.23468,-0.02206 0.23468,-0.02203 0.23465,-0.02197 0.23465,-0.02194 0.23468,-0.0219 0.23468,-0.02186 0.23468,-0.02181 0.23465,-0.02176 0.23465,-0.02171 0.23468,-0.02165 0.23468,-0.02161 0.23468,-0.02155 0.23465,-0.02149 0.23465,-0.02143 0.23468,-0.02138 0.23468,-0.02131 0.23465,-0.02125 0.23468,-0.02119 0.23465,-0.02111 0.23468,-0.02106 0.23465,-0.02099 0.23468,-0.02091 0.23465,-0.02084 0.23468,-0.02077 0.23465,-0.0207 0.23468,-0.02062 0.23468,-0.02055 0.23465,-0.02047 0.23465,-0.02039 0.23468,-0.0203 0.23468,-0.02023 0.23468,-0.02015 0.23465,-0.02006 0.23465,-0.01997 0.23468,-0.01989 0.23468,-0.0198 0.23468,-0.01971 0.23465,-0.01963 0.23465,-0.01953 0.23468,-0.01943 0.23468,-0.01935 0.23465,-0.01926 0.23465,-0.01915 0.23468,-0.01907 0.23468,-0.01897 0.23465,-0.01887 0.23468,-0.01877 0.23465,-0.01867 0.23468,-0.01858 0.23465,-0.01846 0.23468,-0.01836 0.23468,-0.01826 0.23465,-0.01817 0.23465,-0.01806 0.23468,-0.01795 0.23468,-0.01784 0.23468,-0.01774 0.23465,-0.01764 0.23465,-0.01752 0.23468,-0.01742 0.23468,-0.01731 0.23465,-0.0172 0.23465,-0.01708 0.23468,-0.01698 0.23468,-0.01685 0.23468,-0.01675 0.23465,-0.01664 0.23465,-0.01653 0.23468,-0.01641 0.23468,-0.0163 0.23465,-0.01618 0.23468,-0.01607 0.23465,-0.01595 0.23468,-0.01584 0.23465,-0.01572 0.23468,-0.0156 0.23468,-0.01548 0.23465,-0.01537 0.23465,-0.01525 0.23468,-0.01513 0.23468,-0.01502 0.23465,-0.01489 0.23465,-0.01477 0.23468,-0.01466 0.23468,-0.01453 0.23468,-0.01441 0.23465,-0.01429 0.23465,-0.01417 0.23468,-0.01405 0.23468,-0.01393 0.23468,-0.0138 0.23465,-0.01369 0.23465,-0.01356 0.23468,-0.01344 0.23468,-0.01333 0.23465,-0.01319 0.23468,-0.01308 0.23465,-0.01296 0.23468,-0.01283 0.23465,-0.01271 0.23468,-0.01259 0.23465,-0.01247 0.23468,-0.01234 0.23465,-0.01223 0.23468,-0.01211 0.23468,-0.01197 0.23465,-0.01185 0.23465,-0.01173 0.23468,-0.0116 0.23468,-0.01149 0.23468,-0.01137 0.23465,-0.01124 0.23465,-0.01113 0.23468,-0.01099 0.23468,-0.01087 0.23468,-0.01076 0.23465,-0.01063 0.23465,-0.01052 0.23468,-0.01039 0.23468,-0.01028 0.23465,-0.01014 0.23465,-0.01004 0.23468,-0.0099 0.23468,-0.0098 0.23465,-0.0097 0.23468,-0.0095 0.23465,-0.0094 0.23468,-0.0093 0.23465,-0.0092 0.23468,-0.0091 0.23468,-0.009 0.23465,-0.0088 0.23465,-0.0087 0.23468,-0.0086 0.23468,-0.0085 0.23468,-0.0084 0.23465,-0.0083 0.23465,-0.0081 0.23468,-0.008 0.23468,-0.0079 0.23465,-0.0078 0.23465,-0.0077 0.23468,-0.0076 0.23468,-0.0074 0.23468,-0.0073 0.23465,-0.0072 0.23465,-0.0071 0.23468,-0.007 0.23468,-0.0069 0.23465,-0.0068 0.23468,-0.0067 0.23464,-0.0065 0.23469,-0.0064 0.23464,-0.0063 0.23468,-0.0062 0.23469,-0.0061 0.23464,-0.006 0.23465,-0.0059 0.23468,-0.0058 0.23468,-0.0057 0.23465,-0.0056 0.23468,-0.0055 0.23465,-0.0054 0.23468,-0.0052 0.23468,-0.0052 0.23465,-0.005 0.23465,-0.0049 0.23468,-0.0048 0.23468,-0.0047 0.23468,-0.0046 0.23465,-0.0045 0.23465,-0.0044 0.23468,-0.0043 0.23468,-0.0042 0.23465,-0.0041 0.23468,-0.0041 0.23465,-0.0039 0.23468,-0.0038 0.23465,-0.0038 0.23468,-0.0036 0.23465,-0.0036 0.23468,-0.0035 0.23465,-0.0034 0.23468,-0.0033 0.23468,-0.0032 0.23465,-0.0031 0.23468,-0.003 0.23465,-0.0029 0.23468,-0.0028 0.23468,-0.0027 0.23465,-0.0026 0.23465,-0.0026 0.23468,-0.0025 0.23468,-0.0024 0.23468,-0.0023 0.23465,-0.0022 0.23465,-0.0021 0.23468,-0.002 0.23468,-0.0019 0.23465,-0.0019 0.23465,-0.0018 0.23468,-0.0017 0.23468,-0.0016 0.23465,-0.0015 0.23468,-0.0014 0.23465,-0.0014 0.23468,-0.0013 0.23465,-0.0012 0.23468,-0.0011 0.23468,-0.0011 0.23465,-9.99e-4 0.23468,-9.01e-4 0.23465,-8.23e-4 0.23468,-7.71e-4 0.23468,-6.87e-4 0.23465,-6.02e-4 0.23465,-5.5e-4 0.23468,-4.65e-4 0.23468,-4.04e-4 0.23465,-3.29e-4 0.23465,-2.59e-4 0.23468,-1.83e-4 0.23468,-1.07e-4 0.23468,-6.1e-5 0.23465,2.3e-5 0.23465,6.9e-5 0.23468,1.52e-4 0.23468,1.99e-4 0.23465,2.74e-4 0.23468,3.51e-4 0.23465,4.05e-4 0.23468,4.57e-4 0.23465,5.34e-4 0.23468,5.88e-4 0.23468,6.48e-4 0.23465,7.18e-4 0.23468,7.55e-4 0.23465,8.24e-4 0.23468,8.85e-4 0.23465,9.38e-4 0.23468,9.92e-4 0.23465,0.0011 0.23468,0.0011 0.23468,0.0012 0.23465,0.0012 0.23465,0.0013 0.23468,0.0013 0.23468,0.0014 0.23468,0.0014 0.23465,0.0015 0.23465,0.0015 0.23468,0.0016 0.23468,0.0016 0.23465,0.0017 0.23468,0.0017 0.23465,0.0018 0.23468,0.0018 0.23465,0.0019 0.23468,0.0019 0.23465,0.0019 0.23468,0.002 0.23468,0.002 0.23465,0.0021 0.23468,0.0021 0.23465,0.0022 0.23468,0.0022 0.23465,0.0022 0.23468,0.0023 0.23468,0.0023 0.23465,0.0023 0.23465,0.0024 0.23468,0.0024 0.23468,0.0025 0.23468,0.0025 0.23465,0.0025 0.23465,0.0026 0.23468,0.0026 0.23468,0.0026 0.23465,0.0027 0.23465,0.0027 0.23468,0.0027 0.23468,0.0028 0.23465,0.0028 0.23468,0.0028 0.23465,0.0029 0.23468,0.0029 0.23468,0.0029 0.23465,0.0029 0.23468,0.003 0.23465,0.003 0.23468,0.003 0.23465,0.003 0.23468,0.0031 0.23468,0.0031 0.23465,0.0031 0.23465,0.0031 0.23468,0.0032 0.23468,0.0032 0.23465,0.0032 0.23465,0.0032 0.23468,0.0032 0.23468,0.0033 0.23468,0.0033 0.23465,0.0033 0.23465,0.0033 0.23468,0.0033 0.23468,0.0033 0.23465,0.0033 0.23468,0.0034 0.23465,0.0034 0.23468,0.0034 0.23468,0.0034 0.23465,0.0034 0.23468,0.0034 0.23465,0.0035 0.23468,0.0035 0.23465,0.0035 0.23468,0.0035 0.23465,0.0035 0.23468,0.0035 0.23465,0.0035 0.23468,0.0035 0.23468,0.0035 0.23465,0.0036 0.23465,0.0036 0.23468,0.0036 0.23468,0.0036 0.23468,0.0036 0.23465,0.0036 0.23465,0.0036 0.23468,0.0036 0.23468,0.0036 0.23465,0.0036 0.23468,0.0036 0.23465,0.0036 0.23468,0.0036 0.23468,0.0036 0.23465,0.0036 0.23464,0.0036 0.23469,0.0036 0.23468,0.0037 0.23464,0.0036 0.23469,0.0037 0.23464,0.0036 0.23468,0.0037 0.23465,0.0036 0.23468,0.0037 0.23468,0.0037 0.23465,0.0036 0.23465,0.0036 0.23468,0.0037 0.23468,0.0036 0.23468,0.0036 0.23465,0.0036 0.23465,0.0036 0.23468,0.0036 0.23468,0.0036 0.23465,0.0036 0.23465,0.0036 0.23468,0.0036 0.23468,0.0036 0.23468,0.0036 0.23465,0.0036 0.23465,0.0036 0.23468,0.0036 0.23468,0.0036 0.23465,0.0036 0.23468,0.0036 0.23465,0.0036 0.23468,0.0035 0.23465,0.0036 0.23468,0.0035 0.23468,0.0035 0.23465,0.0035 0.23465,0.0035 0.23468,0.0035 0.23468,0.0035 0.23465,0.0035 0.23465,0.0035 0.23468,0.0035 0.23468,0.0035 0.23468,0.0034 0.23465,0.0034 0.23465,0.0034 0.23468,0.0034 0.23468,0.0034 0.23468,0.0034 0.23465,0.0034 0.23465,0.0034 0.23468,0.0033 0.23468,0.0033 0.23465,0.0033 0.23468,0.0033 0.23465,0.0033 0.23468,0.0033 0.23465,0.0033 0.23468,0.0033 0.23465,0.0032 0.23468,0.0032 0.23465,0.0032 0.23468,0.0032 0.23468,0.0032 0.23465,0.0032 0.23465,0.0032 0.23468,0.0031 0.23468,0.0031 0.23468,0.0031 0.23465,0.0031 0.23465,0.0031 0.23468,0.0031 0.23468,0.0031 0.23468,0.003 0.23465,0.003 0.23465,0.003 0.23468,0.003 0.23468,0.003 0.23465,0.0029 0.23465,0.0029 0.23468,0.0029 0.23468,0.0029 0.23465,0.0029 0.23468,0.0029 0.23465,0.0029 0.23468,0.0028 0.23465,0.0028 0.23468,0.0028 0.23468,0.0028 0.23465,0.0028 0.23465,0.0027 0.23468,0.0027 0.23468,0.0027 0.23468,0.0027 0.23465,0.0027 0.23465,0.0026 0.23468,0.0026"
         style="fill:none;stroke:#000000;stroke-width:2.67650294;stroke-linecap:butt;stroke-linejoin:round;stroke-miterlimit:4;stroke-dasharray:none;stroke-opacity:1"
         id="path42"
         inkscape:connector-curvature="0" />
    </g>
  </g>
</svg>
