<?xml version="1.0" encoding="UTF-8" standalone="no"?>
<!-- Created with Inkscape (http://www.inkscape.org/) -->

<svg
   xmlns:ns1="http://wanglongqi.github.io/WriteTeX"
   xmlns:dc="http://purl.org/dc/elements/1.1/"
   xmlns:cc="http://creativecommons.org/ns#"
   xmlns:rdf="http://www.w3.org/1999/02/22-rdf-syntax-ns#"
   xmlns:svg="http://www.w3.org/2000/svg"
   xmlns="http://www.w3.org/2000/svg"
   xmlns:sodipodi="http://sodipodi.sourceforge.net/DTD/sodipodi-0.dtd"
   xmlns:inkscape="http://www.inkscape.org/namespaces/inkscape"
   width="46.272896mm"
   height="65.535011mm"
   viewBox="0 0 46.272896 65.535011"
   version="1.1"
   id="svg1170"
   inkscape:version="0.92.4 (5da689c313, 2019-01-14)"
   sodipodi:docname="sistsegundaordemDesempenhoPlano.svg">
  <defs
     id="defs1164">
    <clipPath
       id="clipPath1007-3"
       clipPathUnits="userSpaceOnUse">
      <path
         inkscape:connector-curvature="0"
         id="path1005-6"
         d="M 60.859,506.326 H 282.421 V 618.278 H 60.859 Z" />
    </clipPath>
  </defs>
  <sodipodi:namedview
     id="base"
     pagecolor="#ffffff"
     bordercolor="#666666"
     borderopacity="1.0"
     inkscape:pageopacity="0.0"
     inkscape:pageshadow="2"
     inkscape:zoom="0.98994949"
     inkscape:cx="31.237649"
     inkscape:cy="12.98057"
     inkscape:document-units="mm"
     inkscape:current-layer="layer1"
     showgrid="false"
     fit-margin-top="0"
     fit-margin-left="0"
     fit-margin-right="0"
     fit-margin-bottom="0"
     inkscape:window-width="1366"
     inkscape:window-height="705"
     inkscape:window-x="-8"
     inkscape:window-y="-8"
     inkscape:window-maximized="1" />
  <metadata
     id="metadata1167">
    <rdf:RDF>
      <cc:Work
         rdf:about="">
        <dc:format>image/svg+xml</dc:format>
        <dc:type
           rdf:resource="http://purl.org/dc/dcmitype/StillImage" />
        <dc:title></dc:title>
      </cc:Work>
    </rdf:RDF>
  </metadata>
  <g
     inkscape:label="Layer 1"
     inkscape:groupmode="layer"
     id="layer1"
     transform="translate(-68.33379,-57.857493)">
    <text
       y="119.55239"
       x="73.397209"
       id="text979"
       style="font-style:italic;font-variant:normal;font-weight:600;font-size:4.43811703px;font-family:MyriadPro;-inkscape-font-specification:MyriadPro-SemiboldIt;writing-mode:lr-tb;fill:#1c1c1b;fill-opacity:1;fill-rule:nonzero;stroke:none;stroke-width:0.48915645">
      <tspan
         style="stroke-width:0.48915645"
         id="tspan977"
         y="119.55239"
         x="73.397209">s</tspan>
    </text>
    <text
       y="120.48663"
       x="75.688339"
       id="text983"
       style="font-variant:normal;font-weight:600;font-size:3.50377917px;font-family:MyriadPro;-inkscape-font-specification:MyriadPro-Semibold;writing-mode:lr-tb;fill:#1c1c1b;fill-opacity:1;fill-rule:nonzero;stroke:none;stroke-width:0.48915645">
      <tspan
         style="stroke-width:0.48915645"
         id="tspan981"
         y="120.48663"
         x="75.688339">2</tspan>
    </text>
    <text
       y="73.302269"
       x="73.397209"
       id="text987"
       style="font-style:italic;font-variant:normal;font-weight:600;font-size:4.43811703px;font-family:MyriadPro;-inkscape-font-specification:MyriadPro-SemiboldIt;writing-mode:lr-tb;fill:#1c1c1b;fill-opacity:1;fill-rule:nonzero;stroke:none;stroke-width:0.48915645">
      <tspan
         style="stroke-width:0.48915645"
         id="tspan985"
         y="73.302269"
         x="73.397209">s</tspan>
    </text>
    <text
       y="74.236496"
       x="75.688339"
       id="text991"
       style="font-variant:normal;font-weight:600;font-size:3.50377917px;font-family:MyriadPro;-inkscape-font-specification:MyriadPro-Semibold;writing-mode:lr-tb;fill:#1c1c1b;fill-opacity:1;fill-rule:nonzero;stroke:none;stroke-width:0.48915645">
      <tspan
         style="stroke-width:0.48915645"
         id="tspan989"
         y="74.236496"
         x="75.688339">1</tspan>
    </text>
    <g
       transform="matrix(0.48915651,0,0,-0.48915651,99.720361,70.005965)"
       id="g993">
      <path
         inkscape:connector-curvature="0"
         id="path995"
         style="fill:none;stroke:#1c1c1b;stroke-width:0.477;stroke-linecap:butt;stroke-linejoin:miter;stroke-miterlimit:4;stroke-dasharray:none;stroke-opacity:1"
         d="M 0,0 V -109.14" />
    </g>
    <g
       transform="matrix(0.48915651,0,0,-0.48915651,100.51231,70.908455)"
       id="g997">
      <path
         inkscape:connector-curvature="0"
         id="path999"
         style="fill:#1c1c1b;fill-opacity:1;fill-rule:nonzero;stroke:none"
         d="M 0,0 -1.619,1.621 -3.239,0 v 1.374 l 1.62,1.62 L 0,1.374" />
    </g>
    <g
       transform="matrix(0.20917149,0,0,-0.48915651,55.603822,371.06515)"
       id="g1001">
      <g
         clip-path="url(#clipPath1007-3)"
         id="g1003">
        <g
           transform="translate(281.272,562.619)"
           id="g1009">
          <path
             inkscape:connector-curvature="0"
             id="path1011"
             style="fill:none;stroke:#1c1c1b;stroke-width:0.477;stroke-linecap:butt;stroke-linejoin:miter;stroke-miterlimit:4;stroke-dasharray:none;stroke-opacity:1"
             d="M 0,0 H -220.413" />
        </g>
      </g>
    </g>
    <g
       transform="matrix(0.48915651,0,0,-0.48915651,113.14166,95.063495)"
       id="g1013">
      <path
         inkscape:connector-curvature="0"
         id="path1015"
         style="fill:#1c1c1b;fill-opacity:1;fill-rule:nonzero;stroke:none"
         d="M 0,0 1.621,-1.62 0,-3.239 H 1.374 L 2.995,-1.62 1.374,0" />
    </g>
    <text
       y="72.536186"
       x="93.752235"
       id="text1019"
       style="font-style:italic;font-variant:normal;font-weight:600;font-size:4.43811703px;font-family:MyriadPro;-inkscape-font-specification:MyriadPro-SemiboldIt;writing-mode:lr-tb;fill:#1c1c1b;fill-opacity:1;fill-rule:nonzero;stroke:none;stroke-width:0.48915645">
      <tspan
         style="stroke-width:0.48915645"
         id="tspan1017"
         y="72.536186"
         x="93.752235">j</tspan>
    </text>
    <text
       y="72.536186"
       x="95.408684"
       id="text1023"
       style="font-variant:normal;font-weight:normal;font-size:4.43811703px;font-family:SymbolMT;-inkscape-font-specification:SymbolMT;writing-mode:lr-tb;fill:#1c1c1b;fill-opacity:1;fill-rule:nonzero;stroke:none;stroke-width:0.48915645">
      <tspan
         style="stroke-width:0.48915645"
         id="tspan1021"
         y="72.536186"
         x="95.408684">ω</tspan>
    </text>
    <text
       y="76.668533"
       x="102.58645"
       id="text1027"
       style="font-style:italic;font-variant:normal;font-weight:600;font-size:4.43811703px;font-family:MyriadPro;-inkscape-font-specification:MyriadPro-SemiboldIt;writing-mode:lr-tb;fill:#1c1c1b;fill-opacity:1;fill-rule:nonzero;stroke:none;stroke-width:0.48915645">
      <tspan
         style="stroke-width:0.48915645"
         id="tspan1025"
         y="76.668533"
         x="102.58645">j</tspan>
    </text>
    <text
       y="76.668533"
       x="104.24287"
       id="text1031"
       style="font-variant:normal;font-weight:normal;font-size:4.43811703px;font-family:SymbolMT;-inkscape-font-specification:SymbolMT;writing-mode:lr-tb;fill:#1c1c1b;fill-opacity:1;fill-rule:nonzero;stroke:none;stroke-width:0.48915645">
      <tspan
         style="stroke-width:0.48915645"
         id="tspan1029"
         y="76.668533"
         x="104.24287">ω</tspan>
    </text>
    <text
       y="77.602959"
       x="107.81628"
       id="text1035"
       style="font-style:italic;font-variant:normal;font-weight:600;font-size:3.50377917px;font-family:MyriadPro;-inkscape-font-specification:MyriadPro-SemiboldIt;writing-mode:lr-tb;fill:#1c1c1b;fill-opacity:1;fill-rule:nonzero;stroke:none;stroke-width:0.48915645">
      <tspan
         style="stroke-width:0.48915645"
         id="tspan1033"
         y="77.602959"
         x="107.81628">d</tspan>
    </text>
    <text
       y="93.174545"
       x="87.263542"
       id="text1041"
       style="font-variant:normal;font-weight:normal;font-size:4.43811703px;font-family:SymbolMT;-inkscape-font-specification:SymbolMT;writing-mode:lr-tb;fill:#1c1c1b;fill-opacity:1;fill-rule:nonzero;stroke:none;stroke-width:0.48915645">
      <tspan
         style="stroke-width:0.48915645"
         id="tspan1037"
         y="93.174545"
         x="87.263542">φ</tspan>
      <tspan
         style="stroke-width:0.48915645"
         id="tspan1039"
         y="86.637299"
         x="82.590157">ω</tspan>
    </text>
    <text
       y="87.569695"
       x="86.165237"
       id="text1045"
       style="font-style:italic;font-variant:normal;font-weight:600;font-size:3.50377917px;font-family:MyriadPro;-inkscape-font-specification:MyriadPro-SemiboldIt;writing-mode:lr-tb;fill:#1c1c1b;fill-opacity:1;fill-rule:nonzero;stroke:none;stroke-width:0.48915645">
      <tspan
         style="stroke-width:0.48915645"
         id="tspan1043"
         y="87.569695"
         x="86.165237">n</tspan>
    </text>
    <text
       y="144.15053"
       x="82.897003"
       id="text1049"
       style="font-variant:normal;font-weight:600;font-size:5.4355607px;font-family:MyriadPro;-inkscape-font-specification:MyriadPro-Semibold;writing-mode:lr-tb;fill:#1c1c1b;fill-opacity:1;fill-rule:nonzero;stroke:none;stroke-width:0.3993946"
       transform="scale(1.2247449,0.81649657)">
      <tspan
         style="stroke-width:0.3993946"
         id="tspan1047"
         y="144.15053"
         x="82.897003">-</tspan>
    </text>
    <text
       y="117.69843"
       x="104.68257"
       id="text1053"
       style="font-style:italic;font-variant:normal;font-weight:600;font-size:4.43811703px;font-family:MyriadPro;-inkscape-font-specification:MyriadPro-SemiboldIt;writing-mode:lr-tb;fill:#1c1c1b;fill-opacity:1;fill-rule:nonzero;stroke:none;stroke-width:0.48915645">
      <tspan
         style="stroke-width:0.48915645"
         id="tspan1051"
         y="117.69843"
         x="104.68257">j</tspan>
    </text>
    <text
       y="117.69843"
       x="106.33947"
       id="text1057"
       style="font-variant:normal;font-weight:normal;font-size:4.43811703px;font-family:SymbolMT;-inkscape-font-specification:SymbolMT;writing-mode:lr-tb;fill:#1c1c1b;fill-opacity:1;fill-rule:nonzero;stroke:none;stroke-width:0.48915645">
      <tspan
         style="stroke-width:0.48915645"
         id="tspan1055"
         y="117.69843"
         x="106.33947">ω</tspan>
    </text>
    <text
       y="118.63264"
       x="109.91362"
       id="text1061"
       style="font-style:italic;font-variant:normal;font-weight:600;font-size:3.50377917px;font-family:MyriadPro;-inkscape-font-specification:MyriadPro-SemiboldIt;writing-mode:lr-tb;fill:#1c1c1b;fill-opacity:1;fill-rule:nonzero;stroke:none;stroke-width:0.48915645">
      <tspan
         style="stroke-width:0.48915645"
         id="tspan1059"
         y="118.63264"
         x="109.91362">d</tspan>
    </text>
    <text
       y="100.11121"
       x="101.19837"
       id="text1065"
       style="font-variant:normal;font-weight:600;font-size:4.43811703px;font-family:MyriadPro;-inkscape-font-specification:MyriadPro-Semibold;writing-mode:lr-tb;fill:#1c1c1b;fill-opacity:1;fill-rule:nonzero;stroke:none;stroke-width:0.48915645">
      <tspan
         style="stroke-width:0.48915645"
         id="tspan1063"
         y="100.11121"
         x="101.19837">0</tspan>
    </text>
    <text
       y="100.11121"
       x="111.79642"
       id="text1069"
       style="font-variant:normal;font-weight:normal;font-size:4.43811703px;font-family:SymbolMT;-inkscape-font-specification:SymbolMT;writing-mode:lr-tb;fill:#1c1c1b;fill-opacity:1;fill-rule:nonzero;stroke:none;stroke-width:0.48915645">
      <tspan
         style="stroke-width:0.48915645"
         id="tspan1067"
         y="100.11121"
         x="111.79642">σ</tspan>
    </text>
    <g
       transform="matrix(0.48915651,0,0,-0.48915651,99.721832,96.527546)"
       id="g1071">
      <path
         inkscape:connector-curvature="0"
         id="path1073"
         style="fill:none;stroke:#1c1c1b;stroke-width:0.477;stroke-linecap:butt;stroke-linejoin:miter;stroke-miterlimit:4;stroke-dasharray:none;stroke-opacity:1"
         d="M 0,0 V 2.708" />
    </g>
    <text
       y="122.61067"
       x="58.306149"
       id="text1077"
       style="font-variant:normal;font-weight:600;font-size:5.4355607px;font-family:MyriadPro;-inkscape-font-specification:MyriadPro-Semibold;writing-mode:lr-tb;fill:#1c1c1b;fill-opacity:1;fill-rule:nonzero;stroke:none;stroke-width:0.3993946"
       transform="scale(1.2247449,0.81649657)">
      <tspan
         style="stroke-width:0.3993946"
         id="tspan1075"
         y="122.61067"
         x="58.306149">-</tspan>
    </text>
    <text
       y="100.11121"
       x="74.565842"
       id="text1081"
       style="font-variant:normal;font-weight:normal;font-size:4.43811703px;font-family:SymbolMT;-inkscape-font-specification:SymbolMT;writing-mode:lr-tb;fill:#1c1c1b;fill-opacity:1;fill-rule:nonzero;stroke:none;stroke-width:0.48915645">
      <tspan
         style="stroke-width:0.48915645"
         id="tspan1079"
         y="100.11121"
         x="74.565842">α</tspan>
    </text>
    <g
       transform="matrix(0.48915651,0,0,-0.48915651,100.38904,95.852504)"
       id="g1083">
      <path
         inkscape:connector-curvature="0"
         id="path1085"
         style="fill:none;stroke:#1c1c1b;stroke-width:0.477;stroke-linecap:butt;stroke-linejoin:miter;stroke-miterlimit:4;stroke-dasharray:none;stroke-opacity:1"
         d="M 0,0 H -2.708" />
      <g
         transform="translate(-2.714)"
         id="g1087">
        <path
           inkscape:connector-curvature="0"
           id="path1089"
           style="fill:none;stroke:#1c1c1b;stroke-width:0.477;stroke-linecap:butt;stroke-linejoin:miter;stroke-miterlimit:4;stroke-dasharray:none;stroke-opacity:1"
           d="M 0,0 H 2.707" />
      </g>
    </g>
    <g
       transform="matrix(0.48915651,0,0,-0.48915651,80.082191,116.94884)"
       id="g1091">
      <path
         inkscape:connector-curvature="0"
         id="path1093"
         style="fill:#ffffff;fill-opacity:1;fill-rule:nonzero;stroke:none"
         d="M 0,0 -2.988,2.988" />
    </g>
    <g
       transform="matrix(0.48915651,0,0,-0.48915651,80.082191,116.94884)"
       id="g1095">
      <path
         inkscape:connector-curvature="0"
         id="path1097"
         style="fill:none;stroke:#ffffff;stroke-width:1.43200004;stroke-linecap:butt;stroke-linejoin:miter;stroke-miterlimit:4;stroke-dasharray:none;stroke-opacity:1"
         d="M 0,0 -2.988,2.988" />
    </g>
    <g
       transform="matrix(0.48915651,0,0,-0.48915651,80.082191,115.48724)"
       id="g1099">
      <path
         inkscape:connector-curvature="0"
         id="path1101"
         style="fill:#ffffff;fill-opacity:1;fill-rule:nonzero;stroke:none"
         d="M 0,0 -2.99,-2.988" />
    </g>
    <g
       transform="matrix(0.48915651,0,0,-0.48915651,80.082191,115.48724)"
       id="g1103">
      <path
         inkscape:connector-curvature="0"
         id="path1105"
         style="fill:none;stroke:#ffffff;stroke-width:1.43200004;stroke-linecap:butt;stroke-linejoin:miter;stroke-miterlimit:4;stroke-dasharray:none;stroke-opacity:1"
         d="M 0,0 -2.99,-2.988" />
    </g>
    <g
       transform="matrix(0.48915651,0,0,-0.48915651,80.082191,116.94884)"
       id="g1107">
      <path
         inkscape:connector-curvature="0"
         id="path1109"
         style="fill:#ffffff;fill-opacity:1;fill-rule:nonzero;stroke:none"
         d="M 0,0 -2.988,2.988" />
    </g>
    <g
       transform="matrix(0.48915651,0,0,-0.48915651,80.082191,116.94884)"
       id="g1111">
      <path
         inkscape:connector-curvature="0"
         id="path1113"
         style="fill:none;stroke:#1c1c1b;stroke-width:0.95499998;stroke-linecap:butt;stroke-linejoin:miter;stroke-miterlimit:4;stroke-dasharray:none;stroke-opacity:1"
         d="M 0,0 -2.988,2.988" />
    </g>
    <g
       transform="matrix(0.48915651,0,0,-0.48915651,80.082191,115.48724)"
       id="g1115">
      <path
         inkscape:connector-curvature="0"
         id="path1117"
         style="fill:#ffffff;fill-opacity:1;fill-rule:nonzero;stroke:none"
         d="M 0,0 -2.99,-2.988" />
    </g>
    <g
       transform="matrix(0.48915651,0,0,-0.48915651,80.082191,115.48724)"
       id="g1119">
      <path
         inkscape:connector-curvature="0"
         id="path1121"
         style="fill:none;stroke:#1c1c1b;stroke-width:0.95499998;stroke-linecap:butt;stroke-linejoin:miter;stroke-miterlimit:4;stroke-dasharray:none;stroke-opacity:1"
         d="M 0,0 -2.99,-2.988" />
    </g>
    <g
       transform="matrix(0.48915651,0,0,-0.48915651,80.082191,76.260315)"
       id="g1123">
      <path
         inkscape:connector-curvature="0"
         id="path1125"
         style="fill:#ffffff;fill-opacity:1;fill-rule:nonzero;stroke:none"
         d="M 0,0 -2.988,2.987" />
    </g>
    <g
       transform="matrix(0.48915651,0,0,-0.48915651,80.082191,76.260315)"
       id="g1127">
      <path
         inkscape:connector-curvature="0"
         id="path1129"
         style="fill:none;stroke:#ffffff;stroke-width:1.43200004;stroke-linecap:butt;stroke-linejoin:miter;stroke-miterlimit:4;stroke-dasharray:none;stroke-opacity:1"
         d="M 0,0 -2.988,2.987" />
    </g>
    <g
       transform="matrix(0.48915651,0,0,-0.48915651,80.082191,74.798715)"
       id="g1131">
      <path
         inkscape:connector-curvature="0"
         id="path1133"
         style="fill:#ffffff;fill-opacity:1;fill-rule:nonzero;stroke:none"
         d="M 0,0 -2.99,-2.988" />
    </g>
    <g
       transform="matrix(0.48915651,0,0,-0.48915651,80.082191,74.798715)"
       id="g1135">
      <path
         inkscape:connector-curvature="0"
         id="path1137"
         style="fill:none;stroke:#ffffff;stroke-width:1.43200004;stroke-linecap:butt;stroke-linejoin:miter;stroke-miterlimit:4;stroke-dasharray:none;stroke-opacity:1"
         d="M 0,0 -2.99,-2.988" />
    </g>
    <g
       transform="matrix(0.48915651,0,0,-0.48915651,80.082191,76.260315)"
       id="g1139">
      <path
         inkscape:connector-curvature="0"
         id="path1141"
         style="fill:#ffffff;fill-opacity:1;fill-rule:nonzero;stroke:none"
         d="M 0,0 -2.988,2.987" />
    </g>
    <g
       transform="matrix(0.48915651,0,0,-0.48915651,80.082191,76.260315)"
       id="g1143">
      <path
         inkscape:connector-curvature="0"
         id="path1145"
         style="fill:none;stroke:#1c1c1b;stroke-width:0.95499998;stroke-linecap:butt;stroke-linejoin:miter;stroke-miterlimit:4;stroke-dasharray:none;stroke-opacity:1"
         d="M 0,0 -2.988,2.987" />
    </g>
    <g
       transform="matrix(0.48915651,0,0,-0.48915651,80.082191,74.798715)"
       id="g1147">
      <path
         inkscape:connector-curvature="0"
         id="path1149"
         style="fill:#ffffff;fill-opacity:1;fill-rule:nonzero;stroke:none"
         d="M 0,0 -2.99,-2.988" />
    </g>
    <g
       transform="matrix(0.48915651,0,0,-0.48915651,80.082191,74.798715)"
       id="g1151">
      <path
         inkscape:connector-curvature="0"
         id="path1153"
         style="fill:none;stroke:#1c1c1b;stroke-width:0.95499998;stroke-linecap:butt;stroke-linejoin:miter;stroke-miterlimit:4;stroke-dasharray:none;stroke-opacity:1"
         d="M 0,0 -2.99,-2.988" />
    </g>
    <path
       inkscape:connector-curvature="0"
       id="path1155"
       style="fill:none;stroke:#1c1c1b;stroke-width:0.23332766;stroke-linecap:butt;stroke-linejoin:miter;stroke-miterlimit:4;stroke-dasharray:0.93424002, 0.93424002;stroke-dashoffset:0;stroke-opacity:1"
       d="M 99.756085,75.514876 H 79.353854 V 116.21514 H 99.756085 M 79.353854,75.514876 99.756085,95.858896 79.353854,116.21514" />
    <g
       transform="matrix(0.48915651,0,0,-0.48915651,91.166492,95.545314)"
       id="g1157">
      <path
         inkscape:connector-curvature="0"
         id="path1159"
         style="fill:none;stroke:#1c1c1b;stroke-width:0.477;stroke-linecap:butt;stroke-linejoin:miter;stroke-miterlimit:4;stroke-dasharray:none;stroke-opacity:1"
         d="M 0,0 C 0.102,4.363 1.796,8.332 4.525,11.348" />
    </g>
    <g
       transform="matrix(0.48915651,0,0,-0.48915651,93.259582,91.296985)"
       id="g1161">
      <path
         inkscape:connector-curvature="0"
         id="path1163"
         style="fill:#1c1c1b;fill-opacity:1;fill-rule:nonzero;stroke:none"
         d="M 0,0 -0.115,2.287 -2.403,2.172 -1.481,3.192 0.806,3.307 0.922,1.02" />
    </g>
    <g
       transform="matrix(0.48915651,0,0,-0.48915651,90.396062,94.273015)"
       id="g1165">
      <path
         inkscape:connector-curvature="0"
         id="path1167"
         style="fill:#1c1c1b;fill-opacity:1;fill-rule:nonzero;stroke:none"
         d="M 0,0 1.58,-1.657 3.237,-0.075 3.205,-1.45 1.548,-3.031 -0.032,-1.374" />
    </g>
    <g
       transform="matrix(0.48915651,0,0,-0.48915651,100.45311,96.596036)"
       id="g1169">
      <path
         inkscape:connector-curvature="0"
         id="path1171"
         style="fill:#ffffff;fill-opacity:1;fill-rule:nonzero;stroke:none"
         d="M 0,0 -2.988,2.988" />
    </g>
    <g
       transform="matrix(0.48915651,0,0,-0.48915651,100.45311,96.596036)"
       id="g1173">
      <path
         inkscape:connector-curvature="0"
         id="path1175"
         style="fill:none;stroke:#ffffff;stroke-width:1.43200004;stroke-linecap:butt;stroke-linejoin:miter;stroke-miterlimit:4;stroke-dasharray:none;stroke-opacity:1"
         d="M 0,0 -2.988,2.988" />
    </g>
    <g
       transform="matrix(0.48915651,0,0,-0.48915651,100.45311,95.133935)"
       id="g1177">
      <path
         inkscape:connector-curvature="0"
         id="path1179"
         style="fill:#ffffff;fill-opacity:1;fill-rule:nonzero;stroke:none"
         d="M 0,0 -2.99,-2.988" />
    </g>
    <g
       transform="matrix(0.48915651,0,0,-0.48915651,100.45311,95.133935)"
       id="g1181">
      <path
         inkscape:connector-curvature="0"
         id="path1183"
         style="fill:none;stroke:#ffffff;stroke-width:1.43200004;stroke-linecap:butt;stroke-linejoin:miter;stroke-miterlimit:4;stroke-dasharray:none;stroke-opacity:1"
         d="M 0,0 -2.99,-2.988" />
    </g>
    <g
       transform="matrix(0.48915651,0,0,-0.48915651,100.45311,96.596036)"
       id="g1185">
      <path
         inkscape:connector-curvature="0"
         id="path1187"
         style="fill:#ffffff;fill-opacity:1;fill-rule:nonzero;stroke:none"
         d="M 0,0 -2.988,2.988" />
    </g>
    <g
       transform="matrix(0.48915651,0,0,-0.48915651,100.45311,96.596036)"
       id="g1189">
      <path
         inkscape:connector-curvature="0"
         id="path1191"
         style="fill:none;stroke:#1c1c1b;stroke-width:0.95499998;stroke-linecap:butt;stroke-linejoin:miter;stroke-miterlimit:4;stroke-dasharray:none;stroke-opacity:1"
         d="M 0,0 -2.988,2.988" />
    </g>
    <g
       transform="matrix(0.48915651,0,0,-0.48915651,100.45311,95.133935)"
       id="g1193">
      <path
         inkscape:connector-curvature="0"
         id="path1195"
         style="fill:#ffffff;fill-opacity:1;fill-rule:nonzero;stroke:none"
         d="M 0,0 -2.99,-2.988" />
    </g>
    <g
       transform="matrix(0.48915651,0,0,-0.48915651,100.45311,95.133935)"
       id="g1197">
      <path
         inkscape:connector-curvature="0"
         id="path1199"
         style="fill:none;stroke:#1c1c1b;stroke-width:0.95499998;stroke-linecap:butt;stroke-linejoin:miter;stroke-miterlimit:4;stroke-dasharray:none;stroke-opacity:1"
         d="M 0,0 -2.99,-2.988" />
    </g>
    <g
       id="g423"
       transform="matrix(0.60126465,0,0,0.60126465,-37.91399,-4.884097)"
       ns1:text="\\( s_{1,2} = - \\alpha \\pm j \\omega_d \\)"
       style="stroke-width:1.66316116">
      <g
         id="surface1"
         style="stroke-width:1.66316116">
        <g
           id="g380"
           style="fill:#000000;fill-opacity:1;stroke-width:1.66316116">
          <path
             id="path378"
             transform="translate(178.585,110.99)"
             d="M 3.890625,-3.734375 C 3.625,-3.71875 3.421875,-3.5 3.421875,-3.28125 c 0,0.140625 0.09375,0.296875 0.3125,0.296875 0.21875,0 0.453125,-0.171875 0.453125,-0.5625 C 4.1875,-4 3.765625,-4.40625 3,-4.40625 c -1.3125,0 -1.6875,1.015625 -1.6875,1.453125 0,0.78125 0.734375,0.921875 1.03125,0.984375 0.515625,0.109375 1.03125,0.21875 1.03125,0.765625 0,0.25 -0.21875,1.09375 -1.421875,1.09375 -0.140625,0 -0.90625,0 -1.140625,-0.53125 0.390625,0.046875 0.640625,-0.25 0.640625,-0.53125 0,-0.21875 -0.171875,-0.34375 -0.375,-0.34375 -0.265625,0 -0.5625,0.203125 -0.5625,0.65625 0,0.5625 0.578125,0.96875 1.421875,0.96875 1.625,0 2.015625,-1.203125 2.015625,-1.65625 0,-0.359375 -0.1875,-0.609375 -0.3125,-0.71875 -0.265625,-0.28125 -0.5625,-0.34375 -1,-0.421875 -0.359375,-0.078125 -0.75,-0.15625 -0.75,-0.609375 C 1.890625,-3.578125 2.125,-4.1875 3,-4.1875 c 0.25,0 0.75,0.078125 0.890625,0.453125 z m 0,0"
             style="stroke:none;stroke-width:1.66316116"
             inkscape:connector-curvature="0" />
        </g>
        <g
           id="g384"
           style="fill:#000000;fill-opacity:1;stroke-width:1.66316116">
          <path
             id="path382"
             transform="translate(183.254,112.485)"
             d="m 2.328125,-4.4375 c 0,-0.1875 0,-0.1875 -0.203125,-0.1875 -0.453125,0.4375 -1.078125,0.4375 -1.359375,0.4375 v 0.25 c 0.15625,0 0.625,0 1,-0.1875 v 3.546875 c 0,0.234375 0,0.328125 -0.6875,0.328125 H 0.8125 V 0 c 0.125,0 0.984375,-0.03125 1.234375,-0.03125 0.21875,0 1.09375,0.03125 1.25,0.03125 V -0.25 H 3.03125 c -0.703125,0 -0.703125,-0.09375 -0.703125,-0.328125 z m 0,0"
             style="stroke:none;stroke-width:1.66316116"
             inkscape:connector-curvature="0" />
        </g>
        <g
           id="g388"
           style="fill:#000000;fill-opacity:1;stroke-width:1.66316116">
          <path
             id="path386"
             transform="translate(187.226,112.485)"
             d="m 1.46875,-0.109375 c 0,0.375 -0.0625,0.828125 -0.546875,1.265625 C 0.90625,1.1875 0.875,1.21875 0.875,1.25 c 0,0.046875 0.0625,0.09375 0.09375,0.09375 0.109375,0 0.703125,-0.5625 0.703125,-1.390625 0,-0.421875 -0.171875,-0.75 -0.5,-0.75 -0.21875,0 -0.390625,0.171875 -0.390625,0.390625 C 0.78125,-0.1875 0.9375,0 1.1875,0 1.359375,0 1.46875,-0.109375 1.46875,-0.109375 Z m 0,0"
             style="stroke:none;stroke-width:1.66316116"
             inkscape:connector-curvature="0" />
        </g>
        <g
           id="g392"
           style="fill:#000000;fill-opacity:1;stroke-width:1.66316116">
          <path
             id="path390"
             transform="translate(189.592,112.485)"
             d="M 3.515625,-1.265625 H 3.28125 c -0.015625,0.15625 -0.09375,0.5625 -0.1875,0.625 C 3.046875,-0.59375 2.515625,-0.59375 2.40625,-0.59375 H 1.125 c 0.734375,-0.640625 0.984375,-0.84375 1.390625,-1.171875 0.515625,-0.40625 1,-0.84375 1,-1.5 0,-0.84375 -0.734375,-1.359375 -1.625,-1.359375 -0.859375,0 -1.453125,0.609375 -1.453125,1.25 0,0.34375 0.296875,0.390625 0.375,0.390625 0.15625,0 0.359375,-0.125 0.359375,-0.375 0,-0.125 -0.046875,-0.375 -0.40625,-0.375 C 0.984375,-4.21875 1.453125,-4.375 1.78125,-4.375 c 0.703125,0 1.0625,0.546875 1.0625,1.109375 0,0.609375 -0.4375,1.078125 -0.65625,1.328125 L 0.515625,-0.265625 C 0.4375,-0.203125 0.4375,-0.1875 0.4375,0 h 2.875 z m 0,0"
             style="stroke:none;stroke-width:1.66316116"
             inkscape:connector-curvature="0" />
        </g>
        <g
           id="g396"
           style="fill:#000000;fill-opacity:1;stroke-width:1.66316116">
          <path
             id="path394"
             transform="translate(196.829,110.99)"
             d="m 6.84375,-3.265625 c 0.15625,0 0.34375,0 0.34375,-0.1875 C 7.1875,-3.65625 7,-3.65625 6.859375,-3.65625 h -5.96875 c -0.140625,0 -0.328125,0 -0.328125,0.203125 0,0.1875 0.1875,0.1875 0.328125,0.1875 z m 0.015625,1.9375 c 0.140625,0 0.328125,0 0.328125,-0.203125 0,-0.1875 -0.1875,-0.1875 -0.34375,-0.1875 H 0.890625 c -0.140625,0 -0.328125,0 -0.328125,0.1875 0,0.203125 0.1875,0.203125 0.328125,0.203125 z m 0,0"
             style="stroke:none;stroke-width:1.66316116"
             inkscape:connector-curvature="0" />
        </g>
        <g
           id="g400"
           style="fill:#000000;fill-opacity:1;stroke-width:1.66316116">
          <path
             id="path398"
             transform="translate(207.345,110.99)"
             d="m 6.5625,-2.296875 c 0.171875,0 0.359375,0 0.359375,-0.203125 0,-0.1875 -0.1875,-0.1875 -0.359375,-0.1875 H 1.171875 c -0.171875,0 -0.34375,0 -0.34375,0.1875 0,0.203125 0.171875,0.203125 0.34375,0.203125 z m 0,0"
             style="stroke:none;stroke-width:1.66316116"
             inkscape:connector-curvature="0" />
        </g>
        <g
           id="g404"
           style="fill:#000000;fill-opacity:1;stroke-width:1.66316116">
          <path
             id="path402"
             transform="translate(215.093,110.99)"
             d="m 4.75,-2.359375 c 0,-1.5625 -0.921875,-2.046875 -1.65625,-2.046875 -1.375,0 -2.6875,1.421875 -2.6875,2.828125 0,0.9375 0.59375,1.6875 1.625,1.6875 0.625,0 1.34375,-0.234375 2.09375,-0.84375 0.125,0.53125 0.453125,0.84375 0.90625,0.84375 0.53125,0 0.84375,-0.546875 0.84375,-0.703125 0,-0.078125 -0.0625,-0.109375 -0.125,-0.109375 -0.0625,0 -0.09375,0.03125 -0.125,0.109375 -0.1875,0.484375 -0.546875,0.484375 -0.5625,0.484375 -0.3125,0 -0.3125,-0.78125 -0.3125,-1.015625 0,-0.203125 0,-0.234375 0.109375,-0.34375 C 5.796875,-2.65625 6,-3.8125 6,-3.8125 6,-3.84375 5.984375,-3.921875 5.875,-3.921875 c -0.09375,0 -0.09375,0.03125 -0.140625,0.21875 -0.1875,0.625 -0.515625,1.375 -0.984375,1.96875 z m -0.65625,1.375 c -0.890625,0.765625 -1.65625,0.875 -2.046875,0.875 -0.59375,0 -0.90625,-0.453125 -0.90625,-1.09375 0,-0.484375 0.265625,-1.5625 0.578125,-2.0625 C 2.1875,-4 2.734375,-4.1875 3.078125,-4.1875 c 0.984375,0 0.984375,1.3125 0.984375,2.078125 0,0.375 0,0.953125 0.03125,1.125 z m 0,0"
             style="stroke:none;stroke-width:1.66316116"
             inkscape:connector-curvature="0" />
        </g>
        <g
           id="g408"
           style="fill:#000000;fill-opacity:1;stroke-width:1.66316116">
          <path
             id="path406"
             transform="translate(223.717,110.99)"
             d="M 4.078125,-3.125 H 6.84375 c 0.171875,0 0.359375,0 0.359375,-0.1875 0,-0.203125 -0.1875,-0.203125 -0.359375,-0.203125 H 4.078125 v -2.75 c 0,-0.171875 0,-0.375 -0.203125,-0.375 -0.203125,0 -0.203125,0.1875 -0.203125,0.34375 v 2.78125 h -2.78125 c -0.15625,0 -0.34375,0 -0.34375,0.203125 0,0.1875 0.1875,0.1875 0.34375,0.1875 h 2.78125 v 2.71875 h -2.78125 c -0.15625,0 -0.34375,0 -0.34375,0.203125 C 0.546875,0 0.734375,0 0.890625,0 H 6.84375 c 0.171875,0 0.359375,0 0.359375,-0.203125 0,-0.203125 -0.1875,-0.203125 -0.359375,-0.203125 H 4.078125 Z m 0,0"
             style="stroke:none;stroke-width:1.66316116"
             inkscape:connector-curvature="0" />
        </g>
        <g
           id="g412"
           style="fill:#000000;fill-opacity:1;stroke-width:1.66316116">
          <path
             id="path410"
             transform="translate(233.68,110.99)"
             d="m 3.953125,-6.234375 c 0,-0.1875 -0.140625,-0.359375 -0.375,-0.359375 -0.234375,0 -0.53125,0.234375 -0.53125,0.53125 0,0.203125 0.140625,0.359375 0.375,0.359375 0.265625,0 0.53125,-0.265625 0.53125,-0.53125 z m -2,6.734375 c -0.1875,0.75 -0.671875,1.328125 -1.21875,1.328125 -0.0625,0 -0.21875,0 -0.390625,-0.09375 0.296875,-0.0625 0.4375,-0.328125 0.4375,-0.53125 0,-0.15625 -0.109375,-0.34375 -0.375,-0.34375 -0.25,0 -0.53125,0.203125 -0.53125,0.5625 0,0.40625 0.390625,0.625 0.875,0.625 0.703125,0 1.625,-0.53125 1.875,-1.515625 L 3.53125,-3.125 c 0.0625,-0.1875 0.0625,-0.328125 0.0625,-0.359375 0,-0.578125 -0.421875,-0.921875 -0.921875,-0.921875 -1.015625,0 -1.578125,1.453125 -1.578125,1.53125 0,0.109375 0.09375,0.109375 0.109375,0.109375 0.09375,0 0.109375,-0.015625 0.1875,-0.203125 0.25,-0.609375 0.703125,-1.21875 1.25,-1.21875 0.140625,0 0.3125,0.046875 0.3125,0.453125 0,0.234375 -0.015625,0.34375 -0.0625,0.515625 z m 0,0"
             style="stroke:none;stroke-width:1.66316116"
             inkscape:connector-curvature="0" />
        </g>
        <g
           id="g416"
           style="fill:#000000;fill-opacity:1;stroke-width:1.66316116">
          <path
             id="path414"
             transform="translate(238.35047,110.99)"
             d="m 6.03125,-3.703125 c 0,-0.453125 -0.171875,-0.703125 -0.40625,-0.703125 -0.25,0 -0.515625,0.234375 -0.515625,0.46875 0,0.09375 0.046875,0.203125 0.140625,0.296875 0.171875,0.15625 0.359375,0.421875 0.359375,0.84375 0,0.390625 -0.203125,0.96875 -0.5,1.421875 C 4.8125,-0.953125 4.4375,-0.609375 3.96875,-0.609375 3.40625,-0.609375 3.09375,-0.96875 3,-1.5 c 0.109375,-0.265625 0.34375,-0.90625 0.34375,-1.1875 0,-0.109375 -0.046875,-0.21875 -0.1875,-0.21875 -0.078125,0 -0.1875,0.03125 -0.265625,0.171875 C 2.78125,-2.53125 2.65625,-1.890625 2.65625,-1.53125 2.328125,-1.0625 1.9375,-0.609375 1.3125,-0.609375 c -0.671875,0 -0.875,-0.59375 -0.875,-1.140625 0,-1.25 1.015625,-2.296875 1.015625,-2.421875 0,-0.109375 -0.078125,-0.1875 -0.1875,-0.1875 -0.125,0 -0.203125,0.125 -0.265625,0.21875 -0.5,0.734375 -0.875,1.921875 -0.875,2.828125 0,0.6875 0.21875,1.421875 1.046875,1.421875 0.703125,0 1.171875,-0.5 1.53125,-1.046875 0.09375,0.578125 0.484375,1.046875 1.09375,1.046875 0.78125,0 1.25,-0.609375 1.609375,-1.359375 0.25,-0.484375 0.625,-1.84375 0.625,-2.453125 z m 0,0"
             style="stroke:none;stroke-width:1.66316116"
             inkscape:connector-curvature="0" />
        </g>
        <g
           id="g420"
           style="fill:#000000;fill-opacity:1;stroke-width:1.66316116">
          <path
             id="path418"
             transform="translate(244.554,112.485)"
             d="M 3.984375,-4.625 C 3.984375,-4.640625 4,-4.734375 4,-4.734375 4,-4.78125 3.984375,-4.84375 3.890625,-4.84375 3.75,-4.84375 3.171875,-4.78125 3,-4.765625 c -0.046875,0 -0.15625,0.015625 -0.15625,0.15625 0,0.09375 0.109375,0.09375 0.1875,0.09375 0.328125,0 0.328125,0.0625 0.328125,0.109375 0,0.046875 0,0.09375 -0.015625,0.15625 L 2.9375,-2.65625 c -0.140625,-0.234375 -0.375,-0.421875 -0.71875,-0.421875 -0.890625,0 -1.796875,0.984375 -1.796875,1.984375 0,0.6875 0.453125,1.15625 1.0625,1.15625 0.375,0 0.703125,-0.203125 0.984375,-0.484375 C 2.59375,0 3,0.0625 3.1875,0.0625 c 0.25,0 0.421875,-0.140625 0.546875,-0.359375 0.15625,-0.28125 0.25,-0.671875 0.25,-0.703125 0,-0.09375 -0.09375,-0.09375 -0.109375,-0.09375 -0.109375,0 -0.109375,0.03125 -0.15625,0.21875 C 3.625,-0.53125 3.5,-0.125 3.203125,-0.125 3.03125,-0.125 2.96875,-0.28125 2.96875,-0.46875 c 0,-0.125 0.015625,-0.1875 0.046875,-0.28125 z M 2.5,-0.875 C 2.453125,-0.671875 2.296875,-0.53125 2.140625,-0.40625 2.078125,-0.34375 1.796875,-0.125 1.5,-0.125 c -0.265625,0 -0.515625,-0.1875 -0.515625,-0.671875 0,-0.375 0.203125,-1.140625 0.375,-1.421875 0.3125,-0.5625 0.671875,-0.65625 0.859375,-0.65625 0.484375,0 0.625,0.53125 0.625,0.609375 0,0.015625 -0.015625,0.078125 -0.015625,0.09375 z m 0,0"
             style="stroke:none;stroke-width:1.66316116"
             inkscape:connector-curvature="0" />
        </g>
      </g>
    </g>
  </g>
</svg>
