<?xml version="1.0" encoding="UTF-8" standalone="no"?>
<!-- Created with Inkscape (http://www.inkscape.org/) -->

<svg
   xmlns:dc="http://purl.org/dc/elements/1.1/"
   xmlns:cc="http://creativecommons.org/ns#"
   xmlns:rdf="http://www.w3.org/1999/02/22-rdf-syntax-ns#"
   xmlns:svg="http://www.w3.org/2000/svg"
   xmlns="http://www.w3.org/2000/svg"
   xmlns:sodipodi="http://sodipodi.sourceforge.net/DTD/sodipodi-0.dtd"
   xmlns:inkscape="http://www.inkscape.org/namespaces/inkscape"
   width="110.80129mm"
   height="69.307823mm"
   viewBox="0 0 110.8013 69.307823"
   version="1.1"
   id="svg3999"
   inkscape:version="0.92.4 (5da689c313, 2019-01-14)"
   sodipodi:docname="sistsegundaordemDesempenho.svg">
  <defs
     id="defs3993">
    <clipPath
       id="clipPath1007"
       clipPathUnits="userSpaceOnUse">
      <path
         inkscape:connector-curvature="0"
         id="path1005"
         d="M 60.859,506.326 H 282.421 V 618.278 H 60.859 Z" />
    </clipPath>
    <clipPath
       id="clipPath1007-3"
       clipPathUnits="userSpaceOnUse">
      <path
         inkscape:connector-curvature="0"
         id="path1005-6"
         d="M 60.859,506.326 H 282.421 V 618.278 H 60.859 Z" />
    </clipPath>
  </defs>
  <sodipodi:namedview
     id="base"
     pagecolor="#ffffff"
     bordercolor="#666666"
     borderopacity="1.0"
     inkscape:pageopacity="0.0"
     inkscape:pageshadow="2"
     inkscape:zoom="1.4"
     inkscape:cx="231.71223"
     inkscape:cy="128.54904"
     inkscape:document-units="mm"
     inkscape:current-layer="layer1"
     showgrid="false"
     fit-margin-top="0"
     fit-margin-left="0"
     fit-margin-right="0"
     fit-margin-bottom="0"
     inkscape:window-width="1366"
     inkscape:window-height="705"
     inkscape:window-x="-8"
     inkscape:window-y="-8"
     inkscape:window-maximized="1" />
  <metadata
     id="metadata3996">
    <rdf:RDF>
      <cc:Work
         rdf:about="">
        <dc:format>image/svg+xml</dc:format>
        <dc:type
           rdf:resource="http://purl.org/dc/dcmitype/StillImage" />
        <dc:title></dc:title>
      </cc:Work>
    </rdf:RDF>
  </metadata>
  <g
     inkscape:label="Layer 1"
     inkscape:groupmode="layer"
     id="layer1"
     transform="translate(-33.312526,-88.397998)">
    <g
       transform="matrix(0.41747928,0,0,-0.41747928,38.222287,91.465636)"
       id="g2822"
       style="stroke-width:0.84501863">
      <path
         inkscape:connector-curvature="0"
         id="path2824"
         style="fill:#000000;fill-opacity:1;fill-rule:nonzero;stroke:none;stroke-width:0.84501863"
         d="M 0,0 C 0.827,0 1.69,-0.32 1.978,-0.565 1.195,0.26 0.329,3.969 0,7.348 -0.33,3.969 -1.196,0.26 -1.979,-0.565 -1.691,-0.32 -0.828,0 0,0" />
    </g>
    <g
       transform="matrix(0.41747928,0,0,-0.41747928,141.04618,138.45543)"
       id="g2826"
       style="stroke-width:0.84501863">
      <path
         inkscape:connector-curvature="0"
         id="path2828"
         style="fill:#000000;fill-opacity:1;fill-rule:nonzero;stroke:none;stroke-width:0.84501863"
         d="M 0,0 C 0,-0.827 -0.32,-1.69 -0.564,-1.978 0.26,-1.195 3.969,-0.329 7.348,0 3.969,0.33 0.26,1.196 -0.564,1.979 -0.32,1.69 0,0.828 0,0" />
    </g>
    <g
       transform="matrix(0.41747928,0,0,-0.41747928,141.72792,138.45543)"
       id="g2830"
       style="stroke-width:0.84501863">
      <path
         inkscape:connector-curvature="0"
         id="path2832"
         style="fill:none;stroke:#000000;stroke-width:0.6760149;stroke-linecap:butt;stroke-linejoin:miter;stroke-miterlimit:4;stroke-dasharray:none;stroke-opacity:1"
         d="M 0,0 H -247.931 V 114.189" />
    </g>
    <g
       transform="matrix(0.41747928,0,0,-0.41747928,132.33464,105.05709)"
       id="g2838"
       style="stroke-width:0.84501863">
      <path
         inkscape:connector-curvature="0"
         id="path2840"
         style="fill:none;stroke:#000000;stroke-width:0.33800745;stroke-linecap:butt;stroke-linejoin:miter;stroke-miterlimit:4;stroke-dasharray:none;stroke-opacity:1"
         d="M 0,0 H -225.431" />
    </g>
    <g
       transform="matrix(0.41747928,0,0,-0.41747928,38.221868,138.45543)"
       id="g2842"
       style="stroke-width:0.84501863">
      <path
         inkscape:connector-curvature="0"
         id="path2844"
         style="fill:none;stroke:#000000;stroke-width:1.3520298;stroke-linecap:butt;stroke-linejoin:miter;stroke-miterlimit:4;stroke-dasharray:none;stroke-opacity:1"
         d="m 0,0 c 13.431,0 24.931,40.556 27.431,49.556 2.5,9 13.5,52 26,52 11,0 25.333,-29 51,-29 23,0 25.662,9.852 56.495,9.852 25.834,0 28.838,-5.852 51.505,-3.519" />
    </g>
    <g
       transform="matrix(0.41747928,0,0,-0.41747928,48.569094,122.08106)"
       id="g2846"
       style="stroke-width:0.84501863">
      <path
         inkscape:connector-curvature="0"
         id="path2848"
         style="fill:none;stroke:#000000;stroke-width:0.33800745;stroke-linecap:butt;stroke-linejoin:miter;stroke-miterlimit:4;stroke-dasharray:none;stroke-opacity:1"
         d="M 0,0 2.9464286,13.905428 M -24.785,-85.333 v 46.111 m 37.097,-16.111 v 16.111 m 16.355,-29.444 v 29.444 m 71.354,-46.111 v 46.111"
         sodipodi:nodetypes="cccccccccc" />
    </g>
    <g
       transform="matrix(0.41747928,0,0,-0.41747928,53.709099,138.45543)"
       id="g2850"
       style="stroke-width:0.84501863">
      <path
         inkscape:connector-curvature="0"
         id="path2852"
         style="fill:none;stroke:#000000;stroke-width:0.33800745;stroke-linecap:butt;stroke-linejoin:miter;stroke-miterlimit:4;stroke-dasharray:2.53505587, 1.26752794;stroke-dashoffset:0;stroke-opacity:1"
         d="M 0,0 V 80 M 16.355,0 V 101.556 M 87.709,0 V 75.847 H 188.334 M 87.709,84.741 h 100.625" />
    </g>
    <g
       transform="matrix(0.41747928,0,0,-0.41747928,57.74487,96.057902)"
       id="g2854"
       style="stroke-width:0.84501863">
      <path
         inkscape:connector-curvature="0"
         id="path2856"
         style="fill:none;stroke:#000000;stroke-width:0.33800745;stroke-linecap:butt;stroke-linejoin:miter;stroke-miterlimit:4;stroke-dasharray:none;stroke-opacity:1"
         d="M 0,0 H -29.958" />
    </g>
    <g
       transform="matrix(0.41747928,0,0,-0.41747928,47.312062,98.627076)"
       id="g2858"
       style="stroke-width:0.84501863">
      <path
         inkscape:connector-curvature="0"
         id="path2860"
         style="fill:#000000;fill-opacity:1;fill-rule:nonzero;stroke:none;stroke-width:0.84501863"
         d="M 0,0 C 0.693,0 1.416,-0.268 1.657,-0.473 1.001,0.217 0.276,3.324 0,6.154 -0.276,3.324 -1.001,0.217 -1.657,-0.473 -1.415,-0.268 -0.693,0 0,0" />
    </g>
    <g
       transform="matrix(0.41747928,0,0,-0.41747928,47.311229,98.627076)"
       id="g2862"
       style="stroke-width:0.84501863">
      <path
         inkscape:connector-curvature="0"
         id="path2864"
         style="fill:none;stroke:#000000;stroke-width:0.33800745;stroke-linecap:butt;stroke-linejoin:miter;stroke-miterlimit:4;stroke-dasharray:none;stroke-opacity:1"
         d="M 0,0 V -9.248" />
    </g>
    <g
       transform="matrix(0.41747928,0,0,-0.41747928,47.312062,102.48793)"
       id="g2866"
       style="stroke-width:0.84501863">
      <path
         inkscape:connector-curvature="0"
         id="path2868"
         style="fill:#000000;fill-opacity:1;fill-rule:nonzero;stroke:none;stroke-width:0.84501863"
         d="M 0,0 C 0.693,0 1.416,0.268 1.657,0.472 1.001,-0.218 0.276,-3.324 0,-6.154 -0.276,-3.324 -1.001,-0.218 -1.657,0.472 -1.415,0.268 -0.693,0 0,0" />
    </g>
    <g
       transform="matrix(0.41747928,0,0,-0.41747928,98.661177,98.131524)"
       id="g2870"
       style="stroke-width:0.84501863">
      <path
         inkscape:connector-curvature="0"
         id="path2872"
         style="fill:none;stroke:#000000;stroke-width:0.33800745;stroke-linecap:butt;stroke-linejoin:miter;stroke-miterlimit:4;stroke-dasharray:none;stroke-opacity:1"
         d="M 0,0 V -5.694" />
    </g>
    <g
       transform="matrix(0.41747928,0,0,-0.41747928,98.662017,109.35963)"
       id="g2874"
       style="stroke-width:0.84501863">
      <path
         inkscape:connector-curvature="0"
         id="path2876"
         style="fill:#000000;fill-opacity:1;fill-rule:nonzero;stroke:none;stroke-width:0.84501863"
         d="M 0,0 C 0.694,0 1.416,-0.268 1.657,-0.473 1.001,0.217 0.276,3.323 0,6.153 -0.276,3.323 -1.001,0.217 -1.657,-0.473 -1.415,-0.268 -0.693,0 0,0" />
    </g>
    <g
       transform="matrix(0.41747928,0,0,-0.41747928,98.661177,109.35963)"
       id="g2878"
       style="stroke-width:0.84501863">
      <path
         inkscape:connector-curvature="0"
         id="path2880"
         style="fill:none;stroke:#000000;stroke-width:0.33800745;stroke-linecap:butt;stroke-linejoin:miter;stroke-miterlimit:4;stroke-dasharray:none;stroke-opacity:1"
         d="M 0,0 V -5.694" />
    </g>
    <g
       transform="matrix(0.41747928,0,0,-0.41747928,98.662017,100.50866)"
       id="g2882"
       style="stroke-width:0.84501863">
      <path
         inkscape:connector-curvature="0"
         id="path2884"
         style="fill:#000000;fill-opacity:1;fill-rule:nonzero;stroke:none;stroke-width:0.84501863"
         d="M 0,0 C 0.694,0 1.416,0.268 1.657,0.473 1.001,-0.218 0.276,-3.323 0,-6.154 -0.276,-3.323 -1.001,-0.218 -1.657,0.473 -1.415,0.268 -0.693,0 0,0" />
    </g>
    <g
       transform="matrix(0.41747928,0,0,-0.41747928,40.791038,144.06719)"
       id="g2926"
       style="stroke-width:0.84501863">
      <path
         inkscape:connector-curvature="0"
         id="path2928"
         style="fill:#000000;fill-opacity:1;fill-rule:nonzero;stroke:none;stroke-width:0.84501863"
         d="M 0,0 C 0,0.693 0.269,1.415 0.473,1.657 -0.217,1.001 -3.324,0.276 -6.154,0 -3.324,-0.277 -0.217,-1.001 0.473,-1.657 0.269,-1.416 0,-0.694 0,0" />
    </g>
    <g
       transform="matrix(0.41747928,0,0,-0.41747928,47.793418,144.06803)"
       id="g2930"
       style="stroke-width:0.84501863">
      <path
         inkscape:connector-curvature="0"
         id="path2932"
         style="fill:none;stroke:#000000;stroke-width:0.33800745;stroke-linecap:butt;stroke-linejoin:miter;stroke-miterlimit:4;stroke-dasharray:none;stroke-opacity:1"
         d="m 0,0 h 8.017 m -24.79,0 h 8.439" />
    </g>
    <g
       transform="matrix(0.41747928,0,0,-0.41747928,51.140348,144.06719)"
       id="g2934"
       style="stroke-width:0.84501863">
      <path
         inkscape:connector-curvature="0"
         id="path2936"
         style="fill:#000000;fill-opacity:1;fill-rule:nonzero;stroke:none;stroke-width:0.84501863"
         d="M 0,0 C 0,0.693 -0.269,1.415 -0.473,1.657 0.217,1.001 3.323,0.276 6.153,0 3.323,-0.277 0.217,-1.001 -0.473,-1.657 -0.269,-1.416 0,-0.694 0,0" />
    </g>
    <g
       transform="matrix(0.41747928,0,0,-0.41747928,40.791038,149.06525)"
       id="g2950"
       style="stroke-width:0.84501863">
      <path
         inkscape:connector-curvature="0"
         id="path2952"
         style="fill:#000000;fill-opacity:1;fill-rule:nonzero;stroke:none;stroke-width:0.84501863"
         d="M 0,0 C 0,0.693 0.269,1.415 0.473,1.656 -0.217,1.001 -3.324,0.276 -6.154,0 -3.324,-0.277 -0.217,-1.001 0.473,-1.657 0.269,-1.416 0,-0.694 0,0" />
    </g>
    <g
       transform="matrix(0.41747928,0,0,-0.41747928,50.924513,149.06608)"
       id="g2954"
       style="stroke-width:0.84501863">
      <path
         inkscape:connector-curvature="0"
         id="path2956"
         style="fill:none;stroke:#000000;stroke-width:0.33800745;stroke-linecap:butt;stroke-linejoin:miter;stroke-miterlimit:4;stroke-dasharray:none;stroke-opacity:1"
         d="M 0,0 H 16.871 M -24.273,0 H -8.334" />
    </g>
    <g
       transform="matrix(0.41747928,0,0,-0.41747928,57.967804,149.06525)"
       id="g2958"
       style="stroke-width:0.84501863">
      <path
         inkscape:connector-curvature="0"
         id="path2960"
         style="fill:#000000;fill-opacity:1;fill-rule:nonzero;stroke:none;stroke-width:0.84501863"
         d="M 0,0 C 0,0.693 -0.269,1.415 -0.473,1.656 0.217,1.001 3.324,0.276 6.154,0 3.324,-0.277 0.217,-1.001 -0.473,-1.657 -0.269,-1.416 0,-0.694 0,0" />
    </g>
    <g
       transform="matrix(0.41747928,0,0,-0.41747928,40.791038,155.34413)"
       id="g2962"
       style="stroke-width:0.84501863">
      <path
         inkscape:connector-curvature="0"
         id="path2964"
         style="fill:#000000;fill-opacity:1;fill-rule:nonzero;stroke:none;stroke-width:0.84501863"
         d="M 0,0 C 0,0.693 0.269,1.415 0.473,1.657 -0.217,1.001 -3.324,0.276 -6.154,0 -3.324,-0.276 -0.217,-1.001 0.473,-1.657 0.269,-1.415 0,-0.693 0,0" />
    </g>
    <g
       transform="matrix(0.41747928,0,0,-0.41747928,64.910068,155.34497)"
       id="g2966"
       style="stroke-width:0.84501863">
      <path
         inkscape:connector-curvature="0"
         id="path2968"
         style="fill:none;stroke:#000000;stroke-width:0.33800745;stroke-linecap:butt;stroke-linejoin:miter;stroke-miterlimit:4;stroke-dasharray:none;stroke-opacity:1"
         d="M 3.0304577,0 H 54.725 M -57.773,0 h 46.833157"
         sodipodi:nodetypes="cccc" />
    </g>
    <g
       transform="matrix(0.41747928,0,0,-0.41747928,87.756624,155.34413)"
       id="g2970"
       style="stroke-width:0.84501863">
      <path
         inkscape:connector-curvature="0"
         id="path2972"
         style="fill:#000000;fill-opacity:1;fill-rule:nonzero;stroke:none;stroke-width:0.84501863"
         d="M 0,0 C 0,0.693 -0.268,1.415 -0.473,1.657 0.218,1.001 3.324,0.276 6.154,0 3.324,-0.276 0.218,-1.001 -0.473,-1.657 -0.268,-1.415 0,-0.693 0,0" />
    </g>
    <text
       y="91.983635"
       x="33.207069"
       id="text2980"
       style="font-style:italic;font-variant:normal;font-size:4.23481131px;font-family:TimesNewRomanPS;-inkscape-font-specification:TimesNewRomanPS-Italic;writing-mode:lr-tb;fill:#000000;fill-opacity:1;fill-rule:nonzero;stroke:none;stroke-width:0.35277778">
      <tspan
         style="stroke-width:0.35277778"
         id="tspan2978"
         y="91.983635"
         x="33.207069">y</tspan>
    </text>
    <text
       y="101.37889"
       x="52.257896"
       id="text3000"
       style="font-variant:normal;font-weight:normal;font-size:2.82222199px;font-family:TimesNewRomanPS;-inkscape-font-specification:TimesNewRomanPS;writing-mode:lr-tb;fill:#000000;fill-opacity:1;fill-rule:nonzero;stroke:none;stroke-width:0.35277775">
      <tspan
         style="stroke-width:0.35277775"
         id="tspan2998"
         sodipodi:role="line"
         x="52.257896"
         y="103.95369" />
    </text>
    <text
       y="101.16535"
       x="41.868835"
       id="text3004"
       style="font-style:italic;font-variant:normal;font-size:3.67355871px;font-family:TimesNewRomanPS;-inkscape-font-specification:TimesNewRomanPS-Italic;writing-mode:lr-tb;fill:#000000;fill-opacity:1;fill-rule:nonzero;stroke:none;stroke-width:0.35277778">
      <tspan
         style="stroke-width:0.35277778"
         id="tspan3002"
         y="101.16535"
         x="41.868835">M</tspan>
    </text>
    <text
       y="101.85231"
       x="44.930748"
       id="text3008"
       style="font-style:italic;font-variant:normal;font-size:2.75516915px;font-family:TimesNewRomanPS;-inkscape-font-specification:TimesNewRomanPS-Italic;writing-mode:lr-tb;fill:#000000;fill-opacity:1;fill-rule:nonzero;stroke:none;stroke-width:0.35277778">
      <tspan
         style="stroke-width:0.35277778"
         id="tspan3006"
         y="101.85231"
         x="44.930748">p</tspan>
    </text>
    <text
       y="143.11075"
       x="140.85287"
       id="text3020"
       style="font-style:italic;font-variant:normal;font-size:4.65201759px;font-family:TimesNewRomanPS;-inkscape-font-specification:TimesNewRomanPS-Italic;writing-mode:lr-tb;fill:#000000;fill-opacity:1;fill-rule:nonzero;stroke:none;stroke-width:0.35277778">
      <tspan
         style="stroke-width:0.35277778"
         id="tspan3018"
         y="143.11075"
         x="140.85287">t</tspan>
    </text>
    <text
       y="144.69852"
       x="44.55481"
       id="text3032"
       style="font-style:italic;font-variant:normal;font-size:3.67388415px;font-family:TimesNewRomanPS;-inkscape-font-specification:TimesNewRomanPS-Italic;writing-mode:lr-tb;fill:#000000;fill-opacity:1;fill-rule:nonzero;stroke:none;stroke-width:0.35277778">
      <tspan
         style="stroke-width:0.35277778"
         id="tspan3030"
         y="144.69852"
         x="44.55481">t</tspan>
    </text>
    <text
       y="145.3869"
       x="46.157322"
       id="text3036"
       style="font-style:italic;font-variant:normal;font-size:2.75541306px;font-family:TimesNewRomanPS;-inkscape-font-specification:TimesNewRomanPS-Italic;writing-mode:lr-tb;fill:#000000;fill-opacity:1;fill-rule:nonzero;stroke:none;stroke-width:0.35277778">
      <tspan
         style="stroke-width:0.35277778"
         id="tspan3034"
         y="145.3869"
         x="46.157322">s</tspan>
    </text>
    <text
       y="149.64886"
       x="47.615738"
       id="text3040"
       style="font-style:italic;font-variant:normal;font-size:3.67437315px;font-family:TimesNewRomanPS;-inkscape-font-specification:TimesNewRomanPS-Italic;writing-mode:lr-tb;fill:#000000;fill-opacity:1;fill-rule:nonzero;stroke:none;stroke-width:0.35277778">
      <tspan
         style="stroke-width:0.35277778"
         id="tspan3038"
         y="149.64886"
         x="47.615738">t</tspan>
    </text>
    <text
       y="150.33781"
       x="49.219383"
       id="text3044"
       style="font-style:italic;font-variant:normal;font-size:2.75577974px;font-family:TimesNewRomanPS;-inkscape-font-specification:TimesNewRomanPS-Italic;writing-mode:lr-tb;fill:#000000;fill-opacity:1;fill-rule:nonzero;stroke:none;stroke-width:0.35277778">
      <tspan
         style="stroke-width:0.35277778"
         id="tspan3042"
         y="150.33781"
         x="49.219383">p</tspan>
    </text>
    <text
       y="155.97452"
       x="61.044399"
       id="text3048"
       style="font-style:italic;font-variant:normal;font-size:3.67399764px;font-family:TimesNewRomanPS;-inkscape-font-specification:TimesNewRomanPS-Italic;writing-mode:lr-tb;fill:#000000;fill-opacity:1;fill-rule:nonzero;stroke:none;stroke-width:0.35277778">
      <tspan
         style="stroke-width:0.35277778"
         id="tspan3046"
         y="155.97452"
         x="61.044399">t</tspan>
    </text>
    <text
       y="156.66338"
       x="62.647881"
       id="text3052"
       style="font-style:italic;font-variant:normal;font-size:2.75549817px;font-family:TimesNewRomanPS;-inkscape-font-specification:TimesNewRomanPS-Italic;writing-mode:lr-tb;fill:#000000;fill-opacity:1;fill-rule:nonzero;stroke:none;stroke-width:0.35277778">
      <tspan
         style="stroke-width:0.35277778"
         id="tspan3050"
         y="156.66338"
         x="62.647881">ac</tspan>
    </text>
  </g>
</svg>
